<?xml version="1.0" encoding="UTF-8" standalone="no"?>
<!-- Created with Inkscape (http://www.inkscape.org/) -->

<svg
   xmlns:dc="http://purl.org/dc/elements/1.1/"
   xmlns:cc="http://creativecommons.org/ns#"
   xmlns:rdf="http://www.w3.org/1999/02/22-rdf-syntax-ns#"
   xmlns:svg="http://www.w3.org/2000/svg"
   xmlns="http://www.w3.org/2000/svg"
   xmlns:inkscape="http://www.inkscape.org/namespaces/inkscape"
   version="1.1"
   width="204.35001"
   height="408.625"
   id="svg2"
   xml:space="preserve"><metadata
     id="metadata8"><rdf:RDF><cc:Work
         rdf:about=""><dc:format>image/svg+xml</dc:format><dc:type
           rdf:resource="http://purl.org/dc/dcmitype/StillImage" /></cc:Work></rdf:RDF></metadata><defs
     id="defs6" /><g
     transform="matrix(1.25,0,0,-1.25,0,408.625)"
     id="g10"><g
       transform="scale(0.1,0.1)"
       id="g12"><path
         d="m 36.25,3232.87 1562.37,0 0,-1562.35 -1562.37,-0.03 0,1562.38 z m 1598.5,36.17 -1634.671875,0 L 0,0 l 1634.63,0 0.12,3269.04"
         inkscape:connector-curvature="0"
         id="path14"
         style="fill:#ed1c24;fill-opacity:1;fill-rule:nonzero;stroke:none" /><path
         d="m 36.8164,1671.05 1561.82,0 0,1561.82 -1561.82,0 0,-1561.82 z"
         inkscape:connector-curvature="0"
         id="path16"
         style="fill:#ffffff;fill-opacity:1;fill-rule:nonzero;stroke:none" /><path
         d="m 694.316,3096.26 c -12.656,-3.74 -54.289,-18.55 -58.586,-52.08 -0.21,-1.72 -0.339,-3.54 -0.339,-5.43 0,-0.94 0.117,-1.94 0.183,-2.91 -5.371,0.15 -10.32,0.31 -13.672,0.43 l -34.187,0.69 -12.332,-2.18 c -14.66,-2.38 -54.25,-8.85 -55.051,-49.52 -0.117,-2.71 -0.586,-13.43 -0.586,-13.43 0,-24.16 4.942,-50.54 13.914,-74.29 2.649,-7.09 6.684,-12.54 9.621,-16.53 0.039,-0.05 1.77,-2.54 2.285,-3.28 5.157,-20.29 13.758,-36.96 24.036,-51.68 -27.747,-3.32 -55.747,-7.85 -83.352,-16.13 l 5.574,1.03 c -15.066,-1.13 -29.5,-9.14 -44.136,-24.49 l -1.348,-1.42 -1.137,-1.61 c -4.89,-6.98 -8.433,-13.8 -10.777,-20.58 -57.031,-16.89 -103.988,-31.33 -142.082,-43.78 C 258.762,2708 191.895,2679.55 189.07,2678.34 l -1.824,-0.79 c 0,0 -0.391,-0.25 -0.508,-0.33 -0.488,-0.19 -0.996,-0.41 -0.996,-0.41 -51.133,-20.82 -61.863,-56.03 -61.863,-81.91 0,-40.65 31.551,-51.94 46.707,-57.36 3.43,-1.22 6.965,-2.49 8.789,-3.52 20.438,-11.18 40.066,-7.32 54.395,-4.5 l 9.699,1.69 c 7.027,0.86 14.754,3.14 22.461,5.56 7.09,-14.86 20.054,-28.59 40.418,-32.52 17.414,-3.4 29.023,-0.19 38.359,3.18 0.527,-5.23 1.594,-10.45 3.738,-15.52 3.606,-8.5 9.614,-16.29 17.075,-22.91 -12.336,-9.65 -29.844,-27.03 -29.844,-48.12 0,-1.9 0.144,-3.81 0.445,-5.77 -0.008,0.02 0.207,-1.44 0.207,-1.44 1.602,-11.26 5.86,-41.18 46.817,-57.96 15.75,-6.46 33.972,-8.28 54.406,-5.66 1.797,-6.17 4.5,-12 8.086,-17.28 -11.274,-5.57 -13.813,-7.49 -15.539,-8.89 l -0.578,-0.47 c -7.508,-6.4 -18.434,-16.42 -26.676,-29.28 -3.43,-5.12 -13.75,-22.33 -13.75,-41.93 0,-3.53 0.34,-7.15 1.109,-10.8 2.617,-12.27 9.652,-22.32 20.332,-29.06 14.895,-9.2 31.153,-10.16 43.703,-8.96 2.039,-13.2 11.719,-28.27 41.641,-37.04 l 1.902,-0.56 c 9.629,-2.93 22.602,-2.42 49.953,-0.1 l 10.996,0.85 c 3.313,0.11 8.868,0.94 15.352,2.1 0.012,-13.44 3.965,-25.39 11.484,-34.29 l 0.539,-0.62 c 16.942,-18.81 42.481,-23.91 52.665,-25.23 11.359,-1.58 25.847,3.26 53.933,14.7 l 6.875,2.74 c 1.367,0.55 4.777,1.55 8.789,2.66 1.086,-1.45 1.86,-2.99 3.203,-4.37 6.059,-6.24 16.899,-13.55 34.114,-12.95 15.703,0.41 42.199,6.31 45.168,6.97 l 1.582,0.36 1.519,0.56 c 32.735,11.79 140.68,50.91 155.094,58.66 l 0.547,0.3 c 11.953,6.04 107.716,36.59 148.616,49.64 l 29.41,9.42 c 43.09,13.56 82.66,44.18 94.06,56.06 l 0.41,0.45 c 9.56,10.42 15.77,24.7 18.5,42.46 0.31,1.89 0.45,3.77 0.45,5.62 0,9.34 -3.63,18.18 -8.5,26.55 22.41,10 44.26,19.76 44.89,20.05 8.04,2.97 28.69,12.2 37.32,31.27 2.01,4.48 2.91,8.85 3.18,13.13 23.91,6.13 50.28,12.89 50.28,12.89 0.02,0 0.82,0.2 0.82,0.2 15.15,3.59 55.39,13.13 92.89,31.71 35.04,16.96 41.78,37.06 41.78,54.01 0,2.3 -0.14,4.53 -0.32,6.7 l -0.13,1.54 -0.12,-1.96 c 0.16,1.26 0.23,2.54 0.23,3.82 0,17.57 -14.55,36.34 -27.89,46.15 -0.21,0.76 -0.37,1.29 -0.37,1.29 -8.45,10.19 -21.09,10.86 -27.17,11.17 l 0.69,-0.04 -7.46,1.21 c -9.63,2.03 -20.12,3.59 -42.54,3.1 -0.53,6.74 -1.58,13.23 -3.67,19.26 -13.28,39.8 -48.42,68.23 -89.44,72.11 -25.68,3.25 -45.58,2.09 -66.99,0.26 18.4,21.5 37.29,45.84 42.25,60.35 4.29,12.25 12.22,68.16 12.61,73.35 l 0.06,0.77 0.1,7.19 c 0,15.42 -1.54,25.9 -2.83,34.33 -0.1,0.86 -1.62,14.69 -1.78,16.06 -1.23,37.07 -7.42,70 -8.67,76.28 l -12.38,61.55 -37.05,-50.47 c -4.85,-6.69 -10.81,-14.69 -13.36,-17.93 -7.39,-5.66 -41.51,-29.28 -67.31,-45.44 -5.78,23.27 -19.57,43.74 -41.44,59.4 l -0.98,0.7 -1.04,0.62 c -27.5,16.07 -57.71,31.01 -92.4,31.48 -34.745,1.19 -67.089,-5.88 -96.152,-21.05 -17.656,-9.54 -30.722,-23.46 -42.246,-35.75 -7.246,-7.69 -13.945,-14.83 -21.074,-20.47 l 1.367,1.02 c -6.289,-4.34 -12.129,-8.95 -17.773,-13.61 -4.356,22.92 -9.438,48.6 -20.746,73.61 -13.723,29.36 -32.051,54.71 -57.715,80.02 -12.473,12.8 -35.344,22.64 -47.898,27.36 l -1.516,0.53 -7.832,2.64 -8.399,-2.47"
         inkscape:connector-curvature="0"
         id="path18"
         style="fill:#ffffff;fill-opacity:1;fill-rule:nonzero;stroke:none" /><path
         d="m 371.777,2427.67 c -1.496,9.32 10.828,22.78 23.504,31.74 13.071,8.95 33.977,18.27 46.684,22.75 12.676,4.13 21.64,7.11 28.726,9.36 41.079,14.18 133.657,46.64 137.383,48.12 4.106,1.9 214.262,70.57 232.184,74.32 17.539,3.73 92.949,37.3 100.82,44.04 5.195,4.48 157.872,22.02 177.672,12.31 19.38,-9.7 -6.34,-76.17 29.13,-66.45 35.04,9.69 144.43,26.88 163.82,-4.47 19.42,-31.37 3.77,-47.05 -10.05,-53.01 -13.44,-5.62 -267.64,-69.06 -267.64,-69.06 0,0 -362.115,-97.81 -375.924,-100.04 -10.82,-1.88 -85.469,-25.03 -113.856,-34.33 -7.835,-2.62 1.122,0.37 -13.792,-4.13 -19.059,-5.56 -15.692,-2.61 -24.286,-1.11 -19.035,3.73 -33.593,16.82 -35.097,34.71 -1.485,17.54 28.008,27.62 25.781,27.62 -2.234,0 -55.625,-27.26 -94.07,-11.59 -28.75,11.59 -29.504,29.51 -30.989,39.22"
         inkscape:connector-curvature="0"
         id="path20"
         style="fill:#ffffff;fill-opacity:1;fill-rule:nonzero;stroke:none" /><path
         d="m 505.129,2331.16 c 0,0 193.367,60.07 214.273,67.95 20.903,7.82 247.848,70.18 263.532,73.52 15.293,3.36 175.076,52.66 193.336,57.5 18.31,4.85 138.91,36.96 138.91,36.96 0,0 38.46,9.3 77.27,11.17 38.82,1.5 39.92,-2.98 54.12,-4.1 14.2,-0.75 5.58,-3.73 10.1,-5.24 4.1,-1.11 21.62,-19.02 20.52,-27.62 -1.15,-8.57 8.56,-23.14 -26.89,-40.29 -35.47,-17.58 -73.93,-26.52 -88.11,-29.88 -14.16,-3.34 -82.89,-21.26 -82.89,-21.26 0,0 16.84,-7.84 11.6,-19.42 -5.21,-11.57 -23.51,-17.91 -23.51,-17.91 l -86.97,-38.85 c 0,0 21.66,-6.33 24.62,-10.81 2.99,-4.49 10.82,-15.68 9.69,-22.75 -1.09,-7.13 -3.73,-19.82 -11.93,-28.77 -8.22,-8.57 -44.05,-36.95 -83.24,-49.29 -39.18,-12.67 -169.107,-53.36 -182.896,-61.21 -13.848,-7.44 -151.586,-57.09 -151.586,-57.09 0,0 -26.484,-5.98 -40.305,-6.35 -21.636,-0.74 -20.156,22.39 -20.156,22.39 0,0 -27.984,-6.73 -35.097,-9.72 -7.079,-2.61 -39.188,-16.79 -47.391,-15.64 -8.594,1.11 -26.145,5.2 -36.582,16.79 -10.086,11.94 -3.352,35.81 0.371,38.45 3.352,2.61 11.184,14.91 11.184,14.91 0,0 -49.258,-11.57 -59.348,-11.93 -9.688,-0.37 -43.672,-4.51 -52.266,-1.88 -8.562,2.63 -28.73,7.1 -25,22.76 3.731,16.08 13.809,28 24.641,32.48 10.816,4.51 -39.199,-13.79 -39.199,-13.79 0,0 -23.887,-8.6 -41.426,2.23 -17.191,10.84 -6.352,35.48 0.359,45.54 6.707,10.45 16.426,19.05 21.653,23.5 5.586,4.51 58.613,27.65 58.613,27.65"
         inkscape:connector-curvature="0"
         id="path22"
         style="fill:#1c63b7;fill-opacity:1;fill-rule:nonzero;stroke:none" /><path
         d="m 199.324,2654.27 c 0,0 68.293,29.1 101.145,39.93 75.398,24.64 168.359,51.52 198.972,60.48 29.106,8.95 119.075,36.21 195.227,59.34 60.488,18.3 112.727,33.98 118.34,35.46 13.055,2.98 274.362,85.13 282.952,75.05 8.6,-9.7 35.49,-33.98 33.99,-69.08 -1.51,-35.45 -66.45,-121.68 -77.66,-127.64 -11.56,-5.63 -204.923,-43.69 -204.923,-43.69 0,0 100.039,39.57 104.492,-1.51 4.141,-41.05 -77.636,-55.61 -81.738,-57.84 -4.101,-2.61 -162.379,-52.26 -281.078,-90.34 -78.789,-25.37 -129.539,-44.79 -134.402,-45.53 -12.676,-1.12 -34.7,-18.3 -56.743,-9.71 -14.918,5.95 -33.953,22.75 -25.378,43.66 8.593,21.31 26.894,25.39 26.894,25.39 0,0 -11.953,-4.08 -37.336,-8.6 -25.39,-4.1 -29.871,-13.78 -50.769,-9.69 -21.27,4.1 -26.895,29.49 -25.774,36.59 1.485,7.08 -29.844,-7.46 -45.164,-9.36 -15.676,-1.85 -32.48,-8.94 -48.152,-0.35 -15.285,8.6 -42.18,8.6 -42.18,38.07 0,45.55 45.93,56.77 49.285,59.37"
         inkscape:connector-curvature="0"
         id="path24"
         style="fill:#ed1c24;fill-opacity:1;fill-rule:nonzero;stroke:none" /><path
         d="m 1135.49,2858.72 c 0,0.02 -2.81,11.7 -2.81,11.7 -2.46,9.58 -5.49,21.47 -5.74,26.55 -2.4,21.25 -13.65,39.21 -33.46,53.38 -24.45,14.31 -50.94,27.56 -79.59,27.93 -30.351,1.11 -58.476,-4.96 -83.632,-18.1 -13.594,-7.35 -24.61,-19.09 -35.293,-30.47 -7.481,-7.96 -15.215,-16.2 -23.906,-23.07 -10.489,-7.24 -20.235,-15.73 -29.649,-23.91 l -16.652,-14.16 c -0.371,-0.1 -2.285,-0.94 -2.871,-0.66 l -0.371,0.66 c -3.403,12.79 -5.903,25.94 -8.325,38.66 -4.402,23.17 -8.945,47.12 -19.363,70.15 -12.297,26.34 -28.992,49.37 -52.558,72.53 -10.567,10.9 -37.469,20.79 -38.602,21.23 l -0.473,0.16 -0.465,-0.13 c -1.542,-0.47 -37.597,-11.25 -40.042,-30.31 -1.227,-9.65 6.339,-19.47 22.523,-29.16 -0.023,0 0.359,-0.32 0.711,-0.59 -4.473,-2.98 -41.453,-1.76 -63.899,-1 l -31.289,0.64 c -0.281,-0.05 -9.785,-1.73 -9.785,-1.73 -15.535,-2.53 -33.164,-5.35 -33.484,-24.38 -0.371,-4.16 -0.559,-8.41 -0.559,-12.81 0,-20.95 4.289,-44.02 12.239,-65.04 1.375,-3.7 3.82,-7.03 6.171,-10.21 2.325,-3.19 4.539,-6.19 5.774,-9.53 7.945,-34.79 28.633,-57.46 50.547,-81.49 0,0 0.254,-0.29 0.359,-0.41 -1.289,-0.11 -2.629,-0.25 -2.629,-0.25 -41.304,-3.87 -84.058,-7.87 -124.59,-20.04 -8.203,-0.63 -17.195,-6.02 -27.144,-16.45 -6.457,-9.2 -9.367,-16.94 -9.367,-24.59 -0.332,-2.22 -0.457,-4.48 -0.457,-6.75 0,-12.82 4.929,-25.96 15.281,-40.73 13.633,-21.46 28.762,-38.79 46.211,-52.95 22.129,-16.68 46.34,-28.3 78.523,-37.62 14.211,-4.39 25.813,3.76 37.071,11.65 5.363,3.76 10.949,7.3 16.73,9.76 -8.367,-15.02 -14.844,-33.49 -14.844,-51.4 0,-13.58 3.653,-26.72 12.989,-37.48 10.468,-11.29 25.476,-16.94 38.718,-21.34 7.844,-1.46 15.305,-1.3 23.203,-1.09 l 14.875,-0.09 c 16.543,1.03 33.672,9.89 43.829,22.57 29.414,43.6 44.218,90.04 44.218,138.36 0,5.59 -0.207,11.21 -0.605,16.82 0.215,0.47 1.648,3.67 1.648,3.67 0,0 0.571,1.21 1.114,2.37 1.875,-1.7 13.429,-12.11 13.429,-12.11 14.418,-11.28 15.082,-12.76 23.207,-30.69 l 16.367,-34.55 c 4.141,-8.1 6.075,-19.86 6.075,-34.16 0,-64.82 -39.922,-181.44 -96.188,-243.75 -12.488,-13.86 -18.648,-23.79 -18.648,-30.12 0,-1.62 0.386,-2.98 1.179,-4.15 6.602,-9.46 37.657,2.49 41.172,3.9 l 0.442,0.16 0.254,0.41 c 0.796,1.25 79.191,125.67 104.328,224.76 4.16,16.32 6.699,34.71 6.699,53.65 0,38.88 -10.703,80.14 -40.273,110.53 -0.333,0.26 -6.094,5.08 -6.094,5.08 -2.422,2.28 -5.196,4.79 -8.399,6.71 0.684,1.38 1.953,4.08 2.637,5.52 14.648,-3.85 28.164,-9.81 41.211,-15.65 15.684,-7.03 30.488,-13.65 47.305,-16.85 5.937,-1.46 10.117,-3.89 14.179,-6.26 6.133,-3.57 11.914,-6.91 22.754,-6.46 l 16.704,1.77 c 7.54,1.12 12.5,1.87 17.69,-0.52 1.88,-0.84 4.42,-0.41 7.76,1.41 14.41,7.85 40.68,40.05 42.87,55.37 0.07,0.86 0.07,1.88 0.07,2.97 0,13.05 -4.9,40.8 -19.66,52.17 -7.37,5.77 -22.6,13.49 -36.04,20.27 -10.68,5.39 -23.671,11.97 -26.034,14.6 39.494,21.44 75.074,4.94 75.434,4.78 37.03,-23.85 49.06,-31.59 53.32,-33.72 0.19,-0.13 0.07,-0.43 0.27,-0.54 0,0 0.18,0.24 0.23,0.29 1.65,-0.78 1.96,-0.57 2.25,-0.18 l 0.84,1.29 -1.7,1.12 c -1.35,0.86 1.39,6.6 3.77,11.66 5.63,11.83 14.08,29.68 10.31,50.44"
         inkscape:connector-curvature="0"
         id="path26"
         style="fill:#00a650;fill-opacity:1;fill-rule:nonzero;stroke:none" /><path
         d="m 1052.84,2788.71 0,0 0,0.019 0,0 0,-0.019 z"
         inkscape:connector-curvature="0"
         id="path28"
         style="fill:#00a650;fill-opacity:1;fill-rule:nonzero;stroke:none" /><path
         d="m 1370.24,2615.19 c -10.14,30.38 -36.54,51.86 -67.32,54.73 -26.57,3.42 -45.86,1.7 -70.3,-0.45 l -16.58,-1.42 c -4.04,0 -22.01,-7.21 -47.01,-17.39 -5.92,-2.42 -11.58,-4.73 -16.39,-6.64 13.67,11.27 35.37,33.91 53.81,55.19 21.25,23.84 45.41,53.7 49.55,65.81 3.09,8.73 10.88,61.27 11.29,66.8 0.04,2.12 0.1,4.11 0.1,6.03 0,13.71 -1.39,22.83 -2.64,30.99 l -1.91,17.29 c -1.14,38.5 -8.21,73.05 -8.26,73.42 l -0.67,3.3 -2.01,-2.74 c -0.12,-0.17 -12.7,-17.54 -15.94,-21.16 -3.3,-3.3 -54.72,-38.95 -83.65,-56.06 -45.72,-27.31 -66.39,-62.68 -73.16,-74.3 l -1.61,-2.73 c -4.25,-6.97 -9.12,-17.78 -13.8,-28.22 -4.4,-9.76 -8.54,-18.99 -11.57,-23.64 -4.27,-6.31 -9.35,-20.34 -13.06,-30.62 -1.64,-4.54 -3.21,-8.84 -3.77,-9.73 -3.01,-3.2 -4.22,-9.79 -5.39,-16.13 -0.65,-3.64 -1.41,-7 -2.45,-9.52 -0.48,0.92 -1.01,2.05 -1.42,3.3 -0.14,0.49 -4.04,13.68 -28.85,59.61 -22.929,42.78 -26.445,42.48 -69.335,38.7 l -16.094,-1.34 c -47.363,-3.47 -82.485,-27.9 -101.321,-41.03 l -8.695,-5.86 c -9.742,-5.99 -28.855,-32.95 -50.933,-64.14 l -24.993,-34.9 3.329,0.33 c 5.863,0.69 11.32,-0.1 17.14,-0.96 6.055,-0.85 12.344,-1.6 19.031,-0.67 -0.371,-1.79 -0.789,-3.62 -0.789,-5.44 0,-9.1 4.754,-18.13 13.535,-25.08 10.958,-10.93 21.524,-17.42 35.215,-21.52 1.719,-0.07 2.727,-2.36 3.653,-4.62 1.047,-2.43 2.121,-4.98 4.148,-6.38 l 0.766,-0.54 1.004,0.49 c 1.711,0.95 2.441,4.93 3.593,43.35 0.204,7.66 0.442,15.57 0.645,16.55 8.266,26.13 28.656,42.76 55.824,45.52 10.059,1.08 38.965,-2.55 43.184,-23.8 0.117,-0.39 5.742,-12.95 9.062,-16.37 0.039,-0.16 9.434,-27.07 9.434,-27.07 5.762,-17.15 10.312,-30.68 20.449,-51.73 1.387,-2.5 1.523,-5.15 1.68,-7.9 l 0.429,-4.41 c 0.469,-2.23 0.684,-4.59 0.684,-7.04 0,-8.51 -2.656,-18.16 -7.617,-27.46 -4.082,-7.07 -12.754,-17.67 -19.141,-19.02 -16.562,-3.14 -20.781,-0.41 -30.937,6.23 l -9.434,5.9 c -6.875,4.02 -13.398,33.5 -15.351,44.51 2.285,22.48 5.527,61.33 1.718,64.4 -2.285,2.05 -6.66,-1.37 -33.183,-26.02 -16.094,-14.94 -36.117,-33.54 -52.641,-46.02 -23.586,-17.62 -35.305,-39.62 -43.879,-55.71 -3.719,-6.98 -6.93,-13.02 -10.074,-16.52 -4.465,-4.76 -2.758,-11.17 -1.125,-17.34 l 1.484,-6.3 c 2.891,-14.75 11.895,-25.85 20.586,-36.59 l 1.758,-2.18 c 5.879,-8.11 23.352,-29.32 23.516,-29.52 0.429,-0.39 29.758,-28.08 53.636,-7.65 33.633,10.88 49.61,21.11 50.235,21.55 11.972,5.92 25.058,11.96 31.504,14.39 -10.84,-10.5 -32.5,-38.89 -40.059,-61.96 -7.539,-23.68 -23.164,-61.54 -27.168,-69.6 l -4.101,-7.98 c -7.891,-15.54 -26.352,-51.93 -31.118,-56.99 -6.015,-6 -8.347,-10.13 -4.238,-16.06 0.859,-1.27 1.836,-1.93 2.981,-2.04 2.019,-0.17 3.726,1.52 5.867,3.63 2.035,2.01 4.554,4.51 7.953,6.12 4.844,2.53 31.308,27.06 59.297,53.02 22.344,20.71 45.429,42.13 52.949,47.93 15.449,12.03 27.148,23.75 41.934,38.57 l 4.14,4.12 c 0,0 38.713,39.36 44.693,45.43 4.78,-3 29.41,-18.06 48.61,-24.16 13.89,-2.73 30.27,-4.82 47.5,0 30.74,9.09 77.32,43.13 111.01,70.06 l 1.96,1.58 -2.27,0.97 c -6.25,2.69 -13.4,0.34 -22.44,-2.61 -11.25,-3.65 -25.27,-8.22 -43.61,-5.12 -26.55,3.89 -36.14,7.68 -43.11,10.47 l -4.82,1.8 c -0.04,0 -2.87,0.9 -2.87,0.9 -17.91,5.55 -36.45,11.36 -47.13,26.88 -0.1,0.27 -0.14,0.54 -0.14,0.86 0,1.23 0.53,3 1.09,4.96 l 1.14,4.66 c 2.44,9.22 9.47,15.49 16.25,21.53 l 6.09,5.67 c 12.56,15.25 24.4,25.08 37.29,31.06 10.7,5.49 27.48,12.35 46.91,14.07 l 11.7,0.11 c 12.73,0.18 24.75,0.36 37.23,-1.62 9.33,-1.23 11.81,-11.11 14.2,-20.66 l 0.62,-2.5 c 0.33,-6.31 -1.02,-14.26 -3.69,-21.5 -2.33,-2.01 -29.88,-4.85 -46.31,-6.57 -22.89,-2.34 -22.91,-2.43 -23.26,-4 l -0.14,-0.59 0.43,-0.63 c 6.45,-9.88 27.76,-14.25 39.88,-15.96 34.05,-4.77 80.43,-1.59 96,11.93 20.39,18.71 35.49,38.88 43.71,58.4 9.45,25.09 11.54,44.45 6.35,59.31"
         inkscape:connector-curvature="0"
         id="path30"
         style="fill:#fddd04;fill-opacity:1;fill-rule:nonzero;stroke:none" /><path
         d="m 496.836,2400.04 c -2.207,-0.06 -55.762,-27.37 -94.043,-11.67 -28.723,11.78 -29.617,29.56 -31.094,39.18 -0.976,6.44 4.199,14.7 11.594,22.16 -11.984,-9.01 -22.707,-21.57 -21.313,-30.63 1.465,-9.59 2.368,-27.39 31.086,-39.16 29.422,-12.05 67.872,1.25 85.079,8.12 8.132,7.84 20.125,12.05 18.691,12"
         inkscape:connector-curvature="0"
         id="path32"
         style="fill:#231f20;fill-opacity:1;fill-rule:nonzero;stroke:none" /><path
         d="m 536.895,2341.08 c -9.832,-2.28 -24.266,-4.48 -30.782,-3.25 -19.011,3.57 -33.515,16.66 -35.05,34.65 -0.411,4.8 1.503,9.01 4.406,12.63 -7.199,-4.68 -14.903,-11.81 -14.121,-21.09 1.511,-17.98 16.035,-31.06 35.047,-34.63 1.203,-0.23 2.16,-0.49 2.98,-0.73 3.535,1.54 5.754,2.5 5.754,2.5 0,0 12.637,3.95 31.766,9.92"
         inkscape:connector-curvature="0"
         id="path34"
         style="fill:#231f20;fill-opacity:1;fill-rule:nonzero;stroke:none" /><path
         d="m 150.957,1929.46 58.965,3.68 c 1.277,-9.56 3.879,-16.85 7.793,-21.87 6.387,-8.12 15.508,-12.18 27.375,-12.18 8.836,0 15.664,2.07 20.445,6.23 4.785,4.14 7.18,8.95 7.18,14.42 0,5.2 -2.277,9.85 -6.836,13.96 -4.563,4.11 -15.149,7.98 -31.738,11.63 -27.188,6.11 -46.563,14.24 -58.157,24.35 -11.668,10.12 -17.507,23.03 -17.507,38.72 0,10.31 2.988,20.03 8.964,29.21 5.965,9.16 14.961,16.37 26.954,21.62 11.992,5.24 28.425,7.87 49.316,7.87 25.637,0 45.176,-4.78 58.625,-14.3 13.453,-9.54 21.465,-24.7 24.012,-45.5 l -58.418,-3.42 c -1.551,9.03 -4.817,15.61 -9.785,19.71 -4.969,4.1 -11.836,6.15 -20.586,6.15 -7.207,0 -12.637,-1.52 -16.282,-4.59 -3.648,-3.04 -5.476,-6.77 -5.476,-11.15 0,-3.18 1.512,-6.05 4.519,-8.61 2.922,-2.64 9.856,-5.11 20.793,-7.39 27.09,-5.84 46.492,-11.74 58.211,-17.71 11.723,-5.98 20.254,-13.4 25.586,-22.23 5.332,-8.85 8.012,-18.75 8.012,-29.69 0,-12.87 -3.567,-24.72 -10.676,-35.57 -7.117,-10.86 -17.058,-19.08 -29.824,-24.7 -12.774,-5.61 -28.867,-8.41 -48.301,-8.41 -34.109,0 -57.734,6.57 -70.859,19.69 -13.133,13.15 -20.574,29.83 -22.305,50.08"
         inkscape:connector-curvature="0"
         id="path36"
         style="fill:#ed1c24;fill-opacity:1;fill-rule:nonzero;stroke:none" /><path
         d="m 468.77,1920.03 52.949,-6.02 c -2.918,-11.04 -7.703,-20.6 -14.364,-28.67 -6.664,-8.07 -15.167,-14.35 -25.519,-18.81 -10.352,-4.47 -23.516,-6.71 -39.473,-6.71 -15.41,0 -28.254,1.44 -38.508,4.31 -10.261,2.87 -19.089,7.52 -26.472,13.94 -7.395,6.43 -13.184,13.96 -17.371,22.62 -4.199,8.65 -6.301,20.15 -6.301,34.45 0,14.94 2.551,27.39 7.668,37.32 3.726,7.28 8.836,13.82 15.32,19.61 6.477,5.79 13.137,10.09 19.973,12.91 10.848,4.47 24.766,6.71 41.726,6.71 23.711,0 41.797,-4.24 54.247,-12.73 12.453,-8.47 21.183,-20.9 26.203,-37.21 l -52.403,-6.99 c -1.64,6.21 -4.629,10.88 -8.965,14.03 -4.335,3.14 -10.144,4.72 -17.441,4.72 -9.211,0 -16.672,-3.3 -22.371,-9.9 -5.695,-6.6 -8.547,-16.59 -8.547,-29.97 0,-11.92 2.82,-21 8.484,-27.18 5.649,-6.2 12.856,-9.29 21.614,-9.29 7.297,0 13.426,1.87 18.398,5.61 4.973,3.74 8.692,9.49 11.153,17.25"
         inkscape:connector-curvature="0"
         id="path38"
         style="fill:#ed1c24;fill-opacity:1;fill-rule:nonzero;stroke:none" /><path
         d="m 596.277,1935.49 c 0,-12.95 2.618,-22.53 7.864,-28.74 5.246,-6.21 11.836,-9.3 19.777,-9.3 8.016,0 14.605,3.05 19.766,9.16 5.156,6.11 7.734,15.93 7.734,29.42 0,12.58 -2.609,21.96 -7.805,28.11 -5.195,6.17 -11.621,9.24 -19.289,9.24 -8.113,0 -14.82,-3.13 -20.113,-9.38 -5.285,-6.24 -7.934,-15.76 -7.934,-28.51 z m -55.816,-0.14 c 0,22.16 7.469,40.42 22.437,54.78 14.954,14.38 35.161,21.56 60.61,21.56 29.09,0 51.07,-8.45 65.933,-25.33 11.954,-13.57 17.93,-30.32 17.93,-50.19 0,-22.35 -7.41,-40.67 -22.234,-54.93 -14.824,-14.28 -35.324,-21.42 -61.492,-21.42 -23.352,0 -42.239,5.93 -56.641,17.78 -17.695,14.69 -26.543,33.94 -26.543,57.75"
         inkscape:connector-curvature="0"
         id="path40"
         style="fill:#ed1c24;fill-opacity:1;fill-rule:nonzero;stroke:none" /><path
         d="m 887.289,1863.1 -51.992,0 0,23.55 c -7.758,-9.67 -15.59,-16.57 -23.473,-20.68 -7.886,-4.09 -17.578,-6.15 -29.07,-6.15 -15.32,0 -27.344,4.58 -36.055,13.75 -8.711,9.17 -13.066,23.28 -13.066,42.34 l 0,92.49 55.957,0 0,-79.91 c 0,-9.11 1.687,-15.59 5.058,-19.41 3.379,-3.84 8.125,-5.75 14.231,-5.75 6.656,0 12.117,2.56 16.355,7.65 4.239,5.12 6.368,14.29 6.368,27.51 l 0,69.91 55.687,0 0,-145.3"
         inkscape:connector-curvature="0"
         id="path42"
         style="fill:#ed1c24;fill-opacity:1;fill-rule:nonzero;stroke:none" /><path
         d="m 988.246,2063.67 0,-55.27 30.644,0 0,-40.77 -30.644,0 0,-51.48 c 0,-6.18 0.586,-10.28 1.777,-12.29 1.817,-3.09 5.02,-4.63 9.571,-4.63 4.106,0 9.846,1.19 17.246,3.54 l 4.1,-38.43 c -13.77,-3.01 -26.639,-4.52 -38.573,-4.52 -13.867,0 -24.082,1.78 -30.644,5.32 -6.582,3.56 -11.426,8.96 -14.59,16.19 -3.125,7.25 -4.707,18.98 -4.707,35.2 l 0,51.1 -20.528,0 0,40.77 20.528,0 0,26.68 55.82,28.59"
         inkscape:connector-curvature="0"
         id="path44"
         style="fill:#ed1c24;fill-opacity:1;fill-rule:nonzero;stroke:none" /><path
         d="m 1047.49,2008.4 55.68,0 0,-145.3 -55.68,0 0,145.3 z m 0,55.27 55.68,0 0,-37.89 -55.68,0 0,37.89"
         inkscape:connector-curvature="0"
         id="path46"
         style="fill:#ed1c24;fill-opacity:1;fill-rule:nonzero;stroke:none" /><path
         d="m 1138.74,2008.4 51.85,0 0,-23.67 c 7.74,9.66 15.59,16.58 23.52,20.74 7.95,4.14 17.61,6.22 29.02,6.22 15.41,0 27.46,-4.59 36.17,-13.76 8.73,-9.16 13.09,-23.32 13.09,-42.48 l 0,-92.35 -55.98,0 0,79.9 c 0,9.13 -1.68,15.58 -5.06,19.36 -3.36,3.79 -8.1,5.68 -14.22,5.68 -6.75,0 -12.22,-2.55 -16.42,-7.66 -4.2,-5.11 -6.29,-14.28 -6.29,-27.49 l 0,-69.79 -55.68,0 0,145.3"
         inkscape:connector-curvature="0"
         id="path48"
         style="fill:#ed1c24;fill-opacity:1;fill-rule:nonzero;stroke:none" /><path
         d="m 1374.32,1937.95 c 0,-10.49 2.25,-18.28 6.7,-23.33 4.47,-5.06 10.35,-7.6 17.66,-7.6 6.93,0 12.75,2.62 17.44,7.88 4.71,5.23 7.05,13.14 7.05,23.73 0,10.58 -2.46,18.67 -7.38,24.28 -4.95,5.61 -10.96,8.42 -18.07,8.42 -7.11,0 -12.79,-2.58 -17.03,-7.74 -4.24,-5.16 -6.37,-13.7 -6.37,-25.64 z m 52.4,70.45 52.13,0 0,-137.22 0.14,-6.43 c 0,-9.12 -1.95,-17.81 -5.82,-26.07 -3.87,-8.25 -9.02,-14.92 -15.45,-20.04 -6.45,-5.11 -14.59,-8.8 -24.49,-11.07 -9.9,-2.29 -21.23,-3.43 -34.01,-3.43 -29.18,0 -49.22,4.38 -60.11,13.13 -10.92,8.76 -16.37,20.49 -16.37,35.16 0,1.83 0.1,4.3 0.27,7.39 l 54.05,-6.15 c 1.36,-5.02 3.47,-8.49 6.3,-10.4 4.11,-2.83 9.24,-4.25 15.45,-4.25 8.03,0 14.03,2.15 17.99,6.44 3.99,4.28 5.96,11.76 5.96,22.44 l 0,22.03 c -5.47,-6.49 -10.94,-11.17 -16.43,-14.1 -8.55,-4.55 -17.83,-6.84 -27.77,-6.84 -19.41,0 -35.1,8.48 -47.05,25.44 -8.5,12.04 -12.74,27.95 -12.74,47.75 0,22.62 5.47,39.86 16.43,51.72 10.94,11.85 25.25,17.79 42.95,17.79 11.31,0 20.64,-1.93 27.99,-5.76 7.34,-3.82 14.2,-10.17 20.58,-19.01 l 0,21.48"
         inkscape:connector-curvature="0"
         id="path50"
         style="fill:#ed1c24;fill-opacity:1;fill-rule:nonzero;stroke:none" /><path
         d="m 952.68,1219.47 c 3.906,-17.08 -6.407,-27.29 -15.508,-37.98 -0.762,2.09 -1.504,4.21 -2.168,6.55 -4.141,11.66 -6.621,29.18 -11.816,44.73 12.48,0.57 25.957,0.74 29.492,-13.3 z M 862.582,951.309 c 0.625,-13.887 1.152,-27.899 1.465,-42.02 -8.692,13.133 -24.883,27.941 -1.465,42.02 z m 616.428,549.011 c -4.92,25.12 -42.55,32.5 -55,29.44 -18.65,-7.58 -42.38,-32.14 -64.81,-37.29 -56.13,-15.31 -119.96,-34.95 -168.88,-54.99 -61.55,-25.77 -118.01,-41.32 -174.79,-66.78 -49.589,-19.55 -96.249,-14.65 -111.952,-41.25 -7.285,-15.72 -4.902,-43.76 -3.984,-65.63 -7.11,3.05 -15.977,3.8 -27.442,0.83 -28.144,-5.97 -6.875,-91.08 -7.832,-106.05 -10.429,-53.07 -6.289,-116.74 -2.851,-184.51 -6.309,6.012 -13.203,12.691 -14.844,19.539 -7.539,29.381 3.105,54.761 3.926,78.541 0.273,9.7 -7.012,11.75 -17.207,10.07 -4.047,22.34 -13.129,51.85 -8.317,76.36 5.063,42.79 -8.851,95.99 -1.961,135.5 2.122,24.31 3.75,44.77 -1.972,66.79 -30.274,-0.76 -15.551,-23.66 -23.571,-43.23 -9.98,-27.06 -16.531,-44.25 -31.414,-64.8 -7.207,-11.36 -17.027,-15.46 -25.539,-29.45 -17.675,-26.1 1.957,-41.65 -1.957,-76.59 -4.039,-20.57 -7.133,-57.9 -9.476,-107.39 -29.828,-11.5 -62.5,-23.36 -90.684,-32.07 -2.691,-0.76 -5.293,-1.58 -7.933,-2.39 -0.504,5.93 -1.102,11.96 -1.883,18.11 -7.211,46.58 -8.032,238.87 -21.61,259.24 -7.695,-7.28 -19.152,-12.19 -23.566,-21.61 -7.863,-11.85 6.871,-44.58 -7.856,-43.19 -15.554,2.69 -14.726,-9.57 -23.562,-13.75 -10.813,-3.2 -23.082,-8.1 -29.465,-19.64 -9.172,-17.92 2.285,-40.83 1.973,-64.8 0.254,-43.52 4.457,-123.068 -0.317,-156.049 -37.488,-17.441 -73.129,-35.801 -111.64,-52.14 -40.746,-17.422 -80.84,-36.25 -119.797,-51.071 -20.785,-10.55 -42.207,-21.179 -68.731,-35.34 -0.339,0.258 7.032,-18.57 7.852,-27.5 -31.918,-13.98 -9.824,-50.82 -1.973,-70.691 -22.586,-18.57 9.336,-33.297 -3.914,-66.789 -3.109,-5.801 -35.843,-28.719 -33.398,-39.262 5.734,-24.617 32.738,-8.269 43.207,-1.976 81.176,32.976 124.543,46.09 196.406,84.457 24.453,12.383 51.692,24.281 79.926,36.043 -0.281,-25.09 -5.703,-58.492 -1.375,-71.403 4.246,-14.48 3.433,-71.738 7.855,-111.949 1.305,-21.191 -11.793,-184.019 11.786,-166.922 5.89,9.071 12.429,18.891 19.636,29.442 9.977,14.82 21.434,29.57 25.531,43.211 13.911,45.269 26.993,55.898 37.317,92.32 0.316,0.418 -1.317,48.687 -3.934,51.059 9.164,-8.098 0.16,68.812 0,80.519 0.137,43.41 5.16,86.359 9.813,97.422 11.344,4.809 22.562,9.629 33.402,14.519 24.809,8.309 48.457,18.961 71.598,30.11 -0.442,-37.77 -0.735,-77.481 -0.895,-118.481 0.809,-24.64 2.449,-71.277 3.93,-111.961 2.605,-21.507 2.605,-48.488 9.82,-60.867 4.239,-9.73 12.426,-8.91 23.555,-9.812 7.695,0.902 12.594,21.363 15.719,41.25 5.062,20.191 8.34,38.203 9.816,47.109 4.254,36.91 15.703,60.66 19.625,119.813 -3.891,42.808 21.047,108.39 6.195,134.89 12.875,5.438 25.84,10.348 38.985,14.348 6.543,2.031 10.918,4.23 13.75,6.551 -0.567,-89.348 7.519,-135.149 7.851,-214.711 -0.332,-28.071 0.489,-43.617 -3.925,-68.739 -3.77,-17.441 -10.313,-41.968 7.851,-49.101 7.188,12.871 8.848,20.211 15.723,35.351 8.652,15.141 16.035,20.879 21.601,39.282 32.891,-10.211 22.246,71.609 27.5,100.16 2.93,15.629 10.293,50.828 7.832,64.808 -7.343,61.29 9.024,103.852 9.844,161.04 -0.82,56.95 11.66,104.48 0.664,168.71 8.028,0.15 16.211,1.74 22.891,4.12 21.997,6.12 54.317,16.52 82.697,27.06 0.8,-61.38 3.46,-118.5 3.73,-188.109 3.75,-69.781 -0.35,-145.063 0,-168.903 -2.79,-52.277 7.83,-93.179 7.85,-151.207 -0.02,-12.359 17.17,-25.449 31.43,-13.742 16.01,12.84 5.39,34.942 7.85,54.992 0.82,14.309 16.35,21.68 21.6,37.289 10.31,23.668 11.11,55.59 11.78,84.469 -0.67,27.582 0.97,53.77 5.9,78.563 6.54,57.027 5.72,126.578 5.87,186.568 -0.11,23.03 12.31,79.37 10.4,116.38 2.3,0.46 4.66,0.93 7.3,1.45 37.77,7.13 126.97,63.58 157.11,82.49 33.71,21.2 52.52,23.65 82.48,49.09 15.06,10.56 -3.77,21.2 1.97,39.27 5.73,18.76 17.17,39.22 21.58,58.92 2.13,14.66 -9.31,17.12 -3.91,33.4 1.96,9.07 30.59,37.73 41.24,41.24"
         inkscape:connector-curvature="0"
         id="path52"
         style="fill:#231f20;fill-opacity:1;fill-rule:nonzero;stroke:none" /><path
         d="m 915.922,1256.23 c 3.906,-17.08 -6.406,-27.29 -15.508,-37.98 -0.762,2.09 -1.504,4.21 -2.168,6.55 -4.141,11.66 -6.621,29.18 -11.816,44.73 12.48,0.56 25.957,0.74 29.492,-13.3 z M 825.82,988.059 c 0.625,-13.879 1.16,-27.887 1.477,-42.008 -8.703,13.129 -24.879,27.937 -1.477,42.008 z m 616.43,549.021 c -4.92,25.11 -42.54,32.5 -55,29.44 -18.65,-7.58 -42.38,-32.14 -64.78,-37.29 -56.16,-15.31 -119.98,-34.96 -168.91,-54.99 -61.54,-25.78 -118.01,-41.32 -174.787,-66.78 -49.589,-19.55 -96.25,-14.65 -111.953,-41.25 -7.285,-15.72 -4.902,-43.77 -3.984,-65.64 -7.109,3.06 -15.977,3.8 -27.441,0.83 -28.149,-5.96 -6.872,-91.07 -7.836,-106.04 -10.426,-53.07 -6.282,-116.75 -2.852,-184.51 -6.301,6.01 -13.203,12.69 -14.844,19.54 -7.527,29.38 3.11,54.75 3.938,78.54 0.265,9.7 -7.008,11.75 -17.215,10.07 -4.047,22.33 -13.129,51.85 -8.316,76.36 5.066,42.79 -8.844,95.98 -1.961,135.5 2.113,24.3 3.75,44.77 -1.973,66.78 -30.273,-0.75 -15.551,-23.65 -23.57,-43.22 -9.981,-27.06 -16.532,-44.25 -31.414,-64.8 -7.207,-11.36 -17.028,-15.46 -25.536,-29.45 -17.679,-26.1 1.961,-41.65 -1.961,-76.59 -4.035,-20.58 -7.132,-57.9 -9.476,-107.39 -29.828,-11.51 -62.5,-23.36 -90.684,-32.07 -2.691,-0.76 -5.293,-1.58 -7.933,-2.39 -0.504,5.92 -1.102,11.96 -1.883,18.11 -7.211,46.58 -8.031,238.87 -21.609,259.24 -7.696,-7.29 -19.153,-12.19 -23.567,-21.61 -7.863,-11.85 6.871,-44.58 -7.855,-43.2 -15.551,2.7 -14.727,-9.57 -23.567,-13.75 -10.808,-3.19 -23.078,-8.1 -29.457,-19.63 -9.176,-17.92 2.281,-40.83 1.969,-64.8 0.254,-43.52 4.457,-123.08 -0.316,-156.05 -37.489,-17.45 -73.129,-35.802 -111.641,-52.142 -40.746,-17.418 -80.84,-36.25 -119.797,-51.078 -20.785,-10.539 -42.199,-21.172 -68.73,-35.332 -0.34,0.262 7.031,-18.566 7.851,-27.5 -31.918,-13.976 -9.824,-50.816 -1.972,-70.687 -22.586,-18.582 9.335,-33.301 -3.915,-66.789 -3.113,-5.801 -35.843,-28.723 -33.398,-39.27 5.734,-24.621 32.738,-8.262 43.207,-1.972 81.176,32.98 124.539,46.082 196.406,84.449 24.453,12.39 51.692,24.293 79.926,36.051 -0.277,-25.09 -5.695,-58.489 -1.375,-71.399 4.246,-14.492 3.434,-71.75 7.856,-111.949 1.304,-21.192 -11.793,-184.024 11.789,-166.922 5.886,9.07 12.425,18.891 19.632,29.441 9.981,14.821 21.442,29.571 25.532,43.207 13.91,45.262 26.996,55.903 37.312,92.321 0.32,0.422 -1.312,48.691 -3.93,51.062 9.165,-8.109 0.165,68.809 0,80.52 0.137,43.398 5.165,86.359 9.813,97.418 11.348,4.801 22.562,9.633 33.402,14.519 24.813,8.313 48.457,18.961 71.598,30.114 -0.441,-37.77 -0.734,-77.481 -0.895,-118.481 0.809,-24.652 2.45,-71.289 3.93,-111.961 2.61,-21.512 2.61,-48.5 9.82,-60.871 4.239,-9.738 12.426,-8.918 23.555,-9.809 7.695,0.891 12.594,21.352 15.719,41.25 5.062,20.192 8.34,38.2 9.816,47.102 4.254,36.918 15.703,60.668 19.629,119.816 -3.894,42.813 21.035,108.391 6.196,134.891 12.875,5.43 25.832,10.34 38.988,14.352 6.531,2.031 10.918,4.23 13.75,6.55 -0.571,-89.359 7.512,-135.16 7.844,-214.722 -0.332,-28.059 0.488,-43.61 -3.918,-68.739 -3.774,-17.429 -10.317,-41.96 7.843,-49.101 7.188,12.871 8.848,20.223 15.723,35.351 8.672,15.149 16.035,20.891 21.602,39.29 32.89,-10.211 22.246,71.609 27.5,100.16 2.929,15.629 10.293,50.832 7.851,64.808 -7.363,61.293 9.004,103.852 9.824,161.043 -0.82,56.949 11.66,104.479 0.664,168.709 8.028,0.14 16.211,1.74 22.891,4.12 21.992,6.12 54.316,16.52 82.695,27.06 0.8,-61.38 3.46,-118.5 3.73,-188.12 3.75,-69.769 -0.35,-145.05 0,-168.89 -2.79,-52.281 7.83,-93.191 7.85,-151.211 -0.02,-12.367 17.17,-25.449 31.43,-13.738 16.01,12.84 5.39,34.937 7.85,54.988 0.82,14.313 16.35,21.68 21.6,37.289 10.31,23.66 11.12,55.594 11.78,84.461 -0.66,27.59 0.98,53.77 5.9,78.571 6.54,57.019 5.72,126.58 5.88,186.57 -0.12,23.03 12.3,79.37 10.39,116.38 2.3,0.46 4.67,0.93 7.3,1.45 37.78,7.13 126.97,63.58 157.11,82.48 33.71,21.2 52.52,23.66 82.48,49.1 15.06,10.56 -3.77,21.2 1.97,39.27 5.73,18.76 17.17,39.21 21.6,58.92 2.12,14.66 -9.33,17.12 -3.92,33.4 1.95,9.07 30.59,37.72 41.23,41.24"
         inkscape:connector-curvature="0"
         id="path54"
         style="fill:#1c63b7;fill-opacity:1;fill-rule:nonzero;stroke:none" /><path
         d="m 522.738,190.289 24.817,0 c 8.379,0 14.285,1.481 17.722,4.461 3.45,2.969 5.168,6.969 5.168,11.98 0,4.649 -1.711,8.391 -5.109,11.231 -3.398,2.828 -9.363,4.238 -17.891,4.238 l -24.707,0 0,-31.91 z m 0,61.883 21.164,0 c 7.598,0 12.879,1.308 15.848,3.918 2.969,2.621 4.453,6.398 4.453,11.34 0,4.582 -1.484,8.16 -4.453,10.742 -2.969,2.578 -8.145,3.867 -15.527,3.867 l -21.485,0 0,-29.867 z m -49.09,61.769 91.094,0 c 15.184,0 26.844,-3.761 34.969,-11.281 8.137,-7.519 12.199,-16.82 12.199,-27.93 0,-9.3 -2.902,-17.289 -8.703,-23.949 -3.867,-4.449 -9.531,-7.949 -16.973,-10.531 11.309,-2.719 19.641,-7.398 24.973,-14.02 5.34,-6.621 8.008,-14.949 8.008,-24.98 0,-8.168 -1.895,-15.5 -5.695,-22.02 -3.797,-6.519 -8.993,-11.671 -15.575,-15.468 -4.082,-2.371 -10.246,-4.09 -18.476,-5.16 -10.957,-1.442 -18.235,-2.153 -21.817,-2.153 l -84.004,0 0,157.492"
         inkscape:connector-curvature="0"
         id="path56"
         style="fill:#ffffff;fill-opacity:1;fill-rule:nonzero;stroke:none" /><path
         d="m 719.555,210.602 c -6.016,-2.153 -12.285,-4.051 -18.797,-5.704 -8.887,-2.359 -14.512,-4.687 -16.875,-6.976 -2.434,-2.371 -3.653,-5.051 -3.653,-8.063 0,-3.437 1.2,-6.25 3.602,-8.429 2.402,-2.18 5.93,-3.282 10.586,-3.282 4.863,0 9.395,1.184 13.586,3.551 4.187,2.36 7.168,5.242 8.914,8.653 1.758,3.398 2.637,7.82 2.637,13.257 l 0,6.993 z M 681.637,233.59 639.84,238 c 1.57,7.301 3.848,13.039 6.824,17.23 2.969,4.192 7.246,7.829 12.832,10.911 4.016,2.218 9.531,3.941 16.543,5.16 7.024,1.219 14.621,1.82 22.785,1.82 13.106,0 23.633,-0.73 31.582,-2.211 7.949,-1.461 14.571,-4.519 19.871,-9.172 3.723,-3.226 6.661,-7.797 8.809,-13.707 2.148,-5.902 3.223,-11.543 3.223,-16.91 l 0,-50.391 c 0,-5.371 0.343,-9.582 1.027,-12.621 0.672,-3.039 2.168,-6.929 4.453,-11.66 l -41.035,0 c -1.652,2.942 -2.727,5.18 -3.223,6.723 -0.508,1.527 -1.008,3.957 -1.504,7.25 -5.734,-5.524 -11.425,-9.461 -17.082,-11.82 -7.734,-3.153 -16.726,-4.731 -26.972,-4.731 -13.602,0 -23.934,3.16 -30.985,9.457 -7.062,6.301 -10.586,14.07 -10.586,23.313 0,8.668 2.539,15.789 7.625,21.371 5.09,5.597 14.473,9.75 28.145,12.476 16.406,3.293 27.043,5.594 31.914,6.922 4.863,1.328 10.019,3.07 15.469,5.211 0,5.379 -1.114,9.129 -3.328,11.277 -2.227,2.153 -6.125,3.231 -11.711,3.231 -7.168,0 -12.539,-1.16 -16.121,-3.438 -2.793,-1.8 -5.04,-5.16 -6.758,-10.101"
         inkscape:connector-curvature="0"
         id="path58"
         style="fill:#ffffff;fill-opacity:1;fill-rule:nonzero;stroke:none" /><path
         d="m 866.305,210.602 c -6.016,-2.153 -12.285,-4.051 -18.801,-5.704 -8.875,-2.359 -14.5,-4.687 -16.863,-6.976 -2.442,-2.371 -3.653,-5.051 -3.653,-8.063 0,-3.437 1.2,-6.25 3.594,-8.429 2.402,-2.18 5.926,-3.282 10.586,-3.282 4.871,0 9.395,1.184 13.594,3.551 4.187,2.36 7.156,5.242 8.914,8.653 1.75,3.398 2.629,7.82 2.629,13.257 l 0,6.993 z M 828.383,233.59 786.586,238 c 1.582,7.301 3.859,13.039 6.828,17.23 2.969,4.192 7.246,7.829 12.84,10.911 4.004,2.218 9.523,3.941 16.543,5.16 7.012,1.219 14.609,1.82 22.773,1.82 13.106,0 23.633,-0.73 31.582,-2.211 7.95,-1.461 14.582,-4.519 19.875,-9.172 3.731,-3.226 6.661,-7.797 8.809,-13.707 2.148,-5.902 3.223,-11.543 3.223,-16.91 l 0,-50.391 c 0,-5.371 0.339,-9.582 1.023,-12.621 0.684,-3.039 2.168,-6.929 4.465,-11.66 l -41.047,0 c -1.648,2.942 -2.723,5.18 -3.223,6.723 -0.496,1.527 -1.004,3.957 -1.504,7.25 -5.73,-5.524 -11.425,-9.461 -17.078,-11.82 -7.734,-3.153 -16.718,-4.731 -26.965,-4.731 -13.613,0 -23.945,3.16 -30.996,9.457 -7.05,6.301 -10.586,14.07 -10.586,23.313 0,8.668 2.551,15.789 7.629,21.371 5.086,5.597 14.473,9.75 28.153,12.476 16.398,3.293 27.031,5.594 31.906,6.922 4.871,1.328 10.027,3.07 15.469,5.211 0,5.379 -1.114,9.129 -3.332,11.277 -2.215,2.153 -6.121,3.231 -11.707,3.231 -7.161,0 -12.539,-1.16 -16.114,-3.438 -2.793,-1.8 -5.05,-5.16 -6.769,-10.101"
         inkscape:connector-curvature="0"
         id="path60"
         style="fill:#ffffff;fill-opacity:1;fill-rule:nonzero;stroke:none" /><path
         d="m 935.707,270.539 40.93,0 0,-18.687 c 3.933,8.097 8.008,13.66 12.195,16.699 4.191,3.051 9.367,4.57 15.518,4.57 6.45,0 13.51,-2 21.17,-6.012 l -13.54,-31.16 c -5.16,2.153 -9.24,3.231 -12.25,3.231 -5.722,0 -10.164,-2.371 -13.32,-7.09 -4.512,-6.66 -6.765,-19.121 -6.765,-37.399 l 0,-38.242 -43.938,0 0,114.09"
         inkscape:connector-curvature="0"
         id="path62"
         style="fill:#ffffff;fill-opacity:1;fill-rule:nonzero;stroke:none" /><path
         d="m 1043.89,270.539 40.71,0 0,-18.578 c 6.09,7.59 12.25,13.019 18.48,16.281 6.23,3.246 13.83,4.879 22.77,4.879 12.11,0 21.59,-3.59 28.42,-10.801 6.85,-7.199 10.27,-18.308 10.27,-33.351 l 0,-72.52 -43.95,0 0,62.75 c 0,7.153 -1.32,12.223 -3.97,15.192 -2.65,2.98 -6.37,4.461 -11.18,4.461 -5.29,0 -9.59,-2.012 -12.89,-6.012 -3.29,-4.008 -4.94,-11.211 -4.94,-21.59 l 0,-54.801 -43.72,0 0,114.09"
         inkscape:connector-curvature="0"
         id="path64"
         style="fill:#ffffff;fill-opacity:1;fill-rule:nonzero;stroke:none" /></g></g></svg>