<?xml version="1.0" encoding="UTF-8" standalone="no"?>
<!-- Created with Inkscape (http://www.inkscape.org/) -->

<svg
   version="1.1"
   width="204.33749"
   height="408.625"
   id="svg2"
   xml:space="preserve"
   sodipodi:docname="hit_zan_logo_v.svg"
   inkscape:version="1.3.2 (1:1.3.2+202311252150+091e20ef0f)"
   inkscape:export-filename="/home/martijn/git/hit-icons/plaatslogo/src/svg/hit_omm_logo_v.png"
   inkscape:export-xdpi="52.619999"
   inkscape:export-ydpi="52.619999"
   xmlns:inkscape="http://www.inkscape.org/namespaces/inkscape"
   xmlns:sodipodi="http://sodipodi.sourceforge.net/DTD/sodipodi-0.dtd"
   xmlns="http://www.w3.org/2000/svg"
   xmlns:svg="http://www.w3.org/2000/svg"
   xmlns:rdf="http://www.w3.org/1999/02/22-rdf-syntax-ns#"
   xmlns:cc="http://creativecommons.org/ns#"
   xmlns:dc="http://purl.org/dc/elements/1.1/"><sodipodi:namedview
     pagecolor="#ffffff"
     bordercolor="#666666"
     borderopacity="1"
     objecttolerance="10"
     gridtolerance="10"
     guidetolerance="10"
     inkscape:pageopacity="0"
     inkscape:pageshadow="2"
     inkscape:window-width="1568"
     inkscape:window-height="752"
     id="namedview32"
     showgrid="false"
     inkscape:zoom="1.4142136"
     inkscape:cx="32.880464"
     inkscape:cy="236.88077"
     inkscape:window-x="930"
     inkscape:window-y="1593"
     inkscape:window-maximized="0"
     inkscape:current-layer="g4158-6-1"
     inkscape:showpageshadow="2"
     inkscape:pagecheckerboard="0"
     inkscape:deskcolor="#d1d1d1" /><metadata
     id="metadata8"><rdf:RDF><cc:Work
         rdf:about=""><dc:format>image/svg+xml</dc:format><dc:type
           rdf:resource="http://purl.org/dc/dcmitype/StillImage" /></cc:Work></rdf:RDF></metadata><defs
     id="defs6" /><g
     transform="matrix(1.25,0,0,-1.25,0,408.625)"
     id="g10"><g
       transform="scale(0.1)"
       id="g12">
<g
   id="g9632"
   transform="matrix(19.877802,0,0,-18.807441,-19338.741,10633.13)"><g
     id="g82028"><path
   inkscape:connector-curvature="0"
   id="path4076-6-2"
   style="fill:#e2001a;fill-opacity:1;fill-rule:nonzero;stroke:none;stroke-width:0.51719099"
   d="m 974.70363,393.4762 h 78.59827 v 83.07031 l -78.59827,0.002 z m 80.41637,-1.92317 h -82.23599 l -0.004,173.8163 h 82.23389 z" /><path
   d="m 974.73203,393.47598 h 78.57097 v 83.04266 h -78.57097 z"
   style="fill:#ffffff;fill-opacity:1;fill-rule:nonzero;stroke:none;stroke-width:0.51719099"
   id="path4078-2-2"
   inkscape:connector-curvature="0" /><g
   id="g4088-6-0"
   transform="matrix(0.50307374,0,0,-0.53170443,1007.8092,400.73986)"><path
     d="m 0,0 c -1.266,-0.374 -5.429,-1.854 -5.858,-5.208 -0.022,-0.172 -0.035,-0.354 -0.035,-0.543 0,-0.094 0.012,-0.193 0.019,-0.291 -0.537,0.016 -1.032,0.031 -1.367,0.043 l -3.419,0.069 -1.234,-0.217 c -1.465,-0.239 -5.424,-0.885 -5.504,-4.953 -0.012,-0.27 -0.059,-1.342 -0.059,-1.342 0,-2.416 0.494,-5.055 1.392,-7.43 0.264,-0.709 0.668,-1.254 0.961,-1.652 0.004,-0.005 0.177,-0.254 0.229,-0.329 0.516,-2.029 1.376,-3.696 2.403,-5.168 -2.774,-0.332 -5.574,-0.785 -8.335,-1.613 l 0.558,0.104 c -1.507,-0.114 -2.95,-0.914 -4.414,-2.449 l -0.135,-0.143 -0.113,-0.16 c -0.489,-0.698 -0.844,-1.381 -1.078,-2.059 -5.703,-1.688 -10.399,-3.133 -14.208,-4.378 -3.359,-1.107 -10.045,-3.952 -10.327,-4.073 l -0.183,-0.078 c 0,0 -0.039,-0.026 -0.051,-0.033 -0.049,-0.02 -0.099,-0.041 -0.099,-0.041 -5.114,-2.082 -6.187,-5.604 -6.187,-8.192 0,-4.065 3.155,-5.193 4.671,-5.736 0.343,-0.122 0.696,-0.248 0.879,-0.352 2.044,-1.118 4.007,-0.732 5.439,-0.45 l 0.97,0.169 c 0.703,0.086 1.476,0.315 2.246,0.557 0.709,-1.487 2.006,-2.86 4.042,-3.252 1.741,-0.341 2.902,-0.02 3.836,0.317 0.053,-0.523 0.159,-1.045 0.374,-1.552 0.36,-0.849 0.961,-1.628 1.707,-2.291 -1.233,-0.964 -2.984,-2.703 -2.984,-4.812 0,-0.19 0.014,-0.381 0.045,-0.576 -10e-4,0.002 0.02,-0.145 0.02,-0.145 0.16,-1.126 0.586,-4.118 4.682,-5.796 1.575,-0.645 3.397,-0.828 5.44,-0.566 0.18,-0.617 0.45,-1.199 0.809,-1.728 -1.127,-0.556 -1.381,-0.749 -1.554,-0.888 l -0.057,-0.047 c -0.751,-0.641 -1.844,-1.643 -2.668,-2.929 -0.343,-0.512 -1.375,-2.232 -1.375,-4.192 0,-0.354 0.034,-0.716 0.111,-1.08 0.262,-1.228 0.965,-2.233 2.033,-2.907 1.489,-0.92 3.115,-1.015 4.37,-0.896 0.204,-1.319 1.172,-2.826 4.164,-3.703 l 0.191,-0.057 c 0.963,-0.293 2.259,-0.242 4.995,-0.01 l 1.099,0.085 c 0.331,0.011 0.887,0.094 1.536,0.21 10e-4,-1.343 0.396,-2.539 1.148,-3.428 l 0.054,-0.063 c 1.694,-1.881 4.248,-2.391 5.266,-2.522 1.136,-0.159 2.585,0.325 5.394,1.469 l 0.687,0.275 c 0.137,0.054 0.478,0.154 0.879,0.265 0.109,-0.145 0.186,-0.298 0.321,-0.437 0.605,-0.624 1.689,-1.355 3.411,-1.295 1.57,0.041 4.219,0.631 4.516,0.697 l 0.159,0.036 0.152,0.056 c 3.273,1.18 14.067,5.091 15.509,5.866 l 0.054,0.031 c 1.196,0.603 10.773,3.659 14.863,4.963 l 2.94,0.943 c 4.309,1.355 8.266,4.418 9.406,5.605 l 0.041,0.045 c 0.955,1.042 1.577,2.471 1.85,4.246 0.031,0.19 0.045,0.377 0.045,0.563 0,0.933 -0.363,1.817 -0.85,2.654 2.241,1 4.427,1.977 4.49,2.005 0.803,0.298 2.868,1.221 3.731,3.128 0.201,0.447 0.292,0.885 0.319,1.312 2.39,0.614 5.027,1.289 5.027,1.289 0.002,0 0.082,0.02 0.082,0.02 1.515,0.359 5.539,1.313 9.289,3.171 3.504,1.696 4.178,3.706 4.178,5.401 0,0.23 -0.014,0.453 -0.032,0.67 l -0.013,0.154 -0.012,-0.196 c 0.015,0.126 0.023,0.254 0.023,0.382 0,1.758 -1.455,3.635 -2.789,4.615 -0.021,0.076 -0.037,0.129 -0.037,0.129 -0.846,1.02 -2.109,1.086 -2.717,1.117 l 0.069,-0.004 -0.746,0.122 c -0.963,0.203 -2.012,0.359 -4.254,0.309 -0.052,0.675 -0.158,1.323 -0.367,1.926 -1.328,3.98 -4.841,6.823 -8.943,7.212 -2.569,0.324 -4.559,0.208 -6.7,0.025 1.84,2.151 3.728,4.584 4.225,6.035 0.43,1.225 1.223,6.816 1.261,7.335 l 0.006,0.077 0.011,0.719 c 0,1.542 -0.155,2.59 -0.284,3.434 -0.01,0.085 -0.162,1.469 -0.178,1.605 -0.123,3.707 -0.741,7 -0.866,7.628 l -1.24,6.155 -3.705,-5.046 c -0.484,-0.669 -1.079,-1.47 -1.336,-1.793 -0.738,-0.567 -4.149,-2.928 -6.73,-4.544 -0.578,2.327 -1.957,4.374 -4.144,5.939 l -0.098,0.07 -0.104,0.062 c -2.75,1.607 -5.771,3.102 -9.239,3.148 -3.476,0.12 -6.71,-0.588 -9.616,-2.105 -1.766,-0.953 -3.072,-2.346 -4.225,-3.574 -0.724,-0.77 -1.394,-1.484 -2.107,-2.047 l 0.137,0.101 c -0.629,-0.433 -1.213,-0.894 -1.778,-1.361 -0.435,2.292 -0.943,4.86 -2.074,7.361 -1.372,2.936 -3.205,5.471 -5.772,8.002 -1.247,1.281 -3.534,2.264 -4.79,2.737 L 1.623,-0.017 0.84,0.247 Z"
     style="fill:#ffffff;fill-opacity:1;fill-rule:nonzero;stroke:none"
     id="path4090-0-2"
     inkscape:connector-curvature="0" /></g><g
   id="g4092-6-4"
   transform="matrix(0.50307374,0,0,-0.53170443,991.58313,436.28877)"><path
     d="m 0,0 c -0.149,0.932 1.083,2.277 2.351,3.174 1.306,0.894 3.397,1.827 4.668,2.275 1.267,0.412 2.164,0.71 2.873,0.936 4.107,1.418 13.365,4.664 13.738,4.812 0.41,0.19 21.426,7.057 23.219,7.432 1.753,0.373 9.294,3.729 10.081,4.403 0.519,0.448 15.787,2.202 17.767,1.232 1.939,-0.97 -0.634,-7.618 2.912,-6.645 3.504,0.969 14.444,2.688 16.384,-0.447 1.941,-3.137 0.376,-4.705 -1.006,-5.301 -1.344,-0.562 -26.764,-6.906 -26.764,-6.906 0,0 -36.211,-9.781 -37.592,-10.004 -1.082,-0.189 -8.547,-2.503 -11.386,-3.434 -0.783,-0.261 0.112,0.037 -1.379,-0.412 -1.906,-0.556 -1.569,-0.261 -2.428,-0.111 -1.904,0.373 -3.36,1.682 -3.51,3.471 -0.149,1.754 2.801,2.761 2.578,2.761 -0.224,0 -5.563,-2.725 -9.407,-1.158 C 0.224,-2.764 0.148,-0.971 0,0"
     style="fill:#ffffff;fill-opacity:1;fill-rule:nonzero;stroke:none"
     id="path4094-4-4"
     inkscape:connector-curvature="0" /></g><g
   id="g4096-8-8"
   transform="matrix(0.50307374,0,0,-0.53170443,998.29163,441.42046)"><path
     d="m 0,0 c 0,0 19.337,6.007 21.428,6.795 2.09,0.782 24.784,7.018 26.353,7.352 1.53,0.336 17.508,5.266 19.333,5.75 1.83,0.485 13.891,3.696 13.891,3.696 0,0 3.846,0.93 7.726,1.117 3.883,0.15 3.993,-0.298 5.413,-0.41 1.419,-0.074 0.558,-0.373 1.009,-0.524 0.41,-0.111 2.162,-1.902 2.053,-2.761 -0.115,-0.858 0.856,-2.315 -2.689,-4.03 -3.547,-1.757 -7.392,-2.652 -8.811,-2.988 -1.416,-0.334 -8.289,-2.126 -8.289,-2.126 0,0 1.685,-0.784 1.161,-1.942 C 78.056,8.772 76.226,8.138 76.226,8.138 L 67.528,4.253 c 0,0 2.166,-0.633 2.463,-1.081 0.3,-0.448 1.082,-1.568 0.969,-2.275 -0.109,-0.712 -0.373,-1.982 -1.192,-2.876 -0.824,-0.858 -4.406,-3.696 -8.325,-4.93 -3.918,-1.267 -16.911,-5.336 -18.29,-6.121 -1.383,-0.743 -15.158,-5.709 -15.158,-5.709 0,0 -2.648,-0.598 -4.03,-0.635 -2.164,-0.074 -2.016,2.239 -2.016,2.239 0,0 -2.799,-0.673 -3.51,-0.971 -0.708,-0.262 -3.918,-1.68 -4.739,-1.565 -0.859,0.111 -2.614,0.52 -3.658,1.679 -1.009,1.194 -0.335,3.581 0.037,3.846 0.335,0.26 1.118,1.49 1.118,1.49 0,0 -4.926,-1.157 -5.934,-1.193 -0.969,-0.037 -4.367,-0.451 -5.227,-0.188 -0.856,0.264 -2.873,0.71 -2.5,2.276 0.373,1.608 1.381,2.8 2.464,3.248 1.082,0.451 -3.92,-1.379 -3.92,-1.379 0,0 -2.389,-0.86 -4.143,0.223 -1.718,1.084 -0.634,3.548 0.037,4.554 0.671,1.046 1.642,1.905 2.165,2.35 C -5.303,-2.313 0,0 0,0"
     style="fill:#005da8;fill-opacity:1;fill-rule:nonzero;stroke:none"
     id="path4098-6-0"
     inkscape:connector-curvature="0" /></g><g
   id="g4100-8-4"
   transform="matrix(0.50307374,0,0,-0.53170443,982.90753,424.24077)"><path
     d="m 0,0 c 0,0 6.829,2.91 10.114,3.993 7.54,2.465 16.836,5.153 19.898,6.049 2.91,0.895 11.907,3.62 19.522,5.934 6.049,1.83 11.273,3.398 11.834,3.545 1.306,0.298 27.436,8.513 28.296,7.505 0.858,-0.969 3.548,-3.397 3.398,-6.908 C 92.911,16.573 86.417,7.95 85.297,7.354 84.14,6.792 64.804,2.985 64.804,2.985 c 0,0 10.004,3.957 10.449,-0.15 0.414,-4.106 -7.764,-5.562 -8.174,-5.784 -0.409,-0.262 -16.237,-5.227 -28.107,-9.034 -7.879,-2.538 -12.954,-4.479 -13.441,-4.553 -1.267,-0.112 -3.469,-1.83 -5.674,-0.972 -1.492,0.596 -3.395,2.276 -2.538,4.366 0.86,2.131 2.69,2.539 2.69,2.539 0,0 -1.196,-0.408 -3.734,-0.859 -2.539,-0.41 -2.987,-1.379 -5.077,-0.97 -2.127,0.411 -2.689,2.95 -2.577,3.66 0.149,0.708 -2.984,-0.747 -4.517,-0.936 -1.567,-0.186 -3.248,-0.895 -4.815,-0.035 -1.528,0.859 -4.218,0.859 -4.218,3.806 0,4.555 4.593,5.677 4.929,5.937"
     style="fill:#e2001a;fill-opacity:1;fill-rule:nonzero;stroke:none"
     id="path4102-1-6"
     inkscape:connector-curvature="0" /></g><g
   id="g4104-6-4"
   transform="matrix(0.50307374,0,0,-0.53170443,1030.0034,413.36992)"><path
     d="M 0,0 C 0,0.002 -0.281,1.17 -0.281,1.17 -0.527,2.128 -0.83,3.317 -0.855,3.825 -1.096,5.95 -2.221,7.746 -4.2,9.163 c -2.446,1.432 -5.095,2.756 -7.96,2.793 -3.035,0.111 -5.848,-0.496 -8.362,-1.81 C -21.883,9.411 -22.984,8.237 -24.053,7.1 -24.801,6.304 -25.574,5.479 -26.443,4.792 -27.492,4.068 -28.467,3.22 -29.408,2.401 L -31.073,0.985 C -31.11,0.976 -31.302,0.892 -31.36,0.919 l -0.037,0.066 c -0.34,1.28 -0.59,2.594 -0.832,3.867 -0.441,2.316 -0.895,4.711 -1.937,7.014 -1.23,2.634 -2.899,4.937 -5.256,7.253 -1.057,1.09 -3.747,2.079 -3.86,2.123 l -0.047,0.016 -0.047,-0.013 c -0.154,-0.047 -3.76,-1.125 -4.004,-3.031 -0.123,-0.965 0.634,-1.946 2.252,-2.916 -0.002,0 0.036,-0.031 0.071,-0.059 -0.447,-0.298 -4.145,-0.176 -6.389,-0.099 l -3.129,0.063 c -0.029,-0.005 -0.979,-0.173 -0.979,-0.173 -1.553,-0.253 -3.316,-0.535 -3.348,-2.437 -0.037,-0.416 -0.056,-0.842 -0.056,-1.281 0,-2.096 0.429,-4.403 1.224,-6.504 0.137,-0.37 0.381,-0.704 0.617,-1.022 0.232,-0.318 0.454,-0.619 0.577,-0.953 0.795,-3.479 2.863,-5.746 5.055,-8.148 0,0 0.025,-0.03 0.036,-0.041 -0.129,-0.012 -0.263,-0.026 -0.263,-0.026 -4.131,-0.387 -8.406,-0.787 -12.459,-2.004 -0.82,-0.062 -1.72,-0.601 -2.715,-1.645 -0.645,-0.919 -0.936,-1.694 -0.936,-2.458 -0.033,-0.223 -0.046,-0.449 -0.046,-0.676 0,-1.281 0.493,-2.596 1.528,-4.073 1.363,-2.146 2.876,-3.878 4.621,-5.295 2.213,-1.668 4.634,-2.829 7.853,-3.762 1.421,-0.438 2.581,0.376 3.707,1.165 0.536,0.376 1.095,0.731 1.673,0.977 -0.837,-1.502 -1.485,-3.35 -1.485,-5.141 0,-1.358 0.366,-2.672 1.299,-3.748 1.047,-1.129 2.548,-1.693 3.872,-2.134 0.784,-0.145 1.53,-0.13 2.321,-0.109 l 1.487,-0.009 c 1.654,0.104 3.367,0.989 4.383,2.257 2.941,4.36 4.421,9.005 4.421,13.837 0,0.558 -0.02,1.12 -0.06,1.681 0.021,0.047 0.165,0.368 0.165,0.368 0,0 0.057,0.121 0.111,0.236 0.188,-0.17 1.343,-1.211 1.343,-1.211 1.441,-1.128 1.508,-1.276 2.32,-3.069 l 1.637,-3.454 c 0.415,-0.811 0.609,-1.987 0.609,-3.416 0,-6.483 -3.994,-18.145 -9.62,-24.375 -1.249,-1.387 -1.865,-2.38 -1.865,-3.013 0,-0.161 0.039,-0.298 0.118,-0.415 0.66,-0.945 3.766,0.249 4.117,0.39 l 0.044,0.016 0.026,0.041 c 0.08,0.125 7.919,12.567 10.433,22.477 0.415,1.631 0.669,3.47 0.669,5.364 0,3.889 -1.069,8.015 -4.027,11.054 -0.032,0.025 -0.609,0.507 -0.609,0.507 -0.243,0.228 -0.52,0.479 -0.84,0.671 0.068,0.138 0.195,0.409 0.263,0.552 1.465,-0.385 2.817,-0.981 4.122,-1.564 1.569,-0.703 3.048,-1.366 4.73,-1.686 0.594,-0.145 1.013,-0.389 1.418,-0.626 0.613,-0.357 1.191,-0.691 2.275,-0.645 l 1.67,0.176 c 0.754,0.112 1.25,0.187 1.771,-0.051 0.186,-0.084 0.441,-0.041 0.774,0.14 1.442,0.785 4.069,4.005 4.287,5.537 0.008,0.086 0.008,0.188 0.008,0.297 0,1.305 -0.49,4.08 -1.966,5.217 -0.737,0.577 -2.26,1.349 -3.604,2.027 -1.069,0.539 -2.366,1.197 -2.603,1.46 3.949,2.144 7.507,0.494 7.543,0.478 3.702,-2.385 4.907,-3.158 5.331,-3.371 0.02,-0.014 0.008,-0.044 0.028,-0.055 0,0 0.018,0.024 0.023,0.029 0.164,-0.078 0.195,-0.056 0.225,-0.018 l 0.085,0.13 -0.171,0.111 c -0.135,0.086 0.138,0.66 0.378,1.166 C -0.469,-3.861 0.378,-2.075 0,0"
     style="fill:#009036;fill-opacity:1;fill-rule:nonzero;stroke:none"
     id="path4106-26-7"
     inkscape:connector-curvature="0" /></g><g
   id="g4108-6-5"
   transform="matrix(0.50307374,0,0,-0.53170443,1025.8457,417.09137)"><path
     d="M 0,0 V -0.002 Z"
     style="fill:#009036;fill-opacity:1;fill-rule:nonzero;stroke:none"
     id="path4110-1-6"
     inkscape:connector-curvature="0" /></g><g
   id="g4112-5-8"
   transform="matrix(0.50307374,0,0,-0.53170443,1041.8128,426.3183)"><path
     d="m 0,0 c -1.013,3.038 -3.654,5.186 -6.732,5.473 -2.657,0.341 -4.586,0.17 -7.03,-0.045 l -1.657,-0.142 c -0.405,0 -2.202,-0.722 -4.701,-1.739 -0.592,-0.242 -1.158,-0.473 -1.639,-0.664 1.366,1.127 3.536,3.39 5.38,5.518 2.125,2.385 4.542,5.37 4.956,6.581 0.308,0.873 1.087,6.127 1.128,6.681 0.005,0.212 0.01,0.411 0.01,0.603 0,1.371 -0.139,2.283 -0.264,3.099 l -0.191,1.729 c -0.114,3.849 -0.82,7.304 -0.826,7.342 l -0.067,0.33 -0.2,-0.274 c -0.013,-0.017 -1.27,-1.754 -1.595,-2.116 -0.33,-0.33 -5.472,-3.896 -8.365,-5.606 -4.571,-2.731 -6.638,-6.268 -7.315,-7.43 l -0.162,-0.274 c -0.425,-0.696 -0.912,-1.777 -1.38,-2.821 -0.44,-0.976 -0.854,-1.899 -1.157,-2.364 -0.427,-0.631 -0.935,-2.034 -1.306,-3.063 -0.164,-0.453 -0.321,-0.883 -0.377,-0.972 -0.301,-0.321 -0.422,-0.979 -0.538,-1.614 -0.066,-0.363 -0.141,-0.7 -0.245,-0.951 -0.048,0.092 -0.101,0.205 -0.142,0.33 -0.014,0.048 -0.405,1.368 -2.886,5.96 -2.293,4.279 -2.644,4.249 -6.933,3.87 l -1.609,-0.133 c -4.737,-0.347 -8.249,-2.79 -10.133,-4.103 l -0.869,-0.586 C -57.819,12.02 -59.73,9.324 -61.938,6.205 l -2.5,-3.49 0.334,0.033 c 0.585,0.068 1.131,-0.011 1.713,-0.096 0.606,-0.086 1.235,-0.16 1.904,-0.067 -0.037,-0.18 -0.079,-0.362 -0.079,-0.544 0,-0.91 0.475,-1.813 1.353,-2.508 1.096,-1.094 2.152,-1.742 3.522,-2.152 0.171,-0.007 0.272,-0.236 0.365,-0.462 0.104,-0.243 0.212,-0.498 0.415,-0.638 l 0.076,-0.054 0.101,0.048 c 0.171,0.096 0.244,0.494 0.359,4.336 0.021,0.766 0.044,1.557 0.064,1.655 0.827,2.613 2.866,4.276 5.582,4.551 1.006,0.109 3.897,-0.254 4.32,-2.379 0.012,-0.04 0.573,-1.295 0.906,-1.637 0.004,-0.016 0.942,-2.707 0.942,-2.707 0.578,-1.715 1.033,-3.069 2.045,-5.173 0.139,-0.25 0.153,-0.515 0.168,-0.79 l 0.044,-0.442 c 0.046,-0.222 0.068,-0.459 0.068,-0.703 0,-0.851 -0.266,-1.816 -0.762,-2.746 -0.407,-0.707 -1.274,-1.767 -1.914,-1.902 -1.656,-0.315 -2.077,-0.041 -3.094,0.623 l -0.943,0.59 c -0.687,0.402 -1.34,3.349 -1.535,4.451 0.229,2.248 0.552,6.133 0.172,6.439 -0.229,0.205 -0.667,-0.136 -3.319,-2.601 -1.609,-1.494 -3.611,-3.354 -5.264,-4.603 -2.358,-1.761 -3.53,-3.962 -4.387,-5.57 -0.372,-0.698 -0.694,-1.302 -1.008,-1.652 -0.446,-0.476 -0.275,-1.118 -0.112,-1.735 l 0.148,-0.63 c 0.289,-1.474 1.19,-2.585 2.059,-3.659 l 0.175,-0.218 c 0.588,-0.81 2.335,-2.931 2.352,-2.952 0.043,-0.038 2.976,-2.807 5.363,-0.764 3.364,1.088 4.961,2.111 5.024,2.155 1.197,0.592 2.506,1.196 3.15,1.438 -1.084,-1.049 -3.25,-3.888 -4.006,-6.195 -0.753,-2.368 -2.316,-6.154 -2.717,-6.96 l -0.41,-0.799 c -0.789,-1.553 -2.634,-5.192 -3.111,-5.698 -0.602,-0.601 -0.835,-1.014 -0.424,-1.606 0.086,-0.127 0.184,-0.193 0.298,-0.205 0.202,-0.016 0.373,0.153 0.587,0.364 0.203,0.201 0.455,0.451 0.795,0.612 0.484,0.253 3.131,2.706 5.93,5.302 2.234,2.071 4.543,4.213 5.294,4.793 1.545,1.203 2.715,2.375 4.194,3.856 l 0.414,0.412 c 0,0 3.871,3.937 4.47,4.544 0.477,-0.3 2.94,-1.806 4.86,-2.416 1.389,-0.273 3.027,-0.482 4.751,0 3.073,0.908 7.732,4.313 11.101,7.006 l 0.195,0.157 -0.227,0.098 c -0.624,0.269 -1.339,0.034 -2.244,-0.262 -1.125,-0.364 -2.526,-0.821 -4.36,-0.511 -2.655,0.389 -3.613,0.768 -4.312,1.046 l -0.482,0.18 c -0.003,0 -0.287,0.091 -0.287,0.091 -1.791,0.555 -3.644,1.136 -4.713,2.687 -0.009,0.028 -0.014,0.055 -0.014,0.086 0,0.123 0.053,0.301 0.11,0.497 l 0.113,0.466 c 0.244,0.922 0.947,1.548 1.625,2.153 l 0.61,0.567 c 1.256,1.524 2.44,2.508 3.728,3.106 1.071,0.548 2.748,1.235 4.691,1.407 l 1.17,0.01 c 1.273,0.019 2.476,0.037 3.723,-0.161 0.933,-0.123 1.181,-1.111 1.42,-2.066 l 0.063,-0.25 c 0.032,-0.631 -0.102,-1.426 -0.37,-2.15 -0.232,-0.202 -2.988,-0.485 -4.631,-0.657 -2.289,-0.234 -2.291,-0.243 -2.326,-0.4 l -0.014,-0.059 0.043,-0.063 c 0.645,-0.988 2.776,-1.425 3.99,-1.596 3.404,-0.477 8.041,-0.159 9.598,1.193 2.039,1.871 3.549,3.888 4.371,5.839 C 0.311,-3.422 0.52,-1.486 0,0"
     style="fill:#ffdd00;fill-opacity:1;fill-rule:nonzero;stroke:none"
     id="path4114-1-4"
     inkscape:connector-curvature="0" /></g><g
   id="g4116-9-1"
   transform="matrix(0.50307374,0,0,-0.53170443,997.87453,437.75824)"><path
     d="m 0,0 c -0.221,-0.006 -5.576,-2.736 -9.404,-1.167 -2.872,1.179 -2.962,2.956 -3.11,3.919 -0.097,0.644 0.42,1.47 1.16,2.216 -1.199,-0.902 -2.271,-2.157 -2.131,-3.064 0.146,-0.959 0.236,-2.739 3.108,-3.916 2.942,-1.205 6.787,0.125 8.508,0.813 C -1.056,-0.416 0.144,0.005 0,0"
     style="fill:#1a171b;fill-opacity:1;fill-rule:nonzero;stroke:none"
     id="path4118-1-9"
     inkscape:connector-curvature="0" /></g><g
   id="g4120-3-0"
   transform="matrix(0.50307374,0,0,-0.53170443,999.88973,440.8929)"><path
     d="m 0,0 c -0.983,-0.228 -2.427,-0.448 -3.078,-0.325 -1.901,0.357 -3.352,1.666 -3.505,3.465 -0.041,0.48 0.15,0.901 0.44,1.263 -0.719,-0.468 -1.49,-1.181 -1.412,-2.109 0.152,-1.798 1.604,-3.107 3.505,-3.463 0.12,-0.023 0.216,-0.049 0.298,-0.073 0.354,0.154 0.575,0.25 0.575,0.25 0,0 1.264,0.395 3.177,0.992"
     style="fill:#1a171b;fill-opacity:1;fill-rule:nonzero;stroke:none"
     id="path4122-9-7"
     inkscape:connector-curvature="0" /></g><g
   id="g4124-7-7"
   transform="matrix(0.50307374,0,0,-0.53170443,980.47423,462.77898)"><path
     d="m 0,0 5.896,0.368 c 0.128,-0.956 0.388,-1.685 0.78,-2.187 0.638,-0.812 1.551,-1.218 2.737,-1.218 0.884,0 1.566,0.207 2.045,0.623 0.479,0.414 0.718,0.895 0.718,1.442 0,0.52 -0.228,0.985 -0.684,1.396 C 11.036,0.835 9.978,1.222 8.318,1.587 5.6,2.198 3.662,3.011 2.503,4.022 1.336,5.034 0.752,6.325 0.752,7.894 c 0,1.031 0.299,2.003 0.896,2.921 0.597,0.916 1.497,1.637 2.696,2.162 1.199,0.524 2.843,0.787 4.931,0.787 2.564,0 4.518,-0.478 5.863,-1.43 1.345,-0.954 2.146,-2.47 2.401,-4.55 L 11.697,7.442 C 11.542,8.345 11.216,9.003 10.719,9.413 10.222,9.823 9.535,10.028 8.66,10.028 7.939,10.028 7.396,9.876 7.032,9.569 6.667,9.265 6.484,8.892 6.484,8.454 6.484,8.136 6.636,7.849 6.937,7.593 7.229,7.329 7.922,7.082 9.016,6.854 11.725,6.271 13.665,5.68 14.837,5.083 c 1.172,-0.598 2.025,-1.34 2.559,-2.223 0.533,-0.885 0.8,-1.875 0.8,-2.969 0,-1.287 -0.356,-2.472 -1.067,-3.557 -0.712,-1.086 -1.706,-1.908 -2.983,-2.47 -1.277,-0.561 -2.886,-0.841 -4.83,-0.841 -3.411,0 -5.773,0.657 -7.086,1.969 C 0.917,-3.693 0.173,-2.025 0,0"
     style="fill:#e2001a;fill-opacity:1;fill-rule:nonzero;stroke:none"
     id="path4126-9-6"
     inkscape:connector-curvature="0" /></g><g
   id="g4128-76-6"
   transform="matrix(0.50307374,0,0,-0.53170443,996.46263,463.28059)"><path
     d="M 0,0 5.295,-0.602 C 5.003,-1.706 4.524,-2.662 3.858,-3.469 3.192,-4.275 2.342,-4.903 1.307,-5.35 0.271,-5.797 -1.045,-6.021 -2.641,-6.021 c -1.541,0 -2.825,0.144 -3.85,0.431 -1.027,0.287 -1.909,0.752 -2.648,1.395 -0.739,0.642 -1.318,1.395 -1.737,2.261 -0.42,0.866 -0.63,2.015 -0.63,3.446 0,1.494 0.255,2.738 0.767,3.731 0.373,0.729 0.884,1.382 1.532,1.961 0.647,0.579 1.313,1.01 1.997,1.291 1.085,0.447 2.477,0.671 4.173,0.671 2.371,0 4.18,-0.424 5.425,-1.272 1.245,-0.848 2.118,-2.09 2.62,-3.722 l -5.24,-0.698 c -0.164,0.621 -0.463,1.088 -0.897,1.402 -0.434,0.314 -1.015,0.473 -1.744,0.473 -0.921,0 -1.667,-0.33 -2.237,-0.991 -0.57,-0.66 -0.855,-1.659 -0.855,-2.997 0,-1.192 0.282,-2.099 0.849,-2.717 0.564,-0.621 1.285,-0.929 2.161,-0.929 0.729,0 1.343,0.186 1.84,0.56 C -0.618,-1.351 -0.246,-0.775 0,0"
     style="fill:#e2001a;fill-opacity:1;fill-rule:nonzero;stroke:none"
     id="path4130-3-2"
     inkscape:connector-curvature="0" /></g><g
   id="g4132-6-4"
   transform="matrix(0.50307374,0,0,-0.53170443,1002.8772,462.45862)"><path
     d="m 0,0 c 0,-1.295 0.262,-2.253 0.786,-2.874 0.525,-0.62 1.184,-0.93 1.978,-0.93 0.801,0 1.461,0.305 1.976,0.916 0.516,0.612 0.774,1.593 0.774,2.943 0,1.258 -0.261,2.195 -0.781,2.81 C 4.214,3.482 3.571,3.789 2.805,3.789 1.993,3.789 1.322,3.477 0.793,2.852 0.265,2.228 0,1.275 0,0 m -5.582,-0.014 c 0,2.216 0.747,4.042 2.244,5.479 1.495,1.437 3.516,2.155 6.061,2.155 2.909,0 5.107,-0.845 6.593,-2.532 1.196,-1.358 1.793,-3.032 1.793,-5.02 0,-2.235 -0.741,-4.066 -2.223,-5.493 -1.483,-1.428 -3.532,-2.141 -6.15,-2.141 -2.335,0 -4.223,0.592 -5.664,1.778 -1.769,1.469 -2.654,3.393 -2.654,5.774"
     style="fill:#e2001a;fill-opacity:1;fill-rule:nonzero;stroke:none"
     id="path4134-8-9"
     inkscape:connector-curvature="0" /></g><g
   id="g4136-2-4"
   transform="matrix(0.50307374,0,0,-0.53170443,1017.5169,466.30726)"><path
     d="M 0,0 H -5.199 V 2.354 C -5.975,1.388 -6.758,0.698 -7.546,0.287 c -0.789,-0.409 -1.758,-0.615 -2.907,-0.615 -1.532,0 -2.735,0.458 -3.606,1.375 -0.871,0.917 -1.306,2.328 -1.306,4.234 v 9.248 h 5.595 v -7.99 c 0,-0.911 0.169,-1.56 0.506,-1.941 0.338,-0.384 0.813,-0.576 1.423,-0.576 0.666,0 1.212,0.256 1.636,0.766 0.424,0.512 0.637,1.429 0.637,2.751 v 6.99 H 0 Z"
     style="fill:#e2001a;fill-opacity:1;fill-rule:nonzero;stroke:none"
     id="path4138-0-6"
     inkscape:connector-curvature="0" /></g><g
   id="g4140-6-7"
   transform="matrix(0.50307374,0,0,-0.53170443,1022.5958,455.64302)"><path
     d="M 0,0 V -5.527 H 3.064 V -9.604 H 0 v -5.148 c 0,-0.618 0.06,-1.028 0.178,-1.228 0.182,-0.31 0.502,-0.464 0.958,-0.464 0.41,0 0.984,0.119 1.723,0.354 l 0.411,-3.843 c -1.377,-0.301 -2.664,-0.452 -3.858,-0.452 -1.387,0 -2.408,0.178 -3.064,0.532 -0.659,0.356 -1.143,0.896 -1.458,1.62 -0.314,0.724 -0.472,1.897 -0.472,3.519 v 5.11 h -2.052 v 4.077 h 2.052 v 2.668 z"
     style="fill:#e2001a;fill-opacity:1;fill-rule:nonzero;stroke:none"
     id="path4142-5-2"
     inkscape:connector-curvature="0" /></g><path
   d="m 1025.5761,458.58213 h 2.8012 v 7.72513 h -2.8012 z m 0,-2.93927 h 2.8012 v 2.01463 h -2.8012 z"
   style="fill:#e2001a;fill-opacity:1;fill-rule:nonzero;stroke:none;stroke-width:0.51719099"
   id="path4144-4-3"
   inkscape:connector-curvature="0" /><g
   id="g4146-3-5"
   transform="matrix(0.50307374,0,0,-0.53170443,1030.1665,458.58197)"><path
     d="m 0,0 h 5.186 v -2.366 c 0.774,0.966 1.559,1.657 2.352,2.073 0.794,0.414 1.761,0.622 2.901,0.622 1.541,0 2.748,-0.459 3.618,-1.376 0.873,-0.916 1.308,-2.332 1.308,-4.248 v -9.234 H 9.769 v 7.99 c 0,0.912 -0.169,1.558 -0.506,1.935 -0.337,0.379 -0.812,0.569 -1.423,0.569 -0.676,0 -1.223,-0.256 -1.642,-0.767 -0.42,-0.511 -0.63,-1.427 -0.63,-2.749 v -6.978 H 0 Z"
     style="fill:#e2001a;fill-opacity:1;fill-rule:nonzero;stroke:none"
     id="path4148-8-2"
     inkscape:connector-curvature="0" /></g><g
   id="g4150-4-9"
   transform="matrix(0.50307374,0,0,-0.53170443,1042.0182,462.32777)"><path
     d="m 0,0 c 0,-1.049 0.225,-1.827 0.671,-2.333 0.446,-0.506 1.035,-0.76 1.765,-0.76 0.693,0 1.275,0.262 1.744,0.788 0.47,0.524 0.705,1.315 0.705,2.373 0,1.058 -0.246,1.868 -0.739,2.428 C 3.652,3.058 3.051,3.338 2.34,3.338 1.629,3.338 1.062,3.08 0.637,2.564 0.213,2.049 0,1.194 0,0 m 5.24,7.045 h 5.213 V -6.677 l 0.014,-0.642 c 0,-0.912 -0.196,-1.782 -0.582,-2.608 -0.387,-0.825 -0.903,-1.492 -1.545,-2.004 -0.645,-0.51 -1.459,-0.88 -2.449,-1.107 -0.991,-0.229 -2.123,-0.343 -3.401,-0.343 -2.918,0 -4.922,0.439 -6.011,1.314 -1.091,0.876 -1.636,2.048 -1.636,3.515 0,0.184 0.009,0.43 0.027,0.739 l 5.404,-0.615 c 0.137,-0.502 0.347,-0.848 0.63,-1.04 0.41,-0.283 0.925,-0.425 1.545,-0.425 0.803,0 1.403,0.215 1.799,0.644 0.398,0.429 0.596,1.177 0.596,2.244 v 2.203 C 4.297,-5.45 3.75,-5.919 3.201,-6.212 2.346,-6.667 1.419,-6.896 0.424,-6.896 c -1.942,0 -3.51,0.848 -4.705,2.544 -0.849,1.205 -1.273,2.795 -1.273,4.776 0,2.262 0.547,3.985 1.642,5.172 1.094,1.184 2.526,1.778 4.296,1.778 1.13,0 2.063,-0.192 2.798,-0.575 C 3.916,6.416 4.602,5.781 5.24,4.897 Z"
     style="fill:#e2001a;fill-opacity:1;fill-rule:nonzero;stroke:none"
     id="path4152-6-4"
     inkscape:connector-curvature="0" /></g><g
   id="g4154-7-8"
   transform="matrix(0.50307374,0,0,-0.53170443,1020.8071,500.52946)"><path
     d="m 0,0 c 0.391,-1.708 -0.641,-2.729 -1.551,-3.798 -0.076,0.209 -0.15,0.421 -0.217,0.655 C -2.183,-1.977 -2.43,-0.225 -2.949,1.33 -1.701,1.387 -0.354,1.404 0,0 m -9.011,-26.816 c 0.063,-1.389 0.116,-2.789 0.148,-4.202 -0.87,1.313 -2.489,2.794 -0.148,4.202 m 61.643,54.901 c -0.492,2.512 -4.254,3.25 -5.5,2.944 C 45.267,30.271 42.895,27.815 40.652,27.3 35.039,25.77 28.656,23.805 23.763,21.801 17.609,19.224 11.963,17.669 6.284,15.123 1.326,13.168 -3.34,13.658 -4.91,10.998 -5.639,9.426 -5.4,6.622 -5.309,4.435 -6.021,4.74 -6.906,4.815 -8.053,4.518 -10.868,3.921 -8.74,-4.59 -8.837,-6.087 c -1.042,-5.307 -0.628,-11.674 -0.285,-18.451 -0.63,0.601 -1.32,1.269 -1.484,1.954 -0.753,2.938 0.31,5.476 0.393,7.855 0.027,0.969 -0.701,1.174 -1.721,1.006 -0.405,2.234 -1.313,5.185 -0.832,7.636 0.506,4.279 -0.885,9.599 -0.196,13.55 0.212,2.431 0.375,4.477 -0.197,6.679 -3.028,-0.076 -1.555,-2.366 -2.358,-4.323 -0.998,-2.706 -1.652,-4.424 -3.14,-6.48 -0.721,-1.136 -1.703,-1.546 -2.555,-2.944 -1.767,-2.611 0.196,-4.166 -0.195,-7.66 -0.405,-2.057 -0.713,-5.79 -0.947,-10.739 -2.984,-1.15 -6.25,-2.336 -9.069,-3.207 -0.269,-0.076 -0.529,-0.158 -0.794,-0.239 -0.05,0.593 -0.11,1.196 -0.188,1.811 -0.721,4.659 -0.803,23.887 -2.16,25.924 -0.77,-0.728 -1.916,-1.219 -2.358,-2.161 -0.786,-1.185 0.688,-4.458 -0.785,-4.319 -1.556,0.269 -1.473,-0.957 -2.356,-1.375 -1.082,-0.32 -2.308,-0.81 -2.947,-1.964 -0.917,-1.792 0.229,-4.083 0.198,-6.48 0.025,-4.352 0.445,-12.307 -0.032,-15.605 -3.749,-1.744 -7.313,-3.58 -11.164,-5.214 -4.075,-1.742 -8.084,-3.625 -11.98,-5.107 -2.078,-1.055 -4.221,-2.118 -6.873,-3.534 -0.034,0.026 0.703,-1.857 0.785,-2.75 -3.192,-1.398 -0.983,-5.082 -0.197,-7.069 -2.258,-1.857 0.933,-3.33 -0.391,-6.679 -0.312,-0.58 -3.585,-2.872 -3.34,-3.926 0.573,-2.462 3.274,-0.827 4.32,-0.198 8.118,3.298 12.455,4.609 19.641,8.446 2.445,1.238 5.169,2.428 7.992,3.604 -0.027,-2.509 -0.57,-5.849 -0.136,-7.14 0.423,-1.448 0.342,-7.174 0.785,-11.195 0.131,-2.119 -1.18,-18.402 1.178,-16.692 0.589,0.907 1.244,1.889 1.964,2.944 0.997,1.483 2.143,2.957 2.553,4.321 1.391,4.527 2.699,5.59 3.731,9.232 0.033,0.042 -0.131,4.869 -0.393,5.106 0.917,-0.81 0.016,6.881 0,8.052 0.014,4.341 0.516,8.636 0.981,9.742 1.135,0.481 2.257,0.963 3.341,1.452 2.481,0.831 4.846,1.896 7.159,3.011 -0.044,-3.777 -0.073,-7.748 -0.089,-11.848 0.081,-2.464 0.245,-7.128 0.393,-11.196 0.261,-2.151 0.261,-4.849 0.982,-6.087 0.424,-0.973 1.243,-0.891 2.356,-0.981 0.769,0.09 1.259,2.136 1.571,4.125 0.507,2.019 0.834,3.82 0.982,4.711 0.425,3.691 1.57,6.066 1.963,11.981 -0.389,4.281 2.104,10.839 0.619,13.489 1.288,0.544 2.584,1.035 3.899,1.435 0.653,0.203 1.092,0.423 1.375,0.655 -0.057,-8.935 0.752,-13.515 0.785,-21.471 -0.033,-2.807 0.049,-4.362 -0.392,-6.874 -0.377,-1.744 -1.032,-4.197 0.785,-4.91 0.719,1.287 0.885,2.021 1.571,3.535 0.866,1.514 1.605,2.088 2.161,3.928 3.288,-1.021 2.225,7.161 2.749,10.016 0.294,1.563 1.031,5.083 0.784,6.481 -0.734,6.129 0.902,10.385 0.984,16.104 -0.081,5.695 1.166,10.448 0.067,16.871 0.803,0.015 1.62,0.174 2.289,0.412 2.2,0.612 5.432,1.652 8.27,2.706 0.08,-6.138 0.345,-11.849 0.373,-18.811 0.375,-6.978 -0.035,-14.506 0,-16.89 -0.279,-5.228 0.783,-9.318 0.785,-15.121 -0.002,-1.236 1.717,-2.545 3.143,-1.374 1.601,1.284 0.539,3.494 0.784,5.499 0.082,1.432 1.636,2.168 2.161,3.729 1.03,2.367 1.111,5.559 1.178,8.447 -0.067,2.758 0.097,5.377 0.59,7.856 0.654,5.703 0.572,12.658 0.587,18.657 -0.011,2.303 1.231,7.937 1.039,11.638 0.231,0.046 0.467,0.093 0.73,0.146 3.778,0.712 12.698,6.357 15.712,8.248 3.371,2.12 5.252,2.365 8.247,4.909 1.506,1.056 -0.377,2.12 0.197,3.927 0.572,1.876 1.717,3.922 2.158,5.892 0.213,1.466 -0.931,1.712 -0.39,3.34 0.195,0.907 3.058,3.773 4.123,4.124"
     style="fill:#1a171b;fill-opacity:1;fill-rule:nonzero;stroke:none"
     id="path4156-2-0"
     inkscape:connector-curvature="0" /></g><g
   id="g4158-6-1"
   transform="matrix(0.50307374,0,0,-0.53170443,1018.9579,498.57507)"
   style="fill:#009036;fill-opacity:1"><path
     d="m 0,0 c 0.391,-1.708 -0.641,-2.729 -1.551,-3.798 -0.076,0.209 -0.15,0.421 -0.217,0.655 C -2.183,-1.977 -2.43,-0.225 -2.949,1.33 -1.701,1.387 -0.354,1.404 0,0 m -9.011,-26.816 c 0.063,-1.389 0.116,-2.789 0.148,-4.202 -0.87,1.313 -2.488,2.794 -0.148,4.202 m 61.643,54.901 c -0.492,2.512 -4.254,3.25 -5.499,2.944 C 45.268,30.271 42.895,27.815 40.653,27.3 35.039,25.77 28.656,23.805 23.763,21.801 17.609,19.224 11.963,17.669 6.284,15.123 1.326,13.168 -3.34,13.658 -4.91,10.998 -5.639,9.426 -5.4,6.621 -5.309,4.435 -6.021,4.74 -6.906,4.814 -8.053,4.518 -10.868,3.921 -8.74,-4.59 -8.837,-6.087 c -1.043,-5.307 -0.628,-11.675 -0.285,-18.451 -0.63,0.601 -1.32,1.269 -1.484,1.954 -0.753,2.938 0.31,5.476 0.393,7.855 0.026,0.969 -0.7,1.174 -1.722,1.006 -0.404,2.234 -1.312,5.185 -0.831,7.636 0.507,4.279 -0.884,9.599 -0.196,13.55 0.211,2.431 0.375,4.477 -0.197,6.679 -3.028,-0.076 -1.555,-2.366 -2.358,-4.323 -0.998,-2.706 -1.652,-4.424 -3.14,-6.48 -0.721,-1.136 -1.703,-1.546 -2.554,-2.944 -1.768,-2.611 0.196,-4.166 -0.196,-7.66 -0.404,-2.057 -0.713,-5.79 -0.947,-10.739 -2.984,-1.15 -6.25,-2.336 -9.069,-3.207 -0.269,-0.076 -0.529,-0.158 -0.794,-0.239 -0.05,0.593 -0.11,1.196 -0.188,1.811 -0.721,4.659 -0.803,23.887 -2.16,25.924 -0.77,-0.728 -1.916,-1.219 -2.358,-2.161 -0.786,-1.185 0.688,-4.458 -0.785,-4.319 -1.555,0.269 -1.473,-0.957 -2.356,-1.375 -1.082,-0.32 -2.308,-0.811 -2.947,-1.964 -0.917,-1.792 0.229,-4.083 0.198,-6.48 0.025,-4.352 0.445,-12.307 -0.032,-15.605 -3.749,-1.744 -7.313,-3.58 -11.164,-5.214 -4.075,-1.742 -8.084,-3.625 -11.98,-5.107 -2.078,-1.055 -4.22,-2.118 -6.873,-3.534 -0.034,0.026 0.703,-1.857 0.785,-2.75 -3.192,-1.398 -0.983,-5.082 -0.197,-7.069 -2.258,-1.857 0.933,-3.33 -0.391,-6.679 -0.312,-0.58 -3.585,-2.872 -3.34,-3.926 0.573,-2.462 3.274,-0.827 4.32,-0.198 8.118,3.298 12.455,4.609 19.641,8.446 2.445,1.238 5.169,2.428 7.992,3.604 -0.027,-2.509 -0.569,-5.849 -0.136,-7.14 0.423,-1.449 0.342,-7.174 0.785,-11.195 0.131,-2.119 -1.18,-18.402 1.178,-16.692 0.589,0.907 1.244,1.889 1.964,2.944 0.998,1.483 2.144,2.957 2.553,4.321 1.391,4.527 2.699,5.59 3.731,9.232 0.033,0.042 -0.131,4.869 -0.393,5.106 0.917,-0.81 0.016,6.881 0,8.052 0.014,4.34 0.516,8.636 0.981,9.742 1.135,0.481 2.257,0.963 3.341,1.452 2.481,0.831 4.846,1.896 7.159,3.011 -0.044,-3.777 -0.073,-7.748 -0.089,-11.848 0.081,-2.464 0.245,-7.128 0.393,-11.196 0.261,-2.151 0.261,-4.849 0.982,-6.087 0.424,-0.973 1.243,-0.891 2.356,-0.981 0.769,0.09 1.259,2.136 1.571,4.125 0.507,2.019 0.834,3.82 0.982,4.711 0.425,3.691 1.57,6.066 1.963,11.981 -0.389,4.281 2.103,10.839 0.62,13.489 1.287,0.543 2.583,1.035 3.898,1.435 0.653,0.203 1.092,0.423 1.375,0.655 -0.057,-8.935 0.752,-13.515 0.785,-21.471 -0.033,-2.807 0.049,-4.362 -0.392,-6.874 -0.377,-1.744 -1.032,-4.197 0.785,-4.911 0.719,1.288 0.885,2.022 1.571,3.536 0.867,1.514 1.605,2.088 2.161,3.928 3.288,-1.021 2.225,7.161 2.749,10.016 0.294,1.563 1.031,5.083 0.785,6.481 -0.735,6.129 0.901,10.385 0.983,16.104 -0.081,5.695 1.166,10.448 0.067,16.871 0.803,0.015 1.62,0.174 2.289,0.412 2.2,0.612 5.432,1.652 8.27,2.706 0.08,-6.138 0.345,-11.849 0.373,-18.811 0.375,-6.978 -0.035,-14.506 0,-16.89 -0.279,-5.228 0.783,-9.318 0.785,-15.121 -0.002,-1.236 1.717,-2.545 3.143,-1.374 1.601,1.284 0.539,3.494 0.784,5.499 0.082,1.432 1.636,2.168 2.161,3.729 1.03,2.367 1.111,5.559 1.178,8.447 -0.067,2.758 0.097,5.377 0.59,7.856 0.654,5.702 0.572,12.658 0.587,18.657 -0.011,2.303 1.231,7.937 1.039,11.638 0.231,0.046 0.467,0.093 0.73,0.146 3.778,0.712 12.698,6.357 15.712,8.248 3.371,2.12 5.252,2.365 8.248,4.909 1.506,1.056 -0.377,2.12 0.197,3.927 0.572,1.876 1.717,3.921 2.159,5.892 0.211,1.466 -0.932,1.712 -0.392,3.34 0.195,0.907 3.058,3.772 4.123,4.124"
     style="fill:#1c61b6;fill-opacity:1;fill-rule:nonzero;stroke:none"
     id="path4160-2-2"
     inkscape:connector-curvature="0" /></g><text
   xml:space="preserve"
   style="font-style:normal;font-variant:normal;font-weight:normal;font-stretch:normal;font-size:15.668px;line-height:1.25;font-family:sans-serif;-inkscape-font-specification:sans-serif;letter-spacing:0px;word-spacing:0px;fill:#ffffff;fill-opacity:1;stroke:#ffffff;stroke-width:0.19585;stroke-miterlimit:4;stroke-dasharray:none;stroke-opacity:1"
   x="994.34888"
   y="546.66284"
   id="text7102-0-0"
   transform="scale(0.98248138,1.017831)"
   inkscape:export-xdpi="208"
   inkscape:export-ydpi="208"><tspan
     sodipodi:role="line"
     id="tspan7100-1-2"
     x="994.34888"
     y="546.66284"
     style="font-style:normal;font-variant:normal;font-weight:bold;font-stretch:normal;font-size:13px;font-family:Gadugi;-inkscape-font-specification:'Gadugi, Bold';font-variant-ligatures:normal;font-variant-caps:normal;font-variant-numeric:normal;font-feature-settings:normal;text-align:start;writing-mode:lr-tb;text-anchor:start;opacity:0;fill:#ffffff;fill-opacity:1;stroke:#ffffff;stroke-width:0.19585;stroke-miterlimit:4;stroke-dasharray:none;stroke-opacity:1">Zandvoort</tspan></text>
</g></g></g></g></svg>
