<?xml version="1.0" encoding="UTF-8" standalone="no"?>
<!-- Created with Inkscape (http://www.inkscape.org/) -->

<svg
   xmlns:dc="http://purl.org/dc/elements/1.1/"
   xmlns:cc="http://creativecommons.org/ns#"
   xmlns:rdf="http://www.w3.org/1999/02/22-rdf-syntax-ns#"
   xmlns:svg="http://www.w3.org/2000/svg"
   xmlns="http://www.w3.org/2000/svg"
   xmlns:sodipodi="http://sodipodi.sourceforge.net/DTD/sodipodi-0.dtd"
   xmlns:inkscape="http://www.inkscape.org/namespaces/inkscape"
   version="1.1"
   width="204"
   height="204"
   id="svg2"
   xml:space="preserve"
   sodipodi:docname="hit_landelijk_logo_vierkant.svg"
   inkscape:version="0.92.4 (unknown)"
   inkscape:export-filename="/home/martijn/git/hit-icons/plaatslogo/src/svg/hit_landelijk_logo_vierkant.png"
   inkscape:export-xdpi="63.529999"
   inkscape:export-ydpi="63.529999"><sodipodi:namedview
     pagecolor="#ffffff"
     bordercolor="#666666"
     borderopacity="1"
     objecttolerance="10"
     gridtolerance="10"
     guidetolerance="10"
     inkscape:pageopacity="0"
     inkscape:pageshadow="2"
     inkscape:window-width="1920"
     inkscape:window-height="1056"
     id="namedview34"
     showgrid="false"
     inkscape:zoom="2.0419358"
     inkscape:cx="7.493426"
     inkscape:cy="54.146548"
     inkscape:window-x="0"
     inkscape:window-y="24"
     inkscape:window-maximized="1"
     inkscape:current-layer="svg2"
     fit-margin-top="0"
     fit-margin-left="0"
     fit-margin-right="0"
     fit-margin-bottom="0" /><metadata
     id="metadata8"><rdf:RDF><cc:Work
         rdf:about=""><dc:format>image/svg+xml</dc:format><dc:type
           rdf:resource="http://purl.org/dc/dcmitype/StillImage" /><dc:title></dc:title></cc:Work></rdf:RDF></metadata><defs
     id="defs6" /><g
     transform="matrix(1.25,0,0,-1.25,-365.19752,976.13331)"
     id="g4968"><g
   inkscape:export-ydpi="208"
   inkscape:export-xdpi="208"
   style="fill:#ffdd00;fill-opacity:1"
   transform="translate(135.77302,621.33365)"
   id="g6362"><path
     inkscape:connector-curvature="0"
     id="path6364"
     style="fill:#ffdd00;fill-opacity:1;fill-rule:nonzero;stroke:none"
     d="M 156.385,159.573 V -3.6269989 l 163.2,-3.7e-6 V 159.573 Z"
     sodipodi:nodetypes="ccccc" /></g><g
   id="g4809"
   transform="matrix(1.1394863,0,0,1.1394863,-52.376955,-108.71023)"><g
     id="g6442"
     transform="translate(389.03042,737.65595)"
     inkscape:export-xdpi="208"
     inkscape:export-ydpi="208"><path
       d="m 0,0 c 0.391,-1.708 -0.641,-2.729 -1.552,-3.798 -0.076,0.209 -0.15,0.421 -0.217,0.655 C -2.183,-1.977 -2.431,-0.225 -2.95,1.33 -1.702,1.387 -0.354,1.404 0,0 m -9.011,-26.816 c 0.063,-1.389 0.115,-2.789 0.147,-4.202 -0.869,1.313 -2.488,2.794 -0.147,4.202 m 61.643,54.901 c -0.491,2.512 -4.254,3.25 -5.499,2.944 C 45.267,30.271 42.894,27.815 40.652,27.3 35.038,25.77 28.656,23.805 23.763,21.801 17.608,19.224 11.962,17.669 6.284,15.123 1.325,13.168 -3.341,13.658 -4.911,10.998 -5.639,9.426 -5.401,6.622 -5.309,4.435 -6.021,4.74 -6.907,4.815 -8.054,4.518 -10.868,3.921 -8.74,-4.59 -8.837,-6.087 c -1.043,-5.307 -0.629,-11.674 -0.285,-18.451 -0.631,0.601 -1.32,1.269 -1.484,1.954 -0.754,2.938 0.31,5.476 0.392,7.855 0.027,0.969 -0.7,1.174 -1.721,1.006 -0.404,2.234 -1.312,5.185 -0.832,7.636 0.507,4.279 -0.884,9.599 -0.195,13.55 0.211,2.431 0.375,4.477 -0.197,6.679 -3.028,-0.076 -1.556,-2.366 -2.358,-4.323 -0.998,-2.706 -1.653,-4.424 -3.141,-6.48 -0.721,-1.136 -1.702,-1.546 -2.554,-2.944 -1.767,-2.611 0.195,-4.166 -0.195,-7.66 -0.405,-2.057 -0.714,-5.79 -0.948,-10.739 -2.984,-1.15 -6.25,-2.336 -9.069,-3.207 -0.268,-0.076 -0.529,-0.158 -0.794,-0.239 -0.05,0.593 -0.109,1.196 -0.187,1.811 -0.721,4.659 -0.803,23.887 -2.161,25.924 -0.77,-0.728 -1.915,-1.219 -2.357,-2.161 -0.787,-1.185 0.688,-4.458 -0.785,-4.319 -1.557,0.269 -1.473,-0.957 -2.357,-1.375 -1.081,-0.32 -2.308,-0.81 -2.946,-1.964 -0.918,-1.792 0.229,-4.083 0.198,-6.48 0.025,-4.352 0.445,-12.307 -0.033,-15.605 -3.749,-1.744 -7.313,-3.58 -11.164,-5.214 -4.075,-1.742 -8.084,-3.625 -11.979,-5.107 -2.078,-1.055 -4.221,-2.118 -6.873,-3.534 -0.034,0.026 0.703,-1.857 0.785,-2.75 -3.192,-1.398 -0.983,-5.082 -0.197,-7.069 -2.259,-1.857 0.933,-3.33 -0.392,-6.679 -0.312,-0.58 -3.585,-2.872 -3.34,-3.926 0.573,-2.462 3.275,-0.827 4.321,-0.198 8.118,3.298 12.454,4.609 19.641,8.446 2.445,1.238 5.168,2.428 7.992,3.604 -0.028,-2.509 -0.57,-5.849 -0.137,-7.14 0.424,-1.448 0.342,-7.174 0.786,-11.195 0.13,-2.119 -1.18,-18.402 1.177,-16.692 0.59,0.907 1.244,1.889 1.964,2.944 0.997,1.483 2.144,2.957 2.554,4.321 1.391,4.527 2.699,5.59 3.73,9.232 0.033,0.042 -0.13,4.869 -0.392,5.106 0.916,-0.81 0.016,6.881 0,8.052 0.014,4.341 0.516,8.636 0.98,9.742 1.135,0.481 2.257,0.963 3.341,1.452 2.482,0.831 4.846,1.896 7.159,3.011 -0.043,-3.777 -0.072,-7.748 -0.089,-11.848 0.082,-2.464 0.246,-7.128 0.394,-11.196 0.26,-2.151 0.26,-4.849 0.981,-6.087 0.424,-0.973 1.244,-0.891 2.356,-0.981 0.769,0.09 1.259,2.136 1.571,4.125 0.507,2.019 0.834,3.82 0.983,4.711 0.425,3.691 1.57,6.066 1.963,11.981 -0.39,4.281 2.103,10.839 0.619,13.489 1.287,0.544 2.584,1.035 3.898,1.435 0.654,0.203 1.093,0.423 1.375,0.655 -0.057,-8.935 0.753,-13.515 0.785,-21.471 -0.032,-2.807 0.05,-4.362 -0.392,-6.874 -0.376,-1.744 -1.032,-4.197 0.785,-4.91 0.72,1.287 0.885,2.021 1.572,3.535 0.866,1.514 1.604,2.088 2.16,3.928 3.289,-1.021 2.225,7.161 2.75,10.016 0.294,1.563 1.031,5.083 0.784,6.481 -0.735,6.129 0.902,10.385 0.984,16.104 -0.082,5.695 1.166,10.448 0.066,16.871 0.803,0.015 1.621,0.174 2.289,0.412 2.201,0.612 5.433,1.652 8.271,2.706 0.079,-6.138 0.345,-11.849 0.372,-18.811 0.375,-6.978 -0.035,-14.506 0,-16.89 -0.279,-5.228 0.784,-9.318 0.785,-15.121 -10e-4,-1.236 1.717,-2.545 3.143,-1.374 1.602,1.284 0.539,3.494 0.785,5.499 0.082,1.432 1.635,2.168 2.16,3.729 1.031,2.367 1.112,5.559 1.178,8.447 -0.066,2.758 0.098,5.377 0.59,7.856 0.654,5.703 0.572,12.658 0.587,18.657 -0.011,2.303 1.232,7.937 1.039,11.638 0.231,0.046 0.467,0.093 0.731,0.146 3.778,0.712 12.698,6.357 15.711,8.248 3.371,2.12 5.252,2.365 8.248,4.909 1.506,1.056 -0.377,2.12 0.197,3.927 0.572,1.876 1.717,3.922 2.159,5.892 0.213,1.466 -0.932,1.712 -0.391,3.34 0.195,0.907 3.059,3.773 4.123,4.124"
       style="fill:#1a171b;fill-opacity:1;fill-rule:nonzero;stroke:none"
       id="path6444"
       inkscape:connector-curvature="0" /></g><g
     id="g6446"
     transform="translate(385.35462,741.33165)"
     style="fill:#ffdd00;fill-opacity:1"
     inkscape:export-xdpi="208"
     inkscape:export-ydpi="208"><path
       d="m 0,0 c 0.391,-1.708 -0.641,-2.729 -1.552,-3.798 -0.076,0.209 -0.15,0.421 -0.216,0.655 C -2.183,-1.977 -2.431,-0.225 -2.95,1.33 -1.702,1.387 -0.354,1.404 0,0 m -9.011,-26.816 c 0.063,-1.389 0.115,-2.789 0.147,-4.202 -0.869,1.313 -2.488,2.794 -0.147,4.202 m 61.643,54.901 c -0.491,2.512 -4.254,3.25 -5.499,2.944 C 45.267,30.271 42.894,27.815 40.653,27.3 35.038,25.77 28.656,23.805 23.763,21.801 17.608,19.224 11.962,17.669 6.284,15.123 1.325,13.168 -3.341,13.658 -4.911,10.998 -5.639,9.426 -5.401,6.621 -5.309,4.435 -6.021,4.74 -6.907,4.814 -8.054,4.518 -10.868,3.921 -8.74,-4.59 -8.837,-6.087 c -1.043,-5.307 -0.629,-11.675 -0.285,-18.451 -0.631,0.601 -1.32,1.269 -1.484,1.954 -0.754,2.938 0.31,5.476 0.392,7.855 0.027,0.969 -0.7,1.174 -1.721,1.006 -0.404,2.234 -1.312,5.185 -0.832,7.636 0.507,4.279 -0.884,9.599 -0.195,13.55 0.211,2.431 0.375,4.477 -0.197,6.679 -3.028,-0.076 -1.556,-2.366 -2.358,-4.323 -0.998,-2.706 -1.653,-4.424 -3.141,-6.48 -0.721,-1.136 -1.702,-1.546 -2.554,-2.944 -1.767,-2.611 0.196,-4.166 -0.195,-7.66 -0.405,-2.057 -0.714,-5.79 -0.948,-10.739 -2.984,-1.15 -6.25,-2.336 -9.069,-3.207 -0.268,-0.076 -0.529,-0.158 -0.794,-0.239 -0.05,0.593 -0.109,1.196 -0.187,1.811 -0.721,4.659 -0.803,23.887 -2.161,25.924 -0.77,-0.728 -1.915,-1.219 -2.357,-2.161 -0.787,-1.185 0.688,-4.458 -0.785,-4.319 -1.556,0.269 -1.473,-0.957 -2.357,-1.375 -1.081,-0.32 -2.308,-0.811 -2.946,-1.964 -0.918,-1.792 0.229,-4.083 0.198,-6.48 0.025,-4.352 0.445,-12.307 -0.033,-15.605 -3.749,-1.744 -7.313,-3.58 -11.164,-5.214 -4.075,-1.742 -8.084,-3.625 -11.979,-5.107 -2.078,-1.055 -4.221,-2.118 -6.873,-3.534 -0.034,0.026 0.703,-1.857 0.785,-2.75 -3.192,-1.398 -0.983,-5.082 -0.197,-7.069 -2.259,-1.857 0.933,-3.33 -0.392,-6.679 -0.312,-0.58 -3.585,-2.872 -3.34,-3.926 0.573,-2.462 3.275,-0.827 4.321,-0.198 8.118,3.298 12.454,4.609 19.641,8.446 2.445,1.238 5.168,2.428 7.992,3.604 -0.027,-2.509 -0.57,-5.849 -0.137,-7.14 0.424,-1.449 0.342,-7.174 0.786,-11.195 0.13,-2.119 -1.18,-18.402 1.177,-16.692 0.59,0.907 1.244,1.889 1.964,2.944 0.998,1.483 2.144,2.957 2.554,4.321 1.391,4.527 2.699,5.59 3.73,9.232 0.033,0.042 -0.13,4.869 -0.392,5.106 0.916,-0.81 0.016,6.881 0,8.052 0.014,4.34 0.516,8.636 0.98,9.742 1.135,0.481 2.257,0.963 3.341,1.452 2.482,0.831 4.846,1.896 7.159,3.011 -0.043,-3.777 -0.072,-7.748 -0.089,-11.848 0.082,-2.464 0.246,-7.128 0.394,-11.196 0.26,-2.151 0.26,-4.849 0.981,-6.087 0.424,-0.973 1.244,-0.891 2.356,-0.981 0.769,0.09 1.259,2.136 1.571,4.125 0.507,2.019 0.834,3.82 0.983,4.711 0.425,3.691 1.57,6.066 1.963,11.981 -0.39,4.281 2.103,10.839 0.619,13.489 1.287,0.543 2.584,1.035 3.898,1.435 0.654,0.203 1.093,0.423 1.375,0.655 -0.057,-8.935 0.753,-13.515 0.785,-21.471 -0.032,-2.807 0.05,-4.362 -0.392,-6.874 -0.376,-1.744 -1.032,-4.197 0.785,-4.911 0.72,1.288 0.885,2.022 1.572,3.536 0.867,1.514 1.604,2.088 2.16,3.928 3.289,-1.021 2.225,7.161 2.75,10.016 0.294,1.563 1.031,5.083 0.785,6.481 -0.736,6.129 0.901,10.385 0.983,16.104 -0.082,5.695 1.166,10.448 0.066,16.871 0.803,0.015 1.621,0.174 2.289,0.412 2.201,0.612 5.433,1.652 8.271,2.706 0.079,-6.138 0.345,-11.849 0.372,-18.811 0.375,-6.978 -0.035,-14.506 0,-16.89 -0.279,-5.228 0.784,-9.318 0.785,-15.121 -10e-4,-1.236 1.717,-2.545 3.143,-1.374 1.602,1.284 0.539,3.494 0.785,5.499 0.082,1.432 1.635,2.168 2.16,3.729 1.031,2.367 1.112,5.559 1.178,8.447 -0.066,2.758 0.098,5.377 0.59,7.856 0.654,5.702 0.572,12.658 0.587,18.657 -0.011,2.303 1.232,7.937 1.039,11.638 0.231,0.046 0.467,0.093 0.731,0.146 3.778,0.712 12.698,6.357 15.711,8.248 3.371,2.12 5.252,2.365 8.248,4.909 1.506,1.056 -0.377,2.12 0.197,3.927 0.572,1.876 1.717,3.921 2.16,5.892 0.212,1.466 -0.933,1.712 -0.392,3.34 0.196,0.907 3.059,3.772 4.123,4.124"
       style="fill:#009036;fill-opacity:1;fill-rule:nonzero;stroke:none"
       id="path6448"
       inkscape:connector-curvature="0" /></g></g>

</g></svg>