<?xml version="1.0" encoding="UTF-8" standalone="no"?>
<!-- Created with Inkscape (http://www.inkscape.org/) -->

<svg
   xmlns:dc="http://purl.org/dc/elements/1.1/"
   xmlns:cc="http://creativecommons.org/ns#"
   xmlns:rdf="http://www.w3.org/1999/02/22-rdf-syntax-ns#"
   xmlns:svg="http://www.w3.org/2000/svg"
   xmlns="http://www.w3.org/2000/svg"
   xmlns:sodipodi="http://sodipodi.sourceforge.net/DTD/sodipodi-0.dtd"
   xmlns:inkscape="http://www.inkscape.org/namespaces/inkscape"
   version="1.1"
   width="408.625"
   height="204.35001"
   id="svg2"
   xml:space="preserve"
   sodipodi:docname="hit_zew_logo_h.svg"
   inkscape:version="0.92.4 (unknown)"
   inkscape:export-filename="/home/martijn/git/hit-icons/plaatslogo/src/svg/hit_logo_h_web_zeewolde.png"
   inkscape:export-xdpi="42.290001"
   inkscape:export-ydpi="42.290001"><sodipodi:namedview
     pagecolor="#ffffff"
     bordercolor="#666666"
     borderopacity="1"
     objecttolerance="10"
     gridtolerance="10"
     guidetolerance="10"
     inkscape:pageopacity="0"
     inkscape:pageshadow="2"
     inkscape:window-width="1920"
     inkscape:window-height="1056"
     id="namedview32"
     showgrid="false"
     inkscape:zoom="1.4438667"
     inkscape:cx="247.91001"
     inkscape:cy="60.541829"
     inkscape:window-x="0"
     inkscape:window-y="24"
     inkscape:window-maximized="1"
     inkscape:current-layer="g12" /><metadata
     id="metadata8"><rdf:RDF><cc:Work
         rdf:about=""><dc:format>image/svg+xml</dc:format><dc:type
           rdf:resource="http://purl.org/dc/dcmitype/StillImage" /><dc:title /></cc:Work></rdf:RDF></metadata><defs
     id="defs6" /><g
     transform="matrix(1.25,0,0,-1.25,0,204.35)"
     id="g10"><g
       transform="scale(0.1)"
       id="g12">
<g
   id="g9088"
   transform="matrix(19.877802,0,0,-18.807442,-23865.14,14404.996)"><g
     inkscape:export-ydpi="208"
     inkscape:export-xdpi="208"
     style="fill:#e2001a;fill-opacity:1"
     transform="matrix(0.50307373,0,0,-0.53170443,1202.4111,763.99149)"
     id="g6362-7-2"><path
       inkscape:connector-curvature="0"
       id="path6364-8-2"
       style="fill:#e2001a;fill-opacity:1;fill-rule:nonzero;stroke:none"
       d="M 0,0 V 156.237 H 156.234 L 156.238,0 Z M -3.617,159.851 V -3.617 l 326.904,-0.008 v 163.464 z" /></g><path
     inkscape:export-ydpi="208"
     inkscape:export-xdpi="208"
     inkscape:connector-curvature="0"
     id="path6366-8-1"
     style="fill:#ffffff;fill-opacity:1;fill-rule:nonzero;stroke:none;stroke-width:0.51719099"
     d="m 1202.4109,680.91874 h 78.5711 v 83.04264 h -78.5711 z" /><g
     inkscape:export-ydpi="208"
     inkscape:export-xdpi="208"
     transform="matrix(0.50307373,0,0,-0.53170443,1235.4882,688.18263)"
     id="g6376-6-5"><path
       inkscape:connector-curvature="0"
       id="path6378-9-0"
       style="fill:#ffffff;fill-opacity:1;fill-rule:nonzero;stroke:none"
       d="m 0,0 c -1.266,-0.374 -5.429,-1.854 -5.858,-5.208 -0.022,-0.172 -0.035,-0.354 -0.035,-0.543 0,-0.094 0.012,-0.193 0.019,-0.291 -0.537,0.016 -1.032,0.031 -1.367,0.043 l -3.419,0.069 -1.234,-0.217 c -1.465,-0.239 -5.424,-0.885 -5.504,-4.953 -0.012,-0.27 -0.059,-1.342 -0.059,-1.342 0,-2.416 0.494,-5.055 1.392,-7.43 0.264,-0.709 0.668,-1.254 0.961,-1.652 0.004,-0.005 0.177,-0.254 0.229,-0.329 0.516,-2.029 1.376,-3.696 2.403,-5.168 -2.774,-0.332 -5.574,-0.785 -8.335,-1.613 l 0.558,0.104 c -1.507,-0.114 -2.95,-0.914 -4.414,-2.449 l -0.135,-0.143 -0.113,-0.16 c -0.489,-0.698 -0.844,-1.381 -1.078,-2.059 -5.703,-1.688 -10.399,-3.133 -14.208,-4.378 -3.359,-1.107 -10.045,-3.952 -10.327,-4.073 l -0.183,-0.078 c 0,0 -0.039,-0.026 -0.051,-0.033 -0.049,-0.02 -0.099,-0.041 -0.099,-0.041 -5.114,-2.082 -6.187,-5.605 -6.187,-8.193 0,-4.064 3.155,-5.192 4.671,-5.734 0.343,-0.123 0.696,-0.25 0.879,-0.352 2.044,-1.119 4.007,-0.732 5.439,-0.451 l 0.97,0.169 c 0.703,0.087 1.476,0.315 2.246,0.557 0.709,-1.486 2.006,-2.86 4.042,-3.252 1.741,-0.341 2.902,-0.019 3.836,0.317 0.053,-0.523 0.159,-1.045 0.374,-1.552 0.36,-0.848 0.961,-1.628 1.707,-2.29 -1.233,-0.966 -2.984,-2.703 -2.984,-4.813 0,-0.19 0.014,-0.382 0.045,-0.576 -10e-4,0.002 0.02,-0.144 0.02,-0.144 0.16,-1.127 0.586,-4.119 4.682,-5.797 1.575,-0.645 3.397,-0.828 5.44,-0.566 0.18,-0.617 0.45,-1.199 0.809,-1.729 -1.127,-0.554 -1.381,-0.748 -1.554,-0.887 l -0.057,-0.048 c -0.751,-0.641 -1.844,-1.642 -2.668,-2.928 -0.343,-0.512 -1.375,-2.232 -1.375,-4.193 0,-0.354 0.034,-0.715 0.111,-1.078 0.262,-1.229 0.965,-2.234 2.033,-2.909 1.489,-0.919 3.115,-1.013 4.37,-0.894 0.204,-1.32 1.172,-2.827 4.164,-3.704 l 0.191,-0.056 c 0.963,-0.294 2.259,-0.244 4.995,-0.011 l 1.099,0.085 c 0.331,0.012 0.887,0.094 1.536,0.211 10e-4,-1.344 0.396,-2.539 1.148,-3.429 l 0.054,-0.063 c 1.694,-1.881 4.248,-2.391 5.266,-2.522 1.136,-0.16 2.585,0.325 5.394,1.469 l 0.687,0.276 c 0.137,0.053 0.478,0.154 0.879,0.265 0.109,-0.146 0.186,-0.299 0.321,-0.437 0.605,-0.625 1.689,-1.356 3.411,-1.295 1.57,0.041 4.219,0.631 4.516,0.697 l 0.159,0.035 0.152,0.055 c 3.273,1.182 14.067,5.092 15.508,5.867 l 0.055,0.031 c 1.195,0.603 10.772,3.659 14.862,4.963 l 2.941,0.942 c 4.308,1.357 8.265,4.419 9.406,5.607 l 0.041,0.045 c 0.955,1.041 1.577,2.47 1.849,4.246 0.032,0.19 0.045,0.377 0.045,0.562 0,0.932 -0.363,1.817 -0.849,2.654 2.24,1 4.427,1.977 4.489,2.005 0.804,0.297 2.868,1.221 3.731,3.128 0.202,0.446 0.292,0.886 0.32,1.312 2.389,0.613 5.026,1.289 5.026,1.289 0.002,0.001 0.082,0.02 0.082,0.02 1.516,0.358 5.54,1.313 9.289,3.171 3.505,1.696 4.178,3.706 4.178,5.4 0,0.231 -0.013,0.454 -0.031,0.671 l -0.014,0.153 -0.012,-0.195 c 0.016,0.127 0.024,0.254 0.024,0.382 0,1.758 -1.454,3.636 -2.789,4.615 -0.022,0.075 -0.036,0.128 -0.036,0.128 -0.847,1.02 -2.111,1.086 -2.718,1.118 l 0.068,-0.005 -0.745,0.123 c -0.964,0.204 -2.013,0.359 -4.255,0.309 -0.052,0.675 -0.157,1.322 -0.367,1.926 -1.327,3.98 -4.841,6.823 -8.942,7.212 -2.57,0.324 -4.56,0.208 -6.701,0.025 1.84,2.151 3.729,4.584 4.225,6.035 0.431,1.225 1.224,6.816 1.262,7.335 l 0.006,0.077 0.01,0.719 c 0,1.542 -0.155,2.59 -0.284,3.434 -0.01,0.085 -0.162,1.469 -0.178,1.605 -0.123,3.707 -0.741,7 -0.866,7.628 l -1.239,6.155 -3.705,-5.046 c -0.484,-0.669 -1.079,-1.47 -1.336,-1.793 -0.738,-0.567 -4.149,-2.928 -6.731,-4.544 -0.578,2.327 -1.957,4.374 -4.143,5.939 l -0.099,0.07 -0.103,0.062 c -2.75,1.607 -5.772,3.102 -9.239,3.148 -3.476,0.12 -6.71,-0.588 -9.617,-2.105 -1.765,-0.953 -3.072,-2.346 -4.224,-3.574 -0.725,-0.77 -1.395,-1.484 -2.107,-2.047 l 0.137,0.101 c -0.629,-0.433 -1.213,-0.894 -1.778,-1.361 -0.435,2.292 -0.943,4.86 -2.074,7.361 -1.372,2.936 -3.205,5.471 -5.772,8.002 -1.247,1.281 -3.534,2.264 -4.79,2.737 L 1.623,-0.017 0.84,0.247 Z" /></g><g
     inkscape:export-ydpi="208"
     inkscape:export-xdpi="208"
     transform="matrix(0.50307373,0,0,-0.53170443,1219.2621,723.73199)"
     id="g6380-4-1"><path
       inkscape:connector-curvature="0"
       id="path6382-1-2"
       style="fill:#ffffff;fill-opacity:1;fill-rule:nonzero;stroke:none"
       d="m 0,0 c -0.149,0.934 1.083,2.278 2.351,3.174 1.306,0.894 3.397,1.828 4.668,2.276 1.267,0.412 2.164,0.71 2.873,0.935 4.107,1.418 13.365,4.665 13.738,4.813 0.41,0.189 21.426,7.056 23.219,7.432 1.753,0.373 9.293,3.729 10.08,4.403 0.52,0.448 15.787,2.202 17.768,1.232 1.938,-0.97 -0.635,-7.617 2.912,-6.646 3.504,0.97 14.443,2.688 16.384,-0.445 1.94,-3.139 0.376,-4.706 -1.006,-5.303 C 91.642,11.31 66.222,4.965 66.222,4.965 c 0,0 -36.21,-9.779 -37.591,-10.002 -1.082,-0.19 -8.547,-2.504 -11.386,-3.435 -0.783,-0.261 0.112,0.036 -1.379,-0.411 -1.906,-0.558 -1.569,-0.262 -2.428,-0.111 -1.904,0.373 -3.36,1.681 -3.51,3.469 -0.149,1.754 2.801,2.762 2.578,2.762 -0.224,0 -5.563,-2.725 -9.407,-1.157 C 0.224,-2.763 0.148,-0.969 0,0" /></g><g
     inkscape:export-ydpi="208"
     inkscape:export-xdpi="208"
     transform="matrix(0.50307373,0,0,-0.53170443,1225.9705,728.86316)"
     id="g6384-6-3"><path
       inkscape:connector-curvature="0"
       id="path6386-7-6"
       style="fill:#005da8;fill-opacity:1;fill-rule:nonzero;stroke:none"
       d="m 0,0 c 0,0 19.337,6.008 21.428,6.795 2.09,0.782 24.783,7.018 26.353,7.351 1.529,0.338 17.508,5.266 19.333,5.751 1.83,0.485 13.89,3.696 13.89,3.696 0,0 3.846,0.93 7.727,1.117 3.883,0.15 3.992,-0.298 5.412,-0.409 1.42,-0.075 0.559,-0.373 1.01,-0.524 0.41,-0.111 2.162,-1.902 2.053,-2.762 -0.115,-0.859 0.855,-2.314 -2.69,-4.031 -3.546,-1.755 -7.391,-2.65 -8.81,-2.988 -1.416,-0.334 -8.289,-2.125 -8.289,-2.125 0,0 1.684,-0.785 1.161,-1.943 -0.523,-1.157 -2.353,-1.79 -2.353,-1.79 L 67.528,4.253 c 0,0 2.166,-0.632 2.463,-1.081 0.3,-0.448 1.082,-1.568 0.968,-2.276 -0.109,-0.711 -0.373,-1.981 -1.192,-2.875 -0.823,-0.859 -4.405,-3.696 -8.324,-4.929 -3.918,-1.268 -16.911,-5.336 -18.29,-6.121 -1.384,-0.744 -15.158,-5.71 -15.158,-5.71 0,0 -2.648,-0.599 -4.03,-0.635 -2.164,-0.075 -2.016,2.239 -2.016,2.239 0,0 -2.799,-0.674 -3.51,-0.971 -0.708,-0.262 -3.918,-1.68 -4.739,-1.566 -0.859,0.111 -2.614,0.521 -3.658,1.68 -1.009,1.193 -0.335,3.581 0.037,3.846 0.335,0.261 1.118,1.49 1.118,1.49 0,0 -4.926,-1.157 -5.934,-1.193 -0.969,-0.036 -4.367,-0.45 -5.227,-0.188 -0.856,0.264 -2.873,0.709 -2.5,2.277 0.373,1.607 1.381,2.799 2.464,3.247 1.082,0.45 -3.92,-1.379 -3.92,-1.379 0,0 -2.389,-0.86 -4.143,0.223 -1.718,1.083 -0.634,3.548 0.037,4.554 0.671,1.047 1.642,1.904 2.165,2.35 C -5.303,-2.314 0,0 0,0" /></g><g
     inkscape:export-ydpi="208"
     inkscape:export-xdpi="208"
     transform="matrix(0.50307373,0,0,-0.53170443,1210.5865,711.68352)"
     id="g6388-2-4"><path
       inkscape:connector-curvature="0"
       id="path6390-7-7"
       style="fill:#e2001a;fill-opacity:1;fill-rule:nonzero;stroke:none"
       d="m 0,0 c 0,0 6.829,2.91 10.114,3.993 7.54,2.465 16.836,5.153 19.898,6.049 2.91,0.895 11.907,3.62 19.522,5.934 6.049,1.83 11.273,3.398 11.834,3.545 1.306,0.298 27.435,8.513 28.296,7.505 0.858,-0.969 3.547,-3.397 3.397,-6.908 C 92.911,16.573 86.417,7.95 85.296,7.354 84.139,6.792 64.804,2.985 64.804,2.985 c 0,0 10.003,3.957 10.448,-0.15 0.415,-4.105 -7.763,-5.562 -8.173,-5.784 -0.41,-0.262 -16.237,-5.227 -28.107,-9.034 -7.879,-2.537 -12.954,-4.478 -13.441,-4.553 -1.267,-0.112 -3.469,-1.829 -5.674,-0.972 -1.492,0.596 -3.395,2.276 -2.538,4.366 0.86,2.13 2.69,2.54 2.69,2.54 0,0 -1.196,-0.41 -3.734,-0.86 -2.539,-0.41 -2.987,-1.379 -5.077,-0.97 -2.127,0.411 -2.689,2.95 -2.577,3.66 0.149,0.708 -2.984,-0.748 -4.517,-0.935 -1.567,-0.188 -3.248,-0.895 -4.815,-0.037 -1.528,0.86 -4.218,0.86 -4.218,3.806 0,4.557 4.593,5.678 4.929,5.938" /></g><g
     inkscape:export-ydpi="208"
     inkscape:export-xdpi="208"
     transform="matrix(0.50307373,0,0,-0.53170443,1257.6821,700.81265)"
     id="g6392-1-6"><path
       inkscape:connector-curvature="0"
       id="path6394-7-9"
       style="fill:#009036;fill-opacity:1;fill-rule:nonzero;stroke:none"
       d="M 0,0 C 0,0.002 -0.281,1.17 -0.281,1.17 -0.527,2.128 -0.83,3.317 -0.855,3.825 -1.096,5.95 -2.221,7.746 -4.2,9.163 c -2.446,1.432 -5.095,2.756 -7.96,2.793 -3.035,0.111 -5.848,-0.496 -8.362,-1.81 C -21.883,9.411 -22.984,8.237 -24.053,7.1 -24.801,6.304 -25.574,5.479 -26.443,4.792 -27.492,4.068 -28.466,3.22 -29.408,2.401 L -31.073,0.985 C -31.11,0.976 -31.301,0.892 -31.36,0.919 l -0.037,0.066 c -0.34,1.28 -0.59,2.594 -0.832,3.867 -0.44,2.316 -0.895,4.711 -1.937,7.014 -1.229,2.634 -2.899,4.937 -5.255,7.253 -1.057,1.09 -3.747,2.079 -3.861,2.123 l -0.047,0.016 -0.046,-0.013 c -0.155,-0.047 -3.76,-1.125 -4.004,-3.031 -0.123,-0.965 0.633,-1.946 2.252,-2.916 -0.002,0 0.036,-0.031 0.071,-0.059 -0.447,-0.298 -4.146,-0.176 -6.39,-0.099 l -3.129,0.063 c -0.028,-0.005 -0.978,-0.173 -0.978,-0.173 -1.554,-0.253 -3.317,-0.535 -3.349,-2.437 -0.037,-0.416 -0.056,-0.842 -0.056,-1.281 0,-2.096 0.429,-4.403 1.224,-6.504 0.138,-0.37 0.382,-0.704 0.617,-1.022 0.233,-0.318 0.454,-0.619 0.577,-0.953 0.795,-3.479 2.864,-5.746 5.055,-8.148 0,0 0.026,-0.03 0.036,-0.041 -0.129,-0.012 -0.262,-0.026 -0.262,-0.026 -4.131,-0.387 -8.407,-0.787 -12.459,-2.004 -0.821,-0.062 -1.72,-0.601 -2.715,-1.645 -0.646,-0.919 -0.937,-1.694 -0.937,-2.458 -0.033,-0.223 -0.046,-0.449 -0.046,-0.676 0,-1.281 0.493,-2.596 1.529,-4.073 1.363,-2.146 2.876,-3.878 4.621,-5.295 2.213,-1.668 4.634,-2.828 7.852,-3.762 1.421,-0.439 2.581,0.376 3.707,1.166 0.536,0.375 1.095,0.73 1.673,0.976 -0.837,-1.502 -1.484,-3.35 -1.484,-5.14 0,-1.359 0.365,-2.672 1.299,-3.749 1.046,-1.128 2.547,-1.692 3.872,-2.134 0.784,-0.146 1.53,-0.13 2.32,-0.109 l 1.487,-0.01 c 1.655,0.106 3.367,0.99 4.383,2.258 2.942,4.359 4.422,9.004 4.422,13.837 0,0.558 -0.021,1.12 -0.061,1.681 0.022,0.047 0.165,0.368 0.165,0.368 0,0 0.057,0.121 0.112,0.236 0.187,-0.17 1.343,-1.211 1.343,-1.211 1.441,-1.128 1.507,-1.276 2.32,-3.069 l 1.636,-3.455 c 0.415,-0.81 0.609,-1.987 0.609,-3.414 0,-6.484 -3.993,-18.147 -9.619,-24.376 -1.249,-1.386 -1.865,-2.38 -1.865,-3.013 0,-0.162 0.039,-0.299 0.118,-0.414 0.66,-0.947 3.765,0.248 4.117,0.388 l 0.044,0.016 0.025,0.041 c 0.08,0.125 7.919,12.568 10.433,22.479 0.415,1.63 0.669,3.469 0.669,5.363 0,3.889 -1.069,8.015 -4.027,11.054 -0.032,0.025 -0.609,0.507 -0.609,0.507 -0.243,0.228 -0.52,0.479 -0.84,0.671 0.068,0.138 0.195,0.409 0.263,0.552 1.465,-0.385 2.817,-0.981 4.122,-1.564 1.569,-0.703 3.048,-1.366 4.73,-1.686 0.594,-0.145 1.013,-0.389 1.418,-0.626 0.613,-0.357 1.191,-0.691 2.275,-0.645 l 1.67,0.176 c 0.754,0.112 1.25,0.187 1.771,-0.051 0.186,-0.084 0.441,-0.041 0.774,0.14 1.442,0.785 4.069,4.005 4.287,5.537 0.008,0.086 0.008,0.188 0.008,0.297 0,1.305 -0.49,4.08 -1.966,5.217 -0.737,0.577 -2.26,1.349 -3.604,2.027 -1.069,0.539 -2.366,1.197 -2.603,1.46 3.949,2.144 7.507,0.494 7.543,0.478 3.702,-2.385 4.907,-3.158 5.331,-3.371 0.02,-0.014 0.008,-0.044 0.028,-0.055 0,0 0.018,0.024 0.023,0.029 0.164,-0.078 0.195,-0.056 0.225,-0.018 l 0.085,0.13 -0.171,0.111 c -0.135,0.086 0.138,0.66 0.378,1.166 C -0.469,-3.861 0.378,-2.075 0,0" /></g><g
     inkscape:export-ydpi="208"
     inkscape:export-xdpi="208"
     transform="matrix(0.50307373,0,0,-0.53170443,1253.5244,704.53407)"
     id="g6396-7-2"><path
       inkscape:connector-curvature="0"
       id="path6398-9-3"
       style="fill:#009036;fill-opacity:1;fill-rule:nonzero;stroke:none"
       d="M 0,0 V -0.002 Z" /></g><g
     inkscape:export-ydpi="208"
     inkscape:export-xdpi="208"
     transform="matrix(0.50307373,0,0,-0.53170443,1269.4916,713.76153)"
     id="g6400-8-3"><path
       inkscape:connector-curvature="0"
       id="path6402-8-8"
       style="fill:#ffdd00;fill-opacity:1;fill-rule:nonzero;stroke:none"
       d="m 0,0 c -1.013,3.039 -3.654,5.187 -6.732,5.474 -2.657,0.341 -4.586,0.17 -7.03,-0.045 l -1.657,-0.142 c -0.405,0 -2.202,-0.722 -4.701,-1.738 -0.592,-0.244 -1.158,-0.474 -1.639,-0.665 1.366,1.127 3.536,3.39 5.38,5.518 2.125,2.385 4.542,5.37 4.956,6.581 0.308,0.873 1.087,6.127 1.128,6.681 0.005,0.212 0.01,0.411 0.01,0.603 0,1.371 -0.139,2.283 -0.264,3.099 l -0.191,1.729 c -0.114,3.849 -0.82,7.304 -0.826,7.342 l -0.067,0.33 -0.2,-0.274 c -0.013,-0.017 -1.27,-1.754 -1.595,-2.116 -0.33,-0.33 -5.472,-3.896 -8.365,-5.606 -4.571,-2.731 -6.638,-6.268 -7.315,-7.43 l -0.162,-0.274 c -0.425,-0.696 -0.912,-1.777 -1.38,-2.821 -0.44,-0.976 -0.854,-1.899 -1.157,-2.364 -0.427,-0.631 -0.935,-2.034 -1.306,-3.063 -0.164,-0.453 -0.321,-0.883 -0.377,-0.972 -0.301,-0.321 -0.422,-0.979 -0.538,-1.614 -0.066,-0.363 -0.141,-0.7 -0.245,-0.951 -0.048,0.092 -0.101,0.205 -0.142,0.33 -0.014,0.048 -0.405,1.367 -2.886,5.96 -2.293,4.279 -2.644,4.249 -6.933,3.87 l -1.609,-0.133 c -4.737,-0.347 -8.248,-2.79 -10.132,-4.103 l -0.869,-0.586 c -0.975,-0.599 -2.886,-3.295 -5.094,-6.414 l -2.499,-3.491 0.333,0.035 c 0.586,0.068 1.132,-0.012 1.714,-0.096 0.605,-0.086 1.234,-0.162 1.903,-0.068 -0.037,-0.18 -0.079,-0.361 -0.079,-0.544 0,-0.909 0.476,-1.813 1.354,-2.507 1.095,-1.096 2.152,-1.744 3.521,-2.153 0.172,-0.007 0.273,-0.237 0.365,-0.462 0.105,-0.244 0.212,-0.498 0.415,-0.637 l 0.077,-0.054 0.1,0.046 c 0.171,0.096 0.244,0.495 0.359,4.338 0.021,0.764 0.044,1.557 0.065,1.655 0.826,2.612 2.865,4.275 5.581,4.55 1.006,0.109 3.897,-0.255 4.32,-2.38 0.012,-0.039 0.573,-1.294 0.906,-1.635 0.004,-0.018 0.942,-2.709 0.942,-2.709 0.578,-1.713 1.033,-3.067 2.045,-5.172 0.139,-0.25 0.153,-0.514 0.168,-0.789 l 0.044,-0.442 c 0.046,-0.223 0.068,-0.461 0.068,-0.703 0,-0.851 -0.266,-1.816 -0.762,-2.748 -0.407,-0.707 -1.274,-1.767 -1.914,-1.901 -1.656,-0.314 -2.077,-0.041 -3.094,0.624 l -0.943,0.589 c -0.687,0.402 -1.34,3.348 -1.535,4.451 0.229,2.248 0.552,6.132 0.172,6.439 -0.229,0.204 -0.667,-0.136 -3.318,-2.6 -1.61,-1.495 -3.612,-3.355 -5.264,-4.604 -2.358,-1.761 -3.53,-3.962 -4.388,-5.57 -0.372,-0.699 -0.693,-1.302 -1.008,-1.652 -0.446,-0.477 -0.275,-1.118 -0.112,-1.735 l 0.149,-0.63 c 0.289,-1.474 1.189,-2.585 2.058,-3.659 l 0.176,-0.219 c 0.588,-0.81 2.335,-2.929 2.352,-2.951 0.042,-0.039 2.975,-2.808 5.363,-0.764 3.363,1.088 4.96,2.112 5.023,2.155 1.197,0.592 2.506,1.197 3.15,1.437 -1.084,-1.048 -3.25,-3.888 -4.006,-6.193 -0.753,-2.369 -2.316,-6.155 -2.717,-6.961 l -0.409,-0.799 c -0.789,-1.554 -2.635,-5.193 -3.112,-5.697 -0.601,-0.602 -0.834,-1.016 -0.423,-1.607 0.086,-0.127 0.183,-0.194 0.298,-0.206 0.202,-0.015 0.373,0.154 0.586,0.366 0.204,0.199 0.456,0.449 0.795,0.611 0.485,0.253 3.131,2.706 5.93,5.303 2.234,2.07 4.543,4.211 5.294,4.791 1.545,1.205 2.715,2.377 4.194,3.857 l 0.414,0.412 c 0,0 3.871,3.937 4.47,4.545 0.477,-0.301 2.94,-1.806 4.86,-2.418 1.389,-0.272 3.027,-0.482 4.751,0 3.073,0.908 7.732,4.313 11.101,7.008 l 0.195,0.156 -0.227,0.098 c -0.624,0.269 -1.339,0.034 -2.244,-0.262 -1.125,-0.363 -2.526,-0.821 -4.36,-0.511 -2.655,0.388 -3.613,0.769 -4.312,1.046 l -0.482,0.18 c -0.003,0 -0.287,0.092 -0.287,0.092 -1.791,0.555 -3.644,1.135 -4.713,2.686 -0.009,0.028 -0.014,0.055 -0.014,0.087 0,0.123 0.053,0.3 0.11,0.496 l 0.113,0.467 c 0.244,0.921 0.947,1.547 1.625,2.153 l 0.61,0.566 c 1.256,1.524 2.44,2.508 3.728,3.105 1.071,0.549 2.748,1.237 4.691,1.407 l 1.17,0.011 c 1.273,0.018 2.476,0.038 3.723,-0.162 0.933,-0.122 1.181,-1.109 1.42,-2.066 l 0.063,-0.25 c 0.032,-0.63 -0.102,-1.424 -0.37,-2.15 -0.232,-0.2 -2.988,-0.485 -4.631,-0.655 -2.289,-0.234 -2.291,-0.244 -2.326,-0.4 l -0.014,-0.061 0.043,-0.062 c 0.645,-0.988 2.776,-1.425 3.99,-1.596 3.404,-0.478 8.041,-0.16 9.598,1.192 2.039,1.871 3.549,3.89 4.371,5.839 C 0.311,-3.422 0.52,-1.484 0,0" /></g><g
     inkscape:export-ydpi="208"
     inkscape:export-xdpi="208"
     transform="matrix(0.50307373,0,0,-0.53170443,1225.5535,725.20093)"
     id="g6404-9-1"><path
       inkscape:connector-curvature="0"
       id="path6406-8-3"
       style="fill:#1a171b;fill-opacity:1;fill-rule:nonzero;stroke:none"
       d="m 0,0 c -0.221,-0.007 -5.576,-2.737 -9.404,-1.167 -2.872,1.18 -2.962,2.956 -3.11,3.918 -0.097,0.645 0.42,1.471 1.16,2.217 -1.199,-0.901 -2.271,-2.157 -2.131,-3.063 0.146,-0.961 0.236,-2.74 3.108,-3.916 2.942,-1.207 6.787,0.125 8.508,0.813 C -1.056,-0.416 0.144,0.005 0,0" /></g><g
     inkscape:export-ydpi="208"
     inkscape:export-xdpi="208"
     transform="matrix(0.50307373,0,0,-0.53170443,1227.5687,728.33559)"
     id="g6408-4-0"><path
       inkscape:connector-curvature="0"
       id="path6410-2-6"
       style="fill:#1a171b;fill-opacity:1;fill-rule:nonzero;stroke:none"
       d="m 0,0 c -0.983,-0.227 -2.427,-0.448 -3.078,-0.325 -1.901,0.356 -3.352,1.665 -3.505,3.466 -0.041,0.48 0.15,0.9 0.44,1.261 -0.719,-0.468 -1.49,-1.179 -1.412,-2.108 0.152,-1.798 1.604,-3.107 3.505,-3.464 0.12,-0.021 0.216,-0.047 0.298,-0.072 0.354,0.154 0.575,0.25 0.575,0.25 0,0 1.264,0.396 3.177,0.992" /></g><g
     inkscape:export-ydpi="208"
     inkscape:export-xdpi="208"
     transform="matrix(0.50307373,0,0,-0.53170443,1208.1532,750.22167)"
     id="g6412-4-4"><path
       inkscape:connector-curvature="0"
       id="path6414-4-3"
       style="fill:#e2001a;fill-opacity:1;fill-rule:nonzero;stroke:none"
       d="m 0,0 5.896,0.369 c 0.128,-0.957 0.388,-1.687 0.78,-2.188 0.638,-0.812 1.551,-1.218 2.737,-1.218 0.884,0 1.566,0.207 2.045,0.623 0.479,0.414 0.718,0.894 0.718,1.443 0,0.52 -0.228,0.985 -0.684,1.395 C 11.036,0.835 9.978,1.223 8.318,1.588 5.6,2.198 3.662,3.01 2.503,4.021 1.336,5.035 0.752,6.324 0.752,7.894 c 0,1.031 0.299,2.004 0.896,2.92 0.597,0.918 1.497,1.638 2.696,2.163 1.199,0.524 2.843,0.787 4.931,0.787 2.564,0 4.518,-0.478 5.863,-1.43 1.345,-0.954 2.146,-2.47 2.401,-4.55 L 11.697,7.443 C 11.542,8.346 11.216,9.002 10.719,9.412 10.222,9.823 9.535,10.027 8.66,10.027 7.939,10.027 7.396,9.875 7.032,9.57 6.667,9.264 6.484,8.893 6.484,8.455 6.484,8.136 6.636,7.849 6.937,7.594 7.229,7.328 7.922,7.082 9.016,6.854 11.725,6.271 13.665,5.68 14.837,5.083 c 1.172,-0.599 2.025,-1.339 2.559,-2.224 0.533,-0.884 0.8,-1.874 0.8,-2.968 0,-1.287 -0.356,-2.472 -1.067,-3.557 -0.712,-1.086 -1.706,-1.908 -2.983,-2.47 -1.277,-0.561 -2.886,-0.841 -4.83,-0.841 -3.411,0 -5.773,0.657 -7.086,1.969 C 0.917,-3.693 0.173,-2.025 0,0" /></g><g
     inkscape:export-ydpi="208"
     inkscape:export-xdpi="208"
     transform="matrix(0.50307373,0,0,-0.53170443,1224.1415,750.72328)"
     id="g6416-3-1"><path
       inkscape:connector-curvature="0"
       id="path6418-0-8"
       style="fill:#e2001a;fill-opacity:1;fill-rule:nonzero;stroke:none"
       d="M 0,0 5.295,-0.602 C 5.003,-1.706 4.524,-2.662 3.858,-3.469 3.192,-4.275 2.342,-4.903 1.307,-5.35 0.271,-5.797 -1.045,-6.021 -2.641,-6.021 c -1.541,0 -2.825,0.144 -3.85,0.431 -1.027,0.287 -1.909,0.752 -2.648,1.395 -0.739,0.642 -1.318,1.395 -1.737,2.261 -0.42,0.866 -0.63,2.014 -0.63,3.446 0,1.494 0.255,2.738 0.767,3.731 0.373,0.73 0.884,1.382 1.532,1.962 0.647,0.578 1.313,1.008 1.997,1.291 1.085,0.446 2.477,0.67 4.173,0.67 2.371,0 4.18,-0.424 5.425,-1.272 1.245,-0.849 2.118,-2.089 2.62,-3.722 l -5.24,-0.697 c -0.164,0.619 -0.463,1.087 -0.897,1.402 -0.434,0.314 -1.015,0.472 -1.744,0.472 -0.921,0 -1.667,-0.33 -2.237,-0.992 -0.57,-0.658 -0.855,-1.658 -0.855,-2.996 0,-1.193 0.282,-2.099 0.849,-2.717 0.564,-0.621 1.285,-0.929 2.161,-0.929 0.729,0 1.343,0.186 1.84,0.56 C -0.618,-1.351 -0.246,-0.775 0,0" /></g><g
     inkscape:export-ydpi="208"
     inkscape:export-xdpi="208"
     transform="matrix(0.50307373,0,0,-0.53170443,1230.5562,749.90185)"
     id="g6420-8-8"><path
       inkscape:connector-curvature="0"
       id="path6422-1-8"
       style="fill:#e2001a;fill-opacity:1;fill-rule:nonzero;stroke:none"
       d="m 0,0 c 0,-1.295 0.262,-2.252 0.786,-2.873 0.525,-0.62 1.184,-0.93 1.978,-0.93 0.801,0 1.461,0.305 1.976,0.916 0.516,0.612 0.774,1.592 0.774,2.943 0,1.258 -0.261,2.195 -0.781,2.81 C 4.214,3.482 3.571,3.791 2.805,3.791 1.993,3.791 1.322,3.478 0.793,2.854 0.265,2.229 0,1.277 0,0 m -5.582,-0.014 c 0,2.217 0.747,4.043 2.244,5.48 1.495,1.436 3.516,2.155 6.061,2.155 2.909,0 5.107,-0.844 6.593,-2.531 1.196,-1.36 1.793,-3.033 1.793,-5.022 0,-2.234 -0.741,-4.065 -2.223,-5.492 -1.483,-1.428 -3.532,-2.141 -6.15,-2.141 -2.335,0 -4.223,0.592 -5.664,1.778 -1.769,1.469 -2.654,3.393 -2.654,5.773" /></g><g
     inkscape:export-ydpi="208"
     inkscape:export-xdpi="208"
     transform="matrix(0.50307373,0,0,-0.53170443,1245.1957,753.74995)"
     id="g6424-4-4"><path
       inkscape:connector-curvature="0"
       id="path6426-4-9"
       style="fill:#e2001a;fill-opacity:1;fill-rule:nonzero;stroke:none"
       d="M 0,0 H -5.199 V 2.354 C -5.974,1.388 -6.757,0.698 -7.545,0.287 c -0.789,-0.409 -1.758,-0.615 -2.908,-0.615 -1.532,0 -2.734,0.458 -3.605,1.375 -0.871,0.917 -1.307,2.328 -1.307,4.234 v 9.248 h 5.596 V 6.54 c 0,-0.912 0.169,-1.561 0.506,-1.942 0.338,-0.384 0.812,-0.576 1.423,-0.576 0.666,0 1.212,0.256 1.635,0.766 0.424,0.512 0.637,1.429 0.637,2.751 v 6.99 H 0 Z" /></g><g
     inkscape:export-ydpi="208"
     inkscape:export-xdpi="208"
     transform="matrix(0.50307373,0,0,-0.53170443,1250.2746,743.08523)"
     id="g6428-4-3"><path
       inkscape:connector-curvature="0"
       id="path6430-4-5"
       style="fill:#e2001a;fill-opacity:1;fill-rule:nonzero;stroke:none"
       d="M 0,0 V -5.528 H 3.064 V -9.604 H 0 v -5.149 c 0,-0.618 0.06,-1.028 0.178,-1.228 0.182,-0.31 0.502,-0.464 0.958,-0.464 0.41,0 0.984,0.119 1.723,0.354 l 0.411,-3.843 c -1.377,-0.301 -2.664,-0.452 -3.858,-0.452 -1.387,0 -2.408,0.178 -3.064,0.532 -0.659,0.356 -1.143,0.896 -1.458,1.62 -0.314,0.724 -0.472,1.897 -0.472,3.519 v 5.111 h -2.052 v 4.076 h 2.052 v 2.668 z" /></g><path
     inkscape:export-ydpi="208"
     inkscape:export-xdpi="208"
     inkscape:connector-curvature="0"
     id="path6432-0-3"
     style="fill:#e2001a;fill-opacity:1;fill-rule:nonzero;stroke:none;stroke-width:0.51719099"
     d="m 1253.2546,746.02487 h 2.8011 v 7.72514 h -2.8011 z m 0,-2.9398 h 2.8011 v 2.01569 h -2.8011 z" /><g
     inkscape:export-ydpi="208"
     inkscape:export-xdpi="208"
     transform="matrix(0.50307373,0,0,-0.53170443,1257.8452,746.02467)"
     id="g6434-2-8"><path
       inkscape:connector-curvature="0"
       id="path6436-0-8"
       style="fill:#e2001a;fill-opacity:1;fill-rule:nonzero;stroke:none"
       d="m 0,0 h 5.186 v -2.366 c 0.774,0.966 1.559,1.657 2.352,2.072 0.794,0.416 1.761,0.623 2.901,0.623 1.541,0 2.748,-0.459 3.618,-1.375 0.873,-0.916 1.308,-2.333 1.308,-4.248 v -9.235 H 9.769 v 7.989 c 0,0.912 -0.169,1.559 -0.506,1.936 -0.337,0.378 -0.812,0.569 -1.423,0.569 -0.676,0 -1.223,-0.255 -1.642,-0.767 -0.42,-0.511 -0.63,-1.427 -0.63,-2.75 v -6.977 H 0 Z" /></g><g
     inkscape:export-ydpi="208"
     inkscape:export-xdpi="208"
     transform="matrix(0.50307373,0,0,-0.53170443,1269.697,749.77099)"
     id="g6438-7-1"><path
       inkscape:connector-curvature="0"
       id="path6440-1-1"
       style="fill:#e2001a;fill-opacity:1;fill-rule:nonzero;stroke:none"
       d="m 0,0 c 0,-1.049 0.225,-1.826 0.671,-2.332 0.446,-0.506 1.035,-0.76 1.765,-0.76 0.693,0 1.275,0.262 1.744,0.787 0.47,0.526 0.705,1.317 0.705,2.373 0,1.059 -0.246,1.869 -0.739,2.43 C 3.653,3.059 3.051,3.339 2.34,3.339 1.629,3.339 1.062,3.081 0.637,2.566 0.213,2.05 0,1.195 0,0 m 5.24,7.046 h 5.213 V -6.676 l 0.014,-0.642 C 10.467,-8.23 10.272,-9.1 9.885,-9.926 9.498,-10.751 8.982,-11.418 8.34,-11.93 7.695,-12.44 6.881,-12.81 5.891,-13.037 4.9,-13.266 3.768,-13.38 2.49,-13.38 c -2.918,0 -4.922,0.439 -6.011,1.314 -1.091,0.876 -1.636,2.048 -1.636,3.515 0,0.184 0.009,0.43 0.027,0.739 l 5.404,-0.615 c 0.137,-0.502 0.347,-0.848 0.63,-1.04 0.41,-0.283 0.925,-0.425 1.545,-0.425 0.803,0 1.403,0.215 1.799,0.644 0.398,0.429 0.596,1.177 0.596,2.244 v 2.203 C 4.297,-5.449 3.75,-5.918 3.201,-6.211 2.346,-6.666 1.419,-6.895 0.424,-6.895 c -1.942,0 -3.51,0.848 -4.705,2.544 -0.849,1.205 -1.273,2.796 -1.273,4.776 0,2.262 0.547,3.985 1.642,5.172 1.094,1.184 2.526,1.778 4.296,1.778 1.13,0 2.063,-0.191 2.798,-0.575 C 3.916,6.418 4.602,5.783 5.24,4.898 Z" /></g><path
     d="m 1329.8183,702.1424 c 0.1967,0.90816 -0.3225,1.45102 -0.7808,2.01941 -0.038,-0.11108 -0.075,-0.22383 -0.1091,-0.34825 -0.2083,-0.61997 -0.333,-1.55152 -0.5941,-2.37832 0.6278,-0.0303 1.3059,-0.0393 1.484,0.70716 m -4.5332,14.25818 c 0.032,0.73854 0.058,1.48293 0.074,2.23422 -0.4371,-0.69811 -1.2516,-1.48558 -0.074,-2.23422 m 31.011,-29.19109 c -0.247,-1.33564 -2.1401,-1.72804 -2.7664,-1.56534 -0.9387,0.40304 -2.1325,1.7089 -3.2604,1.98273 -2.8243,0.81351 -6.0349,1.8583 -8.4964,2.92384 -3.0965,1.37019 -5.9368,2.19699 -8.7932,3.55072 -2.4948,1.03948 -4.8421,0.77895 -5.632,2.19327 -0.3662,0.83585 -0.2465,2.32675 -0.2002,3.48959 -0.3582,-0.16217 -0.8039,-0.20205 -1.3809,-0.0442 -1.4157,0.31742 -0.3451,4.84277 -0.3939,5.63871 -0.5247,2.82177 -0.3165,6.20713 -0.1434,9.81049 -0.3174,-0.31955 -0.6641,-0.67474 -0.7466,-1.03895 -0.3793,-1.56215 0.156,-2.91161 0.1972,-4.17654 0.014,-0.51522 -0.3521,-0.62422 -0.8658,-0.5349 -0.2032,-1.18782 -0.66,-2.75689 -0.4185,-4.0601 0.2551,-2.27515 -0.4447,-5.10382 -0.098,-7.20458 0.1061,-1.29258 0.1886,-2.38044 -0.099,-3.55126 -1.5233,0.0404 -0.7828,1.25801 -1.1863,2.29856 -0.502,1.4388 -0.8316,2.35226 -1.5801,3.44544 -0.3628,0.60403 -0.8563,0.82201 -1.2849,1.56534 -0.8889,1.38828 0.098,2.21508 -0.098,4.07286 -0.2037,1.09371 -0.3592,3.07857 -0.4769,5.70998 -1.5012,0.61145 -3.1442,1.24206 -4.5624,1.70516 -0.1348,0.0404 -0.2661,0.0839 -0.3994,0.12706 -0.025,-0.31529 -0.055,-0.63592 -0.094,-0.96292 -0.3628,-2.47721 -0.404,-12.70082 -1.0872,-13.7839 -0.3873,0.38709 -0.9634,0.64815 -1.1857,1.14902 -0.3959,0.63007 0.3461,2.37033 -0.3949,2.29642 -0.7833,-0.14303 -0.7411,0.50885 -1.1858,0.7311 -0.5438,0.17014 -1.1611,0.43068 -1.482,1.04427 -0.4619,0.95282 0.1152,2.17095 0.1,3.44544 0.013,2.31398 0.2239,6.54368 -0.016,8.29726 -1.8861,0.92728 -3.679,1.90349 -5.6164,2.7723 -2.05,0.92623 -4.0668,1.92743 -6.0263,2.7154 -1.0454,0.56097 -2.1235,1.12616 -3.4576,1.87905 -0.017,-0.0136 0.3536,0.98738 0.3949,1.46219 -1.6058,0.74332 -0.4945,2.70213 -0.099,3.75863 -1.1365,0.98736 0.4694,1.77057 -0.1972,3.55125 -0.157,0.30838 -1.8035,1.52705 -1.6803,2.08746 0.2883,1.30906 1.6476,0.43972 2.1738,0.1052 4.0839,-1.75356 6.2653,-2.45062 9.8809,-4.49077 1.23,-0.65825 2.5999,-1.29097 4.0205,-1.91626 -0.014,1.33404 -0.2867,3.10994 -0.069,3.79638 0.2132,0.7699 0.172,3.81443 0.3954,5.95242 0.065,1.12668 -0.5937,9.78443 0.5921,8.87521 0.2968,-0.48225 0.6258,-1.00439 0.988,-1.56534 0.5016,-0.78852 1.0786,-1.57224 1.2849,-2.29749 0.6997,-2.40703 1.3578,-2.97223 1.8764,-4.9087 0.017,-0.0223 -0.065,-2.58887 -0.1972,-2.71488 0.4609,0.43068 0.01,-3.65865 0,-4.28129 0.01,-2.30812 0.2596,-4.59179 0.4931,-5.17986 0.5709,-0.25574 1.1354,-0.51203 1.6807,-0.77203 1.2486,-0.44185 2.4379,-1.00812 3.6015,-1.60096 -0.021,2.00825 -0.036,4.11964 -0.045,6.29963 0.041,1.31012 0.1238,3.78999 0.1983,5.95297 0.1307,1.14368 0.1307,2.57823 0.4935,3.23648 0.2133,0.51735 0.6258,0.47374 1.1852,0.5216 0.3869,-0.0478 0.6334,-1.13572 0.7903,-2.19329 0.2551,-1.07351 0.4196,-2.03111 0.4946,-2.50485 0.2138,-1.96253 0.7898,-3.22532 0.9875,-6.37035 -0.1962,-2.27624 1.058,-5.76314 0.3114,-7.17216 0.6475,-0.28924 1.2999,-0.55032 1.961,-0.763 0.329,-0.10792 0.5498,-0.2249 0.6917,-0.34827 -0.029,4.75078 0.3788,7.18599 0.3949,11.41623 -0.016,1.49249 0.025,2.3193 -0.1972,3.65494 -0.1891,0.92729 -0.5192,2.23155 0.3949,2.61067 0.3622,-0.68431 0.4452,-1.07458 0.7909,-1.87957 0.4356,-0.80501 0.8069,-1.1102 1.0866,-2.08855 1.6546,0.54287 1.1193,-3.80754 1.3835,-5.32555 0.1478,-0.83105 0.5186,-2.70266 0.3944,-3.44597 -0.3698,-3.25881 0.4537,-5.52176 0.495,-8.56257 -0.041,-3.02805 0.5866,-5.55526 0.033,-8.97039 0.404,-0.008 0.8155,-0.0925 1.1516,-0.21906 1.1072,-0.3254 2.7331,-0.87837 4.1609,-1.43879 0.04,3.2636 0.1735,6.30017 0.1871,10.00188 0.1887,3.71025 -0.018,7.71292 0,8.9805 -0.1403,2.77974 0.3944,4.95441 0.3949,8.0399 -5e-4,0.65719 0.8638,1.35318 1.5812,0.73056 0.8059,-0.68271 0.2711,-1.85778 0.3949,-2.92383 0.041,-0.76141 0.8225,-1.15275 1.0866,-1.98273 0.5187,-1.25855 0.5594,-2.95574 0.5927,-4.49132 -0.033,-1.46644 0.049,-2.85896 0.2968,-4.17706 0.329,-3.03231 0.2877,-6.73032 0.2953,-9.92001 -0.01,-1.22452 0.6198,-4.22014 0.5227,-6.18798 0.1162,-0.0244 0.2349,-0.0494 0.3677,-0.0776 1.9006,-0.37857 6.3881,-3.38004 7.9038,-4.38549 1.6959,-1.12722 2.6421,-1.25749 4.1494,-2.61015 0.7576,-0.56147 -0.1897,-1.12721 0.099,-2.088 0.2877,-0.99748 0.8637,-2.08534 1.0861,-3.1328 0.1071,-0.77949 -0.4689,-0.91028 -0.1967,-1.77589 0.098,-0.48226 1.5389,-2.00611 2.0742,-2.19275"
     style="fill:#1a171b;fill-opacity:1;fill-rule:nonzero;stroke:none;stroke-width:0.51719099"
     id="path6444-7-1"
     inkscape:connector-curvature="0" /><g
     inkscape:export-ydpi="208"
     inkscape:export-xdpi="208"
     style="fill:#009036;fill-opacity:1"
     transform="matrix(0.50307373,0,0,-0.53170443,1327.969,700.18801)"
     id="g6446-5-7"><path
       inkscape:connector-curvature="0"
       id="path6448-6-1"
       style="fill:#009036;fill-opacity:1;fill-rule:nonzero;stroke:none"
       d="m 0,0 c 0.391,-1.708 -0.641,-2.729 -1.552,-3.798 -0.076,0.209 -0.15,0.421 -0.216,0.655 C -2.183,-1.977 -2.431,-0.225 -2.95,1.33 -1.702,1.387 -0.354,1.404 0,0 m -9.011,-26.816 c 0.063,-1.389 0.115,-2.789 0.147,-4.202 -0.869,1.313 -2.488,2.794 -0.147,4.202 m 61.643,54.901 c -0.491,2.512 -4.254,3.25 -5.499,2.944 C 45.267,30.271 42.894,27.815 40.653,27.3 35.038,25.77 28.656,23.805 23.763,21.801 17.608,19.224 11.962,17.669 6.284,15.123 1.325,13.168 -3.341,13.658 -4.911,10.998 -5.639,9.426 -5.401,6.621 -5.309,4.435 -6.021,4.74 -6.907,4.814 -8.054,4.518 -10.868,3.921 -8.74,-4.59 -8.837,-6.087 c -1.043,-5.307 -0.629,-11.675 -0.285,-18.451 -0.631,0.601 -1.32,1.269 -1.484,1.954 -0.754,2.938 0.31,5.476 0.392,7.855 0.027,0.969 -0.7,1.174 -1.721,1.006 -0.404,2.234 -1.312,5.185 -0.832,7.636 0.507,4.279 -0.884,9.599 -0.195,13.55 0.211,2.431 0.375,4.477 -0.197,6.679 -3.028,-0.076 -1.556,-2.366 -2.358,-4.323 -0.998,-2.706 -1.653,-4.424 -3.141,-6.48 -0.721,-1.136 -1.702,-1.546 -2.554,-2.944 -1.767,-2.611 0.196,-4.166 -0.195,-7.66 -0.405,-2.057 -0.714,-5.79 -0.948,-10.739 -2.984,-1.15 -6.25,-2.336 -9.069,-3.207 -0.268,-0.076 -0.529,-0.158 -0.794,-0.239 -0.05,0.593 -0.109,1.196 -0.187,1.811 -0.721,4.659 -0.803,23.887 -2.161,25.924 -0.77,-0.728 -1.915,-1.219 -2.357,-2.161 -0.787,-1.185 0.688,-4.458 -0.785,-4.319 -1.556,0.269 -1.473,-0.957 -2.357,-1.375 -1.081,-0.32 -2.308,-0.811 -2.946,-1.964 -0.918,-1.792 0.229,-4.083 0.198,-6.48 0.025,-4.352 0.445,-12.307 -0.033,-15.605 -3.749,-1.744 -7.313,-3.58 -11.164,-5.214 -4.075,-1.742 -8.084,-3.625 -11.979,-5.107 -2.078,-1.055 -4.221,-2.118 -6.873,-3.534 -0.034,0.026 0.703,-1.857 0.785,-2.75 -3.192,-1.398 -0.983,-5.082 -0.197,-7.069 -2.259,-1.857 0.933,-3.33 -0.392,-6.679 -0.312,-0.58 -3.585,-2.872 -3.34,-3.926 0.573,-2.462 3.275,-0.827 4.321,-0.198 8.118,3.298 12.454,4.609 19.641,8.446 2.445,1.238 5.168,2.428 7.992,3.604 -0.027,-2.509 -0.57,-5.849 -0.137,-7.14 0.424,-1.449 0.342,-7.174 0.786,-11.195 0.13,-2.119 -1.18,-18.402 1.177,-16.692 0.59,0.907 1.244,1.889 1.964,2.944 0.998,1.483 2.144,2.957 2.554,4.321 1.391,4.527 2.699,5.59 3.73,9.232 0.033,0.042 -0.13,4.869 -0.392,5.106 0.916,-0.81 0.016,6.881 0,8.052 0.014,4.34 0.516,8.636 0.98,9.742 1.135,0.481 2.257,0.963 3.341,1.452 2.482,0.831 4.846,1.896 7.159,3.011 -0.043,-3.777 -0.072,-7.748 -0.089,-11.848 0.082,-2.464 0.246,-7.128 0.394,-11.196 0.26,-2.151 0.26,-4.849 0.981,-6.087 0.424,-0.973 1.244,-0.891 2.356,-0.981 0.769,0.09 1.259,2.136 1.571,4.125 0.507,2.019 0.834,3.82 0.983,4.711 0.425,3.691 1.57,6.066 1.963,11.981 -0.39,4.281 2.103,10.839 0.619,13.489 1.287,0.543 2.584,1.035 3.898,1.435 0.654,0.203 1.093,0.423 1.375,0.655 -0.057,-8.935 0.753,-13.515 0.785,-21.471 -0.032,-2.807 0.05,-4.362 -0.392,-6.874 -0.376,-1.744 -1.032,-4.197 0.785,-4.911 0.72,1.288 0.885,2.022 1.572,3.536 0.867,1.514 1.604,2.088 2.16,3.928 3.289,-1.021 2.225,7.161 2.75,10.016 0.294,1.563 1.031,5.083 0.785,6.481 -0.736,6.129 0.901,10.385 0.983,16.104 -0.082,5.695 1.166,10.448 0.066,16.871 0.803,0.015 1.621,0.174 2.289,0.412 2.201,0.612 5.433,1.652 8.271,2.706 0.079,-6.138 0.345,-11.849 0.372,-18.811 0.375,-6.978 -0.035,-14.506 0,-16.89 -0.279,-5.228 0.784,-9.318 0.785,-15.121 -10e-4,-1.236 1.717,-2.545 3.143,-1.374 1.602,1.284 0.539,3.494 0.785,5.499 0.082,1.432 1.635,2.168 2.16,3.729 1.031,2.367 1.112,5.559 1.178,8.447 -0.066,2.758 0.098,5.377 0.59,7.856 0.654,5.702 0.572,12.658 0.587,18.657 -0.011,2.303 1.232,7.937 1.039,11.638 0.231,0.046 0.467,0.093 0.731,0.146 3.778,0.712 12.698,6.357 15.711,8.248 3.371,2.12 5.252,2.365 8.248,4.909 1.506,1.056 -0.377,2.12 0.197,3.927 0.572,1.876 1.717,3.921 2.16,5.892 0.212,1.466 -0.933,1.712 -0.392,3.34 0.196,0.907 3.059,3.772 4.123,4.124" /></g><text
     inkscape:export-ydpi="208"
     inkscape:export-xdpi="208"
     transform="scale(0.98248135,1.017831)"
     id="text7102-1-2-1"
     y="744.1272"
     x="1344.9344"
     style="font-style:normal;font-variant:normal;font-weight:normal;font-stretch:normal;font-size:13px;line-height:1.25;font-family:sans-serif;-inkscape-font-specification:sans-serif;text-align:center;letter-spacing:0px;word-spacing:0px;text-anchor:middle;fill:#ffffff;fill-opacity:1;stroke:#ffffff;stroke-width:0.19585013;stroke-miterlimit:4;stroke-dasharray:none;stroke-opacity:1"
     xml:space="preserve"><tspan
       style="font-style:normal;font-variant:normal;font-weight:bold;font-stretch:normal;font-size:13px;font-family:Gadugi;-inkscape-font-specification:'Gadugi, Bold';font-variant-ligatures:normal;font-variant-caps:normal;font-variant-numeric:normal;font-feature-settings:normal;text-align:center;writing-mode:lr-tb;text-anchor:middle;opacity:0;fill:#ffffff;fill-opacity:1;stroke:#ffffff;stroke-width:0.19585013;stroke-miterlimit:4;stroke-dasharray:none;stroke-opacity:1"
       y="744.1272"
       x="1344.9344"
       id="tspan7100-24-2-8"
       sodipodi:role="line">Zeewolde</tspan></text>
</g></g></g></svg>