<?xml version="1.0" encoding="UTF-8" standalone="no"?>
<!-- Created with Inkscape (http://www.inkscape.org/) -->

<svg
   xmlns:dc="http://purl.org/dc/elements/1.1/"
   xmlns:cc="http://creativecommons.org/ns#"
   xmlns:rdf="http://www.w3.org/1999/02/22-rdf-syntax-ns#"
   xmlns:svg="http://www.w3.org/2000/svg"
   xmlns="http://www.w3.org/2000/svg"
   xmlns:inkscape="http://www.inkscape.org/namespaces/inkscape"
   version="1.1"
   width="204.33749"
   height="408.625"
   id="svg2"
   xml:space="preserve"><metadata
     id="metadata8"><rdf:RDF><cc:Work
         rdf:about=""><dc:format>image/svg+xml</dc:format><dc:type
           rdf:resource="http://purl.org/dc/dcmitype/StillImage" /></cc:Work></rdf:RDF></metadata><defs
     id="defs6" /><g
     transform="matrix(1.25,0,0,-1.25,0,408.625)"
     id="g10"><g
       transform="scale(0.1,0.1)"
       id="g12"><path
         d="m 36.25,3232.87 1562.36,0 0,-1562.35 -1562.36,-0.03 0,1562.38 z m 1598.5,36.17 -1634.671875,0 L 0,0 l 1634.63,0 0.12,3269.04"
         inkscape:connector-curvature="0"
         id="path14"
         style="fill:#00a650;fill-opacity:1;fill-rule:nonzero;stroke:none" /><path
         d="m 36.8164,1671.05 1561.81,0 0,1561.82 -1561.81,0 0,-1561.82 z"
         inkscape:connector-curvature="0"
         id="path16"
         style="fill:#ffffff;fill-opacity:1;fill-rule:nonzero;stroke:none" /><path
         d="m 694.316,3096.26 c -12.656,-3.74 -54.289,-18.55 -58.586,-52.08 -0.21,-1.72 -0.339,-3.54 -0.339,-5.43 0,-0.94 0.117,-1.94 0.183,-2.91 -5.371,0.15 -10.32,0.31 -13.672,0.42 l -34.187,0.7 -12.332,-2.18 c -14.66,-2.38 -54.25,-8.84 -55.051,-49.52 -0.117,-2.7 -0.586,-13.42 -0.586,-13.42 0,-24.17 4.942,-50.55 13.914,-74.3 2.649,-7.09 6.684,-12.54 9.621,-16.52 0.039,-0.06 1.77,-2.54 2.285,-3.29 5.157,-20.29 13.758,-36.96 24.036,-51.67 -27.747,-3.33 -55.747,-7.85 -83.352,-16.15 l 5.574,1.04 c -15.066,-1.13 -29.5,-9.14 -44.136,-24.49 l -1.348,-1.42 -1.137,-1.61 c -4.89,-6.98 -8.433,-13.81 -10.777,-20.58 -57.031,-16.89 -103.988,-31.33 -142.082,-43.78 C 258.762,2708 191.895,2679.54 189.07,2678.34 l -1.824,-0.78 c 0,0 -0.391,-0.26 -0.508,-0.34 -0.488,-0.2 -0.996,-0.41 -0.996,-0.41 -51.133,-20.82 -61.863,-56.04 -61.863,-81.92 0,-40.64 31.551,-51.93 46.707,-57.35 3.43,-1.22 6.965,-2.49 8.789,-3.52 20.438,-11.18 40.066,-7.32 54.395,-4.5 l 9.699,1.69 c 7.027,0.86 14.754,3.14 22.461,5.56 7.09,-14.85 20.054,-28.59 40.418,-32.52 17.414,-3.4 29.023,-0.19 38.359,3.18 0.527,-5.23 1.594,-10.45 3.738,-15.52 3.606,-8.49 9.614,-16.28 17.075,-22.9 -12.336,-9.66 -29.844,-27.03 -29.844,-48.13 0,-1.9 0.144,-3.82 0.445,-5.77 -0.008,0.02 0.207,-1.43 0.207,-1.43 1.602,-11.27 5.86,-41.19 46.817,-57.97 15.75,-6.46 33.972,-8.28 54.406,-5.66 1.797,-6.17 4.5,-12 8.086,-17.28 -11.274,-5.56 -13.813,-7.49 -15.539,-8.89 l -0.578,-0.47 c -7.508,-6.41 -18.434,-16.42 -26.676,-29.28 -3.43,-5.12 -13.75,-22.33 -13.75,-41.93 0,-3.54 0.34,-7.15 1.109,-10.79 2.617,-12.28 9.652,-22.33 20.332,-29.07 14.895,-9.2 31.153,-10.15 43.703,-8.96 2.039,-13.2 11.719,-28.27 41.641,-37.04 l 1.902,-0.56 c 9.629,-2.93 22.602,-2.43 49.953,-0.1 l 10.996,0.85 c 3.313,0.11 8.868,0.94 15.352,2.1 0.012,-13.44 3.965,-25.39 11.484,-34.29 l 0.539,-0.62 c 16.942,-18.81 42.481,-23.91 52.665,-25.23 11.359,-1.58 25.847,3.26 53.933,14.7 l 6.875,2.75 c 1.367,0.54 4.777,1.54 8.789,2.66 1.086,-1.46 1.86,-3 3.203,-4.38 6.059,-6.24 16.899,-13.55 34.114,-12.95 15.703,0.41 42.199,6.31 45.168,6.97 l 1.582,0.36 1.519,0.55 c 32.735,11.81 140.676,50.92 155.09,58.67 l 0.547,0.3 c 11.953,6.04 107.72,36.59 148.62,49.64 l 29.41,9.42 c 43.08,13.56 82.65,44.18 94.06,56.07 l 0.41,0.44 c 9.55,10.42 15.77,24.7 18.5,42.46 0.31,1.9 0.45,3.78 0.45,5.62 0,9.34 -3.64,18.18 -8.5,26.55 22.4,10 44.27,19.76 44.89,20.05 8.04,2.97 28.68,12.2 37.32,31.27 2.01,4.47 2.92,8.86 3.19,13.13 23.9,6.13 50.26,12.89 50.26,12.89 0.02,0.01 0.82,0.2 0.82,0.2 15.16,3.59 55.39,13.13 92.89,31.71 35.04,16.96 41.78,37.06 41.78,54 0,2.31 -0.14,4.54 -0.31,6.71 l -0.14,1.54 -0.11,-1.96 c 0.15,1.27 0.23,2.54 0.23,3.82 0,17.57 -14.55,36.35 -27.89,46.15 -0.22,0.76 -0.37,1.28 -0.37,1.28 -8.46,10.2 -21.1,10.86 -27.17,11.18 l 0.68,-0.04 -7.46,1.22 c -9.63,2.03 -20.11,3.58 -42.54,3.09 -0.51,6.74 -1.57,13.23 -3.67,19.26 -13.27,39.8 -48.41,68.22 -89.42,72.12 -25.7,3.23 -45.6,2.08 -67,0.25 18.39,21.51 37.28,45.84 42.24,60.35 4.31,12.25 12.24,68.16 12.62,73.35 l 0.06,0.78 0.1,7.18 c 0,15.42 -1.55,25.89 -2.84,34.34 -0.09,0.85 -1.62,14.68 -1.77,16.04 -1.23,37.08 -7.42,70 -8.67,76.29 l -12.39,61.55 -37.05,-50.47 c -4.84,-6.69 -10.79,-14.69 -13.36,-17.93 -7.38,-5.67 -41.49,-29.27 -67.3,-45.44 -5.78,23.27 -19.57,43.74 -41.44,59.4 l -0.99,0.7 -1.03,0.61 c -27.5,16.08 -57.72,31.03 -92.39,31.5 -34.759,1.18 -67.103,-5.89 -96.165,-21.06 -17.657,-9.54 -30.723,-23.46 -42.247,-35.75 -7.246,-7.7 -13.945,-14.83 -21.074,-20.47 l 1.375,1.02 c -6.297,-4.34 -12.136,-8.94 -17.781,-13.61 -4.355,22.92 -9.434,48.6 -20.742,73.61 -13.723,29.36 -32.051,54.71 -57.715,80.02 -12.473,12.8 -35.344,22.64 -47.898,27.36 l -1.516,0.54 -7.832,2.63 -8.399,-2.47"
         inkscape:connector-curvature="0"
         id="path18"
         style="fill:#ffffff;fill-opacity:1;fill-rule:nonzero;stroke:none" /><path
         d="m 371.777,2427.67 c -1.496,9.33 10.828,22.78 23.504,31.74 13.071,8.94 33.977,18.27 46.684,22.75 12.676,4.13 21.64,7.11 28.726,9.36 41.079,14.18 133.657,46.64 137.383,48.12 4.106,1.9 214.262,70.57 232.192,74.32 17.527,3.73 92.937,37.3 100.808,44.04 5.196,4.48 157.876,22.02 177.676,12.3 19.38,-9.69 -6.35,-76.16 29.12,-66.44 35.04,9.69 144.43,26.87 163.84,-4.47 19.4,-31.37 3.76,-47.05 -10.06,-53.01 -13.45,-5.62 -267.65,-69.06 -267.65,-69.06 0,0 -362.105,-97.8 -375.914,-100.03 -10.82,-1.89 -85.469,-25.04 -113.856,-34.34 -7.835,-2.62 1.122,0.36 -13.792,-4.12 -19.059,-5.58 -15.692,-2.62 -24.286,-1.11 -19.035,3.73 -33.593,16.81 -35.097,34.69 -1.485,17.55 28.008,27.63 25.781,27.63 -2.234,0 -55.625,-27.26 -94.07,-11.58 -28.75,11.58 -29.504,29.51 -30.989,39.21"
         inkscape:connector-curvature="0"
         id="path20"
         style="fill:#ffffff;fill-opacity:1;fill-rule:nonzero;stroke:none" /><path
         d="m 505.129,2331.16 c 0,0 193.367,60.07 214.273,67.95 20.903,7.82 247.844,70.18 263.536,73.52 15.292,3.37 175.082,52.66 193.332,57.5 18.3,4.85 138.91,36.96 138.91,36.96 0,0 38.45,9.3 77.26,11.17 38.83,1.5 39.92,-2.98 54.12,-4.1 14.2,-0.75 5.59,-3.73 10.1,-5.23 4.1,-1.12 21.62,-19.03 20.53,-27.63 -1.15,-8.57 8.55,-23.13 -26.9,-40.29 -35.47,-17.57 -73.91,-26.51 -88.1,-29.88 -14.16,-3.34 -82.89,-21.26 -82.89,-21.26 0,0 16.84,-7.85 11.61,-19.43 -5.23,-11.56 -23.53,-17.9 -23.53,-17.9 l -86.97,-38.85 c 0,0 21.66,-6.33 24.63,-10.81 3,-4.49 10.82,-15.68 9.69,-22.75 -1.1,-7.13 -3.73,-19.82 -11.93,-28.77 -8.23,-8.57 -44.05,-36.95 -83.24,-49.29 -39.18,-12.67 -169.111,-53.36 -182.9,-61.21 -13.84,-7.44 -151.582,-57.09 -151.582,-57.09 0,0 -26.484,-5.98 -40.305,-6.35 -21.636,-0.75 -20.156,22.39 -20.156,22.39 0,0 -27.984,-6.73 -35.097,-9.72 -7.079,-2.61 -39.188,-16.79 -47.391,-15.64 -8.594,1.11 -26.145,5.2 -36.582,16.79 -10.086,11.94 -3.352,35.81 0.371,38.45 3.352,2.62 11.184,14.91 11.184,14.91 0,0 -49.258,-11.57 -59.348,-11.93 -9.688,-0.36 -43.672,-4.5 -52.266,-1.88 -8.562,2.63 -28.73,7.09 -25,22.77 3.731,16.07 13.809,27.99 24.641,32.47 10.816,4.51 -39.199,-13.79 -39.199,-13.79 0,0 -23.887,-8.6 -41.426,2.23 -17.191,10.83 -6.352,35.48 0.359,45.54 6.707,10.46 16.426,19.04 21.653,23.5 5.586,4.51 58.613,27.65 58.613,27.65"
         inkscape:connector-curvature="0"
         id="path22"
         style="fill:#1c63b7;fill-opacity:1;fill-rule:nonzero;stroke:none" /><path
         d="m 199.324,2654.27 c 0,0 68.293,29.1 101.145,39.93 75.398,24.64 168.359,51.51 198.972,60.48 29.106,8.95 119.075,36.21 195.227,59.34 60.488,18.3 112.727,33.98 118.34,35.46 13.055,2.98 274.352,85.13 282.962,75.05 8.58,-9.7 35.48,-33.98 33.97,-69.09 -1.5,-35.45 -66.44,-121.67 -77.65,-127.64 -11.57,-5.61 -204.927,-43.69 -204.927,-43.69 0,0 100.039,39.58 104.492,-1.49 4.141,-41.06 -77.636,-55.62 -81.738,-57.85 -4.094,-2.61 -162.375,-52.26 -281.074,-90.34 -78.789,-25.37 -129.539,-44.78 -134.402,-45.53 -12.676,-1.12 -34.7,-18.29 -56.743,-9.71 -14.918,5.95 -33.953,22.75 -25.378,43.66 8.593,21.3 26.894,25.4 26.894,25.4 0,0 -11.953,-4.1 -37.336,-8.61 -25.39,-4.1 -29.871,-13.78 -50.769,-9.69 -21.27,4.1 -26.895,29.49 -25.774,36.59 1.485,7.08 -29.844,-7.47 -45.164,-9.35 -15.676,-1.87 -32.48,-8.94 -48.152,-0.36 -15.285,8.6 -42.18,8.6 -42.18,38.06 0,45.56 45.93,56.78 49.285,59.38"
         inkscape:connector-curvature="0"
         id="path24"
         style="fill:#ed1c24;fill-opacity:1;fill-rule:nonzero;stroke:none" /><path
         d="m 1135.49,2858.72 c 0,0.02 -2.81,11.7 -2.81,11.7 -2.47,9.57 -5.49,21.47 -5.75,26.55 -2.4,21.26 -13.65,39.21 -33.44,53.38 -24.47,14.31 -50.95,27.56 -79.6,27.92 -30.355,1.12 -58.48,-4.96 -83.624,-18.09 -13.606,-7.34 -24.621,-19.09 -35.305,-30.47 -7.481,-7.96 -15.215,-16.2 -23.906,-23.07 -10.489,-7.24 -20.235,-15.73 -29.649,-23.91 l -16.648,-14.16 c -0.371,-0.09 -2.285,-0.93 -2.871,-0.66 l -0.371,0.66 c -3.403,12.79 -5.903,25.95 -8.325,38.66 -4.402,23.17 -8.945,47.13 -19.363,70.16 -12.297,26.33 -28.992,49.36 -52.558,72.52 -10.567,10.9 -37.469,20.8 -38.602,21.23 l -0.473,0.16 -0.465,-0.14 c -1.542,-0.45 -37.597,-11.23 -40.042,-30.31 -1.227,-9.65 6.339,-19.46 22.523,-29.15 -0.023,0 0.359,-0.32 0.711,-0.59 -4.473,-2.98 -41.453,-1.75 -63.899,-1 l -31.289,0.64 c -0.281,-0.05 -9.785,-1.73 -9.785,-1.73 -15.535,-2.53 -33.164,-5.35 -33.484,-24.38 -0.371,-4.16 -0.559,-8.41 -0.559,-12.8 0,-20.96 4.289,-44.04 12.239,-65.04 1.375,-3.71 3.82,-7.03 6.171,-10.21 2.325,-3.19 4.539,-6.2 5.774,-9.54 7.945,-34.79 28.633,-57.46 50.547,-81.49 0,0 0.254,-0.29 0.359,-0.41 -1.289,-0.11 -2.629,-0.25 -2.629,-0.25 -41.304,-3.86 -84.058,-7.87 -124.59,-20.04 -8.203,-0.62 -17.195,-6.01 -27.144,-16.45 -6.457,-9.2 -9.367,-16.94 -9.367,-24.59 -0.332,-2.22 -0.457,-4.48 -0.457,-6.75 0,-12.81 4.929,-25.96 15.281,-40.73 13.633,-21.46 28.762,-38.78 46.211,-52.95 22.129,-16.68 46.34,-28.29 78.523,-37.62 14.211,-4.39 25.813,3.76 37.071,11.66 5.363,3.75 10.949,7.29 16.73,9.75 -8.367,-15.02 -14.844,-33.49 -14.844,-51.39 0,-13.59 3.653,-26.73 12.989,-37.49 10.468,-11.28 25.476,-16.93 38.718,-21.34 7.844,-1.46 15.305,-1.3 23.203,-1.09 l 14.875,-0.1 c 16.543,1.05 33.672,9.9 43.829,22.58 29.414,43.6 44.218,90.04 44.218,138.37 0,5.58 -0.207,11.2 -0.605,16.82 0.215,0.46 1.648,3.66 1.648,3.66 0,0 0.571,1.21 1.114,2.37 1.875,-1.71 13.429,-12.11 13.429,-12.11 14.414,-11.28 15.078,-12.76 23.203,-30.69 l 16.368,-34.55 c 4.152,-8.1 6.085,-19.86 6.085,-34.15 0,-64.83 -39.933,-181.46 -96.195,-243.76 -12.488,-13.86 -18.648,-23.79 -18.648,-30.12 0,-1.62 0.386,-2.99 1.179,-4.15 6.602,-9.46 37.657,2.49 41.172,3.9 l 0.442,0.15 0.254,0.41 c 0.796,1.25 79.187,125.68 104.336,224.78 4.148,16.31 6.687,34.7 6.687,53.64 0,38.88 -10.691,80.14 -40.273,110.54 -0.325,0.25 -6.094,5.07 -6.094,5.07 -2.422,2.28 -5.195,4.78 -8.399,6.71 0.684,1.37 1.954,4.08 2.637,5.51 14.649,-3.84 28.164,-9.8 41.211,-15.63 15.691,-7.03 30.488,-13.65 47.305,-16.86 5.937,-1.46 10.129,-3.89 14.179,-6.26 6.133,-3.57 11.915,-6.91 22.754,-6.46 l 16.698,1.77 c 7.54,1.12 12.5,1.87 17.71,-0.52 1.86,-0.84 4.41,-0.41 7.74,1.41 14.41,7.85 40.68,40.05 42.87,55.37 0.08,0.86 0.08,1.88 0.08,2.98 0,13.04 -4.9,40.8 -19.66,52.15 -7.37,5.78 -22.61,13.5 -36.04,20.28 -10.69,5.39 -23.663,11.97 -26.03,14.6 39.48,21.44 75.07,4.94 75.43,4.78 37.02,-23.84 49.06,-31.58 53.31,-33.72 0.2,-0.14 0.08,-0.43 0.28,-0.55 0,0 0.18,0.25 0.23,0.3 1.64,-0.78 1.95,-0.57 2.25,-0.18 l 0.85,1.29 -1.71,1.12 c -1.35,0.86 1.38,6.59 3.78,11.65 5.61,11.84 14.08,29.69 10.3,50.45"
         inkscape:connector-curvature="0"
         id="path26"
         style="fill:#00a650;fill-opacity:1;fill-rule:nonzero;stroke:none" /><path
         d="m 1052.84,2788.7 0,0 0,0.02 0,0 0,-0.02 z"
         inkscape:connector-curvature="0"
         id="path28"
         style="fill:#00a650;fill-opacity:1;fill-rule:nonzero;stroke:none" /><path
         d="m 1370.23,2615.19 c -10.12,30.38 -36.54,51.86 -67.32,54.73 -26.56,3.41 -45.86,1.71 -70.29,-0.46 l -16.58,-1.41 c -4.05,0 -22.02,-7.21 -47.01,-17.38 -5.91,-2.44 -11.58,-4.74 -16.38,-6.65 13.66,11.27 35.36,33.91 53.8,55.19 21.25,23.84 45.42,53.7 49.56,65.8 3.07,8.74 10.87,61.28 11.28,66.81 0.04,2.12 0.09,4.12 0.09,6.03 0,13.7 -1.38,22.83 -2.63,31 l -1.92,17.29 c -1.13,38.48 -8.19,73.04 -8.26,73.41 l -0.66,3.29 -2.01,-2.72 c -0.12,-0.19 -12.69,-17.55 -15.94,-21.17 -3.3,-3.3 -54.73,-38.95 -83.66,-56.06 -45.71,-27.31 -66.37,-62.67 -73.15,-74.3 l -1.61,-2.73 c -4.26,-6.97 -9.12,-17.78 -13.81,-28.22 -4.39,-9.76 -8.53,-19 -11.56,-23.64 -4.28,-6.3 -9.36,-20.34 -13.07,-30.63 -1.64,-4.53 -3.2,-8.83 -3.77,-9.72 -3.01,-3.2 -4.22,-9.78 -5.38,-16.13 -0.65,-3.64 -1.41,-7 -2.45,-9.51 -0.48,0.91 -1.01,2.05 -1.42,3.29 -0.13,0.49 -4.05,13.68 -28.853,59.61 -22.93,42.77 -26.446,42.48 -69.336,38.7 l -16.082,-1.34 c -47.375,-3.46 -82.493,-27.9 -101.329,-41.03 l -8.695,-5.85 c -9.742,-6.01 -28.855,-32.95 -50.933,-64.14 l -24.993,-34.91 3.329,0.34 c 5.863,0.68 11.32,-0.11 17.14,-0.96 6.055,-0.86 12.344,-1.61 19.031,-0.68 -0.371,-1.79 -0.789,-3.61 -0.789,-5.44 0,-9.09 4.754,-18.13 13.535,-25.07 10.958,-10.95 21.524,-17.43 35.215,-21.53 1.719,-0.07 2.727,-2.37 3.653,-4.62 1.047,-2.43 2.121,-4.98 4.148,-6.37 l 0.766,-0.55 1.004,0.48 c 1.711,0.96 2.441,4.94 3.593,43.37 0.204,7.65 0.442,15.57 0.645,16.54 8.262,26.13 28.652,42.76 55.82,45.52 10.059,1.09 38.965,-2.55 43.196,-23.81 0.117,-0.38 5.73,-12.94 9.058,-16.35 0.039,-0.17 9.426,-27.08 9.426,-27.08 5.769,-17.15 10.32,-30.68 20.449,-51.73 1.387,-2.5 1.524,-5.14 1.68,-7.89 l 0.437,-4.42 c 0.461,-2.23 0.676,-4.6 0.676,-7.03 0,-8.51 -2.656,-18.17 -7.617,-27.47 -4.07,-7.07 -12.742,-17.68 -19.141,-19.02 -16.562,-3.14 -20.769,-0.41 -30.937,6.24 l -9.434,5.89 c -6.863,4.02 -13.398,33.49 -15.351,44.51 2.297,22.48 5.527,61.33 1.726,64.4 -2.293,2.04 -6.668,-1.37 -33.191,-26.01 -16.094,-14.95 -36.113,-33.55 -52.637,-46.03 -23.586,-17.62 -35.305,-39.62 -43.879,-55.71 -3.719,-6.98 -6.93,-13.02 -10.074,-16.52 -4.465,-4.76 -2.758,-11.17 -1.125,-17.34 l 1.484,-6.3 c 2.891,-14.75 11.895,-25.85 20.586,-36.59 l 1.758,-2.19 c 5.879,-8.1 23.352,-29.31 23.516,-29.51 0.429,-0.39 29.758,-28.09 53.633,-7.65 33.632,10.88 49.609,21.12 50.234,21.55 11.973,5.92 25.058,11.97 31.504,14.38 -10.84,-10.49 -32.5,-38.89 -40.059,-61.94 -7.527,-23.69 -23.164,-61.55 -27.168,-69.61 l -4.101,-7.98 c -7.891,-15.55 -26.348,-51.93 -31.114,-56.98 -6.015,-6.01 -8.347,-10.15 -4.238,-16.07 0.859,-1.27 1.836,-1.93 2.981,-2.05 2.019,-0.16 3.726,1.53 5.867,3.65 2.031,2 4.551,4.5 7.949,6.11 4.844,2.53 31.309,27.06 59.297,53.03 22.344,20.7 45.437,42.11 52.949,47.92 15.449,12.04 27.149,23.75 41.934,38.57 l 4.14,4.12 c 0,0 38.707,39.36 44.697,45.44 4.78,-3.01 29.4,-18.06 48.6,-24.17 13.89,-2.73 30.28,-4.82 47.51,0 30.74,9.08 77.33,43.13 111.01,70.07 l 1.95,1.57 -2.26,0.97 c -6.24,2.69 -13.39,0.34 -22.44,-2.61 -11.25,-3.64 -25.27,-8.22 -43.61,-5.12 -26.55,3.89 -36.13,7.69 -43.11,10.47 l -4.83,1.8 c -0.03,0 -2.87,0.91 -2.87,0.91 -17.91,5.55 -36.43,11.35 -47.13,26.87 -0.09,0.27 -0.13,0.54 -0.13,0.86 0,1.23 0.52,3 1.09,4.96 l 1.13,4.67 c 2.44,9.21 9.48,15.48 16.25,21.53 l 6.11,5.66 c 12.55,15.25 24.39,25.08 37.27,31.06 10.71,5.49 27.48,12.36 46.92,14.06 l 11.69,0.12 c 12.74,0.18 24.76,0.36 37.23,-1.62 9.34,-1.23 11.82,-11.1 14.2,-20.66 l 0.64,-2.5 c 0.32,-6.31 -1.03,-14.25 -3.71,-21.51 -2.32,-2 -29.88,-4.84 -46.3,-6.55 -22.89,-2.35 -22.91,-2.44 -23.27,-4.01 l -0.13,-0.59 0.43,-0.63 c 6.44,-9.88 27.75,-14.25 39.89,-15.96 34.04,-4.78 80.42,-1.59 95.99,11.93 20.39,18.7 35.48,38.89 43.71,58.39 9.45,25.1 11.54,44.47 6.34,59.32"
         inkscape:connector-curvature="0"
         id="path30"
         style="fill:#fddd04;fill-opacity:1;fill-rule:nonzero;stroke:none" /><path
         d="m 496.836,2400.04 c -2.207,-0.07 -55.762,-27.37 -94.043,-11.67 -28.723,11.79 -29.617,29.56 -31.094,39.18 -0.976,6.44 4.199,14.7 11.594,22.16 -11.984,-9 -22.707,-21.57 -21.313,-30.62 1.465,-9.61 2.368,-27.4 31.086,-39.16 29.422,-12.07 67.872,1.25 85.079,8.12 8.132,7.83 20.125,12.04 18.691,11.99"
         inkscape:connector-curvature="0"
         id="path32"
         style="fill:#231f20;fill-opacity:1;fill-rule:nonzero;stroke:none" /><path
         d="m 536.895,2341.08 c -9.832,-2.27 -24.266,-4.48 -30.782,-3.25 -19.011,3.57 -33.515,16.65 -35.05,34.65 -0.411,4.81 1.503,9.01 4.406,12.63 -7.199,-4.69 -14.903,-11.81 -14.121,-21.09 1.511,-17.98 16.035,-31.06 35.047,-34.63 1.203,-0.23 2.16,-0.48 2.98,-0.73 3.535,1.54 5.754,2.5 5.754,2.5 0,0 12.637,3.96 31.766,9.92"
         inkscape:connector-curvature="0"
         id="path34"
         style="fill:#231f20;fill-opacity:1;fill-rule:nonzero;stroke:none" /><path
         d="m 150.957,1929.46 58.965,3.69 c 1.277,-9.57 3.879,-16.87 7.793,-21.88 6.387,-8.12 15.508,-12.18 27.375,-12.18 8.836,0 15.664,2.07 20.445,6.23 4.785,4.14 7.18,8.95 7.18,14.43 0,5.19 -2.277,9.84 -6.836,13.95 -4.563,4.11 -15.149,7.98 -31.738,11.63 -27.188,6.11 -46.563,14.23 -58.157,24.35 -11.668,10.13 -17.507,23.03 -17.507,38.72 0,10.31 2.988,20.04 8.964,29.21 5.965,9.17 14.961,16.37 26.954,21.62 11.992,5.24 28.425,7.87 49.316,7.87 25.637,0 45.176,-4.78 58.625,-14.3 13.453,-9.54 21.465,-24.7 24.012,-45.5 l -58.418,-3.41 c -1.551,9.02 -4.817,15.59 -9.785,19.7 -4.969,4.1 -11.836,6.15 -20.586,6.15 -7.207,0 -12.637,-1.53 -16.282,-4.58 -3.648,-3.06 -5.476,-6.78 -5.476,-11.15 0,-3.19 1.512,-6.06 4.519,-8.62 2.922,-2.64 9.856,-5.11 20.793,-7.39 27.09,-5.84 46.492,-11.74 58.211,-17.71 11.723,-5.98 20.254,-13.39 25.586,-22.23 5.332,-8.85 8.012,-18.75 8.012,-29.69 0,-12.87 -3.567,-24.72 -10.676,-35.57 -7.117,-10.86 -17.058,-19.08 -29.824,-24.7 -12.774,-5.61 -28.867,-8.41 -48.301,-8.41 -34.109,0 -57.734,6.57 -70.859,19.69 -13.133,13.15 -20.574,29.83 -22.305,50.08"
         inkscape:connector-curvature="0"
         id="path36"
         style="fill:#ed1c24;fill-opacity:1;fill-rule:nonzero;stroke:none" /><path
         d="m 468.77,1920.03 52.949,-6.02 c -2.918,-11.04 -7.703,-20.6 -14.364,-28.67 -6.664,-8.07 -15.167,-14.35 -25.519,-18.81 -10.352,-4.47 -23.516,-6.71 -39.473,-6.71 -15.41,0 -28.254,1.44 -38.508,4.31 -10.261,2.87 -19.089,7.52 -26.472,13.94 -7.395,6.43 -13.184,13.96 -17.371,22.62 -4.199,8.65 -6.301,20.14 -6.301,34.45 0,14.94 2.551,27.39 7.668,37.32 3.726,7.29 8.836,13.82 15.32,19.61 6.477,5.79 13.137,10.09 19.973,12.91 10.848,4.47 24.766,6.71 41.726,6.71 23.711,0 41.797,-4.24 54.247,-12.73 12.453,-8.48 21.183,-20.89 26.203,-37.21 l -52.403,-6.98 c -1.64,6.2 -4.629,10.87 -8.965,14.02 -4.335,3.15 -10.144,4.72 -17.441,4.72 -9.211,0 -16.672,-3.3 -22.371,-9.9 -5.695,-6.6 -8.547,-16.59 -8.547,-29.97 0,-11.93 2.82,-21 8.484,-27.18 5.649,-6.2 12.856,-9.29 21.614,-9.29 7.297,0 13.426,1.87 18.398,5.61 4.973,3.74 8.692,9.49 11.153,17.25"
         inkscape:connector-curvature="0"
         id="path38"
         style="fill:#ed1c24;fill-opacity:1;fill-rule:nonzero;stroke:none" /><path
         d="m 596.277,1935.48 c 0,-12.95 2.618,-22.52 7.864,-28.73 5.246,-6.21 11.836,-9.3 19.777,-9.3 8.016,0 14.605,3.05 19.766,9.16 5.156,6.11 7.734,15.92 7.734,29.42 0,12.59 -2.609,21.96 -7.805,28.11 -5.195,6.16 -11.621,9.24 -19.289,9.24 -8.113,0 -14.82,-3.13 -20.113,-9.37 -5.285,-6.25 -7.934,-15.77 -7.934,-28.53 z m -55.816,-0.14 c 0,22.17 7.469,40.43 22.437,54.79 14.954,14.37 35.161,21.56 60.61,21.56 29.09,0 51.07,-8.45 65.933,-25.32 11.954,-13.58 17.93,-30.33 17.93,-50.21 0,-22.34 -7.41,-40.66 -22.234,-54.92 -14.824,-14.28 -35.324,-21.42 -61.492,-21.42 -23.352,0 -42.239,5.93 -56.641,17.78 -17.695,14.69 -26.543,33.94 -26.543,57.74"
         inkscape:connector-curvature="0"
         id="path40"
         style="fill:#ed1c24;fill-opacity:1;fill-rule:nonzero;stroke:none" /><path
         d="m 887.285,1863.1 -51.992,0 0,23.55 c -7.754,-9.67 -15.586,-16.57 -23.469,-20.68 -7.886,-4.09 -17.578,-6.15 -29.07,-6.15 -15.32,0 -27.344,4.58 -36.055,13.75 -8.711,9.17 -13.066,23.28 -13.066,42.34 l 0,92.49 55.957,0 0,-79.9 c 0,-9.12 1.687,-15.6 5.058,-19.42 3.379,-3.84 8.125,-5.75 14.231,-5.75 6.656,0 12.117,2.56 16.355,7.65 4.239,5.12 6.368,14.29 6.368,27.51 l 0,69.91 55.683,0 0,-145.3"
         inkscape:connector-curvature="0"
         id="path42"
         style="fill:#ed1c24;fill-opacity:1;fill-rule:nonzero;stroke:none" /><path
         d="m 988.242,2063.67 0,-55.27 30.648,0 0,-40.77 -30.648,0 0,-51.48 c 0,-6.18 0.598,-10.28 1.778,-12.29 1.828,-3.09 5.019,-4.63 9.582,-4.63 4.098,0 9.838,1.19 17.238,3.54 l 4.1,-38.43 c -13.77,-3.01 -26.631,-4.52 -38.577,-4.52 -13.867,0 -24.082,1.78 -30.644,5.32 -6.582,3.56 -11.426,8.96 -14.578,16.19 -3.137,7.25 -4.719,18.98 -4.719,35.2 l 0,51.1 -20.52,0 0,40.77 20.52,0 0,26.68 55.82,28.59"
         inkscape:connector-curvature="0"
         id="path44"
         style="fill:#ed1c24;fill-opacity:1;fill-rule:nonzero;stroke:none" /><path
         d="m 1047.48,2008.4 55.68,0 0,-145.3 -55.68,0 0,145.3 z m 0,55.27 55.68,0 0,-37.9 -55.68,0 0,37.9"
         inkscape:connector-curvature="0"
         id="path46"
         style="fill:#ed1c24;fill-opacity:1;fill-rule:nonzero;stroke:none" /><path
         d="m 1138.73,2008.4 51.86,0 0,-23.67 c 7.74,9.66 15.59,16.58 23.52,20.73 7.94,4.15 17.61,6.23 29.02,6.23 15.41,0 27.47,-4.59 36.17,-13.76 8.73,-9.16 13.08,-23.32 13.08,-42.48 l 0,-92.35 -55.96,0 0,79.9 c 0,9.12 -1.69,15.58 -5.06,19.36 -3.37,3.78 -8.12,5.68 -14.23,5.68 -6.76,0 -12.23,-2.55 -16.42,-7.66 -4.2,-5.11 -6.3,-14.28 -6.3,-27.5 l 0,-69.78 -55.68,0 0,145.3"
         inkscape:connector-curvature="0"
         id="path48"
         style="fill:#ed1c24;fill-opacity:1;fill-rule:nonzero;stroke:none" /><path
         d="m 1374.32,1937.94 c 0,-10.49 2.24,-18.27 6.71,-23.32 4.46,-5.06 10.35,-7.6 17.64,-7.6 6.94,0 12.76,2.62 17.44,7.87 4.71,5.25 7.05,13.16 7.05,23.73 0,10.59 -2.46,18.68 -7.38,24.29 -4.94,5.61 -10.96,8.42 -18.07,8.42 -7.1,0 -12.78,-2.58 -17.03,-7.73 -4.23,-5.17 -6.36,-13.71 -6.36,-25.66 z m 52.4,70.46 52.13,0 0,-137.22 0.13,-6.43 c 0,-9.12 -1.95,-17.81 -5.82,-26.07 -3.86,-8.25 -9.02,-14.92 -15.45,-20.04 -6.44,-5.11 -14.58,-8.8 -24.49,-11.07 -9.9,-2.29 -21.23,-3.43 -34,-3.43 -29.18,0 -49.22,4.38 -60.12,13.13 -10.91,8.76 -16.36,20.49 -16.36,35.16 0,1.83 0.09,4.3 0.28,7.39 l 54.04,-6.15 c 1.37,-5.02 3.47,-8.49 6.3,-10.4 4.1,-2.83 9.25,-4.25 15.45,-4.25 8.03,0 14.02,2.15 17.99,6.44 3.98,4.28 5.95,11.76 5.95,22.44 l 0,22.03 c -5.46,-6.49 -10.93,-11.17 -16.42,-14.1 -8.56,-4.55 -17.82,-6.84 -27.78,-6.84 -19.41,0 -35.09,8.48 -47.05,25.44 -8.48,12.04 -12.72,27.95 -12.72,47.75 0,22.62 5.47,39.86 16.42,51.72 10.93,11.85 25.26,17.79 42.95,17.79 11.3,0 20.64,-1.92 27.98,-5.76 7.35,-3.82 14.2,-10.17 20.59,-19.01 l 0,21.48"
         inkscape:connector-curvature="0"
         id="path50"
         style="fill:#ed1c24;fill-opacity:1;fill-rule:nonzero;stroke:none" /><path
         d="m 952.688,1219.47 c 3.906,-17.08 -6.411,-27.29 -15.508,-37.98 -0.762,2.09 -1.504,4.21 -2.168,6.55 -4.153,11.66 -6.621,29.18 -11.821,44.73 12.485,0.57 25.957,0.74 29.497,-13.3 z m -90.11,-268.161 c 0.625,-13.887 1.16,-27.899 1.477,-42.02 -8.703,13.133 -24.883,27.941 -1.477,42.02 z M 1479,1500.32 c -4.92,25.12 -42.54,32.5 -55,29.44 -18.65,-7.58 -42.37,-32.14 -64.79,-37.29 -56.13,-15.31 -119.96,-34.95 -168.9,-54.99 -61.53,-25.77 -118,-41.32 -174.78,-66.78 -49.585,-19.55 -96.245,-14.65 -111.944,-41.25 -7.285,-15.72 -4.902,-43.76 -3.984,-65.63 -7.122,3.05 -15.981,3.8 -27.446,0.83 -28.152,-5.97 -6.875,-91.08 -7.84,-106.05 -10.421,-53.07 -6.281,-116.74 -2.851,-184.51 -6.297,6.012 -13.203,12.691 -14.844,19.539 -7.527,29.381 3.106,54.761 3.938,78.541 0.269,9.7 -7.012,11.75 -17.207,10.07 -4.055,22.34 -13.137,51.85 -8.325,76.36 5.063,42.79 -8.855,95.99 -1.961,135.5 2.122,24.31 3.75,44.77 -1.972,66.79 -30.274,-0.76 -15.547,-23.66 -23.574,-43.23 -9.981,-27.06 -16.524,-44.25 -31.407,-64.8 -7.207,-11.36 -17.031,-15.46 -25.547,-29.45 -17.675,-26.1 1.961,-41.65 -1.953,-76.59 -4.043,-20.57 -7.129,-57.9 -9.472,-107.39 -29.832,-11.5 -62.5,-23.36 -90.684,-32.07 -2.695,-0.76 -5.293,-1.58 -7.937,-2.39 -0.5,5.93 -1.106,11.96 -1.887,18.11 -7.207,46.58 -8.028,238.87 -21.602,259.24 -7.695,-7.28 -19.16,-12.19 -23.574,-21.61 -7.859,-11.85 6.875,-44.58 -7.852,-43.19 -15.554,2.69 -14.726,-9.57 -23.562,-13.75 -10.813,-3.2 -23.078,-8.1 -29.465,-19.64 -9.172,-17.92 2.285,-40.83 1.973,-64.8 0.254,-43.52 4.453,-123.068 -0.313,-156.049 -37.492,-17.441 -73.133,-35.801 -111.64,-52.14 -40.75,-17.422 -80.84,-36.25 -119.805,-51.071 -20.781,-10.55 -42.207,-21.179 -68.73,-35.34 -0.333,0.258 7.031,-18.57 7.851,-27.5 -31.914,-13.98 -9.824,-50.82 -1.973,-70.691 -22.578,-18.57 9.336,-33.297 -3.906,-66.789 -3.113,-5.801 -35.847,-28.719 -33.398,-39.262 5.73,-24.617 32.734,-8.269 43.203,-1.976 81.172,32.976 124.543,46.09 196.406,84.457 24.453,12.383 51.692,24.281 79.922,36.043 -0.273,-25.09 -5.703,-58.492 -1.367,-71.403 4.238,-14.48 3.429,-71.738 7.851,-111.949 1.309,-21.191 -11.797,-184.019 11.786,-166.922 5.89,9.071 12.433,18.891 19.64,29.442 9.973,14.82 21.426,29.57 25.527,43.211 13.907,45.269 26.993,55.898 37.317,92.32 0.32,0.418 -1.32,48.687 -3.938,51.059 9.168,-8.098 0.164,68.812 0,80.519 0.137,43.41 5.164,86.359 9.817,97.422 11.344,4.809 22.566,9.629 33.406,14.519 24.805,8.309 48.457,18.961 71.594,30.11 -0.442,-37.77 -0.735,-77.481 -0.891,-118.481 0.801,-24.64 2.442,-71.277 3.926,-111.961 2.605,-21.507 2.605,-48.488 9.824,-60.867 4.238,-9.73 12.422,-8.91 23.555,-9.812 7.695,0.902 12.59,21.363 15.715,41.25 5.066,20.191 8.34,38.203 9.812,47.109 4.258,36.91 15.703,60.66 19.629,119.813 -3.887,42.808 21.047,108.39 6.192,134.89 12.878,5.438 25.839,10.348 38.996,14.348 6.531,2.031 10.918,4.23 13.75,6.551 -0.571,-89.348 7.515,-135.149 7.847,-214.711 -0.332,-28.071 0.489,-43.617 -3.926,-68.739 -3.765,-17.441 -10.308,-41.968 7.856,-49.101 7.184,12.871 8.848,20.211 15.711,35.351 8.664,15.141 16.047,20.879 21.609,39.282 32.883,-10.211 22.246,71.609 27.492,100.16 2.942,15.629 10.301,50.828 7.84,64.808 -7.343,61.29 9.016,103.852 9.836,161.04 -0.808,56.95 11.66,104.48 0.672,168.71 8.027,0.15 16.203,1.74 22.895,4.12 21.989,6.12 54.319,16.52 82.689,27.06 0.8,-61.38 3.45,-118.5 3.73,-188.109 3.75,-69.781 -0.35,-145.063 0,-168.903 -2.79,-52.277 7.84,-93.179 7.86,-151.207 -0.02,-12.359 17.16,-25.449 31.42,-13.742 16.02,12.84 5.39,34.942 7.84,54.992 0.82,14.309 16.36,21.68 21.61,37.289 10.31,23.668 11.12,55.59 11.78,84.469 -0.66,27.582 0.98,53.77 5.9,78.563 6.54,57.027 5.72,126.578 5.88,186.568 -0.12,23.03 12.3,79.37 10.39,116.38 2.3,0.46 4.67,0.93 7.3,1.45 37.78,7.13 126.98,63.58 157.11,82.49 33.72,21.2 52.52,23.65 82.48,49.09 15.05,10.56 -3.77,21.2 1.97,39.27 5.72,18.76 17.17,39.22 21.58,58.92 2.13,14.66 -9.32,17.12 -3.91,33.4 1.96,9.07 30.59,37.73 41.23,41.24"
         inkscape:connector-curvature="0"
         id="path52"
         style="fill:#231f20;fill-opacity:1;fill-rule:nonzero;stroke:none" /><path
         d="m 915.93,1256.23 c 3.906,-17.08 -6.41,-27.29 -15.508,-37.98 -0.766,2.09 -1.504,4.21 -2.168,6.55 -4.152,11.66 -6.621,29.18 -11.816,44.73 12.48,0.56 25.957,0.74 29.492,-13.3 z M 825.82,988.059 c 0.625,-13.879 1.16,-27.887 1.477,-42.008 -8.703,13.129 -24.875,27.937 -1.477,42.008 z m 616.43,549.021 c -4.93,25.11 -42.54,32.5 -54.99,29.44 -18.66,-7.58 -42.39,-32.14 -64.8,-37.29 -56.14,-15.31 -119.97,-34.96 -168.91,-54.99 -61.53,-25.78 -117.99,-41.32 -174.78,-66.78 -49.582,-19.55 -96.243,-14.65 -111.946,-41.25 -7.281,-15.72 -4.898,-43.77 -3.98,-65.64 -7.121,3.06 -15.981,3.8 -27.446,0.83 -28.152,-5.96 -6.875,-91.07 -7.839,-106.04 -10.43,-53.07 -6.282,-116.75 -2.852,-184.51 -6.301,6.01 -13.203,12.69 -14.844,19.54 -7.527,29.38 3.106,54.75 3.938,78.54 0.262,9.7 -7.004,11.75 -17.219,10.07 -4.043,22.33 -13.125,51.85 -8.312,76.36 5.07,42.79 -8.844,95.98 -1.961,135.5 2.109,24.3 3.75,44.77 -1.973,66.78 -30.273,-0.75 -15.547,-23.65 -23.574,-43.22 -9.981,-27.06 -16.524,-44.25 -31.407,-64.8 -7.207,-11.36 -17.031,-15.46 -25.539,-29.45 -17.683,-26.1 1.965,-41.65 -1.961,-76.59 -4.035,-20.58 -7.128,-57.9 -9.472,-107.39 -29.832,-11.51 -62.5,-23.36 -90.684,-32.07 -2.695,-0.76 -5.293,-1.58 -7.937,-2.39 -0.5,5.92 -1.106,11.96 -1.887,18.11 -7.207,46.58 -8.027,238.87 -21.602,259.24 -7.695,-7.29 -19.16,-12.19 -23.574,-21.61 -7.859,-11.85 6.875,-44.58 -7.851,-43.2 -15.547,2.7 -14.727,-9.57 -23.567,-13.75 -10.808,-3.19 -23.074,-8.1 -29.461,-19.63 -9.172,-17.92 2.285,-40.83 1.973,-64.8 0.254,-43.52 4.453,-123.08 -0.313,-156.05 C 449.988,982.59 414.348,964.238 375.84,947.898 335.09,930.48 295,911.648 256.035,896.82 c -20.781,-10.539 -42.195,-21.172 -68.73,-35.332 -0.332,0.262 7.031,-18.566 7.851,-27.5 -31.914,-13.976 -9.824,-50.816 -1.972,-70.687 -22.579,-18.582 9.336,-33.301 -3.907,-66.789 -3.117,-5.801 -35.847,-28.723 -33.398,-39.27 5.73,-24.621 32.734,-8.262 43.203,-1.972 81.172,32.98 124.539,46.082 196.406,84.449 24.453,12.39 51.692,24.293 79.922,36.051 -0.273,-25.09 -5.691,-58.489 -1.367,-71.399 4.238,-14.492 3.43,-71.75 7.852,-111.949 1.308,-21.192 -11.797,-184.024 11.789,-166.922 5.886,9.07 12.429,18.891 19.636,29.441 9.981,14.821 21.438,29.571 25.528,43.207 13.906,45.262 26.992,55.903 37.312,92.321 0.324,0.422 -1.316,48.691 -3.933,51.062 9.168,-8.109 0.168,68.809 0,80.52 0.136,43.398 5.168,86.359 9.816,97.418 11.348,4.801 22.566,9.633 33.406,14.519 24.805,8.313 48.457,18.961 71.594,30.114 -0.441,-37.77 -0.734,-77.481 -0.891,-118.481 0.801,-24.652 2.442,-71.289 3.926,-111.961 2.61,-21.512 2.61,-48.5 9.824,-60.871 4.239,-9.738 12.422,-8.918 23.555,-9.809 7.695,0.891 12.59,21.352 15.715,41.25 5.066,20.192 8.34,38.2 9.812,47.102 4.258,36.918 15.704,60.668 19.629,119.816 -3.886,42.813 21.035,108.391 6.2,134.891 12.875,5.43 25.832,10.34 38.988,14.352 6.531,2.031 10.918,4.23 13.75,6.55 -0.571,-89.359 7.515,-135.16 7.847,-214.722 -0.332,-28.059 0.493,-43.61 -3.921,-68.739 -3.774,-17.429 -10.317,-41.96 7.847,-49.101 7.192,12.871 8.852,20.223 15.715,35.351 8.672,15.149 16.047,20.891 21.609,39.29 32.883,-10.211 22.247,71.609 27.493,100.16 2.937,15.629 10.3,50.832 7.851,64.808 -7.351,61.293 9.004,103.852 9.824,161.043 -0.808,56.949 11.661,104.479 0.672,168.709 8.032,0.14 16.203,1.74 22.895,4.12 21.988,6.12 54.312,16.52 82.697,27.06 0.8,-61.38 3.44,-118.5 3.73,-188.12 3.75,-69.769 -0.35,-145.05 0,-168.89 -2.8,-52.281 7.83,-93.191 7.85,-151.211 -0.02,-12.367 17.17,-25.449 31.42,-13.738 16.02,12.84 5.39,34.937 7.85,54.988 0.82,14.313 16.35,21.68 21.61,37.289 10.3,23.66 11.11,55.594 11.77,84.461 -0.66,27.59 0.98,53.77 5.9,78.571 6.55,57.019 5.73,126.58 5.88,186.57 -0.12,23.03 12.31,79.37 10.39,116.38 2.31,0.46 4.67,0.93 7.3,1.45 37.78,7.13 126.98,63.58 157.12,82.48 33.71,21.2 52.52,23.66 82.48,49.1 15.06,10.56 -3.77,21.2 1.97,39.27 5.72,18.76 17.17,39.21 21.59,58.92 2.11,14.66 -9.32,17.12 -3.92,33.4 1.95,9.07 30.58,37.72 41.23,41.24"
         inkscape:connector-curvature="0"
         id="path54"
         style="fill:#ed1c24;fill-opacity:1;fill-rule:nonzero;stroke:none" /><path
         d="m 251.074,278.262 0,-86.043 11.922,0 c 10.168,0 17.402,1.133 21.699,3.383 4.297,2.257 7.668,6.187 10.102,11.82 2.43,5.617 3.648,14.726 3.648,27.34 0,16.679 -2.722,28.109 -8.164,34.258 -5.437,6.16 -14.461,9.242 -27.066,9.242 l -12.141,0 z m -48.664,35.66 72.297,0 c 14.246,0 25.762,-1.93 34.539,-5.801 8.774,-3.871 16.02,-9.41 21.75,-16.641 5.734,-7.242 9.883,-15.652 12.461,-25.25 2.578,-9.589 3.867,-19.769 3.867,-30.511 0,-16.828 -1.914,-29.879 -5.754,-39.149 -3.828,-9.281 -9.136,-17.039 -15.945,-23.308 -6.809,-6.27 -14.109,-10.442 -21.914,-12.52 -10.676,-2.863 -20.344,-4.301 -29.004,-4.301 l -72.297,0 0,157.481"
         inkscape:connector-curvature="0"
         id="path56"
         style="fill:#ffffff;fill-opacity:1;fill-rule:nonzero;stroke:none" /><path
         d="m 357.207,270.52 42.273,0 18.293,-71.809 23.145,71.809 39.512,0 24.121,-72 18.398,72 42.012,0 -42.023,-114.079 -38.907,0 -23.113,68.649 -22.324,-68.649 -39.082,0 -42.305,114.079"
         inkscape:connector-curvature="0"
         id="path58"
         style="fill:#ffffff;fill-opacity:1;fill-rule:nonzero;stroke:none" /><path
         d="m 579.246,270.52 43.723,0 0,-114.079 -43.723,0 0,114.079 z m 0,43.402 43.723,0 0,-29.742 -43.723,0 0,29.742"
         inkscape:connector-curvature="0"
         id="path60"
         style="fill:#ffffff;fill-opacity:1;fill-rule:nonzero;stroke:none" /><path
         d="m 650.898,270.52 40.711,0 0,-18.571 c 6.086,7.582 12.246,13.012 18.481,16.27 6.226,3.261 13.816,4.883 22.769,4.883 12.102,0 21.575,-3.59 28.418,-10.793 6.836,-7.2 10.254,-18.309 10.254,-33.348 l 0,-72.52 -43.933,0 0,62.739 c 0,7.16 -1.328,12.218 -3.977,15.199 -2.644,2.973 -6.375,4.461 -11.172,4.461 -5.301,0 -9.597,-2.008 -12.886,-6.008 -3.293,-4.023 -4.946,-11.211 -4.946,-21.602 l 0,-54.789 -43.719,0 0,114.079"
         inkscape:connector-curvature="0"
         id="path62"
         style="fill:#ffffff;fill-opacity:1;fill-rule:nonzero;stroke:none" /><path
         d="m 835.879,215.211 c 0,-8.242 1.758,-14.34 5.266,-18.32 3.503,-3.969 8.125,-5.961 13.855,-5.961 5.438,0 10.012,2.058 13.699,6.179 3.684,4.121 5.531,10.332 5.531,18.633 0,8.309 -1.933,14.668 -5.8,19.067 -3.867,4.41 -8.594,6.613 -14.184,6.613 -5.586,0 -10.035,-2.031 -13.379,-6.07 -3.316,-4.043 -4.988,-10.762 -4.988,-20.141 z m 41.141,55.309 40.929,0 0,-107.731 0.11,-5.059 c 0,-7.148 -1.528,-13.968 -4.575,-20.46 -3.035,-6.469 -7.089,-11.731 -12.129,-15.731 -5.054,-4.008 -11.46,-6.91 -19.238,-8.707 -7.762,-1.781 -16.656,-2.684 -26.687,-2.684 -22.918,0 -38.653,3.442 -47.215,10.321 -8.559,6.871 -12.832,16.07 -12.832,27.59 0,1.453 0.066,3.382 0.215,5.8 l 42.429,-4.82 c 1.075,-3.949 2.727,-6.66 4.942,-8.16 3.222,-2.231 7.265,-3.34 12.136,-3.34 6.301,0 11.016,1.691 14.125,5.051 3.125,3.359 4.676,9.242 4.676,17.621 l 0,17.289 c -4.297,-5.078 -8.593,-8.77 -12.89,-11.059 -6.731,-3.589 -14.004,-5.371 -21.805,-5.371 -15.258,0 -27.57,6.66 -36.953,19.981 -6.66,9.449 -9.992,21.949 -9.992,37.48 0,17.77 4.297,31.301 12.89,40.61 8.594,9.308 19.832,13.961 33.731,13.961 8.879,0 16.203,-1.5 21.965,-4.512 5.769,-3.008 11.16,-7.988 16.168,-14.918 l 0,16.848"
         inkscape:connector-curvature="0"
         id="path64"
         style="fill:#ffffff;fill-opacity:1;fill-rule:nonzero;stroke:none" /><path
         d="m 1026.55,223.59 c -0.86,8.441 -3.13,14.492 -6.81,18.148 -3.7,3.653 -8.55,5.481 -14.56,5.481 -6.95,0 -12.504,-2.758 -16.657,-8.278 -2.644,-3.441 -4.335,-8.55 -5.046,-15.351 l 43.073,0 z m 44.48,-20.961 -87.663,0 c 0.793,-7.008 2.688,-12.238 5.696,-15.68 4.23,-4.937 9.738,-7.398 16.547,-7.398 4.29,0 8.37,1.07 12.24,3.219 2.36,1.351 4.9,3.75 7.63,7.191 l 43.07,-3.969 c -6.59,-11.461 -14.54,-19.683 -23.84,-24.66 -9.31,-4.973 -22.67,-7.473 -40.07,-7.473 -15.109,0 -27.003,2.141 -35.663,6.403 -8.664,4.258 -15.84,11.027 -21.543,20.297 -5.688,9.281 -8.539,20.183 -8.539,32.722 0,17.828 5.714,32.25 17.128,43.278 11.426,11.031 27.2,16.543 47.327,16.543 16.33,0 29.22,-2.461 38.67,-7.403 9.45,-4.937 16.65,-12.109 21.59,-21.48 4.94,-9.399 7.42,-21.61 7.42,-36.637 l 0,-4.953"
         inkscape:connector-curvature="0"
         id="path66"
         style="fill:#ffffff;fill-opacity:1;fill-rule:nonzero;stroke:none" /><path
         d="m 1092.62,156.441 43.8281,0 0,157.48 -43.8281,0 0,-157.48 z"
         inkscape:connector-curvature="0"
         id="path68"
         style="fill:#ffffff;fill-opacity:1;fill-rule:nonzero;stroke:none" /><path
         d="m 1202.83,213.281 c 0,-10.179 2.06,-17.699 6.18,-22.562 4.12,-4.879 9.29,-7.309 15.52,-7.309 6.3,0 11.48,2.399 15.52,7.192 4.05,4.808 6.07,12.5 6.07,23.109 0,9.879 -2.04,17.23 -6.12,22.07 -4.08,4.828 -9.13,7.239 -15.15,7.239 -6.37,0 -11.64,-2.45 -15.79,-7.348 -4.15,-4.91 -6.23,-12.371 -6.23,-22.391 z M 1159,213.16 c 0,17.399 5.87,31.75 17.62,43.031 11.75,11.278 27.61,16.911 47.59,16.911 22.84,0 40.11,-6.622 51.78,-19.86 9.38,-10.683 14.07,-23.82 14.07,-39.433 0,-17.539 -5.82,-31.918 -17.45,-43.129 -11.64,-11.211 -27.74,-16.821 -48.29,-16.821 -18.33,0 -33.16,4.661 -44.48,13.973 -13.89,11.527 -20.84,26.637 -20.84,45.328"
         inkscape:connector-curvature="0"
         id="path70"
         style="fill:#ffffff;fill-opacity:1;fill-rule:nonzero;stroke:none" /><path
         d="m 1349.57,213.281 c 0,-10.179 2.06,-17.699 6.18,-22.562 4.11,-4.879 9.29,-7.309 15.52,-7.309 6.3,0 11.47,2.399 15.52,7.192 4.05,4.808 6.07,12.5 6.07,23.109 0,9.879 -2.04,17.23 -6.12,22.07 -4.08,4.828 -9.13,7.239 -15.15,7.239 -6.38,0 -11.64,-2.45 -15.79,-7.348 -4.15,-4.91 -6.23,-12.371 -6.23,-22.391 z m -43.83,-0.121 c 0,17.399 5.87,31.75 17.62,43.031 11.75,11.278 27.61,16.911 47.59,16.911 22.84,0 40.1,-6.622 51.77,-19.86 9.39,-10.683 14.08,-23.82 14.08,-39.433 0,-17.539 -5.82,-31.918 -17.45,-43.129 -11.64,-11.211 -27.74,-16.821 -48.3,-16.821 -18.33,0 -33.15,4.661 -44.47,13.973 -13.89,11.527 -20.84,26.637 -20.84,45.328"
         inkscape:connector-curvature="0"
         id="path72"
         style="fill:#ffffff;fill-opacity:1;fill-rule:nonzero;stroke:none" /></g></g></svg>