<?xml version="1.0" encoding="UTF-8" standalone="no"?>
<!-- Created with Inkscape (http://www.inkscape.org/) -->

<svg
   xmlns:dc="http://purl.org/dc/elements/1.1/"
   xmlns:cc="http://creativecommons.org/ns#"
   xmlns:rdf="http://www.w3.org/1999/02/22-rdf-syntax-ns#"
   xmlns:svg="http://www.w3.org/2000/svg"
   xmlns="http://www.w3.org/2000/svg"
   xmlns:sodipodi="http://sodipodi.sourceforge.net/DTD/sodipodi-0.dtd"
   xmlns:inkscape="http://www.inkscape.org/namespaces/inkscape"
   version="1.1"
   width="408.625"
   height="204.35001"
   id="svg2"
   xml:space="preserve"
   sodipodi:docname="hit_omm_logo_h.svg"
   inkscape:version="0.92.4 (unknown)"><sodipodi:namedview
     pagecolor="#ffffff"
     bordercolor="#666666"
     borderopacity="1"
     objecttolerance="10"
     gridtolerance="10"
     guidetolerance="10"
     inkscape:pageopacity="0"
     inkscape:pageshadow="2"
     inkscape:window-width="1920"
     inkscape:window-height="1056"
     id="namedview32"
     showgrid="false"
     inkscape:zoom="1.0209679"
     inkscape:cx="176.5565"
     inkscape:cy="41.39704"
     inkscape:window-x="0"
     inkscape:window-y="24"
     inkscape:window-maximized="1"
     inkscape:current-layer="g12" /><metadata
     id="metadata8"><rdf:RDF><cc:Work
         rdf:about=""><dc:format>image/svg+xml</dc:format><dc:type
           rdf:resource="http://purl.org/dc/dcmitype/StillImage" /><dc:title></dc:title></cc:Work></rdf:RDF></metadata><defs
     id="defs6" /><g
     transform="matrix(1.25,0,0,-1.25,0,204.35)"
     id="g10"><g
       transform="scale(0.1)"
       id="g12"><path
         d="M 36.1719,36.25 V 1598.63 H 1598.51 L 1598.55,36.25 Z M 0,1634.76 V 0.078125 L 3269.04,0 V 1634.64 L 0,1634.76"
         inkscape:connector-curvature="0"
         id="path14"
         style="fill:#1c63b7;fill-opacity:1;fill-rule:nonzero;stroke:none" /><path
         d="m 36.1719,36.8203 h 1561.82 v 1561.82 H 36.1719 Z"
         inkscape:connector-curvature="0"
         id="path16"
         style="fill:#ffffff;fill-opacity:1;fill-rule:nonzero;stroke:none" /><path
         d="m 693.672,1462.03 c -12.656,-3.74 -54.285,-18.55 -58.582,-52.08 -0.219,-1.72 -0.344,-3.54 -0.344,-5.43 0,-0.94 0.117,-1.94 0.188,-2.91 -5.371,0.15 -10.325,0.31 -13.672,0.43 l -34.192,0.69 -12.336,-2.18 c -14.656,-2.38 -54.246,-8.85 -55.046,-49.52 -0.118,-2.71 -0.586,-13.43 -0.586,-13.43 0,-24.16 4.941,-50.55 13.918,-74.3 2.644,-7.09 6.675,-12.53 9.617,-16.52 0.039,-0.05 1.765,-2.54 2.285,-3.28 5.156,-20.29 13.762,-36.96 24.031,-51.68 -27.742,-3.32 -55.738,-7.85 -83.348,-16.13 l 5.579,1.03 c -15.071,-1.13 -29.504,-9.14 -44.141,-24.49 l -1.352,-1.43 -1.128,-1.6 c -4.895,-6.98 -8.442,-13.81 -10.786,-20.58 -57.031,-16.89 -103.98,-31.33 -142.078,-43.78 -33.586,-11.07 -100.449,-39.52 -103.269,-40.73 l -1.828,-0.79 c 0,0 -0.391,-0.25 -0.508,-0.33 -0.489,-0.19 -0.996,-0.41 -0.996,-0.41 -51.133,-20.82 -61.868,-56.045 -61.868,-81.924 0,-40.64 31.555,-51.922 46.711,-57.34 3.426,-1.23 6.961,-2.5 8.789,-3.515 20.442,-11.192 40.071,-7.324 54.395,-4.516 l 9.695,1.692 c 7.035,0.871 14.758,3.144 22.461,5.566 7.09,-14.852 20.063,-28.594 40.422,-32.52 17.41,-3.41 29.024,-0.183 38.36,3.172 0.527,-5.23 1.589,-10.449 3.742,-15.515 3.601,-8.485 9.605,-16.278 17.066,-22.899 -12.332,-9.668 -29.844,-27.035 -29.844,-48.136 0,-1.895 0.149,-3.821 0.453,-5.762 -0.011,0.019 0.204,-1.438 0.204,-1.438 1.601,-11.265 5.859,-41.187 46.816,-57.965 15.754,-6.457 33.977,-8.285 54.402,-5.664 1.797,-6.171 4.504,-11.996 8.086,-17.285 -11.265,-5.547 -13.804,-7.48 -15.535,-8.879 l -0.574,-0.476 c -7.512,-6.406 -18.441,-16.418 -26.684,-29.278 -3.425,-5.117 -13.75,-22.328 -13.75,-41.937 0,-3.531 0.344,-7.152 1.118,-10.781 2.617,-12.282 9.648,-22.328 20.332,-29.078 14.89,-9.192 31.152,-10.141 43.699,-8.954 2.043,-13.199 11.719,-28.269 41.64,-37.039 l 1.907,-0.55 c 9.629,-2.938 22.593,-2.438 49.949,-0.11 l 10.996,0.852 c 3.309,0.121 8.867,0.937 15.352,2.109 0.007,-13.449 3.964,-25.39 11.484,-34.301 l 0.539,-0.621 c 16.941,-18.808 42.477,-23.906 52.664,-25.226 11.355,-1.59 25.852,3.25 53.938,14.699 l 6.875,2.75 c 1.367,0.539 4.773,1.551 8.789,2.66 1.082,-1.473 1.851,-3 3.203,-4.383 6.05,-6.25 16.89,-13.547 34.109,-12.937 15.703,0.41 42.195,6.301 45.164,6.969 l 1.582,0.351 1.528,0.551 c 32.734,11.808 140.667,50.91 155.082,58.668 l 0.546,0.301 c 11.954,6.039 107.729,36.589 148.619,49.64 l 29.41,9.41 c 43.08,13.579 82.65,44.192 94.06,56.079 l 0.41,0.449 c 9.55,10.41 15.77,24.695 18.5,42.461 0.31,1.89 0.45,3.765 0.45,5.613 0,9.324 -3.64,18.176 -8.5,26.543 22.4,10 44.27,19.766 44.89,20.051 8.04,2.968 28.68,12.207 37.32,31.277 2.01,4.465 2.92,8.859 3.19,13.125 23.9,6.121 50.26,12.891 50.26,12.891 0.02,0.011 0.82,0.195 0.82,0.195 15.16,3.586 55.4,13.137 92.89,31.711 35.05,16.961 41.78,37.059 41.78,54.004 0,2.305 -0.12,4.539 -0.31,6.707 l -0.14,1.531 -0.11,-1.949 c 0.15,1.269 0.23,2.539 0.23,3.816 0,17.578 -14.54,36.36 -27.89,46.153 -0.22,0.754 -0.36,1.281 -0.36,1.281 -8.47,10.191 -21.11,10.859 -27.18,11.18 l 0.68,-0.047 -7.45,1.226 c -9.64,2.035 -20.12,3.586 -42.55,3.086 -0.51,6.75 -1.57,13.227 -3.67,19.262 -13.27,39.804 -48.41,68.234 -89.42,72.114 -25.7,3.25 -45.6,2.08 -67,0.26 18.39,21.5 37.28,45.84 42.24,60.35 4.31,12.24 12.24,68.15 12.62,73.35 l 0.06,0.77 0.11,7.19 c 0,15.42 -1.56,25.9 -2.85,34.33 -0.09,0.85 -1.62,14.69 -1.77,16.06 -1.23,37.07 -7.42,70 -8.67,76.28 l -12.39,61.55 -37.05,-50.47 c -4.84,-6.69 -10.79,-14.69 -13.36,-17.93 -7.38,-5.66 -41.49,-29.28 -67.3,-45.44 -5.78,23.27 -19.57,43.74 -41.44,59.4 l -0.99,0.7 -1.03,0.61 c -27.5,16.08 -57.72,31.02 -92.39,31.49 -34.758,1.19 -67.101,-5.88 -96.164,-21.06 -17.656,-9.53 -30.723,-23.45 -42.246,-35.74 -7.246,-7.69 -13.945,-14.83 -21.07,-20.47 l 1.379,1.02 c -6.301,-4.34 -12.141,-8.95 -17.786,-13.61 -4.355,22.92 -9.433,48.6 -20.742,73.61 -13.718,29.35 -32.051,54.71 -57.715,80.02 -12.468,12.8 -35.339,22.64 -47.898,27.36 l -1.516,0.53 -7.832,2.64 -8.398,-2.47"
         inkscape:connector-curvature="0"
         id="path18"
         style="fill:#ffffff;fill-opacity:1;fill-rule:nonzero;stroke:none" /><path
         d="m 371.133,793.434 c -1.492,9.336 10.832,22.781 23.508,31.738 13.062,8.941 33.972,18.277 46.675,22.762 12.676,4.121 21.645,7.097 28.735,9.347 41.07,14.18 133.648,46.649 137.383,48.133 4.097,1.887 214.254,70.559 232.183,74.316 17.531,3.731 92.938,37.3 100.809,44.04 5.195,4.48 157.874,22.02 177.674,12.31 19.39,-9.7 -6.35,-76.162 29.12,-66.459 35.04,9.699 144.44,26.879 163.84,-4.449 19.4,-31.391 3.76,-47.063 -10.06,-53.027 -13.45,-5.618 -267.65,-69.067 -267.65,-69.067 0,0 -362.1,-97.793 -375.909,-100.015 -10.82,-1.895 -85.468,-25.04 -113.855,-34.348 -7.832,-2.617 1.121,0.359 -13.789,-4.11 -19.067,-5.585 -15.695,-2.617 -24.289,-1.117 -19.031,3.735 -33.594,16.809 -35.098,34.692 -1.484,17.547 28.008,27.625 25.781,27.625 -2.238,0 -55.625,-27.254 -94.074,-11.571 -28.75,11.571 -29.5,29.508 -30.984,39.2"
         inkscape:connector-curvature="0"
         id="path20"
         style="fill:#ffffff;fill-opacity:1;fill-rule:nonzero;stroke:none" /><path
         d="m 504.48,696.93 c 0,0 193.372,60.078 214.282,67.949 20.894,7.82 247.836,70.176 263.527,73.516 15.293,3.378 175.081,52.656 193.331,57.507 18.3,4.844 138.91,36.953 138.91,36.953 0,0 38.45,9.305 77.26,11.172 38.83,1.504 39.92,-2.976 54.12,-4.089 14.2,-0.754 5.59,-3.735 10.1,-5.239 4.1,-1.109 21.62,-19.019 20.53,-27.625 -1.14,-8.586 8.55,-23.133 -26.9,-40.301 -35.46,-17.558 -73.91,-26.503 -88.1,-29.882 -14.16,-3.34 -82.89,-21.25 -82.89,-21.25 0,0 16.84,-7.856 11.61,-19.438 -5.23,-11.558 -23.53,-17.898 -23.53,-17.898 l -86.97,-38.848 c 0,0 21.66,-6.316 24.63,-10.809 3,-4.484 10.82,-15.683 9.69,-22.753 -1.1,-7.122 -3.73,-19.817 -11.93,-28.762 -8.23,-8.582 -44.05,-36.953 -83.24,-49.281 -39.18,-12.68 -169.109,-53.364 -182.898,-61.223 -13.84,-7.438 -151.578,-57.09 -151.578,-57.09 0,0 -26.485,-5.988 -40.301,-6.348 -21.645,-0.75 -20.156,22.391 -20.156,22.391 0,0 -27.993,-6.742 -35.098,-9.723 -7.082,-2.609 -39.191,-16.789 -47.395,-15.648 -8.593,1.109 -26.14,5.199 -36.582,16.801 -10.089,11.929 -3.347,35.808 0.371,38.449 3.348,2.621 11.18,14.91 11.18,14.91 0,0 -49.258,-11.57 -59.344,-11.93 -9.687,-0.359 -43.671,-4.5 -52.265,-1.882 -8.567,2.632 -28.731,7.089 -25,22.773 3.73,16.059 13.808,27.988 24.636,32.469 10.825,4.5 -39.199,-13.789 -39.199,-13.789 0,0 -23.886,-8.602 -41.426,2.226 -17.183,10.832 -6.343,35.481 0.364,45.539 6.711,10.465 16.426,19.043 21.648,23.504 5.586,4.5 58.613,27.649 58.613,27.649"
         inkscape:connector-curvature="0"
         id="path22"
         style="fill:#1c63b7;fill-opacity:1;fill-rule:nonzero;stroke:none" /><path
         d="m 198.684,1020.03 c 0,0 68.289,29.11 101.14,39.93 75.403,24.65 168.36,51.53 198.977,60.49 29.097,8.95 119.07,36.21 195.222,59.34 60.489,18.3 112.723,33.98 118.34,35.46 13.059,2.98 274.347,85.13 282.957,75.05 8.58,-9.7 35.48,-33.98 33.97,-69.09 -1.5,-35.44 -66.44,-121.67 -77.64,-127.63 -11.58,-5.63 -204.931,-43.69 -204.931,-43.69 0,0 100.035,39.57 104.488,-1.51 4.141,-41.04 -77.637,-55.61 -81.738,-57.837 -4.094,-2.617 -162.367,-52.266 -281.071,-90.344 -78.789,-25.359 -129.543,-44.773 -134.406,-45.527 -12.676,-1.121 -34.695,-18.289 -56.734,-9.719 -14.922,5.957 -33.957,22.758 -25.383,43.664 8.594,21.301 26.895,25.403 26.895,25.403 0,0 -11.954,-4.102 -37.332,-8.606 -25.391,-4.101 -29.875,-13.789 -50.774,-9.695 -21.269,4.101 -26.894,29.492 -25.769,36.59 1.484,7.082 -29.844,-7.469 -45.168,-9.344 -15.672,-1.875 -32.481,-8.945 -48.157,-0.371 -15.281,8.601 -42.175,8.601 -42.175,38.062 0,45.574 45.925,56.784 49.289,59.374"
         inkscape:connector-curvature="0"
         id="path24"
         style="fill:#ed1c24;fill-opacity:1;fill-rule:nonzero;stroke:none" /><path
         d="m 1134.84,1224.49 c 0,0.02 -2.81,11.7 -2.81,11.7 -2.46,9.58 -5.49,21.47 -5.75,26.55 -2.4,21.25 -13.65,39.21 -33.44,53.38 -24.47,14.31 -50.95,27.56 -79.6,27.93 -30.353,1.11 -58.478,-4.96 -83.627,-18.1 -13.601,-7.35 -24.617,-19.09 -35.3,-30.47 -7.481,-7.96 -15.215,-16.2 -23.907,-23.07 -10.488,-7.24 -20.23,-15.73 -29.644,-23.91 l -16.653,-14.16 c -0.371,-0.1 -2.285,-0.94 -2.871,-0.66 l -0.371,0.66 c -3.394,12.79 -5.894,25.94 -8.316,38.66 -4.406,23.17 -8.946,47.12 -19.367,70.15 -12.293,26.34 -28.996,49.37 -52.559,72.53 -10.566,10.89 -37.473,20.79 -38.605,21.23 l -0.465,0.16 -0.469,-0.13 c -1.543,-0.47 -37.602,-11.25 -40.039,-30.31 -1.234,-9.65 6.336,-19.47 22.516,-29.17 -0.016,0 0.363,-0.31 0.714,-0.58 -4.472,-2.98 -41.457,-1.76 -63.894,-1 l -31.289,0.64 c -0.285,-0.05 -9.785,-1.73 -9.785,-1.73 -15.539,-2.53 -33.164,-5.35 -33.489,-24.38 -0.371,-4.16 -0.554,-8.41 -0.554,-12.81 0,-20.96 4.285,-44.02 12.234,-65.04 1.379,-3.7 3.816,-7.03 6.172,-10.21 2.324,-3.19 4.543,-6.19 5.769,-9.53 7.954,-34.79 28.633,-57.46 50.547,-81.49 0,0 0.254,-0.29 0.364,-0.41 -1.289,-0.12 -2.625,-0.25 -2.625,-0.25 -41.309,-3.87 -84.067,-7.87 -124.59,-20.04 -8.203,-0.63 -17.199,-6.02 -27.153,-16.45 -6.453,-9.2 -9.363,-16.94 -9.363,-24.59 -0.332,-2.22 -0.461,-4.48 -0.461,-6.75 0,-12.82 4.934,-25.96 15.285,-40.73 13.633,-21.46 28.758,-38.79 46.211,-52.95 22.129,-16.683 46.336,-28.289 78.528,-37.625 14.207,-4.39 25.808,3.762 37.07,11.66 5.359,3.75 10.945,7.297 16.726,9.758 -8.371,-15.019 -14.843,-33.496 -14.843,-51.394 0,-13.594 3.652,-26.719 12.988,-37.493 10.469,-11.281 25.48,-16.921 38.723,-21.336 7.84,-1.464 15.3,-1.3 23.203,-1.093 l 14.871,-0.102 c 16.543,1.059 33.672,9.906 43.828,22.578 29.414,43.598 44.219,90.043 44.219,138.367 0,5.59 -0.203,11.21 -0.606,16.82 0.215,0.47 1.653,3.67 1.653,3.67 0,0 0.562,1.21 1.113,2.37 1.875,-1.7 13.426,-12.11 13.426,-12.11 14.414,-11.28 15.078,-12.77 23.203,-30.7 l 16.363,-34.546 c 4.149,-8.097 6.082,-19.867 6.082,-34.14 0,-64.836 -39.926,-181.465 -96.183,-243.762 -12.493,-13.855 -18.657,-23.801 -18.657,-30.129 0,-1.617 0.395,-2.984 1.184,-4.137 6.601,-9.472 37.656,2.481 41.172,3.883 l 0.437,0.16 0.254,0.411 c 0.805,1.25 79.188,125.679 104.332,224.785 4.153,16.308 6.692,34.695 6.692,53.633 0,38.882 -10.696,80.142 -40.274,110.532 -0.324,0.26 -6.094,5.08 -6.094,5.08 -2.421,2.27 -5.195,4.79 -8.398,6.71 0.684,1.38 1.953,4.08 2.637,5.52 14.648,-3.85 28.164,-9.82 41.211,-15.65 15.691,-7.03 30.488,-13.65 47.304,-16.85 5.938,-1.46 10.125,-3.89 14.18,-6.26 6.133,-3.57 11.914,-6.91 22.754,-6.46 l 16.696,1.77 c 7.54,1.12 12.5,1.87 17.71,-0.52 1.86,-0.84 4.41,-0.41 7.74,1.41 14.42,7.85 40.68,40.05 42.87,55.37 0.08,0.86 0.08,1.87 0.08,2.97 0,13.05 -4.9,40.8 -19.66,52.17 -7.37,5.77 -22.61,13.48 -36.04,20.27 -10.69,5.39 -23.666,11.96 -26.029,14.6 39.479,21.44 75.069,4.94 75.429,4.78 37.02,-23.85 49.06,-31.59 53.31,-33.72 0.2,-0.13 0.08,-0.43 0.28,-0.54 0,0 0.18,0.24 0.23,0.29 1.64,-0.78 1.95,-0.57 2.25,-0.18 l 0.85,1.29 -1.71,1.12 c -1.35,0.86 1.38,6.6 3.78,11.66 5.61,11.83 14.08,29.68 10.3,50.44"
         inkscape:connector-curvature="0"
         id="path26"
         style="fill:#00a650;fill-opacity:1;fill-rule:nonzero;stroke:none" /><path
         d="m 1052.19,1154.48 v 0 0.019 0 z"
         inkscape:connector-curvature="0"
         id="path28"
         style="fill:#00a650;fill-opacity:1;fill-rule:nonzero;stroke:none" /><path
         d="m 1369.58,980.949 c -10.12,30.391 -36.54,51.871 -67.32,54.741 -26.56,3.42 -45.86,1.7 -70.29,-0.45 l -16.57,-1.42 c -4.06,0 -22.03,-7.21 -47.02,-17.38 -5.91,-2.44 -11.58,-4.74 -16.38,-6.65 13.66,11.27 35.36,33.91 53.8,55.19 21.25,23.84 45.42,53.7 49.56,65.81 3.07,8.73 10.87,61.26 11.28,66.8 0.04,2.12 0.09,4.11 0.09,6.03 0,13.71 -1.38,22.83 -2.63,30.99 l -1.92,17.29 c -1.13,38.49 -8.19,73.05 -8.26,73.42 l -0.66,3.3 -2.01,-2.74 c -0.12,-0.17 -12.69,-17.54 -15.94,-21.16 -3.3,-3.3 -54.73,-38.95 -83.65,-56.06 -45.72,-27.31 -66.38,-62.68 -73.16,-74.3 l -1.61,-2.73 c -4.26,-6.97 -9.12,-17.78 -13.81,-28.22 -4.39,-9.76 -8.53,-18.99 -11.56,-23.64 -4.28,-6.31 -9.36,-20.34 -13.07,-30.63 -1.64,-4.53 -3.2,-8.83 -3.77,-9.72 -3.01,-3.21 -4.22,-9.79 -5.38,-16.13 -0.65,-3.64 -1.4,-7.01 -2.45,-9.52 -0.48,0.92 -1.01,2.05 -1.42,3.3 -0.13,0.48 -4.05,13.68 -28.852,59.61 -22.93,42.78 -26.445,42.48 -69.336,38.7 l -16.086,-1.34 c -47.371,-3.47 -82.484,-27.9 -101.32,-41.03 l -8.691,-5.86 c -9.75,-5.99 -28.86,-32.95 -50.942,-64.14 l -24.988,-34.91 3.332,0.35 c 5.855,0.69 11.316,-0.11 17.137,-0.96 6.054,-0.85 12.343,-1.61 19.035,-0.68 -0.371,-1.79 -0.793,-3.61 -0.793,-5.44 0,-9.089 4.758,-18.132 13.535,-25.065 10.957,-10.957 21.523,-17.442 35.215,-21.535 1.719,-0.071 2.722,-2.372 3.652,-4.618 1.043,-2.441 2.117,-4.98 4.152,-6.371 l 0.758,-0.543 1.008,0.465 c 1.707,0.957 2.442,4.945 3.594,43.383 0.207,7.637 0.437,15.564 0.644,16.544 8.262,26.12 28.653,42.75 55.817,45.51 10.058,1.08 38.965,-2.55 43.191,-23.8 0.117,-0.39 5.735,-12.95 9.063,-16.36 0.039,-0.18 9.425,-27.089 9.425,-27.089 5.77,-17.129 10.321,-30.664 20.45,-51.719 1.386,-2.5 1.523,-5.141 1.679,-7.891 l 0.438,-4.418 c 0.461,-2.234 0.676,-4.605 0.676,-7.027 0,-8.516 -2.657,-18.164 -7.618,-27.481 -4.074,-7.074 -12.746,-17.675 -19.14,-19.015 -16.563,-3.137 -20.774,-0.41 -30.938,6.238 l -9.433,5.891 c -6.867,4.023 -13.399,33.484 -15.352,44.511 2.293,22.481 5.528,61.321 1.727,64.395 -2.293,2.043 -6.668,-1.367 -33.188,-26.008 -16.093,-14.949 -36.113,-33.543 -52.636,-46.031 -23.582,-17.617 -35.301,-39.621 -43.875,-55.703 -3.723,-6.992 -6.934,-13.02 -10.082,-16.524 -4.461,-4.765 -2.75,-11.171 -1.122,-17.343 l 1.485,-6.301 c 2.89,-14.746 11.894,-25.852 20.586,-36.594 l 1.758,-2.183 c 5.878,-8.11 23.347,-29.297 23.515,-29.512 0.43,-0.395 29.758,-28.086 53.633,-7.649 33.629,10.879 49.605,21.125 50.23,21.551 11.973,5.918 25.059,11.977 31.504,14.375 -10.839,-10.484 -32.5,-38.883 -40.058,-61.93 -7.531,-23.695 -23.164,-61.554 -27.168,-69.613 l -4.098,-7.984 c -7.89,-15.547 -26.348,-51.938 -31.113,-56.977 -6.016,-6.008 -8.352,-10.148 -4.238,-16.07 0.859,-1.27 1.836,-1.938 2.976,-2.051 2.024,-0.156 3.735,1.531 5.871,3.652 2.031,1.989 4.551,4.489 7.949,6.11 4.844,2.531 31.305,27.058 59.293,53.031 22.344,20.699 45.438,42.109 52.95,47.91 15.449,12.047 27.148,23.77 41.933,38.574 l 4.141,4.122 c 0,0 38.705,39.363 44.695,45.449 4.78,-3.008 29.41,-18.067 48.6,-24.184 13.89,-2.722 30.28,-4.82 47.51,0 30.74,9.082 77.33,43.125 111.01,70.078 l 1.95,1.567 -2.26,0.976 c -6.24,2.684 -13.39,0.34 -22.44,-2.621 -11.25,-3.629 -25.27,-8.211 -43.61,-5.113 -26.55,3.887 -36.13,7.691 -43.11,10.469 l -4.83,1.797 c -0.03,0 -2.87,0.918 -2.87,0.918 -17.91,5.546 -36.43,11.343 -47.13,26.863 -0.08,0.273 -0.13,0.547 -0.13,0.871 0,1.23 0.52,2.996 1.09,4.961 l 1.13,4.668 c 2.44,9.207 9.48,15.469 16.25,21.519 l 6.11,5.668 c 12.56,15.242 24.39,25.078 37.27,31.055 10.72,5.488 27.48,12.363 46.92,14.062 l 11.7,0.118 c 12.73,0.175 24.75,0.371 37.22,-1.621 9.34,-1.223 11.82,-11.094 14.2,-20.664 l 0.64,-2.5 c 0.32,-6.301 -1.03,-14.243 -3.71,-21.504 -2.32,-1.993 -29.88,-4.844 -46.3,-6.543 -22.89,-2.344 -22.91,-2.446 -23.27,-4.004 l -0.13,-0.606 0.43,-0.625 c 6.44,-9.883 27.75,-14.25 39.89,-15.961 34.04,-4.785 80.42,-1.597 95.99,11.926 20.39,18.699 35.48,38.899 43.71,58.391 9.45,25.097 11.54,44.472 6.34,59.312"
         inkscape:connector-curvature="0"
         id="path30"
         style="fill:#fddd04;fill-opacity:1;fill-rule:nonzero;stroke:none" /><path
         d="m 496.191,765.805 c -2.207,-0.067 -55.761,-27.371 -94.043,-11.668 -28.718,11.797 -29.621,29.558 -31.093,39.179 -0.977,6.446 4.199,14.707 11.59,22.168 -11.981,-9.004 -22.704,-21.574 -21.305,-30.625 1.465,-9.613 2.359,-27.406 31.082,-39.164 29.426,-12.066 67.871,1.25 85.078,8.125 8.137,7.825 20.129,12.035 18.691,11.985"
         inkscape:connector-curvature="0"
         id="path32"
         style="fill:#231f20;fill-opacity:1;fill-rule:nonzero;stroke:none" /><path
         d="m 536.25,706.852 c -9.832,-2.266 -24.27,-4.485 -30.781,-3.254 -19.016,3.562 -33.516,16.648 -35.047,34.66 -0.41,4.805 1.504,9.004 4.402,12.613 -7.195,-4.683 -14.902,-11.797 -14.121,-21.082 1.516,-17.976 16.035,-31.062 35.051,-34.637 1.199,-0.214 2.156,-0.468 2.976,-0.722 3.536,1.543 5.75,2.5 5.75,2.5 0,0 12.637,3.965 31.77,9.922"
         inkscape:connector-curvature="0"
         id="path34"
         style="fill:#231f20;fill-opacity:1;fill-rule:nonzero;stroke:none" /><path
         d="m 150.313,295.23 58.964,3.692 c 1.282,-9.57 3.875,-16.871 7.793,-21.883 6.387,-8.117 15.508,-12.18 27.371,-12.18 8.84,0 15.664,2.071 20.454,6.231 4.785,4.14 7.175,8.941 7.175,14.43 0,5.199 -2.273,9.851 -6.836,13.949 -4.558,4.113 -15.144,7.992 -31.738,11.64 -27.187,6.102 -46.562,14.223 -58.152,24.332 -11.672,10.141 -17.512,23.028 -17.512,38.719 0,10.32 2.988,20.051 8.965,29.211 5.969,9.18 14.961,16.379 26.953,21.617 11.992,5.25 28.43,7.883 49.316,7.883 25.633,0 45.176,-4.781 58.622,-14.301 13.457,-9.539 21.464,-24.699 24.015,-45.5 l -58.418,-3.41 c -1.555,9.031 -4.812,15.59 -9.785,19.692 -4.973,4.109 -11.836,6.148 -20.586,6.148 -7.207,0 -12.637,-1.52 -16.277,-4.57 -3.657,-3.059 -5.481,-6.782 -5.481,-11.149 0,-3.191 1.516,-6.062 4.524,-8.609 2.918,-2.66 9.851,-5.121 20.789,-7.41 27.09,-5.832 46.496,-11.731 58.215,-17.703 11.714,-5.989 20.254,-13.387 25.586,-22.239 5.332,-8.851 8.003,-18.742 8.003,-29.691 0,-12.859 -3.562,-24.707 -10.671,-35.559 -7.122,-10.859 -17.063,-19.082 -29.825,-24.699 -12.773,-5.609 -28.867,-8.41 -48.3,-8.41 -34.114,0 -57.735,6.57 -70.86,19.687 -13.137,13.153 -20.578,29.821 -22.304,50.082"
         inkscape:connector-curvature="0"
         id="path36"
         style="fill:#ed1c24;fill-opacity:1;fill-rule:nonzero;stroke:none" /><path
         d="m 468.125,285.801 52.949,-6.02 c -2.922,-11.051 -7.707,-20.609 -14.363,-28.672 -6.66,-8.07 -15.168,-14.347 -25.52,-18.808 -10.351,-4.469 -23.515,-6.711 -39.472,-6.711 -15.41,0 -28.25,1.441 -38.504,4.308 -10.266,2.872 -19.094,7.524 -26.477,13.942 -7.39,6.43 -13.183,13.961 -17.375,22.621 -4.195,8.648 -6.297,20.141 -6.297,34.449 0,14.942 2.547,27.391 7.664,37.32 3.735,7.29 8.84,13.821 15.325,19.622 6.472,5.777 13.133,10.07 19.968,12.91 10.852,4.457 24.77,6.699 41.731,6.699 23.711,0 41.797,-4.242 54.25,-12.731 12.449,-8.492 21.18,-20.89 26.199,-37.218 l -52.402,-6.973 c -1.641,6.191 -4.629,10.871 -8.965,14.02 -4.336,3.152 -10.148,4.722 -17.441,4.722 -9.207,0 -16.668,-3.301 -22.375,-9.91 -5.692,-6.582 -8.543,-16.582 -8.543,-29.961 0,-11.941 2.824,-21 8.488,-27.18 5.64,-6.199 12.848,-9.289 21.609,-9.289 7.293,0 13.43,1.868 18.399,5.61 4.968,3.738 8.691,9.488 11.152,17.25"
         inkscape:connector-curvature="0"
         id="path38"
         style="fill:#ed1c24;fill-opacity:1;fill-rule:nonzero;stroke:none" /><path
         d="m 595.637,301.238 c 0,-12.937 2.617,-22.519 7.859,-28.726 5.242,-6.203 11.836,-9.293 19.774,-9.293 8.019,0 14.613,3.043 19.765,9.16 5.156,6.109 7.735,15.922 7.735,29.422 0,12.59 -2.606,21.949 -7.801,28.109 -5.196,6.16 -11.621,9.238 -19.285,9.238 -8.118,0 -14.829,-3.128 -20.121,-9.367 -5.282,-6.25 -7.926,-15.761 -7.926,-28.543 z m -55.824,-0.129 c 0,22.172 7.472,40.43 22.445,54.789 14.949,14.372 35.152,21.563 60.601,21.563 29.094,0 51.079,-8.441 65.942,-25.32 11.953,-13.59 17.929,-30.332 17.929,-50.211 0,-22.352 -7.414,-40.66 -22.238,-54.918 -14.824,-14.282 -35.32,-21.422 -61.496,-21.422 -23.348,0 -42.234,5.93 -56.641,17.781 -17.695,14.688 -26.542,33.938 -26.542,57.738"
         inkscape:connector-curvature="0"
         id="path40"
         style="fill:#ed1c24;fill-opacity:1;fill-rule:nonzero;stroke:none" /><path
         d="m 886.637,228.871 h -51.989 v 23.551 c -7.753,-9.672 -15.585,-16.57 -23.464,-20.684 -7.891,-4.09 -17.579,-6.148 -29.075,-6.148 -15.324,0 -27.343,4.582 -36.054,13.75 -8.711,9.172 -13.067,23.281 -13.067,42.34 v 92.48 h 55.957 v -79.89 c 0,-9.122 1.692,-15.598 5.059,-19.418 3.379,-3.84 8.125,-5.75 14.226,-5.75 6.665,0 12.122,2.546 16.36,7.648 4.238,5.121 6.367,14.289 6.367,27.512 v 69.898 h 55.68 V 228.871"
         inkscape:connector-curvature="0"
         id="path42"
         style="fill:#ed1c24;fill-opacity:1;fill-rule:nonzero;stroke:none" /><path
         d="M 987.594,429.449 V 374.16 h 30.646 v -40.762 h -30.646 v -51.476 c 0,-6.184 0.594,-10.293 1.777,-12.293 1.824,-3.09 5.02,-4.641 9.578,-4.641 4.101,0 9.841,1.203 17.241,3.551 l 4.1,-38.43 c -13.77,-3.019 -26.634,-4.519 -38.575,-4.519 -13.867,0 -24.082,1.781 -30.645,5.32 -6.582,3.559 -11.425,8.961 -14.582,16.192 -3.133,7.25 -4.715,18.98 -4.715,35.199 v 51.097 h -20.519 v 40.762 h 20.519 v 26.68 l 55.821,28.609"
         inkscape:connector-curvature="0"
         id="path44"
         style="fill:#ed1c24;fill-opacity:1;fill-rule:nonzero;stroke:none" /><path
         d="m 1046.83,374.16 h 55.68 V 228.871 h -55.68 z m 0,55.289 h 55.68 v -37.91 h -55.68 v 37.91"
         inkscape:connector-curvature="0"
         id="path46"
         style="fill:#ed1c24;fill-opacity:1;fill-rule:nonzero;stroke:none" /><path
         d="m 1138.08,374.16 h 51.86 V 350.5 c 7.74,9.66 15.59,16.57 23.52,20.719 7.94,4.16 17.61,6.242 29.02,6.242 15.41,0 27.47,-4.59 36.17,-13.75 8.73,-9.16 13.08,-23.332 13.08,-42.492 v -92.348 h -55.96 v 79.891 c 0,9.117 -1.69,15.59 -5.06,19.367 -3.37,3.781 -8.12,5.68 -14.23,5.68 -6.76,0 -12.23,-2.547 -16.42,-7.661 -4.2,-5.117 -6.3,-14.277 -6.3,-27.5 v -69.777 h -55.68 V 374.16"
         inkscape:connector-curvature="0"
         id="path48"
         style="fill:#ed1c24;fill-opacity:1;fill-rule:nonzero;stroke:none" /><path
         d="m 1373.67,303.711 c 0,-10.492 2.24,-18.27 6.71,-23.332 4.46,-5.047 10.35,-7.59 17.64,-7.59 6.94,0 12.76,2.609 17.44,7.871 4.71,5.25 7.05,13.16 7.05,23.731 0,10.578 -2.46,18.679 -7.38,24.3 -4.93,5.598 -10.96,8.399 -18.06,8.399 -7.11,0 -12.79,-2.57 -17.04,-7.719 -4.23,-5.172 -6.36,-13.711 -6.36,-25.66 z m 52.4,70.449 h 52.13 V 236.949 l 0.13,-6.429 c 0,-9.122 -1.94,-17.809 -5.82,-26.071 -3.86,-8.25 -9.02,-14.918 -15.44,-20.039 -6.45,-5.109 -14.59,-8.801 -24.5,-11.082 -9.9,-2.277 -21.23,-3.418 -34,-3.418 -29.18,0 -49.22,4.379 -60.12,13.129 -10.91,8.762 -16.36,20.492 -16.36,35.16 0,1.832 0.09,4.289 0.28,7.391 l 54.04,-6.149 c 1.37,-5.019 3.47,-8.492 6.3,-10.402 4.1,-2.828 9.25,-4.25 15.45,-4.25 8.03,0 14.02,2.152 17.99,6.43 3.98,4.293 5.95,11.769 5.95,22.453 v 22.027 c -5.46,-6.488 -10.93,-11.168 -16.42,-14.097 -8.56,-4.551 -17.82,-6.84 -27.77,-6.84 -19.42,0 -35.1,8.476 -47.06,25.437 -8.48,12.039 -12.72,27.961 -12.72,47.75 0,22.621 5.47,39.86 16.42,51.723 10.93,11.848 25.26,17.789 42.95,17.789 11.3,0 20.64,-1.922 27.98,-5.762 7.35,-3.82 14.2,-10.16 20.59,-19.008 v 21.469"
         inkscape:connector-curvature="0"
         id="path50"
         style="fill:#ed1c24;fill-opacity:1;fill-rule:nonzero;stroke:none" /><path
         d="m 2568.75,1199.48 c 3.9,-17.08 -6.41,-27.29 -15.52,-37.98 -0.76,2.09 -1.51,4.21 -2.17,6.55 -4.14,11.66 -6.62,29.18 -11.82,44.73 12.48,0.56 25.96,0.74 29.51,-13.3 z m -90.11,-268.167 c 0.62,-13.887 1.15,-27.891 1.46,-42.012 -8.69,13.125 -24.87,27.937 -1.46,42.012 z m 616.42,549.007 c -4.91,25.13 -42.54,32.5 -54.99,29.45 -18.66,-7.58 -42.39,-32.14 -64.8,-37.29 -56.14,-15.31 -119.96,-34.96 -168.9,-55 -61.54,-25.77 -118.01,-41.31 -174.78,-66.77 -49.59,-19.55 -96.25,-14.65 -111.96,-41.25 -7.27,-15.73 -4.9,-43.76 -3.97,-65.64 -7.12,3.06 -15.99,3.81 -27.45,0.83 -28.15,-5.96 -6.87,-91.07 -7.83,-106.04 -10.43,-53.07 -6.29,-116.74 -2.86,-184.512 -6.3,6.015 -13.2,12.695 -14.84,19.539 -7.54,29.383 3.11,54.753 3.93,78.543 0.27,9.7 -7.01,11.75 -17.21,10.07 -4.04,22.34 -13.13,51.85 -8.32,76.36 5.07,42.79 -8.85,95.98 -1.95,135.5 2.11,24.3 3.75,44.77 -1.98,66.78 -30.27,-0.75 -15.55,-23.65 -23.57,-43.22 -9.98,-27.06 -16.53,-44.25 -31.42,-64.81 -7.2,-11.35 -17.02,-15.45 -25.53,-29.44 -17.68,-26.1 1.95,-41.65 -1.96,-76.59 -4.04,-20.58 -7.14,-57.9 -9.48,-107.39 -29.83,-11.51 -62.5,-23.362 -90.68,-32.073 -2.69,-0.762 -5.3,-1.582 -7.94,-2.39 -0.5,5.925 -1.1,11.961 -1.88,18.113 -7.2,46.58 -8.02,238.87 -21.61,259.24 -7.69,-7.29 -19.15,-12.19 -23.56,-21.61 -7.87,-11.85 6.87,-44.58 -7.85,-43.2 -15.57,2.7 -14.73,-9.57 -23.58,-13.75 -10.8,-3.19 -23.08,-8.09 -29.45,-19.63 -9.18,-17.93 2.28,-40.84 1.97,-64.8 0.25,-43.52 4.45,-123.074 -0.32,-156.055 -37.49,-17.441 -73.14,-35.801 -111.64,-52.137 -40.75,-17.421 -80.84,-36.25 -119.8,-51.078 -20.78,-10.543 -42.2,-21.168 -68.73,-35.332 -0.34,0.254 7.03,-18.57 7.85,-27.5 -31.91,-13.98 -9.82,-50.816 -1.97,-70.691 -22.59,-18.574 9.34,-33.301 -3.92,-66.785 -3.11,-5.801 -35.84,-28.723 -33.39,-39.274 5.73,-24.617 32.74,-8.258 43.21,-1.968 81.17,32.98 124.53,46.085 196.41,84.453 24.45,12.382 51.68,24.289 79.92,36.047 -0.29,-25.09 -5.71,-58.489 -1.38,-71.399 4.25,-14.48 3.43,-71.75 7.86,-111.949 1.3,-21.192 -11.79,-184.031 11.78,-166.934 5.9,9.082 12.43,18.903 19.64,29.453 9.97,14.821 21.43,29.571 25.54,43.207 13.9,45.262 26.99,55.903 37.3,92.321 0.32,0.41 -1.31,48.691 -3.93,51.062 9.16,-8.109 0.16,68.809 0,80.516 0.14,43.406 5.16,86.359 9.81,97.422 11.35,4.804 22.57,9.629 33.41,14.519 24.81,8.313 48.45,18.957 71.59,30.11 -0.43,-37.774 -0.72,-77.481 -0.89,-118.477 0.81,-24.648 2.45,-71.293 3.94,-111.961 2.59,-21.519 2.59,-48.5 9.81,-60.871 4.24,-9.738 12.43,-8.918 23.55,-9.82 7.7,0.902 12.59,21.359 15.72,41.25 5.07,20.203 8.34,38.211 9.82,47.113 4.26,36.918 15.7,60.664 19.63,119.816 -3.9,42.813 21.04,108.387 6.19,134.895 12.87,5.437 25.84,10.34 38.99,14.344 6.54,2.031 10.92,4.226 13.75,6.554 -0.57,-89.355 7.53,-135.16 7.85,-214.718 -0.32,-28.063 0.5,-43.614 -3.93,-68.743 -3.76,-17.429 -10.31,-41.96 7.85,-49.089 7.2,12.859 8.85,20.211 15.73,35.339 8.66,15.149 16.03,20.891 21.6,39.29 32.89,-10.219 22.24,71.613 27.5,100.156 2.94,15.637 10.3,50.832 7.84,64.812 -7.35,61.293 9.01,103.852 9.83,161.039 -0.82,56.953 11.66,104.483 0.67,168.713 8.03,0.14 16.21,1.74 22.89,4.12 22,6.12 54.32,16.52 82.7,27.06 0.79,-61.38 3.45,-118.5 3.72,-188.115 3.75,-69.778 -0.35,-145.063 0,-168.899 -2.79,-52.273 7.85,-93.183 7.86,-151.207 -0.01,-12.371 17.16,-25.449 31.42,-13.738 16.03,12.84 5.39,34.937 7.85,54.984 0.82,14.317 16.35,21.68 21.6,37.293 10.32,23.664 11.13,55.586 11.78,84.465 -0.65,27.59 0.99,53.77 5.9,78.567 6.54,57.031 5.72,126.582 5.88,186.57 -0.12,23.03 12.31,79.37 10.39,116.38 2.3,0.46 4.67,0.92 7.3,1.45 37.79,7.13 126.99,63.58 157.11,82.48 33.72,21.21 52.52,23.65 82.48,49.09 15.06,10.57 -3.76,21.21 1.98,39.28 5.72,18.76 17.17,39.22 21.59,58.92 2.13,14.66 -9.33,17.12 -3.92,33.4 1.96,9.07 30.6,37.73 41.23,41.23"
         inkscape:connector-curvature="0"
         id="path52"
         style="fill:#231f20;fill-opacity:1;fill-rule:nonzero;stroke:none" /><path
         d="m 2531.99,1236.23 c 3.9,-17.07 -6.41,-27.28 -15.52,-37.97 -0.76,2.09 -1.5,4.2 -2.16,6.55 -4.15,11.66 -6.63,29.18 -11.82,44.73 12.48,0.56 25.95,0.74 29.5,-13.31 z m -90.11,-268.16 c 0.62,-13.886 1.15,-27.89 1.46,-42.011 -8.69,13.125 -24.87,27.937 -1.46,42.011 z m 616.43,549.02 c -4.92,25.11 -42.54,32.5 -54.99,29.44 -18.67,-7.58 -42.4,-32.14 -64.8,-37.3 -56.15,-15.3 -119.97,-34.95 -168.91,-54.99 -61.54,-25.77 -118,-41.31 -174.78,-66.78 -49.59,-19.55 -96.25,-14.64 -111.95,-41.25 -7.28,-15.72 -4.91,-43.76 -3.98,-65.63 -7.12,3.06 -15.98,3.8 -27.45,0.83 -28.14,-5.96 -6.87,-91.07 -7.83,-106.05 -10.43,-53.06 -6.29,-116.74 -2.85,-184.505 -6.31,6.012 -13.21,12.695 -14.85,19.535 -7.54,29.39 3.11,54.76 3.93,78.55 0.27,9.7 -7,11.75 -17.21,10.07 -4.04,22.33 -13.12,51.85 -8.32,76.35 5.07,42.8 -8.85,95.99 -1.95,135.5 2.11,24.31 3.75,44.78 -1.97,66.79 -30.28,-0.75 -15.56,-23.65 -23.58,-43.22 -9.98,-27.06 -16.53,-44.25 -31.41,-64.8 -7.21,-11.36 -17.03,-15.47 -25.54,-29.45 -17.68,-26.11 1.96,-41.65 -1.95,-76.59 -4.05,-20.58 -7.14,-57.9 -9.49,-107.39 -29.83,-11.51 -62.5,-23.36 -90.68,-32.07 -2.69,-0.77 -5.29,-1.59 -7.94,-2.4 -0.5,5.93 -1.09,11.97 -1.88,18.12 -7.2,46.58 -8.02,238.86 -21.61,259.24 -7.69,-7.29 -19.15,-12.19 -23.56,-21.61 -7.87,-11.85 6.87,-44.59 -7.85,-43.2 -15.56,2.7 -14.73,-9.57 -23.58,-13.75 -10.8,-3.19 -23.07,-8.1 -29.45,-19.64 -9.18,-17.92 2.29,-40.83 1.97,-64.79 0.26,-43.53 4.46,-123.08 -0.32,-156.057 -37.49,-17.441 -73.13,-35.801 -111.64,-52.137 -40.75,-17.422 -80.84,-36.25 -119.8,-51.078 -20.78,-10.547 -42.2,-21.172 -68.73,-35.332 -0.34,0.258 7.04,-18.57 7.86,-27.5 -31.92,-13.98 -9.83,-50.816 -1.98,-70.691 -22.58,-18.575 9.34,-33.301 -3.91,-66.785 -3.12,-5.801 -35.85,-28.723 -33.4,-39.27 5.73,-24.621 32.74,-8.262 43.21,-1.973 81.17,32.981 124.53,46.086 196.41,84.453 24.45,12.383 51.68,24.29 79.92,36.047 -0.27,-25.089 -5.7,-58.488 -1.38,-71.398 4.25,-14.492 3.43,-71.75 7.86,-111.949 1.3,-21.2 -11.79,-184.032 11.78,-166.93 5.9,9.07 12.43,18.898 19.64,29.449 9.98,14.821 21.44,29.571 25.54,43.211 13.9,45.262 26.99,55.899 37.3,92.309 0.32,0.422 -1.31,48.691 -3.92,51.07 9.16,-8.109 0.15,68.809 0,80.516 0.13,43.398 5.15,86.355 9.8,97.422 11.35,4.804 22.57,9.628 33.41,14.519 24.81,8.313 48.46,18.957 71.59,30.109 -0.43,-37.773 -0.72,-77.48 -0.89,-118.476 0.81,-24.649 2.45,-71.289 3.94,-111.957 2.6,-21.524 2.6,-48.5 9.81,-60.871 4.24,-9.742 12.43,-8.922 23.56,-9.821 7.69,0.899 12.58,21.36 15.71,41.25 5.07,20.2 8.34,38.211 9.82,47.11 4.26,36.918 15.71,60.668 19.63,119.816 -3.89,42.813 21.04,108.391 6.19,134.895 12.88,5.429 25.84,10.34 38.99,14.344 6.54,2.031 10.93,4.226 13.75,6.55 -0.57,-89.351 7.53,-135.152 7.85,-214.715 -0.32,-28.066 0.5,-43.613 -3.93,-68.742 -3.76,-17.429 -10.31,-41.957 7.86,-49.097 7.19,12.871 8.84,20.211 15.72,35.347 8.67,15.153 16.03,20.891 21.6,39.289 32.89,-10.214 22.25,71.614 27.5,100.157 2.94,15.636 10.3,50.832 7.85,64.812 -7.36,61.289 9.01,103.852 9.83,161.035 -0.82,56.959 11.66,104.489 0.66,168.709 8.03,0.15 16.21,1.74 22.89,4.12 22,6.13 54.33,16.53 82.71,27.07 0.79,-61.38 3.44,-118.5 3.72,-188.117 3.75,-69.778 -0.36,-145.059 0,-168.899 -2.8,-52.273 7.84,-93.184 7.85,-151.211 -0.01,-12.363 17.17,-25.449 31.42,-13.738 16.03,12.84 5.39,34.941 7.86,54.988 0.82,14.317 16.34,21.68 21.6,37.293 10.31,23.664 11.12,55.59 11.77,84.465 -0.65,27.59 0.99,53.769 5.9,78.566 6.55,57.02 5.73,126.583 5.88,186.573 -0.12,23.03 12.32,79.36 10.39,116.38 2.31,0.45 4.67,0.92 7.31,1.45 37.78,7.13 126.98,63.57 157.11,82.48 33.71,21.2 52.52,23.65 82.48,49.09 15.06,10.57 -3.77,21.2 1.97,39.28 5.72,18.76 17.17,39.21 21.6,58.92 2.12,14.66 -9.33,17.12 -3.92,33.39 1.96,9.08 30.59,37.73 41.23,41.25"
         inkscape:connector-curvature="0"
         id="path54"
         style="fill:#009036;fill-opacity:1;fill-rule:nonzero;stroke:none" /><text
         xml:space="preserve"
         style="font-style:normal;font-variant:normal;font-weight:normal;font-stretch:normal;font-size:224px;line-height:125%;font-family:'Arial Black';-inkscape-font-specification:'Arial Black, Normal';font-variant-ligatures:normal;font-variant-caps:normal;font-variant-numeric:normal;font-feature-settings:normal;text-align:start;letter-spacing:0px;word-spacing:0px;writing-mode:lr-tb;text-anchor:start;fill:#ffffff;fill-opacity:1;stroke:none;stroke-width:8px;stroke-linecap:butt;stroke-linejoin:miter;stroke-opacity:1;"
         x="1978.7904"
         y="-139.52519"
         id="text4792"
         transform="scale(1,-1)"><tspan
           sodipodi:role="line"
           id="tspan4790"
           x="1978.7904"
           y="-139.52519"
           style="font-style:normal;font-variant:normal;font-weight:normal;font-stretch:normal;font-size:224px;font-family:'Arial Black';-inkscape-font-specification:'Arial Black, Normal';font-variant-ligatures:normal;font-variant-caps:normal;font-variant-numeric:normal;font-feature-settings:normal;text-align:start;writing-mode:lr-tb;text-anchor:start;fill:#ffffff;fill-opacity:1;stroke-width:8px;">Ommen</tspan></text>
</g></g></svg>