<?xml version="1.0" encoding="UTF-8" standalone="no"?>
<!-- Created with Inkscape (http://www.inkscape.org/) -->

<svg
   xmlns:dc="http://purl.org/dc/elements/1.1/"
   xmlns:cc="http://creativecommons.org/ns#"
   xmlns:rdf="http://www.w3.org/1999/02/22-rdf-syntax-ns#"
   xmlns:svg="http://www.w3.org/2000/svg"
   xmlns="http://www.w3.org/2000/svg"
   xmlns:inkscape="http://www.inkscape.org/namespaces/inkscape"
   version="1.1"
   width="204.35001"
   height="408.625"
   id="svg2"
   xml:space="preserve"><metadata
     id="metadata8"><rdf:RDF><cc:Work
         rdf:about=""><dc:format>image/svg+xml</dc:format><dc:type
           rdf:resource="http://purl.org/dc/dcmitype/StillImage" /></cc:Work></rdf:RDF></metadata><defs
     id="defs6" /><g
     transform="matrix(1.25,0,0,-1.25,0,408.625)"
     id="g10"><g
       transform="scale(0.1,0.1)"
       id="g12"><path
         d="m 36.25,3232.87 1562.37,0 0,-1562.35 -1562.37,-0.03 0,1562.38 z m 1598.5,36.17 -1634.671875,0 L 0,0 l 1634.63,0 0.12,3269.04"
         inkscape:connector-curvature="0"
         id="path14"
         style="fill:#ed1c24;fill-opacity:1;fill-rule:nonzero;stroke:none" /><path
         d="m 36.8164,1671.05 1561.82,0 0,1561.82 -1561.82,0 0,-1561.82 z"
         inkscape:connector-curvature="0"
         id="path16"
         style="fill:#ffffff;fill-opacity:1;fill-rule:nonzero;stroke:none" /><path
         d="m 694.316,3096.26 c -12.656,-3.74 -54.289,-18.55 -58.586,-52.08 -0.21,-1.72 -0.339,-3.54 -0.339,-5.43 0,-0.94 0.117,-1.94 0.183,-2.91 -5.371,0.15 -10.32,0.31 -13.672,0.42 l -34.187,0.7 -12.332,-2.18 c -14.66,-2.38 -54.25,-8.84 -55.051,-49.52 -0.117,-2.7 -0.586,-13.42 -0.586,-13.42 0,-24.17 4.942,-50.55 13.914,-74.3 2.649,-7.09 6.684,-12.54 9.621,-16.52 0.039,-0.06 1.77,-2.54 2.285,-3.29 5.157,-20.29 13.758,-36.96 24.036,-51.67 -27.747,-3.33 -55.747,-7.85 -83.352,-16.15 l 5.574,1.04 c -15.066,-1.13 -29.5,-9.14 -44.136,-24.49 l -1.348,-1.42 -1.137,-1.61 c -4.89,-6.98 -8.433,-13.81 -10.777,-20.58 -57.031,-16.89 -103.988,-31.33 -142.082,-43.78 C 258.762,2708 191.895,2679.54 189.07,2678.34 l -1.824,-0.78 c 0,0 -0.391,-0.26 -0.508,-0.34 -0.488,-0.2 -0.996,-0.41 -0.996,-0.41 -51.133,-20.82 -61.863,-56.04 -61.863,-81.92 0,-40.64 31.551,-51.93 46.707,-57.35 3.43,-1.22 6.965,-2.49 8.789,-3.52 20.438,-11.18 40.066,-7.32 54.395,-4.5 l 9.699,1.69 c 7.027,0.86 14.754,3.14 22.461,5.56 7.09,-14.85 20.054,-28.59 40.418,-32.52 17.414,-3.4 29.023,-0.19 38.359,3.18 0.527,-5.23 1.594,-10.45 3.738,-15.52 3.606,-8.49 9.614,-16.28 17.075,-22.9 -12.336,-9.66 -29.844,-27.03 -29.844,-48.13 0,-1.9 0.144,-3.82 0.445,-5.77 -0.008,0.02 0.207,-1.43 0.207,-1.43 1.602,-11.27 5.86,-41.19 46.817,-57.97 15.75,-6.46 33.972,-8.28 54.406,-5.66 1.797,-6.17 4.5,-12 8.086,-17.28 -11.274,-5.56 -13.813,-7.49 -15.539,-8.89 l -0.578,-0.47 c -7.508,-6.41 -18.434,-16.42 -26.676,-29.28 -3.43,-5.12 -13.75,-22.33 -13.75,-41.93 0,-3.54 0.34,-7.15 1.109,-10.79 2.617,-12.28 9.652,-22.33 20.332,-29.07 14.895,-9.2 31.153,-10.15 43.703,-8.96 2.039,-13.2 11.719,-28.27 41.641,-37.04 l 1.902,-0.56 c 9.629,-2.93 22.602,-2.43 49.953,-0.1 l 10.996,0.85 c 3.313,0.11 8.868,0.94 15.352,2.1 0.012,-13.44 3.965,-25.39 11.484,-34.29 l 0.539,-0.62 c 16.942,-18.81 42.481,-23.91 52.665,-25.23 11.359,-1.58 25.847,3.26 53.933,14.7 l 6.875,2.75 c 1.367,0.54 4.777,1.54 8.789,2.66 1.086,-1.46 1.86,-3 3.203,-4.38 6.059,-6.24 16.899,-13.55 34.114,-12.95 15.703,0.41 42.199,6.31 45.168,6.97 l 1.582,0.36 1.519,0.55 c 32.735,11.81 140.68,50.92 155.094,58.67 l 0.547,0.3 c 11.953,6.04 107.716,36.59 148.616,49.64 l 29.41,9.42 c 43.09,13.56 82.66,44.18 94.06,56.07 l 0.41,0.44 c 9.56,10.42 15.77,24.7 18.5,42.46 0.31,1.9 0.45,3.78 0.45,5.62 0,9.34 -3.63,18.18 -8.5,26.55 22.41,10 44.26,19.76 44.89,20.05 8.04,2.97 28.69,12.2 37.32,31.27 2.01,4.47 2.91,8.86 3.18,13.13 23.91,6.13 50.28,12.89 50.28,12.89 0.02,0.01 0.82,0.2 0.82,0.2 15.15,3.59 55.39,13.13 92.89,31.71 35.04,16.96 41.78,37.06 41.78,54 0,2.31 -0.14,4.54 -0.32,6.71 l -0.13,1.54 -0.12,-1.96 c 0.16,1.27 0.23,2.54 0.23,3.82 0,17.57 -14.55,36.35 -27.89,46.15 -0.21,0.76 -0.37,1.28 -0.37,1.28 -8.45,10.2 -21.09,10.86 -27.17,11.18 l 0.69,-0.04 -7.46,1.22 c -9.63,2.03 -20.12,3.58 -42.54,3.09 -0.53,6.74 -1.58,13.23 -3.67,19.26 -13.28,39.8 -48.42,68.22 -89.44,72.12 -25.68,3.23 -45.58,2.08 -66.99,0.25 18.4,21.51 37.29,45.84 42.25,60.35 4.29,12.25 12.22,68.16 12.61,73.35 l 0.06,0.78 0.1,7.18 c 0,15.42 -1.54,25.89 -2.83,34.34 -0.1,0.85 -1.62,14.68 -1.78,16.04 -1.23,37.08 -7.42,70 -8.67,76.29 l -12.38,61.55 -37.05,-50.47 c -4.85,-6.69 -10.81,-14.69 -13.36,-17.93 -7.39,-5.67 -41.51,-29.27 -67.31,-45.44 -5.78,23.27 -19.57,43.74 -41.44,59.4 l -0.98,0.7 -1.04,0.61 c -27.5,16.08 -57.71,31.03 -92.4,31.5 -34.745,1.18 -67.089,-5.89 -96.152,-21.06 -17.656,-9.54 -30.722,-23.46 -42.246,-35.75 -7.246,-7.7 -13.945,-14.83 -21.074,-20.47 l 1.367,1.02 c -6.289,-4.34 -12.129,-8.94 -17.773,-13.61 -4.356,22.92 -9.438,48.6 -20.746,73.61 -13.723,29.36 -32.051,54.71 -57.715,80.02 -12.473,12.8 -35.344,22.64 -47.898,27.36 l -1.516,0.54 -7.832,2.63 -8.399,-2.47"
         inkscape:connector-curvature="0"
         id="path18"
         style="fill:#ffffff;fill-opacity:1;fill-rule:nonzero;stroke:none" /><path
         d="m 371.777,2427.67 c -1.496,9.33 10.828,22.78 23.504,31.74 13.071,8.94 33.977,18.27 46.684,22.75 12.676,4.13 21.64,7.11 28.726,9.36 41.079,14.18 133.657,46.64 137.383,48.12 4.106,1.9 214.262,70.57 232.184,74.32 17.539,3.73 92.949,37.3 100.82,44.04 5.195,4.48 157.872,22.02 177.672,12.3 19.38,-9.69 -6.34,-76.16 29.13,-66.44 35.04,9.69 144.43,26.87 163.82,-4.47 19.42,-31.37 3.77,-47.05 -10.05,-53.01 -13.44,-5.62 -267.64,-69.06 -267.64,-69.06 0,0 -362.115,-97.8 -375.924,-100.03 -10.82,-1.89 -85.469,-25.04 -113.856,-34.34 -7.835,-2.62 1.122,0.36 -13.792,-4.12 -19.059,-5.58 -15.692,-2.62 -24.286,-1.11 -19.035,3.73 -33.593,16.81 -35.097,34.69 -1.485,17.55 28.008,27.63 25.781,27.63 -2.234,0 -55.625,-27.26 -94.07,-11.58 -28.75,11.58 -29.504,29.51 -30.989,39.21"
         inkscape:connector-curvature="0"
         id="path20"
         style="fill:#ffffff;fill-opacity:1;fill-rule:nonzero;stroke:none" /><path
         d="m 505.129,2331.16 c 0,0 193.367,60.07 214.273,67.95 20.903,7.82 247.848,70.18 263.532,73.52 15.293,3.37 175.076,52.66 193.336,57.5 18.31,4.85 138.91,36.96 138.91,36.96 0,0 38.46,9.3 77.27,11.17 38.82,1.5 39.92,-2.98 54.12,-4.1 14.2,-0.75 5.58,-3.73 10.1,-5.23 4.1,-1.12 21.62,-19.03 20.52,-27.63 -1.15,-8.57 8.56,-23.13 -26.89,-40.29 -35.47,-17.57 -73.93,-26.51 -88.11,-29.88 -14.16,-3.34 -82.89,-21.26 -82.89,-21.26 0,0 16.84,-7.85 11.6,-19.43 -5.21,-11.56 -23.51,-17.9 -23.51,-17.9 l -86.97,-38.85 c 0,0 21.66,-6.33 24.62,-10.81 2.99,-4.49 10.82,-15.68 9.69,-22.75 -1.09,-7.13 -3.73,-19.82 -11.93,-28.77 -8.22,-8.57 -44.05,-36.95 -83.24,-49.29 -39.18,-12.67 -169.107,-53.36 -182.896,-61.21 -13.848,-7.44 -151.586,-57.09 -151.586,-57.09 0,0 -26.484,-5.98 -40.305,-6.35 -21.636,-0.75 -20.156,22.39 -20.156,22.39 0,0 -27.984,-6.73 -35.097,-9.72 -7.079,-2.61 -39.188,-16.79 -47.391,-15.64 -8.594,1.11 -26.145,5.2 -36.582,16.79 -10.086,11.94 -3.352,35.81 0.371,38.45 3.352,2.62 11.184,14.91 11.184,14.91 0,0 -49.258,-11.57 -59.348,-11.93 -9.688,-0.36 -43.672,-4.5 -52.266,-1.88 -8.562,2.63 -28.73,7.09 -25,22.77 3.731,16.07 13.809,27.99 24.641,32.47 10.816,4.51 -39.199,-13.79 -39.199,-13.79 0,0 -23.887,-8.6 -41.426,2.23 -17.191,10.83 -6.352,35.48 0.359,45.54 6.707,10.46 16.426,19.04 21.653,23.5 5.586,4.51 58.613,27.65 58.613,27.65"
         inkscape:connector-curvature="0"
         id="path22"
         style="fill:#1c63b7;fill-opacity:1;fill-rule:nonzero;stroke:none" /><path
         d="m 199.324,2654.27 c 0,0 68.293,29.1 101.145,39.93 75.398,24.64 168.359,51.51 198.972,60.48 29.106,8.95 119.075,36.21 195.227,59.34 60.488,18.3 112.727,33.98 118.34,35.46 13.055,2.98 274.362,85.13 282.952,75.05 8.6,-9.7 35.49,-33.98 33.99,-69.09 -1.51,-35.45 -66.45,-121.67 -77.66,-127.64 -11.56,-5.61 -204.923,-43.69 -204.923,-43.69 0,0 100.039,39.58 104.492,-1.49 4.141,-41.06 -77.636,-55.62 -81.738,-57.85 -4.101,-2.61 -162.379,-52.26 -281.078,-90.34 -78.789,-25.37 -129.539,-44.78 -134.402,-45.53 -12.676,-1.12 -34.7,-18.29 -56.743,-9.71 -14.918,5.95 -33.953,22.75 -25.378,43.66 8.593,21.3 26.894,25.4 26.894,25.4 0,0 -11.953,-4.1 -37.336,-8.61 -25.39,-4.1 -29.871,-13.78 -50.769,-9.69 -21.27,4.1 -26.895,29.49 -25.774,36.59 1.485,7.08 -29.844,-7.47 -45.164,-9.35 -15.676,-1.87 -32.48,-8.94 -48.152,-0.36 -15.285,8.6 -42.18,8.6 -42.18,38.06 0,45.56 45.93,56.78 49.285,59.38"
         inkscape:connector-curvature="0"
         id="path24"
         style="fill:#ed1c24;fill-opacity:1;fill-rule:nonzero;stroke:none" /><path
         d="m 1135.49,2858.72 c 0,0.02 -2.81,11.7 -2.81,11.7 -2.46,9.57 -5.49,21.47 -5.74,26.55 -2.4,21.26 -13.65,39.21 -33.46,53.38 -24.45,14.31 -50.94,27.56 -79.59,27.92 -30.351,1.12 -58.476,-4.96 -83.632,-18.09 -13.594,-7.34 -24.61,-19.09 -35.293,-30.47 -7.481,-7.96 -15.215,-16.2 -23.906,-23.07 -10.489,-7.24 -20.235,-15.73 -29.649,-23.91 l -16.652,-14.16 c -0.371,-0.09 -2.285,-0.93 -2.871,-0.66 l -0.371,0.66 c -3.403,12.79 -5.903,25.95 -8.325,38.66 -4.402,23.17 -8.945,47.13 -19.363,70.16 -12.297,26.33 -28.992,49.36 -52.558,72.52 -10.567,10.9 -37.469,20.8 -38.602,21.23 l -0.473,0.16 -0.465,-0.14 c -1.542,-0.45 -37.597,-11.23 -40.042,-30.31 -1.227,-9.65 6.339,-19.46 22.523,-29.15 -0.023,0 0.359,-0.32 0.711,-0.59 -4.473,-2.98 -41.453,-1.75 -63.899,-1 l -31.289,0.64 c -0.281,-0.05 -9.785,-1.73 -9.785,-1.73 -15.535,-2.53 -33.164,-5.35 -33.484,-24.38 -0.371,-4.16 -0.559,-8.41 -0.559,-12.8 0,-20.96 4.289,-44.04 12.239,-65.04 1.375,-3.71 3.82,-7.03 6.171,-10.21 2.325,-3.19 4.539,-6.2 5.774,-9.54 7.945,-34.79 28.633,-57.46 50.547,-81.49 0,0 0.254,-0.29 0.359,-0.41 -1.289,-0.11 -2.629,-0.25 -2.629,-0.25 -41.304,-3.86 -84.058,-7.87 -124.59,-20.04 -8.203,-0.62 -17.195,-6.01 -27.144,-16.45 -6.457,-9.2 -9.367,-16.94 -9.367,-24.59 -0.332,-2.22 -0.457,-4.48 -0.457,-6.75 0,-12.81 4.929,-25.96 15.281,-40.73 13.633,-21.46 28.762,-38.78 46.211,-52.95 22.129,-16.68 46.34,-28.29 78.523,-37.62 14.211,-4.39 25.813,3.76 37.071,11.66 5.363,3.75 10.949,7.29 16.73,9.75 -8.367,-15.02 -14.844,-33.49 -14.844,-51.39 0,-13.59 3.653,-26.73 12.989,-37.49 10.468,-11.28 25.476,-16.93 38.718,-21.34 7.844,-1.46 15.305,-1.3 23.203,-1.09 l 14.875,-0.1 c 16.543,1.05 33.672,9.9 43.829,22.58 29.414,43.6 44.218,90.04 44.218,138.37 0,5.58 -0.207,11.2 -0.605,16.82 0.215,0.46 1.648,3.66 1.648,3.66 0,0 0.571,1.21 1.114,2.37 1.875,-1.71 13.429,-12.11 13.429,-12.11 14.418,-11.28 15.082,-12.76 23.207,-30.69 l 16.367,-34.55 c 4.141,-8.1 6.075,-19.86 6.075,-34.15 0,-64.83 -39.922,-181.46 -96.188,-243.76 -12.488,-13.86 -18.648,-23.79 -18.648,-30.12 0,-1.62 0.386,-2.99 1.179,-4.15 6.602,-9.46 37.657,2.49 41.172,3.9 l 0.442,0.15 0.254,0.41 c 0.796,1.25 79.191,125.68 104.328,224.78 4.16,16.31 6.699,34.7 6.699,53.64 0,38.88 -10.703,80.14 -40.273,110.54 -0.333,0.25 -6.094,5.07 -6.094,5.07 -2.422,2.28 -5.196,4.78 -8.399,6.71 0.684,1.37 1.953,4.08 2.637,5.51 14.648,-3.84 28.164,-9.8 41.211,-15.63 15.684,-7.03 30.488,-13.65 47.305,-16.86 5.937,-1.46 10.117,-3.89 14.179,-6.26 6.133,-3.57 11.914,-6.91 22.754,-6.46 l 16.704,1.77 c 7.54,1.12 12.5,1.87 17.69,-0.52 1.88,-0.84 4.42,-0.41 7.76,1.41 14.41,7.85 40.68,40.05 42.87,55.37 0.07,0.86 0.07,1.88 0.07,2.98 0,13.04 -4.9,40.8 -19.66,52.15 -7.37,5.78 -22.6,13.5 -36.04,20.28 -10.68,5.39 -23.671,11.97 -26.034,14.6 39.494,21.44 75.074,4.94 75.434,4.78 37.03,-23.84 49.06,-31.58 53.32,-33.72 0.19,-0.14 0.07,-0.43 0.27,-0.55 0,0 0.18,0.25 0.23,0.3 1.65,-0.78 1.96,-0.57 2.25,-0.18 l 0.84,1.29 -1.7,1.12 c -1.35,0.86 1.39,6.59 3.77,11.65 5.63,11.84 14.08,29.69 10.31,50.45"
         inkscape:connector-curvature="0"
         id="path26"
         style="fill:#00a650;fill-opacity:1;fill-rule:nonzero;stroke:none" /><path
         d="m 1052.84,2788.7 0,0 0,0.02 0,0 0,-0.02 z"
         inkscape:connector-curvature="0"
         id="path28"
         style="fill:#00a650;fill-opacity:1;fill-rule:nonzero;stroke:none" /><path
         d="m 1370.24,2615.19 c -10.14,30.38 -36.54,51.86 -67.32,54.73 -26.57,3.41 -45.86,1.71 -70.3,-0.46 l -16.58,-1.41 c -4.04,0 -22.01,-7.21 -47.01,-17.38 -5.92,-2.44 -11.58,-4.74 -16.39,-6.65 13.67,11.27 35.37,33.91 53.81,55.19 21.25,23.84 45.41,53.7 49.55,65.8 3.09,8.74 10.88,61.28 11.29,66.81 0.04,2.12 0.1,4.12 0.1,6.03 0,13.7 -1.39,22.83 -2.64,31 l -1.91,17.29 c -1.14,38.48 -8.21,73.04 -8.26,73.41 l -0.67,3.29 -2.01,-2.72 c -0.12,-0.19 -12.7,-17.55 -15.94,-21.17 -3.3,-3.3 -54.72,-38.95 -83.65,-56.06 -45.72,-27.31 -66.39,-62.67 -73.16,-74.3 l -1.61,-2.73 c -4.25,-6.97 -9.12,-17.78 -13.8,-28.22 -4.4,-9.76 -8.54,-19 -11.57,-23.64 -4.27,-6.3 -9.35,-20.34 -13.06,-30.63 -1.64,-4.53 -3.21,-8.83 -3.77,-9.72 -3.01,-3.2 -4.22,-9.78 -5.39,-16.13 -0.65,-3.64 -1.41,-7 -2.45,-9.51 -0.48,0.91 -1.01,2.05 -1.42,3.29 -0.14,0.49 -4.04,13.68 -28.85,59.61 -22.929,42.77 -26.445,42.48 -69.335,38.7 l -16.094,-1.34 c -47.363,-3.46 -82.485,-27.9 -101.321,-41.03 l -8.695,-5.85 c -9.742,-6.01 -28.855,-32.95 -50.933,-64.14 l -24.993,-34.91 3.329,0.34 c 5.863,0.68 11.32,-0.11 17.14,-0.96 6.055,-0.86 12.344,-1.61 19.031,-0.68 -0.371,-1.79 -0.789,-3.61 -0.789,-5.44 0,-9.09 4.754,-18.13 13.535,-25.07 10.958,-10.95 21.524,-17.43 35.215,-21.53 1.719,-0.07 2.727,-2.37 3.653,-4.62 1.047,-2.43 2.121,-4.98 4.148,-6.37 l 0.766,-0.55 1.004,0.48 c 1.711,0.96 2.441,4.94 3.593,43.37 0.204,7.65 0.442,15.57 0.645,16.54 8.266,26.13 28.656,42.76 55.824,45.52 10.059,1.09 38.965,-2.55 43.184,-23.81 0.117,-0.38 5.742,-12.94 9.062,-16.35 0.039,-0.17 9.434,-27.08 9.434,-27.08 5.762,-17.15 10.312,-30.68 20.449,-51.73 1.387,-2.5 1.523,-5.14 1.68,-7.89 l 0.429,-4.42 c 0.469,-2.23 0.684,-4.6 0.684,-7.03 0,-8.51 -2.656,-18.17 -7.617,-27.47 -4.082,-7.07 -12.754,-17.68 -19.141,-19.02 -16.562,-3.14 -20.781,-0.41 -30.937,6.24 l -9.434,5.89 c -6.875,4.02 -13.398,33.49 -15.351,44.51 2.285,22.48 5.527,61.33 1.718,64.4 -2.285,2.04 -6.66,-1.37 -33.183,-26.01 -16.094,-14.95 -36.117,-33.55 -52.641,-46.03 -23.586,-17.62 -35.305,-39.62 -43.879,-55.71 -3.719,-6.98 -6.93,-13.02 -10.074,-16.52 -4.465,-4.76 -2.758,-11.17 -1.125,-17.34 l 1.484,-6.3 c 2.891,-14.75 11.895,-25.85 20.586,-36.59 l 1.758,-2.19 c 5.879,-8.1 23.352,-29.31 23.516,-29.51 0.429,-0.39 29.758,-28.09 53.636,-7.65 33.633,10.88 49.61,21.12 50.235,21.55 11.972,5.92 25.058,11.97 31.504,14.38 -10.84,-10.49 -32.5,-38.89 -40.059,-61.94 -7.539,-23.69 -23.164,-61.55 -27.168,-69.61 l -4.101,-7.98 c -7.891,-15.55 -26.352,-51.93 -31.118,-56.98 -6.015,-6.01 -8.347,-10.15 -4.238,-16.07 0.859,-1.27 1.836,-1.93 2.981,-2.05 2.019,-0.16 3.726,1.53 5.867,3.65 2.035,2 4.554,4.5 7.953,6.11 4.844,2.53 31.308,27.06 59.297,53.03 22.344,20.7 45.429,42.11 52.949,47.92 15.449,12.04 27.148,23.75 41.934,38.57 l 4.14,4.12 c 0,0 38.713,39.36 44.693,45.44 4.78,-3.01 29.41,-18.06 48.61,-24.17 13.89,-2.73 30.27,-4.82 47.5,0 30.74,9.08 77.32,43.13 111.01,70.07 l 1.96,1.57 -2.27,0.97 c -6.25,2.69 -13.4,0.34 -22.44,-2.61 -11.25,-3.64 -25.27,-8.22 -43.61,-5.12 -26.55,3.89 -36.14,7.69 -43.11,10.47 l -4.82,1.8 c -0.04,0 -2.87,0.91 -2.87,0.91 -17.91,5.55 -36.45,11.35 -47.13,26.87 -0.1,0.27 -0.14,0.54 -0.14,0.86 0,1.23 0.53,3 1.09,4.96 l 1.14,4.67 c 2.44,9.21 9.47,15.48 16.25,21.53 l 6.09,5.66 c 12.56,15.25 24.4,25.08 37.29,31.06 10.7,5.49 27.48,12.36 46.91,14.06 l 11.7,0.12 c 12.73,0.18 24.75,0.36 37.23,-1.62 9.33,-1.23 11.81,-11.1 14.2,-20.66 l 0.62,-2.5 c 0.33,-6.31 -1.02,-14.25 -3.69,-21.51 -2.33,-2 -29.88,-4.84 -46.31,-6.55 -22.89,-2.35 -22.91,-2.44 -23.26,-4.01 l -0.14,-0.59 0.43,-0.63 c 6.45,-9.88 27.76,-14.25 39.88,-15.96 34.05,-4.78 80.43,-1.59 96,11.93 20.39,18.7 35.49,38.89 43.71,58.39 9.45,25.1 11.54,44.47 6.35,59.32"
         inkscape:connector-curvature="0"
         id="path30"
         style="fill:#fddd04;fill-opacity:1;fill-rule:nonzero;stroke:none" /><path
         d="m 496.836,2400.04 c -2.207,-0.07 -55.762,-27.37 -94.043,-11.67 -28.723,11.79 -29.617,29.56 -31.094,39.18 -0.976,6.44 4.199,14.7 11.594,22.16 -11.984,-9 -22.707,-21.57 -21.313,-30.62 1.465,-9.61 2.368,-27.4 31.086,-39.16 29.422,-12.07 67.872,1.25 85.079,8.12 8.132,7.83 20.125,12.04 18.691,11.99"
         inkscape:connector-curvature="0"
         id="path32"
         style="fill:#231f20;fill-opacity:1;fill-rule:nonzero;stroke:none" /><path
         d="m 536.895,2341.08 c -9.832,-2.27 -24.266,-4.48 -30.782,-3.25 -19.011,3.57 -33.515,16.65 -35.05,34.65 -0.411,4.81 1.503,9.01 4.406,12.63 -7.199,-4.69 -14.903,-11.81 -14.121,-21.09 1.511,-17.98 16.035,-31.06 35.047,-34.63 1.203,-0.23 2.16,-0.48 2.98,-0.73 3.535,1.54 5.754,2.5 5.754,2.5 0,0 12.637,3.96 31.766,9.92"
         inkscape:connector-curvature="0"
         id="path34"
         style="fill:#231f20;fill-opacity:1;fill-rule:nonzero;stroke:none" /><path
         d="m 150.957,1929.46 58.965,3.69 c 1.277,-9.57 3.879,-16.87 7.793,-21.88 6.387,-8.12 15.508,-12.18 27.375,-12.18 8.836,0 15.664,2.07 20.445,6.23 4.785,4.14 7.18,8.95 7.18,14.43 0,5.19 -2.277,9.84 -6.836,13.95 -4.563,4.11 -15.149,7.98 -31.738,11.63 -27.188,6.11 -46.563,14.23 -58.157,24.35 -11.668,10.13 -17.507,23.03 -17.507,38.72 0,10.31 2.988,20.04 8.964,29.21 5.965,9.17 14.961,16.37 26.954,21.62 11.992,5.24 28.425,7.87 49.316,7.87 25.637,0 45.176,-4.78 58.625,-14.3 13.453,-9.54 21.465,-24.7 24.012,-45.5 l -58.418,-3.41 c -1.551,9.02 -4.817,15.59 -9.785,19.7 -4.969,4.1 -11.836,6.15 -20.586,6.15 -7.207,0 -12.637,-1.53 -16.282,-4.58 -3.648,-3.06 -5.476,-6.78 -5.476,-11.15 0,-3.19 1.512,-6.06 4.519,-8.62 2.922,-2.64 9.856,-5.11 20.793,-7.39 27.09,-5.84 46.492,-11.74 58.211,-17.71 11.723,-5.98 20.254,-13.39 25.586,-22.23 5.332,-8.85 8.012,-18.75 8.012,-29.69 0,-12.87 -3.567,-24.72 -10.676,-35.57 -7.117,-10.86 -17.058,-19.08 -29.824,-24.7 -12.774,-5.61 -28.867,-8.41 -48.301,-8.41 -34.109,0 -57.734,6.57 -70.859,19.69 -13.133,13.15 -20.574,29.83 -22.305,50.08"
         inkscape:connector-curvature="0"
         id="path36"
         style="fill:#ed1c24;fill-opacity:1;fill-rule:nonzero;stroke:none" /><path
         d="m 468.77,1920.03 52.949,-6.02 c -2.918,-11.04 -7.703,-20.6 -14.364,-28.67 -6.664,-8.07 -15.167,-14.35 -25.519,-18.81 -10.352,-4.47 -23.516,-6.71 -39.473,-6.71 -15.41,0 -28.254,1.44 -38.508,4.31 -10.261,2.87 -19.089,7.52 -26.472,13.94 -7.395,6.43 -13.184,13.96 -17.371,22.62 -4.199,8.65 -6.301,20.14 -6.301,34.45 0,14.94 2.551,27.39 7.668,37.32 3.726,7.29 8.836,13.82 15.32,19.61 6.477,5.79 13.137,10.09 19.973,12.91 10.848,4.47 24.766,6.71 41.726,6.71 23.711,0 41.797,-4.24 54.247,-12.73 12.453,-8.48 21.183,-20.89 26.203,-37.21 l -52.403,-6.98 c -1.64,6.2 -4.629,10.87 -8.965,14.02 -4.335,3.15 -10.144,4.72 -17.441,4.72 -9.211,0 -16.672,-3.3 -22.371,-9.9 -5.695,-6.6 -8.547,-16.59 -8.547,-29.97 0,-11.93 2.82,-21 8.484,-27.18 5.649,-6.2 12.856,-9.29 21.614,-9.29 7.297,0 13.426,1.87 18.398,5.61 4.973,3.74 8.692,9.49 11.153,17.25"
         inkscape:connector-curvature="0"
         id="path38"
         style="fill:#ed1c24;fill-opacity:1;fill-rule:nonzero;stroke:none" /><path
         d="m 596.277,1935.48 c 0,-12.95 2.618,-22.52 7.864,-28.73 5.246,-6.21 11.836,-9.3 19.777,-9.3 8.016,0 14.605,3.05 19.766,9.16 5.156,6.11 7.734,15.92 7.734,29.42 0,12.59 -2.609,21.96 -7.805,28.11 -5.195,6.16 -11.621,9.24 -19.289,9.24 -8.113,0 -14.82,-3.13 -20.113,-9.37 -5.285,-6.25 -7.934,-15.77 -7.934,-28.53 z m -55.816,-0.14 c 0,22.17 7.469,40.43 22.437,54.79 14.954,14.37 35.161,21.56 60.61,21.56 29.09,0 51.07,-8.45 65.933,-25.32 11.954,-13.58 17.93,-30.33 17.93,-50.21 0,-22.34 -7.41,-40.66 -22.234,-54.92 -14.824,-14.28 -35.324,-21.42 -61.492,-21.42 -23.352,0 -42.239,5.93 -56.641,17.78 -17.695,14.69 -26.543,33.94 -26.543,57.74"
         inkscape:connector-curvature="0"
         id="path40"
         style="fill:#ed1c24;fill-opacity:1;fill-rule:nonzero;stroke:none" /><path
         d="m 887.289,1863.1 -51.992,0 0,23.55 c -7.758,-9.67 -15.59,-16.57 -23.473,-20.68 -7.886,-4.09 -17.578,-6.15 -29.07,-6.15 -15.32,0 -27.344,4.58 -36.055,13.75 -8.711,9.17 -13.066,23.28 -13.066,42.34 l 0,92.49 55.957,0 0,-79.9 c 0,-9.12 1.687,-15.6 5.058,-19.42 3.379,-3.84 8.125,-5.75 14.231,-5.75 6.656,0 12.117,2.56 16.355,7.65 4.239,5.12 6.368,14.29 6.368,27.51 l 0,69.91 55.687,0 0,-145.3"
         inkscape:connector-curvature="0"
         id="path42"
         style="fill:#ed1c24;fill-opacity:1;fill-rule:nonzero;stroke:none" /><path
         d="m 988.246,2063.67 0,-55.27 30.644,0 0,-40.77 -30.644,0 0,-51.48 c 0,-6.18 0.586,-10.28 1.777,-12.29 1.817,-3.09 5.02,-4.63 9.571,-4.63 4.106,0 9.846,1.19 17.246,3.54 l 4.1,-38.43 c -13.77,-3.01 -26.639,-4.52 -38.573,-4.52 -13.867,0 -24.082,1.78 -30.644,5.32 -6.582,3.56 -11.426,8.96 -14.59,16.19 -3.125,7.25 -4.707,18.98 -4.707,35.2 l 0,51.1 -20.528,0 0,40.77 20.528,0 0,26.68 55.82,28.59"
         inkscape:connector-curvature="0"
         id="path44"
         style="fill:#ed1c24;fill-opacity:1;fill-rule:nonzero;stroke:none" /><path
         d="m 1047.49,2008.4 55.68,0 0,-145.3 -55.68,0 0,145.3 z m 0,55.27 55.68,0 0,-37.9 -55.68,0 0,37.9"
         inkscape:connector-curvature="0"
         id="path46"
         style="fill:#ed1c24;fill-opacity:1;fill-rule:nonzero;stroke:none" /><path
         d="m 1138.74,2008.4 51.85,0 0,-23.67 c 7.74,9.66 15.59,16.58 23.52,20.73 7.95,4.15 17.61,6.23 29.02,6.23 15.41,0 27.46,-4.59 36.17,-13.76 8.73,-9.16 13.09,-23.32 13.09,-42.48 l 0,-92.35 -55.98,0 0,79.9 c 0,9.12 -1.68,15.58 -5.06,19.36 -3.36,3.78 -8.1,5.68 -14.22,5.68 -6.75,0 -12.22,-2.55 -16.42,-7.66 -4.2,-5.11 -6.29,-14.28 -6.29,-27.5 l 0,-69.78 -55.68,0 0,145.3"
         inkscape:connector-curvature="0"
         id="path48"
         style="fill:#ed1c24;fill-opacity:1;fill-rule:nonzero;stroke:none" /><path
         d="m 1374.32,1937.94 c 0,-10.49 2.25,-18.27 6.7,-23.32 4.47,-5.06 10.35,-7.6 17.66,-7.6 6.93,0 12.75,2.62 17.44,7.87 4.71,5.25 7.05,13.16 7.05,23.73 0,10.59 -2.46,18.68 -7.38,24.29 -4.95,5.61 -10.96,8.42 -18.07,8.42 -7.11,0 -12.79,-2.58 -17.03,-7.73 -4.24,-5.17 -6.37,-13.71 -6.37,-25.66 z m 52.4,70.46 52.13,0 0,-137.22 0.14,-6.43 c 0,-9.12 -1.95,-17.81 -5.82,-26.07 -3.87,-8.25 -9.02,-14.92 -15.45,-20.04 -6.45,-5.11 -14.59,-8.8 -24.49,-11.07 -9.9,-2.29 -21.23,-3.43 -34.01,-3.43 -29.18,0 -49.22,4.38 -60.11,13.13 -10.92,8.76 -16.37,20.49 -16.37,35.16 0,1.83 0.1,4.3 0.27,7.39 l 54.05,-6.15 c 1.36,-5.02 3.47,-8.49 6.3,-10.4 4.11,-2.83 9.24,-4.25 15.45,-4.25 8.03,0 14.03,2.15 17.99,6.44 3.99,4.28 5.96,11.76 5.96,22.44 l 0,22.03 c -5.47,-6.49 -10.94,-11.17 -16.43,-14.1 -8.55,-4.55 -17.83,-6.84 -27.77,-6.84 -19.41,0 -35.1,8.48 -47.05,25.44 -8.5,12.04 -12.74,27.95 -12.74,47.75 0,22.62 5.47,39.86 16.43,51.72 10.94,11.85 25.25,17.79 42.95,17.79 11.31,0 20.64,-1.92 27.99,-5.76 7.34,-3.82 14.2,-10.17 20.58,-19.01 l 0,21.48"
         inkscape:connector-curvature="0"
         id="path50"
         style="fill:#ed1c24;fill-opacity:1;fill-rule:nonzero;stroke:none" /><path
         d="m 952.68,1219.47 c 3.906,-17.08 -6.407,-27.29 -15.508,-37.98 -0.762,2.09 -1.504,4.21 -2.168,6.55 -4.141,11.66 -6.621,29.18 -11.816,44.73 12.48,0.57 25.957,0.74 29.492,-13.3 z M 862.582,951.309 c 0.625,-13.887 1.152,-27.899 1.465,-42.02 -8.692,13.133 -24.883,27.941 -1.465,42.02 z m 616.428,549.011 c -4.92,25.12 -42.55,32.5 -55,29.44 -18.65,-7.58 -42.38,-32.14 -64.81,-37.29 -56.13,-15.31 -119.96,-34.95 -168.88,-54.99 -61.55,-25.77 -118.01,-41.32 -174.79,-66.78 -49.589,-19.55 -96.249,-14.65 -111.952,-41.25 -7.285,-15.72 -4.902,-43.76 -3.984,-65.63 -7.11,3.05 -15.977,3.8 -27.442,0.83 -28.144,-5.97 -6.875,-91.08 -7.832,-106.05 -10.429,-53.07 -6.289,-116.74 -2.851,-184.51 -6.309,6.012 -13.203,12.691 -14.844,19.539 -7.539,29.381 3.105,54.761 3.926,78.541 0.273,9.7 -7.012,11.75 -17.207,10.07 -4.047,22.34 -13.129,51.85 -8.317,76.36 5.063,42.79 -8.851,95.99 -1.961,135.5 2.122,24.31 3.75,44.77 -1.972,66.79 -30.274,-0.76 -15.551,-23.66 -23.571,-43.23 -9.98,-27.06 -16.531,-44.25 -31.414,-64.8 -7.207,-11.36 -17.027,-15.46 -25.539,-29.45 -17.675,-26.1 1.957,-41.65 -1.957,-76.59 -4.039,-20.57 -7.133,-57.9 -9.476,-107.39 -29.828,-11.5 -62.5,-23.36 -90.684,-32.07 -2.691,-0.76 -5.293,-1.58 -7.933,-2.39 -0.504,5.93 -1.102,11.96 -1.883,18.11 -7.211,46.58 -8.032,238.87 -21.61,259.24 -7.695,-7.28 -19.152,-12.19 -23.566,-21.61 -7.863,-11.85 6.871,-44.58 -7.856,-43.19 -15.554,2.69 -14.726,-9.57 -23.562,-13.75 -10.813,-3.2 -23.082,-8.1 -29.465,-19.64 -9.172,-17.92 2.285,-40.83 1.973,-64.8 0.254,-43.52 4.457,-123.068 -0.317,-156.049 -37.488,-17.441 -73.129,-35.801 -111.64,-52.14 -40.746,-17.422 -80.84,-36.25 -119.797,-51.071 -20.785,-10.55 -42.207,-21.179 -68.731,-35.34 -0.339,0.258 7.032,-18.57 7.852,-27.5 -31.918,-13.98 -9.824,-50.82 -1.973,-70.691 -22.586,-18.57 9.336,-33.297 -3.914,-66.789 -3.109,-5.801 -35.843,-28.719 -33.398,-39.262 5.734,-24.617 32.738,-8.269 43.207,-1.976 81.176,32.976 124.543,46.09 196.406,84.457 24.453,12.383 51.692,24.281 79.926,36.043 -0.281,-25.09 -5.703,-58.492 -1.375,-71.403 4.246,-14.48 3.433,-71.738 7.855,-111.949 1.305,-21.191 -11.793,-184.019 11.786,-166.922 5.89,9.071 12.429,18.891 19.636,29.442 9.977,14.82 21.434,29.57 25.531,43.211 13.911,45.269 26.993,55.898 37.317,92.32 0.316,0.418 -1.317,48.687 -3.934,51.059 9.164,-8.098 0.16,68.812 0,80.519 0.137,43.41 5.16,86.359 9.813,97.422 11.344,4.809 22.562,9.629 33.402,14.519 24.809,8.309 48.457,18.961 71.598,30.11 -0.442,-37.77 -0.735,-77.481 -0.895,-118.481 0.809,-24.64 2.449,-71.277 3.93,-111.961 2.605,-21.507 2.605,-48.488 9.82,-60.867 4.239,-9.73 12.426,-8.91 23.555,-9.812 7.695,0.902 12.594,21.363 15.719,41.25 5.062,20.191 8.34,38.203 9.816,47.109 4.254,36.91 15.703,60.66 19.625,119.813 -3.891,42.808 21.047,108.39 6.195,134.89 12.875,5.438 25.84,10.348 38.985,14.348 6.543,2.031 10.918,4.23 13.75,6.551 -0.567,-89.348 7.519,-135.149 7.851,-214.711 -0.332,-28.071 0.489,-43.617 -3.925,-68.739 -3.77,-17.441 -10.313,-41.968 7.851,-49.101 7.188,12.871 8.848,20.211 15.723,35.351 8.652,15.141 16.035,20.879 21.601,39.282 32.891,-10.211 22.246,71.609 27.5,100.16 2.93,15.629 10.293,50.828 7.832,64.808 -7.343,61.29 9.024,103.852 9.844,161.04 -0.82,56.95 11.66,104.48 0.664,168.71 8.028,0.15 16.211,1.74 22.891,4.12 21.997,6.12 54.317,16.52 82.697,27.06 0.8,-61.38 3.46,-118.5 3.73,-188.109 3.75,-69.781 -0.35,-145.063 0,-168.903 -2.79,-52.277 7.83,-93.179 7.85,-151.207 -0.02,-12.359 17.17,-25.449 31.43,-13.742 16.01,12.84 5.39,34.942 7.85,54.992 0.82,14.309 16.35,21.68 21.6,37.289 10.31,23.668 11.11,55.59 11.78,84.469 -0.67,27.582 0.97,53.77 5.9,78.563 6.54,57.027 5.72,126.578 5.87,186.568 -0.11,23.03 12.31,79.37 10.4,116.38 2.3,0.46 4.66,0.93 7.3,1.45 37.77,7.13 126.97,63.58 157.11,82.49 33.71,21.2 52.52,23.65 82.48,49.09 15.06,10.56 -3.77,21.2 1.97,39.27 5.73,18.76 17.17,39.22 21.58,58.92 2.13,14.66 -9.31,17.12 -3.91,33.4 1.96,9.07 30.59,37.73 41.24,41.24"
         inkscape:connector-curvature="0"
         id="path52"
         style="fill:#231f20;fill-opacity:1;fill-rule:nonzero;stroke:none" /><path
         d="m 915.922,1256.23 c 3.906,-17.08 -6.406,-27.29 -15.508,-37.98 -0.762,2.09 -1.504,4.21 -2.168,6.55 -4.141,11.66 -6.621,29.18 -11.816,44.73 12.48,0.56 25.957,0.74 29.492,-13.3 z M 825.82,988.059 c 0.625,-13.879 1.16,-27.887 1.477,-42.008 -8.703,13.129 -24.879,27.937 -1.477,42.008 z m 616.43,549.021 c -4.92,25.11 -42.54,32.5 -55,29.44 -18.65,-7.58 -42.38,-32.14 -64.78,-37.29 -56.16,-15.31 -119.98,-34.96 -168.91,-54.99 -61.54,-25.78 -118.01,-41.32 -174.787,-66.78 -49.589,-19.55 -96.25,-14.65 -111.953,-41.25 -7.285,-15.72 -4.902,-43.77 -3.984,-65.64 -7.109,3.06 -15.977,3.8 -27.441,0.83 -28.149,-5.96 -6.872,-91.07 -7.836,-106.04 -10.426,-53.07 -6.282,-116.75 -2.852,-184.51 -6.301,6.01 -13.203,12.69 -14.844,19.54 -7.527,29.38 3.11,54.75 3.938,78.54 0.265,9.7 -7.008,11.75 -17.215,10.07 -4.047,22.33 -13.129,51.85 -8.316,76.36 5.066,42.79 -8.844,95.98 -1.961,135.5 2.113,24.3 3.75,44.77 -1.973,66.78 -30.273,-0.75 -15.551,-23.65 -23.57,-43.22 -9.981,-27.06 -16.532,-44.25 -31.414,-64.8 -7.207,-11.36 -17.028,-15.46 -25.536,-29.45 -17.679,-26.1 1.961,-41.65 -1.961,-76.59 -4.035,-20.58 -7.132,-57.9 -9.476,-107.39 -29.828,-11.51 -62.5,-23.36 -90.684,-32.07 -2.691,-0.76 -5.293,-1.58 -7.933,-2.39 -0.504,5.92 -1.102,11.96 -1.883,18.11 -7.211,46.58 -8.031,238.87 -21.609,259.24 -7.696,-7.29 -19.153,-12.19 -23.567,-21.61 -7.863,-11.85 6.871,-44.58 -7.855,-43.2 -15.551,2.7 -14.727,-9.57 -23.567,-13.75 -10.808,-3.19 -23.078,-8.1 -29.457,-19.63 -9.176,-17.92 2.281,-40.83 1.969,-64.8 0.254,-43.52 4.457,-123.08 -0.316,-156.05 -37.489,-17.45 -73.129,-35.802 -111.641,-52.142 -40.746,-17.418 -80.84,-36.25 -119.797,-51.078 -20.785,-10.539 -42.199,-21.172 -68.73,-35.332 -0.34,0.262 7.031,-18.566 7.851,-27.5 -31.918,-13.976 -9.824,-50.816 -1.972,-70.687 -22.586,-18.582 9.335,-33.301 -3.915,-66.789 -3.113,-5.801 -35.843,-28.723 -33.398,-39.27 5.734,-24.621 32.738,-8.262 43.207,-1.972 81.176,32.98 124.539,46.082 196.406,84.449 24.453,12.39 51.692,24.293 79.926,36.051 -0.277,-25.09 -5.695,-58.489 -1.375,-71.399 4.246,-14.492 3.434,-71.75 7.856,-111.949 1.304,-21.192 -11.793,-184.024 11.789,-166.922 5.886,9.07 12.425,18.891 19.632,29.441 9.981,14.821 21.442,29.571 25.532,43.207 13.91,45.262 26.996,55.903 37.312,92.321 0.32,0.422 -1.312,48.691 -3.93,51.062 9.165,-8.109 0.165,68.809 0,80.52 0.137,43.398 5.165,86.359 9.813,97.418 11.348,4.801 22.562,9.633 33.402,14.519 24.813,8.313 48.457,18.961 71.598,30.114 -0.441,-37.77 -0.734,-77.481 -0.895,-118.481 0.809,-24.652 2.45,-71.289 3.93,-111.961 2.61,-21.512 2.61,-48.5 9.82,-60.871 4.239,-9.738 12.426,-8.918 23.555,-9.809 7.695,0.891 12.594,21.352 15.719,41.25 5.062,20.192 8.34,38.2 9.816,47.102 4.254,36.918 15.703,60.668 19.629,119.816 -3.894,42.813 21.035,108.391 6.196,134.891 12.875,5.43 25.832,10.34 38.988,14.352 6.531,2.031 10.918,4.23 13.75,6.55 -0.571,-89.359 7.512,-135.16 7.844,-214.722 -0.332,-28.059 0.488,-43.61 -3.918,-68.739 -3.774,-17.429 -10.317,-41.96 7.843,-49.101 7.188,12.871 8.848,20.223 15.723,35.351 8.672,15.149 16.035,20.891 21.602,39.29 32.89,-10.211 22.246,71.609 27.5,100.16 2.929,15.629 10.293,50.832 7.851,64.808 -7.363,61.293 9.004,103.852 9.824,161.043 -0.82,56.949 11.66,104.479 0.664,168.709 8.028,0.14 16.211,1.74 22.891,4.12 21.992,6.12 54.316,16.52 82.695,27.06 0.8,-61.38 3.46,-118.5 3.73,-188.12 3.75,-69.769 -0.35,-145.05 0,-168.89 -2.79,-52.281 7.83,-93.191 7.85,-151.211 -0.02,-12.367 17.17,-25.449 31.43,-13.738 16.01,12.84 5.39,34.937 7.85,54.988 0.82,14.313 16.35,21.68 21.6,37.289 10.31,23.66 11.12,55.594 11.78,84.461 -0.66,27.59 0.98,53.77 5.9,78.571 6.54,57.019 5.72,126.58 5.88,186.57 -0.12,23.03 12.3,79.37 10.39,116.38 2.3,0.46 4.67,0.93 7.3,1.45 37.78,7.13 126.97,63.58 157.11,82.48 33.71,21.2 52.52,23.66 82.48,49.1 15.06,10.56 -3.77,21.2 1.97,39.27 5.73,18.76 17.17,39.21 21.6,58.92 2.12,14.66 -9.33,17.12 -3.92,33.4 1.95,9.07 30.59,37.72 41.23,41.24"
         inkscape:connector-curvature="0"
         id="path54"
         style="fill:#fddd04;fill-opacity:1;fill-rule:nonzero;stroke:none" /><path
         d="m 502.313,216.5 -17.379,56.602 -17.2,-56.602 34.579,0 z m 10.097,-34.059 -55.242,0 -7.676,-26 -49.687,0 59.187,157.481 53.078,0 59.18,-157.481 -50.957,0 -7.883,26"
         inkscape:connector-curvature="0"
         id="path56"
         style="fill:#ffffff;fill-opacity:1;fill-rule:nonzero;stroke:none" /><path
         d="m 585.32,156.441 43.8281,0 0,157.48 -43.8281,0 0,-157.48 z"
         inkscape:connector-curvature="0"
         id="path58"
         style="fill:#ffffff;fill-opacity:1;fill-rule:nonzero;stroke:none" /><path
         d="m 701.121,213.16 c 0,-9.019 1.899,-15.719 5.695,-20.078 3.797,-4.371 8.594,-6.562 14.395,-6.562 5.09,0 9.348,2.101 12.781,6.289 3.442,4.191 5.156,11.293 5.156,21.332 0,9.238 -1.785,16.007 -5.371,20.351 -3.582,4.34 -7.949,6.5 -13.101,6.5 -5.586,0 -10.246,-2.183 -13.965,-6.562 -3.723,-4.36 -5.59,-11.45 -5.59,-21.27 z m -43.824,-100.121 0,157.481 40.926,0 0,-16.848 c 5.656,7.09 10.847,11.867 15.578,14.387 6.375,3.363 13.426,5.043 21.16,5.043 15.254,0 27.051,-5.84 35.391,-17.5 8.347,-11.68 12.519,-26.11 12.519,-43.301 0,-18.973 -4.551,-33.461 -13.641,-43.449 -9.093,-9.993 -20.585,-14.993 -34.484,-14.993 -6.726,0 -12.871,1.161 -18.418,3.442 -5.558,2.301 -10.515,5.699 -14.883,10.219 l 0,-54.481 -44.148,0"
         inkscape:connector-curvature="0"
         id="path60"
         style="fill:#ffffff;fill-opacity:1;fill-rule:nonzero;stroke:none" /><path
         d="m 803.816,313.922 43.727,0 0,-58.012 c 5.937,6.168 11.855,10.57 17.715,13.231 5.879,2.629 12.832,3.961 20.84,3.961 11.894,0 21.25,-3.61 28.105,-10.84 6.836,-7.242 10.254,-18.34 10.254,-33.301 l 0,-72.52 -43.945,0 0,62.739 c 0,7.16 -1.328,12.218 -3.965,15.199 -2.656,2.973 -6.387,4.461 -11.172,4.461 -5.312,0 -9.609,-2.008 -12.891,-6.008 -3.3,-4.023 -4.941,-11.211 -4.941,-21.602 l 0,-54.789 -43.727,0 0,157.481"
         inkscape:connector-curvature="0"
         id="path62"
         style="fill:#ffffff;fill-opacity:1;fill-rule:nonzero;stroke:none" /><path
         d="m 1032.74,223.59 c -0.86,8.441 -3.15,14.492 -6.82,18.148 -3.69,3.653 -8.55,5.481 -14.57,5.481 -6.93,0 -12.498,-2.758 -16.639,-8.278 -2.656,-3.441 -4.336,-8.55 -5.059,-15.351 l 43.088,0 z m 44.47,-20.961 -87.655,0 c 0.781,-7.008 2.675,-12.238 5.683,-15.68 4.239,-4.937 9.752,-7.398 16.542,-7.398 4.3,0 8.38,1.07 12.25,3.219 2.36,1.351 4.9,3.75 7.64,7.191 l 43.06,-3.969 c -6.58,-11.461 -14.53,-19.683 -23.85,-24.66 -9.29,-4.973 -22.65,-7.473 -40.05,-7.473 -15.123,0 -27.017,2.141 -35.67,6.403 -8.672,4.258 -15.84,11.027 -21.543,20.297 -5.683,9.281 -8.535,20.183 -8.535,32.722 0,17.828 5.703,32.25 17.129,43.278 11.426,11.031 27.187,16.543 47.329,16.543 16.32,0 29.21,-2.461 38.67,-7.403 9.45,-4.937 16.64,-12.109 21.58,-21.48 4.94,-9.399 7.42,-21.61 7.42,-36.637 l 0,-4.953"
         inkscape:connector-curvature="0"
         id="path64"
         style="fill:#ffffff;fill-opacity:1;fill-rule:nonzero;stroke:none" /><path
         d="m 1097.29,270.52 40.72,0 0,-18.571 c 6.08,7.582 12.25,13.012 18.48,16.27 6.23,3.261 13.81,4.883 22.77,4.883 12.09,0 21.57,-3.59 28.42,-10.793 6.84,-7.2 10.25,-18.309 10.25,-33.348 l 0,-72.52 -43.94,0 0,62.739 c 0,7.16 -1.33,12.218 -3.97,15.199 -2.65,2.973 -6.38,4.461 -11.17,4.461 -5.31,0 -9.61,-2.008 -12.89,-6.008 -3.3,-4.023 -4.94,-11.211 -4.94,-21.602 l 0,-54.789 -43.73,0 0,114.079"
         inkscape:connector-curvature="0"
         id="path66"
         style="fill:#ffffff;fill-opacity:1;fill-rule:nonzero;stroke:none" /></g></g></svg>