<?xml version="1.0" encoding="UTF-8" standalone="no"?>
<!-- Created with Inkscape (http://www.inkscape.org/) -->

<svg
   xmlns:dc="http://purl.org/dc/elements/1.1/"
   xmlns:cc="http://creativecommons.org/ns#"
   xmlns:rdf="http://www.w3.org/1999/02/22-rdf-syntax-ns#"
   xmlns:svg="http://www.w3.org/2000/svg"
   xmlns="http://www.w3.org/2000/svg"
   xmlns:inkscape="http://www.inkscape.org/namespaces/inkscape"
   version="1.1"
   width="204.33749"
   height="408.625"
   id="svg2"
   xml:space="preserve"><metadata
     id="metadata8"><rdf:RDF><cc:Work
         rdf:about=""><dc:format>image/svg+xml</dc:format><dc:type
           rdf:resource="http://purl.org/dc/dcmitype/StillImage" /></cc:Work></rdf:RDF></metadata><defs
     id="defs6" /><g
     transform="matrix(1.25,0,0,-1.25,0,408.625)"
     id="g10"><g
       transform="scale(0.1,0.1)"
       id="g12"><path
         d="m 36.25,3232.87 1562.36,0 0,-1562.35 -1562.36,-0.03 0,1562.38 z m 1598.5,36.17 -1634.671875,0 L 0,0 l 1634.63,0 0.12,3269.04"
         inkscape:connector-curvature="0"
         id="path14"
         style="fill:#00a650;fill-opacity:1;fill-rule:nonzero;stroke:none" /><path
         d="m 36.8164,1671.05 1561.81,0 0,1561.82 -1561.81,0 0,-1561.82 z"
         inkscape:connector-curvature="0"
         id="path16"
         style="fill:#ffffff;fill-opacity:1;fill-rule:nonzero;stroke:none" /><path
         d="m 694.316,3096.26 c -12.656,-3.74 -54.277,-18.55 -58.574,-52.08 -0.215,-1.72 -0.351,-3.54 -0.351,-5.43 0,-0.94 0.117,-1.94 0.195,-2.91 -5.371,0.15 -10.332,0.31 -13.672,0.43 l -34.199,0.69 -12.324,-2.18 c -14.668,-2.38 -54.258,-8.85 -55.059,-49.52 -0.117,-2.71 -0.586,-13.43 -0.586,-13.43 0,-24.16 4.942,-50.54 13.926,-74.29 2.637,-7.09 6.68,-12.54 9.609,-16.53 0.039,-0.05 1.778,-2.54 2.285,-3.28 5.157,-20.29 13.77,-36.96 24.043,-51.68 -27.754,-3.32 -55.742,-7.85 -83.359,-16.13 l 5.586,1.03 c -15.078,-1.13 -29.512,-9.14 -44.141,-24.49 l -1.347,-1.42 -1.133,-1.61 c -4.902,-6.98 -8.438,-13.8 -10.781,-20.58 -57.032,-16.89 -103.985,-31.33 -142.09,-43.78 C 258.77,2708 191.895,2679.55 189.082,2678.34 l -1.836,-0.79 c 0,0 -0.391,-0.25 -0.508,-0.33 -0.488,-0.19 -0.996,-0.41 -0.996,-0.41 -51.133,-20.82 -61.855,-56.03 -61.855,-81.91 0,-40.65 31.543,-51.94 46.699,-57.36 3.437,-1.22 6.973,-2.49 8.789,-3.52 20.449,-11.18 40.078,-7.32 54.395,-4.5 l 9.707,1.69 c 7.031,0.86 14.746,3.14 22.461,5.56 7.089,-14.86 20.058,-28.59 40.41,-32.52 17.422,-3.4 29.023,-0.19 38.359,3.18 0.527,-5.23 1.602,-10.45 3.75,-15.52 3.594,-8.5 9.609,-16.29 17.07,-22.91 -12.343,-9.65 -29.843,-27.03 -29.843,-48.12 0,-1.9 0.136,-3.81 0.449,-5.77 -0.02,0.02 0.195,-1.44 0.195,-1.44 1.602,-11.26 5.86,-41.18 46.817,-57.96 15.761,-6.46 33.984,-8.28 54.414,-5.66 1.796,-6.17 4.492,-12 8.086,-17.28 -11.27,-5.57 -13.809,-7.49 -15.547,-8.89 l -0.567,-0.47 c -7.519,-6.4 -18.437,-16.42 -26.679,-29.28 -3.438,-5.12 -13.75,-22.33 -13.75,-41.93 0,-3.53 0.332,-7.15 1.113,-10.8 2.617,-12.27 9.648,-22.32 20.332,-29.06 14.883,-9.2 31.152,-10.16 43.691,-8.96 2.051,-13.2 11.719,-28.27 41.641,-37.04 l 1.914,-0.56 c 9.629,-2.93 22.598,-2.42 49.941,-0.1 l 10.996,0.85 c 3.321,0.11 8.868,0.94 15.352,2.1 0.02,-13.44 3.965,-25.39 11.484,-34.29 l 0.547,-0.62 c 16.934,-18.81 42.481,-23.91 52.657,-25.23 11.367,-1.58 25.859,3.26 53.945,14.7 l 6.875,2.74 c 1.367,0.55 4.765,1.55 8.789,2.66 1.074,-1.45 1.855,-2.99 3.203,-4.37 6.055,-6.24 16.895,-13.55 34.102,-12.95 15.703,0.41 42.207,6.31 45.175,6.97 l 1.582,0.36 1.524,0.56 c 32.734,11.79 140.664,50.91 155.078,58.66 l 0.547,0.3 c 11.953,6.04 107.73,36.59 148.63,49.64 l 29.4,9.42 c 43.08,13.56 82.65,44.18 94.06,56.06 l 0.41,0.45 c 9.55,10.42 15.78,24.7 18.5,42.46 0.31,1.89 0.45,3.77 0.45,5.62 0,9.34 -3.64,18.18 -8.5,26.55 22.4,10 44.28,19.76 44.9,20.05 8.03,2.97 28.67,12.2 37.31,31.27 2.01,4.48 2.93,8.85 3.2,13.13 23.89,6.13 50.25,12.89 50.25,12.89 0.02,0 0.82,0.2 0.82,0.2 15.16,3.59 55.39,13.13 92.89,31.71 35.04,16.96 41.78,37.06 41.78,54.01 0,2.3 -0.14,4.53 -0.31,6.7 l -0.14,1.54 -0.11,-1.96 c 0.15,1.26 0.23,2.54 0.23,3.82 0,17.57 -14.55,36.34 -27.89,46.15 -0.22,0.76 -0.37,1.29 -0.37,1.29 -8.46,10.19 -21.1,10.86 -27.17,11.17 l 0.68,-0.04 -7.46,1.21 c -9.63,2.03 -20.11,3.59 -42.54,3.1 -0.5,6.74 -1.56,13.23 -3.67,19.26 -13.26,39.8 -48.4,68.23 -89.41,72.11 -25.71,3.25 -45.61,2.09 -67.01,0.26 18.39,21.5 37.28,45.84 42.24,60.35 4.32,12.25 12.25,68.16 12.62,73.35 l 0.06,0.77 0.11,7.19 c 0,15.42 -1.56,25.9 -2.85,34.33 -0.09,0.86 -1.62,14.69 -1.77,16.06 -1.23,37.07 -7.41,70 -8.66,76.28 l -12.4,61.55 -37.05,-50.47 c -4.84,-6.69 -10.78,-14.69 -13.36,-17.93 -7.38,-5.66 -41.48,-29.28 -67.3,-45.44 -5.78,23.27 -19.57,43.74 -41.43,59.4 l -1,0.7 -1.03,0.62 c -27.5,16.07 -57.72,31.01 -92.38,31.48 -34.769,1.19 -67.113,-5.88 -96.175,-21.05 -17.657,-9.54 -30.723,-23.46 -42.247,-35.75 -7.246,-7.69 -13.945,-14.83 -21.074,-20.47 l 1.387,1.02 c -6.309,-4.34 -12.148,-8.95 -17.793,-13.61 -4.355,22.92 -9.434,48.6 -20.742,73.61 -13.711,29.36 -32.051,54.71 -57.715,80.02 -12.461,12.8 -35.332,22.64 -47.891,27.36 l -1.523,0.53 -7.832,2.64 -8.399,-2.47"
         inkscape:connector-curvature="0"
         id="path18"
         style="fill:#ffffff;fill-opacity:1;fill-rule:nonzero;stroke:none" /><path
         d="m 371.777,2427.67 c -1.484,9.32 10.84,22.78 23.516,31.74 13.066,8.95 33.965,18.27 46.68,22.75 12.675,4.13 21.64,7.11 28.73,9.36 41.074,14.18 133.652,46.64 137.383,48.12 4.102,1.9 214.258,70.57 232.187,74.32 17.52,3.73 92.93,37.3 100.801,44.04 5.196,4.48 157.876,22.02 177.676,12.31 19.39,-9.7 -6.35,-76.17 29.12,-66.45 35.04,9.69 144.43,26.88 163.85,-4.47 19.39,-31.37 3.75,-47.05 -10.06,-53.01 -13.46,-5.62 -267.66,-69.06 -267.66,-69.06 0,0 -362.105,-97.81 -375.914,-100.04 -10.82,-1.88 -85.469,-25.03 -113.848,-34.33 -7.832,-2.62 1.114,0.37 -13.789,-4.13 -19.062,-5.56 -15.703,-2.61 -24.297,-1.11 -19.023,3.73 -33.593,16.82 -35.097,34.71 -1.485,17.54 28.008,27.62 25.781,27.62 -2.227,0 -55.625,-27.26 -94.063,-11.59 -28.75,11.59 -29.511,29.51 -30.996,39.22"
         inkscape:connector-curvature="0"
         id="path20"
         style="fill:#ffffff;fill-opacity:1;fill-rule:nonzero;stroke:none" /><path
         d="m 505.137,2331.16 c 0,0 193.359,60.07 214.277,67.95 20.899,7.82 247.832,70.18 263.535,73.52 15.293,3.36 175.081,52.66 193.321,57.5 18.3,4.85 138.91,36.96 138.91,36.96 0,0 38.45,9.3 77.26,11.17 38.83,1.5 39.92,-2.98 54.12,-4.1 14.2,-0.75 5.59,-3.73 10.1,-5.24 4.1,-1.11 21.62,-19.02 20.53,-27.62 -1.15,-8.57 8.55,-23.14 -26.9,-40.29 -35.47,-17.58 -73.9,-26.52 -88.1,-29.88 -14.16,-3.34 -82.89,-21.26 -82.89,-21.26 0,0 16.85,-7.84 11.62,-19.42 -5.24,-11.57 -23.54,-17.91 -23.54,-17.91 l -86.97,-38.85 c 0,0 21.66,-6.33 24.63,-10.81 3.01,-4.49 10.82,-15.68 9.69,-22.75 -1.1,-7.13 -3.73,-19.82 -11.92,-28.77 -8.24,-8.57 -44.06,-36.95 -83.24,-49.29 -39.18,-12.67 -169.121,-53.36 -182.91,-61.21 -13.828,-7.44 -151.582,-57.09 -151.582,-57.09 0,0 -26.484,-5.98 -40.293,-6.35 -21.64,-0.74 -20.156,22.39 -20.156,22.39 0,0 -27.988,-6.73 -35.098,-9.72 -7.09,-2.61 -39.199,-16.79 -47.402,-15.64 -8.594,1.11 -26.133,5.2 -36.582,16.79 -10.078,11.94 -3.34,35.81 0.371,38.45 3.359,2.61 11.191,14.91 11.191,14.91 0,0 -49.257,-11.57 -59.355,-11.93 -9.688,-0.37 -43.672,-4.51 -52.266,-1.88 -8.554,2.63 -28.73,7.1 -25,22.76 3.731,16.08 13.809,28 24.649,32.48 10.82,4.51 -39.199,-13.79 -39.199,-13.79 0,0 -23.887,-8.6 -41.426,2.23 -17.188,10.84 -6.348,35.48 0.351,45.54 6.719,10.45 16.426,19.05 21.66,23.5 5.586,4.51 58.614,27.65 58.614,27.65"
         inkscape:connector-curvature="0"
         id="path22"
         style="fill:#1c63b7;fill-opacity:1;fill-rule:nonzero;stroke:none" /><path
         d="m 199.336,2654.27 c 0,0 68.281,29.1 101.133,39.93 75.41,24.64 168.359,51.52 198.984,60.48 29.102,8.95 119.063,36.21 195.215,59.34 60.488,18.3 112.734,33.98 118.34,35.46 13.066,2.98 274.352,85.13 282.972,75.05 8.57,-9.7 35.47,-33.98 33.96,-69.08 -1.5,-35.45 -66.44,-121.68 -77.64,-127.64 -11.58,-5.63 -204.937,-43.69 -204.937,-43.69 0,0 100.039,39.57 104.492,-1.51 4.141,-41.05 -77.636,-55.61 -81.738,-57.84 -4.082,-2.61 -162.363,-52.26 -281.074,-90.34 -78.789,-25.37 -129.531,-44.79 -134.395,-45.53 -12.675,-1.12 -34.707,-18.3 -56.738,-9.71 -14.922,5.95 -33.965,22.75 -25.39,43.66 8.593,21.31 26.894,25.39 26.894,25.39 0,0 -11.953,-4.08 -37.324,-8.6 -25.391,-4.1 -29.883,-13.78 -50.781,-9.69 -21.27,4.1 -26.895,29.49 -25.762,36.59 1.484,7.08 -29.844,-7.46 -45.176,-9.36 -15.664,-1.85 -32.48,-8.94 -48.144,-0.35 -15.293,8.6 -42.188,8.6 -42.188,38.07 0,45.55 45.938,56.77 49.297,59.37"
         inkscape:connector-curvature="0"
         id="path24"
         style="fill:#ed1c24;fill-opacity:1;fill-rule:nonzero;stroke:none" /><path
         d="m 1135.49,2858.72 c 0,0.02 -2.81,11.7 -2.81,11.7 -2.47,9.58 -5.49,21.47 -5.75,26.55 -2.4,21.25 -13.65,39.21 -33.43,53.38 -24.48,14.31 -50.96,27.56 -79.61,27.93 -30.355,1.11 -58.48,-4.96 -83.617,-18.1 -13.613,-7.35 -24.628,-19.09 -35.312,-30.47 -7.481,-7.96 -15.215,-16.2 -23.906,-23.07 -10.489,-7.24 -20.235,-15.73 -29.649,-23.91 l -16.64,-14.16 c -0.371,-0.1 -2.286,-0.94 -2.871,-0.66 l -0.372,0.66 c -3.398,12.79 -5.898,25.94 -8.32,38.66 -4.414,23.17 -8.945,47.12 -19.375,70.15 -12.285,26.34 -28.984,49.37 -52.558,72.53 -10.567,10.9 -37.461,20.79 -38.594,21.23 l -0.469,0.16 -0.469,-0.13 c -1.543,-0.47 -37.597,-11.25 -40.039,-30.31 -1.23,-9.65 6.328,-19.47 22.52,-29.16 -0.02,0 0.351,-0.32 0.703,-0.59 -4.473,-2.98 -41.445,-1.76 -63.887,-1 l -31.289,0.64 c -0.293,-0.05 -9.785,-1.73 -9.785,-1.73 -15.547,-2.53 -33.164,-5.35 -33.496,-24.38 -0.371,-4.16 -0.547,-8.41 -0.547,-12.81 0,-20.95 4.277,-44.02 12.227,-65.04 1.386,-3.7 3.828,-7.03 6.171,-10.21 2.325,-3.19 4.551,-6.19 5.782,-9.53 7.949,-34.79 28.632,-57.46 50.547,-81.49 0,0 0.253,-0.29 0.351,-0.41 -1.289,-0.11 -2.617,-0.25 -2.617,-0.25 -41.309,-3.87 -84.063,-7.87 -124.59,-20.04 -8.203,-0.63 -17.207,-6.02 -27.148,-16.45 -6.465,-9.2 -9.375,-16.94 -9.375,-24.59 -0.332,-2.22 -0.45,-4.48 -0.45,-6.75 0,-12.82 4.922,-25.96 15.274,-40.73 13.633,-21.46 28.769,-38.79 46.211,-52.95 22.129,-16.68 46.347,-28.3 78.535,-37.62 14.199,-4.39 25.801,3.76 37.07,11.65 5.352,3.76 10.938,7.3 16.719,9.76 -8.359,-15.02 -14.844,-33.49 -14.844,-51.4 0,-13.58 3.653,-26.72 12.989,-37.48 10.468,-11.29 25.488,-16.94 38.73,-21.34 7.832,-1.46 15.293,-1.3 23.203,-1.09 l 14.863,-0.09 c 16.543,1.03 33.672,9.89 43.829,22.57 29.414,43.6 44.218,90.04 44.218,138.36 0,5.59 -0.195,11.21 -0.605,16.82 0.215,0.47 1.66,3.67 1.66,3.67 0,0 0.566,1.21 1.113,2.37 1.875,-1.7 13.418,-12.11 13.418,-12.11 14.414,-11.28 15.078,-12.76 23.203,-30.69 l 16.368,-34.55 c 4.16,-8.1 6.093,-19.86 6.093,-34.16 0,-64.82 -39.941,-181.44 -96.191,-243.75 -12.5,-13.86 -18.652,-23.79 -18.652,-30.12 0,-1.62 0.39,-2.98 1.171,-4.15 6.602,-9.46 37.657,2.49 41.172,3.9 l 0.45,0.16 0.253,0.41 c 0.801,1.25 79.18,125.67 104.336,224.76 4.141,16.32 6.68,34.71 6.68,53.65 0,38.88 -10.684,80.14 -40.273,110.53 -0.313,0.26 -6.094,5.08 -6.094,5.08 -2.422,2.28 -5.195,4.79 -8.399,6.71 0.684,1.38 1.954,4.08 2.637,5.52 14.649,-3.85 28.164,-9.81 41.211,-15.65 15.703,-7.03 30.488,-13.65 47.305,-16.85 5.937,-1.46 10.136,-3.89 14.179,-6.26 6.133,-3.57 11.915,-6.91 22.754,-6.46 l 16.698,1.77 c 7.54,1.12 12.5,1.87 17.72,-0.52 1.85,-0.84 4.41,-0.41 7.73,1.41 14.41,7.85 40.68,40.05 42.87,55.37 0.08,0.86 0.08,1.88 0.08,2.97 0,13.05 -4.9,40.8 -19.65,52.17 -7.38,5.77 -22.62,13.49 -36.05,20.27 -10.69,5.39 -23.655,11.97 -26.019,14.6 39.469,21.44 75.059,4.94 75.429,4.78 37.01,-23.85 49.06,-31.59 53.3,-33.72 0.2,-0.13 0.08,-0.43 0.28,-0.54 0,0 0.19,0.24 0.23,0.29 1.64,-0.78 1.95,-0.57 2.25,-0.18 l 0.86,1.29 -1.72,1.12 c -1.35,0.86 1.38,6.6 3.79,11.66 5.6,11.83 14.08,29.68 10.29,50.44"
         inkscape:connector-curvature="0"
         id="path26"
         style="fill:#00a650;fill-opacity:1;fill-rule:nonzero;stroke:none" /><path
         d="m 1052.85,2788.71 0,0 0,0.019 0,0 0,-0.019 z"
         inkscape:connector-curvature="0"
         id="path28"
         style="fill:#00a650;fill-opacity:1;fill-rule:nonzero;stroke:none" /><path
         d="m 1370.23,2615.19 c -10.11,30.38 -36.54,51.86 -67.32,54.73 -26.56,3.42 -45.86,1.7 -70.29,-0.45 l -16.57,-1.42 c -4.06,0 -22.03,-7.21 -47.01,-17.39 -5.91,-2.42 -11.58,-4.73 -16.38,-6.64 13.65,11.27 35.35,33.91 53.79,55.19 21.25,23.84 45.43,53.7 49.57,65.81 3.06,8.73 10.86,61.27 11.27,66.8 0.05,2.12 0.09,4.11 0.09,6.03 0,13.71 -1.38,22.83 -2.63,30.99 l -1.92,17.29 c -1.13,38.5 -8.18,73.05 -8.26,73.42 l -0.66,3.3 -2,-2.74 c -0.13,-0.17 -12.69,-17.54 -15.95,-21.16 -3.3,-3.3 -54.73,-38.95 -83.66,-56.06 -45.7,-27.31 -66.36,-62.68 -73.14,-74.3 l -1.62,-2.73 c -4.26,-6.97 -9.12,-17.78 -13.81,-28.22 -4.39,-9.76 -8.53,-18.99 -11.56,-23.64 -4.28,-6.31 -9.36,-20.34 -13.07,-30.62 -1.64,-4.54 -3.2,-8.84 -3.77,-9.73 -3.01,-3.2 -4.22,-9.79 -5.37,-16.13 -0.66,-3.64 -1.41,-7 -2.46,-9.52 -0.47,0.92 -1,2.05 -1.41,3.3 -0.13,0.49 -4.06,13.68 -28.863,59.61 -22.93,42.78 -26.446,42.48 -69.336,38.7 l -16.075,-1.34 c -47.382,-3.47 -82.5,-27.9 -101.328,-41.03 l -8.691,-5.86 c -9.746,-5.99 -28.867,-32.95 -50.938,-64.14 l -25,-34.9 3.34,0.33 c 5.86,0.69 11.309,-0.1 17.129,-0.96 6.055,-0.85 12.344,-1.6 19.043,-0.67 -0.371,-1.79 -0.801,-3.62 -0.801,-5.44 0,-9.1 4.766,-18.13 13.535,-25.08 10.958,-10.93 21.524,-17.42 35.215,-21.52 1.719,-0.07 2.735,-2.36 3.653,-4.62 1.054,-2.43 2.129,-4.98 4.16,-6.38 l 0.762,-0.54 0.996,0.49 c 1.718,0.95 2.441,4.93 3.593,43.35 0.215,7.66 0.45,15.57 0.645,16.55 8.262,26.13 28.652,42.76 55.82,45.52 10.059,1.08 38.965,-2.55 43.203,-23.8 0.118,-0.39 5.723,-12.95 9.063,-16.37 0.039,-0.16 9.414,-27.07 9.414,-27.07 5.781,-17.15 10.332,-30.68 20.449,-51.73 1.387,-2.5 1.524,-5.15 1.68,-7.9 l 0.449,-4.41 c 0.449,-2.23 0.664,-4.59 0.664,-7.04 0,-8.51 -2.656,-18.16 -7.617,-27.46 -4.063,-7.07 -12.734,-17.67 -19.141,-19.02 -16.562,-3.14 -20.761,-0.41 -30.937,6.23 l -9.434,5.9 c -6.855,4.02 -13.398,33.5 -15.351,44.51 2.304,22.48 5.527,61.33 1.738,64.4 -2.305,2.05 -6.68,-1.37 -33.203,-26.02 -16.094,-14.94 -36.113,-33.54 -52.637,-46.02 -23.574,-17.62 -35.293,-39.62 -43.867,-55.71 -3.731,-6.98 -6.934,-13.02 -10.078,-16.52 -4.473,-4.76 -2.754,-11.17 -1.133,-17.34 l 1.484,-6.3 c 2.891,-14.75 11.895,-25.85 20.586,-36.59 l 1.758,-2.18 c 5.879,-8.11 23.359,-29.32 23.516,-29.52 0.429,-0.39 29.765,-28.08 53.633,-7.65 33.632,10.88 49.609,21.11 50.234,21.55 11.973,5.92 25.058,11.96 31.504,14.39 -10.84,-10.5 -32.5,-38.89 -40.059,-61.96 -7.519,-23.68 -23.164,-61.54 -27.168,-69.6 l -4.101,-7.98 c -7.891,-15.54 -26.348,-51.93 -31.114,-56.99 -6.015,-6 -8.339,-10.13 -4.238,-16.06 0.859,-1.27 1.836,-1.93 2.988,-2.04 2.012,-0.17 3.731,1.52 5.86,3.63 2.031,2.01 4.551,4.51 7.949,6.12 4.844,2.53 31.309,27.06 59.297,53.02 22.344,20.71 45.449,42.13 52.949,47.93 15.449,12.03 27.149,23.75 41.934,38.57 l 4.14,4.12 c 0,0 38.707,39.36 44.707,45.43 4.77,-3 29.39,-18.06 48.59,-24.16 13.89,-2.73 30.28,-4.82 47.52,0 30.73,9.09 77.33,43.13 111,70.06 l 1.95,1.58 -2.26,0.97 c -6.23,2.69 -13.38,0.34 -22.44,-2.61 -11.25,-3.65 -25.26,-8.22 -43.6,-5.12 -26.56,3.89 -36.13,7.68 -43.12,10.47 l -4.83,1.8 c -0.02,0 -2.87,0.9 -2.87,0.9 -17.91,5.55 -36.42,11.36 -47.13,26.88 -0.08,0.27 -0.13,0.54 -0.13,0.86 0,1.23 0.52,3 1.09,4.96 l 1.13,4.66 c 2.44,9.22 9.48,15.49 16.25,21.53 l 6.12,5.67 c 12.55,15.25 24.39,25.08 37.26,31.06 10.72,5.49 27.48,12.35 46.92,14.07 l 11.69,0.11 c 12.74,0.18 24.77,0.36 37.23,-1.62 9.34,-1.23 11.82,-11.11 14.2,-20.66 l 0.65,-2.5 c 0.31,-6.31 -1.04,-14.26 -3.72,-21.5 -2.32,-2.01 -29.88,-4.85 -46.3,-6.57 -22.89,-2.34 -22.91,-2.43 -23.27,-4 l -0.13,-0.59 0.43,-0.63 c 6.44,-9.88 27.75,-14.25 39.9,-15.96 34.04,-4.77 80.41,-1.59 95.98,11.93 20.39,18.71 35.48,38.88 43.71,58.4 9.45,25.09 11.54,44.45 6.34,59.31"
         inkscape:connector-curvature="0"
         id="path30"
         style="fill:#fddd04;fill-opacity:1;fill-rule:nonzero;stroke:none" /><path
         d="m 496.836,2400.04 c -2.207,-0.06 -55.762,-27.37 -94.043,-11.67 -28.711,11.78 -29.609,29.56 -31.094,39.18 -0.976,6.44 4.199,14.7 11.602,22.16 -11.992,-9.01 -22.715,-21.57 -21.309,-30.63 1.465,-9.59 2.363,-27.39 31.074,-39.16 29.434,-12.05 67.872,1.25 85.079,8.12 8.144,7.84 20.136,12.05 18.691,12"
         inkscape:connector-curvature="0"
         id="path32"
         style="fill:#231f20;fill-opacity:1;fill-rule:nonzero;stroke:none" /><path
         d="m 536.895,2341.08 c -9.825,-2.28 -24.258,-4.48 -30.782,-3.25 -19.004,3.57 -33.515,16.66 -35.039,34.65 -0.41,4.8 1.504,9.01 4.395,12.63 -7.188,-4.68 -14.903,-11.81 -14.121,-21.09 1.523,-17.98 16.035,-31.06 35.058,-34.63 1.192,-0.23 2.149,-0.49 2.969,-0.73 3.535,1.54 5.762,2.5 5.762,2.5 0,0 12.636,3.95 31.758,9.92"
         inkscape:connector-curvature="0"
         id="path34"
         style="fill:#231f20;fill-opacity:1;fill-rule:nonzero;stroke:none" /><path
         d="m 150.957,1929.46 58.965,3.68 c 1.289,-9.56 3.887,-16.85 7.793,-21.87 6.387,-8.12 15.508,-12.18 27.383,-12.18 8.828,0 15.664,2.07 20.449,6.23 4.785,4.14 7.168,8.95 7.168,14.42 0,5.2 -2.266,9.85 -6.836,13.96 -4.551,4.11 -15.137,7.98 -31.738,11.63 -27.188,6.11 -46.563,14.24 -58.145,24.35 -11.68,10.12 -17.519,23.03 -17.519,38.72 0,10.31 2.988,20.03 8.964,29.21 5.977,9.16 14.961,16.37 26.954,21.62 11.992,5.24 28.437,7.87 49.316,7.87 25.644,0 45.176,-4.78 58.633,-14.3 13.457,-9.54 21.465,-24.7 24.004,-45.5 l -58.418,-3.42 c -1.543,9.03 -4.805,15.61 -9.785,19.71 -4.961,4.1 -11.836,6.15 -20.586,6.15 -7.207,0 -12.637,-1.52 -16.27,-4.59 -3.652,-3.04 -5.488,-6.77 -5.488,-11.15 0,-3.18 1.523,-6.05 4.531,-8.61 2.91,-2.64 9.844,-5.11 20.781,-7.39 27.09,-5.84 46.504,-11.74 58.223,-17.71 11.719,-5.98 20.254,-13.4 25.586,-22.23 5.332,-8.85 8.008,-18.75 8.008,-29.69 0,-12.87 -3.575,-24.72 -10.684,-35.57 -7.109,-10.86 -17.051,-19.08 -29.824,-24.7 -12.774,-5.61 -28.867,-8.41 -48.301,-8.41 -34.101,0 -57.734,6.57 -70.859,19.69 -13.125,13.15 -20.567,29.83 -22.305,50.08"
         inkscape:connector-curvature="0"
         id="path36"
         style="fill:#ed1c24;fill-opacity:1;fill-rule:nonzero;stroke:none" /><path
         d="m 468.77,1920.03 52.949,-6.02 c -2.91,-11.04 -7.696,-20.6 -14.356,-28.67 -6.66,-8.07 -15.175,-14.35 -25.527,-18.81 -10.352,-4.47 -23.516,-6.71 -39.473,-6.71 -15.41,0 -28.242,1.44 -38.496,4.31 -10.273,2.87 -19.101,7.52 -26.484,13.94 -7.383,6.43 -13.184,13.96 -17.363,22.62 -4.2,8.65 -6.309,20.15 -6.309,34.45 0,14.94 2.559,27.39 7.676,37.32 3.73,7.28 8.828,13.82 15.312,19.61 6.485,5.79 13.145,10.09 19.981,12.91 10.84,4.47 24.765,6.71 41.718,6.71 23.711,0 41.797,-4.24 54.258,-12.73 12.442,-8.47 21.172,-20.9 26.192,-37.21 l -52.403,-6.99 c -1.64,6.21 -4.629,10.88 -8.965,14.03 -4.335,3.14 -10.136,4.72 -17.441,4.72 -9.199,0 -16.66,-3.3 -22.363,-9.9 -5.703,-6.6 -8.555,-16.59 -8.555,-29.97 0,-11.92 2.832,-21 8.496,-27.18 5.645,-6.2 12.852,-9.29 21.602,-9.29 7.304,0 13.437,1.87 18.398,5.61 4.981,3.74 8.692,9.49 11.153,17.25"
         inkscape:connector-curvature="0"
         id="path38"
         style="fill:#ed1c24;fill-opacity:1;fill-rule:nonzero;stroke:none" /><path
         d="m 596.289,1935.49 c 0,-12.95 2.617,-22.53 7.852,-28.74 5.254,-6.21 11.836,-9.3 19.785,-9.3 8.008,0 14.609,3.05 19.765,9.16 5.157,6.11 7.735,15.93 7.735,29.42 0,12.58 -2.617,21.96 -7.813,28.11 -5.195,6.17 -11.621,9.24 -19.277,9.24 -8.125,0 -14.824,-3.13 -20.117,-9.38 -5.293,-6.24 -7.93,-15.76 -7.93,-28.51 z m -55.82,-0.14 c 0,22.16 7.461,40.42 22.441,54.78 14.942,14.38 35.156,21.56 60.606,21.56 29.082,0 51.074,-8.45 65.937,-25.33 11.953,-13.57 17.93,-30.32 17.93,-50.19 0,-22.35 -7.422,-40.67 -22.246,-54.93 -14.824,-14.28 -35.313,-21.42 -61.485,-21.42 -23.359,0 -42.246,5.93 -56.64,17.78 -17.696,14.69 -26.543,33.94 -26.543,57.75"
         inkscape:connector-curvature="0"
         id="path40"
         style="fill:#ed1c24;fill-opacity:1;fill-rule:nonzero;stroke:none" /><path
         d="m 887.285,1863.1 -51.992,0 0,23.55 c -7.754,-9.67 -15.586,-16.57 -23.457,-20.68 -7.891,-4.09 -17.578,-6.15 -29.082,-6.15 -15.313,0 -27.344,4.58 -36.055,13.75 -8.711,9.17 -13.066,23.28 -13.066,42.34 l 0,92.49 55.957,0 0,-79.91 c 0,-9.11 1.699,-15.59 5.058,-19.41 3.379,-3.84 8.125,-5.75 14.239,-5.75 6.66,0 12.109,2.56 16.347,7.65 4.239,5.12 6.368,14.29 6.368,27.51 l 0,69.91 55.683,0 0,-145.3"
         inkscape:connector-curvature="0"
         id="path42"
         style="fill:#ed1c24;fill-opacity:1;fill-rule:nonzero;stroke:none" /><path
         d="m 988.242,2063.67 0,-55.27 30.648,0 0,-40.77 -30.648,0 0,-51.48 c 0,-6.18 0.606,-10.28 1.778,-12.29 1.835,-3.09 5.019,-4.63 9.589,-4.63 4.101,0 9.841,1.19 17.231,3.54 l 4.1,-38.43 c -13.77,-3.01 -26.624,-4.52 -38.577,-4.52 -13.867,0 -24.082,1.78 -30.644,5.32 -6.582,3.56 -11.426,8.96 -14.571,16.19 -3.144,7.25 -4.726,18.98 -4.726,35.2 l 0,51.1 -20.508,0 0,40.77 20.508,0 0,26.68 55.82,28.59"
         inkscape:connector-curvature="0"
         id="path44"
         style="fill:#ed1c24;fill-opacity:1;fill-rule:nonzero;stroke:none" /><path
         d="m 1047.48,2008.4 55.68,0 0,-145.3 -55.68,0 0,145.3 z m 0,55.27 55.68,0 0,-37.89 -55.68,0 0,37.89"
         inkscape:connector-curvature="0"
         id="path46"
         style="fill:#ed1c24;fill-opacity:1;fill-rule:nonzero;stroke:none" /><path
         d="m 1138.73,2008.4 51.86,0 0,-23.67 c 7.75,9.66 15.6,16.58 23.53,20.74 7.93,4.14 17.6,6.22 29.01,6.22 15.41,0 27.48,-4.59 36.17,-13.76 8.73,-9.16 13.08,-23.32 13.08,-42.48 l 0,-92.35 -55.95,0 0,79.9 c 0,9.13 -1.7,15.58 -5.06,19.36 -3.38,3.79 -8.13,5.68 -14.24,5.68 -6.76,0 -12.23,-2.55 -16.41,-7.66 -4.2,-5.11 -6.31,-14.28 -6.31,-27.49 l 0,-69.79 -55.68,0 0,145.3"
         inkscape:connector-curvature="0"
         id="path48"
         style="fill:#ed1c24;fill-opacity:1;fill-rule:nonzero;stroke:none" /><path
         d="m 1374.32,1937.95 c 0,-10.49 2.24,-18.28 6.72,-23.33 4.45,-5.06 10.35,-7.6 17.63,-7.6 6.94,0 12.76,2.62 17.44,7.88 4.71,5.23 7.05,13.14 7.05,23.73 0,10.58 -2.46,18.67 -7.38,24.28 -4.94,5.61 -10.96,8.42 -18.07,8.42 -7.1,0 -12.77,-2.58 -17.03,-7.74 -4.23,-5.16 -6.36,-13.7 -6.36,-25.64 z m 52.4,70.45 52.13,0 0,-137.22 0.13,-6.43 c 0,-9.12 -1.95,-17.81 -5.82,-26.07 -3.86,-8.25 -9.02,-14.92 -15.45,-20.04 -6.44,-5.11 -14.58,-8.8 -24.49,-11.07 -9.9,-2.29 -21.23,-3.43 -34,-3.43 -29.18,0 -49.22,4.38 -60.12,13.13 -10.9,8.76 -16.35,20.49 -16.35,35.16 0,1.83 0.08,4.3 0.28,7.39 l 54.04,-6.15 c 1.37,-5.02 3.46,-8.49 6.29,-10.4 4.1,-2.83 9.26,-4.25 15.45,-4.25 8.03,0 14.02,2.15 17.99,6.44 3.98,4.28 5.95,11.76 5.95,22.44 l 0,22.03 c -5.46,-6.49 -10.93,-11.17 -16.42,-14.1 -8.56,-4.55 -17.81,-6.84 -27.78,-6.84 -19.41,0 -35.09,8.48 -47.05,25.44 -8.47,12.04 -12.71,27.95 -12.71,47.75 0,22.62 5.47,39.86 16.41,51.72 10.93,11.85 25.27,17.79 42.96,17.79 11.29,0 20.63,-1.93 27.97,-5.76 7.35,-3.82 14.2,-10.17 20.59,-19.01 l 0,21.48"
         inkscape:connector-curvature="0"
         id="path50"
         style="fill:#ed1c24;fill-opacity:1;fill-rule:nonzero;stroke:none" /><path
         d="m 952.695,1219.47 c 3.907,-17.08 -6.406,-27.29 -15.507,-37.98 -0.762,2.09 -1.504,4.21 -2.168,6.55 -4.161,11.66 -6.622,29.18 -11.817,44.73 12.481,0.57 25.957,0.74 29.492,-13.3 z M 862.578,951.309 c 0.625,-13.887 1.172,-27.899 1.485,-42.02 -8.711,13.133 -24.883,27.941 -1.485,42.02 z M 1479,1500.32 c -4.92,25.12 -42.54,32.5 -55,29.44 -18.65,-7.58 -42.36,-32.14 -64.78,-37.29 -56.13,-15.31 -119.96,-34.95 -168.91,-54.99 -61.52,-25.77 -117.99,-41.32 -174.78,-66.78 -49.573,-19.55 -96.233,-14.65 -111.936,-41.25 -7.285,-15.72 -4.903,-43.76 -3.985,-65.63 -7.129,3.05 -15.976,3.8 -27.441,0.83 -28.164,-5.97 -6.875,-91.08 -7.852,-106.05 -10.41,-53.07 -6.269,-116.74 -2.851,-184.51 -6.289,6.012 -13.203,12.691 -14.844,19.539 -7.519,29.381 3.106,54.761 3.945,78.541 0.274,9.7 -7.011,11.75 -17.207,10.07 -4.062,22.34 -13.144,51.85 -8.32,76.36 5.059,42.79 -8.867,95.99 -1.973,135.5 2.129,24.31 3.75,44.77 -1.972,66.79 -30.274,-0.76 -15.547,-23.66 -23.574,-43.23 -9.981,-27.06 -16.524,-44.25 -31.407,-64.8 -7.207,-11.36 -17.031,-15.46 -25.547,-29.45 -17.675,-26.1 1.973,-41.65 -1.953,-76.59 -4.043,-20.57 -7.129,-57.9 -9.472,-107.39 -29.825,-11.5 -62.5,-23.36 -90.684,-32.07 -2.695,-0.76 -5.293,-1.58 -7.93,-2.39 -0.507,5.93 -1.113,11.96 -1.894,18.11 -7.207,46.58 -8.028,238.87 -21.602,259.24 -7.695,-7.28 -19.16,-12.19 -23.574,-21.61 -7.852,-11.85 6.875,-44.58 -7.852,-43.19 -15.546,2.69 -14.726,-9.57 -23.554,-13.75 -10.821,-3.2 -23.086,-8.1 -29.473,-19.64 -9.16,-17.92 2.285,-40.83 1.973,-64.8 0.254,-43.52 4.453,-123.068 -0.313,-156.049 -37.48,-17.441 -73.125,-35.801 -111.64,-52.14 -40.743,-17.422 -80.84,-36.25 -119.805,-51.071 -20.781,-10.55 -42.207,-21.179 -68.73,-35.34 -0.333,0.258 7.031,-18.57 7.851,-27.5 -31.914,-13.98 -9.824,-50.82 -1.973,-70.691 -22.578,-18.57 9.336,-33.297 -3.906,-66.789 -3.105,-5.801 -35.84,-28.719 -33.398,-39.262 5.742,-24.617 32.734,-8.269 43.203,-1.976 81.172,32.976 124.551,46.09 196.406,84.457 24.453,12.383 51.699,24.281 79.922,36.043 -0.273,-25.09 -5.703,-58.492 -1.367,-71.403 4.238,-14.48 3.437,-71.738 7.851,-111.949 1.309,-21.191 -11.797,-184.019 11.797,-166.922 5.879,9.071 12.422,18.891 19.629,29.442 9.981,14.82 21.426,29.57 25.527,43.211 13.907,45.269 26.993,55.898 37.325,92.32 0.312,0.418 -1.328,48.687 -3.946,51.059 9.18,-8.098 0.176,68.812 0,80.519 0.137,43.41 5.176,86.359 9.825,97.422 11.347,4.809 22.558,9.629 33.398,14.519 24.805,8.309 48.457,18.961 71.602,30.11 -0.45,-37.77 -0.743,-77.481 -0.899,-118.481 0.801,-24.64 2.442,-71.277 3.926,-111.961 2.617,-21.507 2.617,-48.488 9.824,-60.867 4.238,-9.73 12.422,-8.91 23.555,-9.812 7.695,0.902 12.598,21.363 15.723,41.25 5.058,20.191 8.339,38.203 9.804,47.109 4.258,36.91 15.703,60.66 19.629,119.813 -3.887,42.808 21.055,108.39 6.192,134.89 12.89,5.438 25.839,10.348 39.003,14.348 6.524,2.031 10.918,4.23 13.75,6.551 -0.566,-89.348 7.52,-135.149 7.852,-214.711 -0.332,-28.071 0.488,-43.617 -3.926,-68.739 -3.769,-17.441 -10.312,-41.968 7.852,-49.101 7.187,12.871 8.847,20.211 15.703,35.351 8.672,15.141 16.055,20.879 21.621,39.282 32.871,-10.211 22.246,71.609 27.48,100.16 2.95,15.629 10.313,50.828 7.852,64.808 -7.344,61.29 9.004,103.852 9.824,161.04 -0.801,56.95 11.66,104.48 0.684,168.71 8.027,0.15 16.191,1.74 22.89,4.12 21.992,6.12 54.312,16.52 82.692,27.06 0.8,-61.38 3.44,-118.5 3.73,-188.109 3.75,-69.781 -0.35,-145.063 0,-168.903 -2.79,-52.277 7.84,-93.179 7.86,-151.207 -0.02,-12.359 17.16,-25.449 31.42,-13.742 16.02,12.84 5.39,34.942 7.83,54.992 0.82,14.309 16.37,21.68 21.62,37.289 10.3,23.668 11.12,55.59 11.78,84.469 -0.66,27.582 0.98,53.77 5.9,78.563 6.54,57.027 5.72,126.578 5.88,186.568 -0.12,23.03 12.3,79.37 10.39,116.38 2.3,0.46 4.67,0.93 7.29,1.45 37.79,7.13 126.99,63.58 157.12,82.49 33.72,21.2 52.52,23.65 82.47,49.09 15.05,10.56 -3.77,21.2 1.97,39.27 5.72,18.76 17.17,39.22 21.58,58.92 2.13,14.66 -9.32,17.12 -3.91,33.4 1.96,9.07 30.59,37.73 41.23,41.24"
         inkscape:connector-curvature="0"
         id="path52"
         style="fill:#231f20;fill-opacity:1;fill-rule:nonzero;stroke:none" /><path
         d="m 915.938,1256.23 c 3.906,-17.08 -6.407,-27.29 -15.508,-37.98 -0.762,2.09 -1.504,4.21 -2.168,6.55 -4.16,11.66 -6.621,29.18 -11.817,44.73 12.481,0.56 25.957,0.74 29.493,-13.3 z M 825.82,988.059 c 0.625,-13.879 1.172,-27.887 1.485,-42.008 -8.711,13.129 -24.883,27.937 -1.485,42.008 z m 616.43,549.021 c -4.93,25.11 -42.54,32.5 -54.98,29.44 -18.66,-7.58 -42.39,-32.14 -64.81,-37.29 -56.13,-15.31 -119.96,-34.96 -168.91,-54.99 -61.52,-25.78 -117.98,-41.32 -174.78,-66.78 -49.571,-19.55 -96.231,-14.65 -111.934,-41.25 -7.285,-15.72 -4.902,-43.77 -3.984,-65.64 -7.129,3.06 -15.977,3.8 -27.442,0.83 -28.164,-5.96 -6.875,-91.07 -7.851,-106.04 -10.43,-53.07 -6.27,-116.75 -2.852,-184.51 -6.289,6.01 -13.203,12.69 -14.844,19.54 -7.519,29.38 3.106,54.75 3.946,78.54 0.254,9.7 -7.012,11.75 -17.227,10.07 -4.043,22.33 -13.125,51.85 -8.301,76.36 5.059,42.79 -8.847,95.98 -1.972,135.5 2.109,24.3 3.75,44.77 -1.973,66.78 -30.273,-0.75 -15.547,-23.65 -23.574,-43.22 -9.981,-27.06 -16.524,-44.25 -31.407,-64.8 -7.207,-11.36 -17.031,-15.46 -25.527,-29.45 -17.695,-26.1 1.953,-41.65 -1.973,-76.59 -4.023,-20.58 -7.128,-57.9 -9.472,-107.39 -29.824,-11.51 -62.5,-23.36 -90.684,-32.07 -2.695,-0.76 -5.293,-1.58 -7.929,-2.39 -0.508,5.92 -1.114,11.96 -1.895,18.11 -7.207,46.58 -8.027,238.87 -21.602,259.24 -7.695,-7.29 -19.16,-12.19 -23.574,-21.61 -7.851,-11.85 6.875,-44.58 -7.851,-43.2 -15.547,2.7 -14.727,-9.57 -23.555,-13.75 -10.82,-3.19 -23.086,-8.1 -29.473,-19.63 -9.16,-17.92 2.285,-40.83 1.973,-64.8 0.254,-43.52 4.453,-123.08 -0.313,-156.05 C 450,982.59 414.355,964.238 375.84,947.898 335.098,930.48 295,911.648 256.035,896.82 c -20.781,-10.539 -42.187,-21.172 -68.73,-35.332 -0.332,0.262 7.031,-18.566 7.851,-27.5 -31.914,-13.976 -9.824,-50.816 -1.972,-70.687 -22.579,-18.582 9.336,-33.301 -3.907,-66.789 -3.105,-5.801 -35.839,-28.723 -33.398,-39.27 5.742,-24.621 32.734,-8.262 43.203,-1.972 81.172,32.98 124.551,46.082 196.406,84.449 24.453,12.39 51.7,24.293 79.922,36.051 -0.273,-25.09 -5.683,-58.489 -1.367,-71.399 4.238,-14.492 3.437,-71.75 7.852,-111.949 1.308,-21.192 -11.797,-184.024 11.796,-166.922 5.879,9.07 12.422,18.891 19.629,29.441 9.981,14.821 21.446,29.571 25.528,43.207 13.906,45.262 26.992,55.903 37.324,92.321 0.312,0.422 -1.328,48.691 -3.945,51.062 9.179,-8.109 0.175,68.809 0,80.52 0.136,43.398 5.175,86.359 9.824,97.418 11.347,4.801 22.558,9.633 33.398,14.519 24.805,8.313 48.457,18.961 71.602,30.114 -0.449,-37.77 -0.742,-77.481 -0.899,-118.481 0.801,-24.652 2.442,-71.289 3.926,-111.961 2.617,-21.512 2.617,-48.5 9.824,-60.871 4.239,-9.738 12.422,-8.918 23.555,-9.809 7.695,0.891 12.598,21.352 15.723,41.25 5.058,20.192 8.34,38.2 9.804,47.102 4.258,36.918 15.704,60.668 19.629,119.816 -3.886,42.813 21.035,108.391 6.211,134.891 12.871,5.43 25.821,10.34 38.985,14.352 6.523,2.031 10.918,4.23 13.75,6.55 -0.567,-89.359 7.519,-135.16 7.851,-214.722 -0.332,-28.059 0.488,-43.61 -3.926,-68.739 -3.769,-17.429 -10.312,-41.96 7.852,-49.101 7.187,12.871 8.848,20.223 15.703,35.351 8.672,15.149 16.055,20.891 21.621,39.29 32.871,-10.211 22.246,71.609 27.481,100.16 2.949,15.629 10.312,50.832 7.851,64.808 -7.344,61.293 9.004,103.852 9.824,161.043 -0.8,56.949 11.661,104.479 0.684,168.709 8.027,0.14 16.191,1.74 22.891,4.12 21.992,6.12 54.316,16.52 82.699,27.06 0.8,-61.38 3.43,-118.5 3.73,-188.12 3.75,-69.769 -0.36,-145.05 0,-168.89 -2.8,-52.281 7.83,-93.191 7.85,-151.211 -0.02,-12.367 17.17,-25.449 31.42,-13.738 16.02,12.84 5.39,34.937 7.84,54.988 0.82,14.313 16.36,21.68 21.62,37.289 10.29,23.66 11.11,55.594 11.77,84.461 -0.66,27.59 0.98,53.77 5.9,78.571 6.55,57.019 5.73,126.58 5.88,186.57 -0.12,23.03 12.31,79.37 10.39,116.38 2.31,0.46 4.67,0.93 7.29,1.45 37.79,7.13 126.99,63.58 157.13,82.48 33.71,21.2 52.52,23.66 82.48,49.1 15.06,10.56 -3.77,21.2 1.97,39.27 5.72,18.76 17.17,39.21 21.58,58.92 2.11,14.66 -9.31,17.12 -3.92,33.4 1.95,9.07 30.58,37.72 41.23,41.24"
         inkscape:connector-curvature="0"
         id="path54"
         style="fill:#3a5bb2;fill-opacity:1;fill-rule:nonzero;stroke:none" /><path
         d="m 344.375,313.93 137.715,0 0,-31.469 -88.399,-92.172 91.622,0 0,-33.84 -149.422,0 0,32.66 87.476,91.2 -78.992,0 0,33.621"
         inkscape:connector-curvature="0"
         id="path56"
         style="fill:#ffffff;fill-opacity:1;fill-rule:nonzero;stroke:none" /><path
         d="m 586.504,223.59 c -0.859,8.449 -3.137,14.5 -6.816,18.16 -3.692,3.648 -8.543,5.469 -14.559,5.469 -6.945,0 -12.5,-2.75 -16.652,-8.27 -2.649,-3.437 -4.336,-8.558 -5.047,-15.359 l 43.074,0 z m 44.473,-20.949 -87.657,0 c 0.789,-7.02 2.688,-12.243 5.696,-15.68 4.226,-4.941 9.734,-7.41 16.543,-7.41 4.296,0 8.379,1.07 12.246,3.219 2.363,1.359 4.898,3.761 7.625,7.199 l 43.078,-3.977 c -6.594,-11.461 -14.543,-19.672 -23.852,-24.652 -9.304,-4.981 -22.664,-7.469 -40.066,-7.469 -15.11,0 -27,2.141 -35.664,6.399 -8.66,4.261 -15.84,11.019 -21.543,20.289 -5.684,9.281 -8.535,20.183 -8.535,32.722 0,17.828 5.715,32.258 17.129,43.289 11.425,11.02 27.199,16.539 47.324,16.539 16.328,0 29.219,-2.468 38.672,-7.41 9.453,-4.937 16.648,-12.109 21.59,-21.48 4.945,-9.387 7.414,-21.598 7.414,-36.637 l 0,-4.941"
         inkscape:connector-curvature="0"
         id="path58"
         style="fill:#ffffff;fill-opacity:1;fill-rule:nonzero;stroke:none" /><path
         d="m 733.242,223.59 c -0.859,8.449 -3.137,14.5 -6.816,18.16 -3.692,3.648 -8.543,5.469 -14.563,5.469 -6.941,0 -12.5,-2.75 -16.648,-8.27 -2.649,-3.437 -4.336,-8.558 -5.047,-15.359 l 43.074,0 z m 44.473,-20.949 -87.656,0 c 0.793,-7.02 2.683,-12.243 5.695,-15.68 4.226,-4.941 9.734,-7.41 16.543,-7.41 4.297,0 8.379,1.07 12.246,3.219 2.359,1.359 4.898,3.761 7.625,7.199 l 43.074,-3.977 c -6.59,-11.461 -14.539,-19.672 -23.847,-24.652 -9.305,-4.981 -22.665,-7.469 -40.067,-7.469 -15.105,0 -27.004,2.141 -35.664,6.399 -8.66,4.261 -15.84,11.019 -21.543,20.289 -5.683,9.281 -8.535,20.183 -8.535,32.722 0,17.828 5.715,32.258 17.129,43.289 11.426,11.02 27.195,16.539 47.324,16.539 16.328,0 29.219,-2.468 38.672,-7.41 9.453,-4.937 16.648,-12.109 21.594,-21.48 4.937,-9.387 7.41,-21.598 7.41,-36.637 l 0,-4.941"
         inkscape:connector-curvature="0"
         id="path60"
         style="fill:#ffffff;fill-opacity:1;fill-rule:nonzero;stroke:none" /><path
         d="m 799.309,156.449 43.8281,0 0,157.48 -43.8281,0 0,-157.48 z"
         inkscape:connector-curvature="0"
         id="path62"
         style="fill:#ffffff;fill-opacity:1;fill-rule:nonzero;stroke:none" /><path
         d="m 948.84,210.59 c -6.02,-2.149 -12.285,-4.051 -18.801,-5.692 -8.879,-2.359 -14.504,-4.687 -16.863,-6.976 -2.434,-2.371 -3.656,-5.051 -3.656,-8.063 0,-3.437 1.203,-6.25 3.605,-8.437 2.395,-2.184 5.918,-3.274 10.574,-3.274 4.875,0 9.406,1.184 13.586,3.551 4.199,2.36 7.168,5.242 8.926,8.653 1.75,3.398 2.629,7.808 2.629,13.257 l 0,6.981 z m -37.922,22.992 -41.785,4.406 c 1.57,7.301 3.847,13.043 6.824,17.242 2.969,4.18 7.246,7.809 12.832,10.899 4.016,2.223 9.524,3.941 16.543,5.16 7.023,1.211 14.609,1.82 22.773,1.82 13.106,0 23.633,-0.73 31.583,-2.199 7.949,-1.469 14.57,-4.531 19.875,-9.18 3.718,-3.23 6.66,-7.789 8.804,-13.71 2.153,-5.891 3.227,-11.54 3.227,-16.911 l 0,-50.379 c 0,-5.371 0.34,-9.582 1.023,-12.628 0.676,-3.043 2.156,-6.922 4.453,-11.653 l -41.035,0 c -1.648,2.942 -2.722,5.172 -3.222,6.711 -0.5,1.539 -1.004,3.969 -1.504,7.262 -5.735,-5.524 -11.426,-9.461 -17.079,-11.82 -7.738,-3.153 -16.718,-4.731 -26.964,-4.731 -13.606,0 -23.938,3.16 -30.996,9.457 -7.051,6.301 -10.579,14.07 -10.579,23.313 0,8.66 2.539,15.789 7.629,21.371 5.086,5.59 14.461,9.738 28.145,12.468 16.394,3.29 27.031,5.59 31.902,6.918 4.875,1.332 10.031,3.071 15.473,5.211 0,5.379 -1.113,9.141 -3.332,11.282 -2.215,2.148 -6.121,3.23 -11.707,3.23 -7.16,0 -12.531,-1.152 -16.113,-3.441 -2.793,-1.789 -5.051,-5.16 -6.77,-10.098"
         inkscape:connector-curvature="0"
         id="path64"
         style="fill:#ffffff;fill-opacity:1;fill-rule:nonzero;stroke:none" /><path
         d="m 1017.8,270.531 40.72,0 0,-18.582 c 6.08,7.59 12.24,13.012 18.47,16.27 6.23,3.261 13.82,4.89 22.78,4.89 12.1,0 21.57,-3.597 28.41,-10.789 6.84,-7.211 10.26,-18.32 10.26,-33.359 l 0,-72.512 -43.94,0 0,62.742 c 0,7.149 -1.33,12.219 -3.97,15.2 -2.65,2.968 -6.38,4.449 -11.17,4.449 -5.31,0 -9.6,-2.008 -12.9,-6.008 -3.29,-4.012 -4.94,-11.211 -4.94,-21.594 l 0,-54.789 -43.72,0 0,114.082"
         inkscape:connector-curvature="0"
         id="path66"
         style="fill:#ffffff;fill-opacity:1;fill-rule:nonzero;stroke:none" /><path
         d="m 1240.81,213.82 c 0,8.95 -1.89,15.629 -5.69,20.02 -3.8,4.422 -8.6,6.621 -14.4,6.621 -5.09,0 -9.34,-2.121 -12.78,-6.34 -3.44,-4.23 -5.16,-11.32 -5.16,-21.269 0,-9.321 1.77,-16.133 5.33,-20.473 3.53,-4.34 7.93,-6.488 13.15,-6.488 5.59,0 10.24,2.168 13.96,6.55 3.73,4.36 5.59,11.489 5.59,21.379 z m 43.83,100.11 0,-157.481 -40.93,0 0,16.871 c -5.73,-7.172 -10.96,-11.988 -15.68,-14.5 -6.3,-3.3 -13.32,-4.949 -21.06,-4.949 -15.53,0 -27.41,5.91 -35.6,17.731 -8.21,11.808 -12.31,26.168 -12.31,43.07 0,18.91 4.53,33.367 13.6,43.398 9.05,10.032 20.56,15.039 34.53,15.039 6.8,0 12.98,-1.14 18.53,-3.437 5.55,-2.293 10.47,-5.731 14.77,-10.313 l 0,54.571 44.15,0"
         inkscape:connector-curvature="0"
         id="path68"
         style="fill:#ffffff;fill-opacity:1;fill-rule:nonzero;stroke:none" /></g></g></svg>