<?xml version="1.0" encoding="UTF-8" standalone="no"?>
<!-- Created with Inkscape (http://www.inkscape.org/) -->

<svg
   xmlns:dc="http://purl.org/dc/elements/1.1/"
   xmlns:cc="http://creativecommons.org/ns#"
   xmlns:rdf="http://www.w3.org/1999/02/22-rdf-syntax-ns#"
   xmlns:svg="http://www.w3.org/2000/svg"
   xmlns="http://www.w3.org/2000/svg"
   xmlns:sodipodi="http://sodipodi.sourceforge.net/DTD/sodipodi-0.dtd"
   xmlns:inkscape="http://www.inkscape.org/namespaces/inkscape"
   version="1.1"
   width="204.33749"
   height="408.625"
   id="svg2"
   xml:space="preserve"
   sodipodi:docname="hit_omm_logo_v.svg"
   inkscape:version="0.92.4 (unknown)"
   inkscape:export-filename="/home/martijn/git/hit-icons/plaatslogo/src/svg/hit_omm_logo_v.png"
   inkscape:export-xdpi="52.619999"
   inkscape:export-ydpi="52.619999"><sodipodi:namedview
     pagecolor="#ffffff"
     bordercolor="#666666"
     borderopacity="1"
     objecttolerance="10"
     gridtolerance="10"
     guidetolerance="10"
     inkscape:pageopacity="0"
     inkscape:pageshadow="2"
     inkscape:window-width="1920"
     inkscape:window-height="1056"
     id="namedview32"
     showgrid="false"
     inkscape:zoom="2"
     inkscape:cx="12.984496"
     inkscape:cy="228.02523"
     inkscape:window-x="0"
     inkscape:window-y="24"
     inkscape:window-maximized="1"
     inkscape:current-layer="g12" /><metadata
     id="metadata8"><rdf:RDF><cc:Work
         rdf:about=""><dc:format>image/svg+xml</dc:format><dc:type
           rdf:resource="http://purl.org/dc/dcmitype/StillImage" /><dc:title /></cc:Work></rdf:RDF></metadata><defs
     id="defs6" /><g
     transform="matrix(1.25,0,0,-1.25,0,408.625)"
     id="g10"><g
       transform="scale(0.1)"
       id="g12"><path
   d="m 36.25,3231.3404 h 1562.36 v -1562.35 l -1562.36,-0.03 z m 1598.5,36.17 H 0.078125 L 0,-1.529571 h 1634.63 l 0.12,3269.039971"
   inkscape:connector-curvature="0"
   id="path14"
   style="fill:#1c63b7;fill-opacity:1;fill-rule:nonzero;stroke:none" /><path
   d="m 36.8164,1671.05 h 1561.81 V 3232.87 H 36.8164 Z"
   inkscape:connector-curvature="0"
   id="path16"
   style="fill:#ffffff;fill-opacity:1;fill-rule:nonzero;stroke:none" /><path
   d="m 694.316,3096.26 c -12.656,-3.74 -54.289,-18.55 -58.586,-52.08 -0.21,-1.72 -0.339,-3.54 -0.339,-5.43 0,-0.94 0.117,-1.94 0.183,-2.91 -5.371,0.15 -10.32,0.31 -13.672,0.43 l -34.187,0.69 -12.332,-2.18 c -14.66,-2.38 -54.25,-8.85 -55.051,-49.52 -0.117,-2.71 -0.586,-13.43 -0.586,-13.43 0,-24.16 4.942,-50.54 13.914,-74.29 2.649,-7.09 6.684,-12.54 9.621,-16.53 0.039,-0.05 1.77,-2.54 2.285,-3.28 5.157,-20.29 13.758,-36.96 24.036,-51.68 -27.747,-3.32 -55.747,-7.85 -83.352,-16.13 l 5.574,1.03 c -15.066,-1.13 -29.5,-9.14 -44.136,-24.49 l -1.348,-1.42 -1.137,-1.61 c -4.89,-6.98 -8.433,-13.8 -10.777,-20.58 -57.031,-16.89 -103.988,-31.33 -142.082,-43.78 C 258.762,2708 191.895,2679.55 189.07,2678.34 l -1.824,-0.79 c 0,0 -0.391,-0.25 -0.508,-0.33 -0.488,-0.19 -0.996,-0.41 -0.996,-0.41 -51.133,-20.82 -61.863,-56.03 -61.863,-81.91 0,-40.65 31.551,-51.94 46.707,-57.36 3.43,-1.22 6.965,-2.49 8.789,-3.52 20.438,-11.18 40.066,-7.32 54.395,-4.5 l 9.699,1.69 c 7.027,0.86 14.754,3.14 22.461,5.56 7.09,-14.86 20.054,-28.59 40.418,-32.52 17.414,-3.4 29.023,-0.19 38.359,3.18 0.527,-5.23 1.594,-10.45 3.738,-15.52 3.606,-8.5 9.614,-16.29 17.075,-22.91 -12.336,-9.65 -29.844,-27.03 -29.844,-48.12 0,-1.9 0.144,-3.81 0.445,-5.77 -0.008,0.02 0.207,-1.44 0.207,-1.44 1.602,-11.26 5.86,-41.18 46.817,-57.96 15.75,-6.46 33.972,-8.28 54.406,-5.66 1.797,-6.17 4.5,-12 8.086,-17.28 -11.274,-5.57 -13.813,-7.49 -15.539,-8.89 l -0.578,-0.47 c -7.508,-6.4 -18.434,-16.42 -26.676,-29.28 -3.43,-5.12 -13.75,-22.33 -13.75,-41.93 0,-3.53 0.34,-7.15 1.109,-10.8 2.617,-12.27 9.652,-22.32 20.332,-29.06 14.895,-9.2 31.153,-10.16 43.703,-8.96 2.039,-13.2 11.719,-28.27 41.641,-37.04 l 1.902,-0.56 c 9.629,-2.93 22.602,-2.42 49.953,-0.1 l 10.996,0.85 c 3.313,0.11 8.868,0.94 15.352,2.1 0.012,-13.44 3.965,-25.39 11.484,-34.29 l 0.539,-0.62 c 16.942,-18.81 42.481,-23.91 52.665,-25.23 11.359,-1.58 25.847,3.26 53.933,14.7 l 6.875,2.74 c 1.367,0.55 4.777,1.55 8.789,2.66 1.086,-1.45 1.86,-2.99 3.203,-4.37 6.059,-6.24 16.899,-13.55 34.114,-12.95 15.703,0.41 42.199,6.31 45.168,6.97 l 1.582,0.36 1.519,0.56 c 32.735,11.79 140.676,50.91 155.09,58.66 l 0.547,0.3 c 11.953,6.04 107.72,36.59 148.62,49.64 l 29.41,9.42 c 43.08,13.56 82.65,44.18 94.06,56.06 l 0.41,0.45 c 9.55,10.42 15.77,24.7 18.5,42.46 0.31,1.89 0.45,3.77 0.45,5.62 0,9.34 -3.64,18.18 -8.5,26.55 22.4,10 44.27,19.76 44.89,20.05 8.04,2.97 28.68,12.2 37.32,31.27 2.01,4.48 2.92,8.85 3.19,13.13 23.9,6.13 50.26,12.89 50.26,12.89 0.02,0 0.82,0.2 0.82,0.2 15.16,3.59 55.39,13.13 92.89,31.71 35.04,16.96 41.78,37.06 41.78,54.01 0,2.3 -0.14,4.53 -0.31,6.7 l -0.14,1.54 -0.11,-1.96 c 0.15,1.26 0.23,2.54 0.23,3.82 0,17.57 -14.55,36.34 -27.89,46.15 -0.22,0.76 -0.37,1.29 -0.37,1.29 -8.46,10.19 -21.1,10.86 -27.17,11.17 l 0.68,-0.04 -7.46,1.21 c -9.63,2.03 -20.11,3.59 -42.54,3.1 -0.51,6.74 -1.57,13.23 -3.67,19.26 -13.27,39.8 -48.41,68.23 -89.42,72.11 -25.7,3.25 -45.6,2.09 -67,0.26 18.39,21.5 37.28,45.84 42.24,60.35 4.31,12.25 12.24,68.16 12.62,73.35 l 0.06,0.77 0.1,7.19 c 0,15.42 -1.55,25.9 -2.84,34.33 -0.09,0.86 -1.62,14.69 -1.77,16.06 -1.23,37.07 -7.42,70 -8.67,76.28 l -12.39,61.55 -37.05,-50.47 c -4.84,-6.69 -10.79,-14.69 -13.36,-17.93 -7.38,-5.66 -41.49,-29.28 -67.3,-45.44 -5.78,23.27 -19.57,43.74 -41.44,59.4 l -0.99,0.7 -1.03,0.62 c -27.5,16.07 -57.72,31.01 -92.39,31.48 -34.759,1.19 -67.103,-5.88 -96.165,-21.05 -17.657,-9.54 -30.723,-23.46 -42.247,-35.75 -7.246,-7.69 -13.945,-14.83 -21.074,-20.47 l 1.375,1.02 c -6.297,-4.34 -12.136,-8.95 -17.781,-13.61 -4.355,22.92 -9.434,48.6 -20.742,73.61 -13.723,29.36 -32.051,54.71 -57.715,80.02 -12.473,12.8 -35.344,22.64 -47.898,27.36 l -1.516,0.53 -7.832,2.64 -8.399,-2.47"
   inkscape:connector-curvature="0"
   id="path18"
   style="fill:#ffffff;fill-opacity:1;fill-rule:nonzero;stroke:none" /><path
   d="m 371.777,2427.67 c -1.496,9.32 10.828,22.78 23.504,31.74 13.071,8.95 33.977,18.27 46.684,22.75 12.676,4.13 21.64,7.11 28.726,9.36 41.079,14.18 133.657,46.64 137.383,48.12 4.106,1.9 214.262,70.57 232.192,74.32 17.527,3.73 92.937,37.3 100.808,44.04 5.196,4.48 157.876,22.02 177.676,12.31 19.38,-9.7 -6.35,-76.17 29.12,-66.45 35.04,9.69 144.43,26.88 163.84,-4.47 19.4,-31.37 3.76,-47.05 -10.06,-53.01 -13.45,-5.62 -267.65,-69.06 -267.65,-69.06 0,0 -362.105,-97.81 -375.914,-100.04 -10.82,-1.88 -85.469,-25.03 -113.856,-34.33 -7.835,-2.62 1.122,0.37 -13.792,-4.13 -19.059,-5.56 -15.692,-2.61 -24.286,-1.11 -19.035,3.73 -33.593,16.82 -35.097,34.71 -1.485,17.54 28.008,27.62 25.781,27.62 -2.234,0 -55.625,-27.26 -94.07,-11.59 -28.75,11.59 -29.504,29.51 -30.989,39.22"
   inkscape:connector-curvature="0"
   id="path20"
   style="fill:#ffffff;fill-opacity:1;fill-rule:nonzero;stroke:none" /><path
   d="m 505.129,2331.16 c 0,0 193.367,60.07 214.273,67.95 20.903,7.82 247.844,70.18 263.536,73.52 15.292,3.36 175.082,52.66 193.332,57.5 18.3,4.85 138.91,36.96 138.91,36.96 0,0 38.45,9.3 77.26,11.17 38.83,1.5 39.92,-2.98 54.12,-4.1 14.2,-0.75 5.59,-3.73 10.1,-5.24 4.1,-1.11 21.62,-19.02 20.53,-27.62 -1.15,-8.57 8.55,-23.14 -26.9,-40.29 -35.47,-17.58 -73.91,-26.52 -88.1,-29.88 -14.16,-3.34 -82.89,-21.26 -82.89,-21.26 0,0 16.84,-7.84 11.61,-19.42 -5.23,-11.57 -23.53,-17.91 -23.53,-17.91 l -86.97,-38.85 c 0,0 21.66,-6.33 24.63,-10.81 3,-4.49 10.82,-15.68 9.69,-22.75 -1.1,-7.13 -3.73,-19.82 -11.93,-28.77 -8.23,-8.57 -44.05,-36.95 -83.24,-49.29 -39.18,-12.67 -169.111,-53.36 -182.9,-61.21 -13.84,-7.44 -151.582,-57.09 -151.582,-57.09 0,0 -26.484,-5.98 -40.305,-6.35 -21.636,-0.74 -20.156,22.39 -20.156,22.39 0,0 -27.984,-6.73 -35.097,-9.72 -7.079,-2.61 -39.188,-16.79 -47.391,-15.64 -8.594,1.11 -26.145,5.2 -36.582,16.79 -10.086,11.94 -3.352,35.81 0.371,38.45 3.352,2.61 11.184,14.91 11.184,14.91 0,0 -49.258,-11.57 -59.348,-11.93 -9.688,-0.37 -43.672,-4.51 -52.266,-1.88 -8.562,2.63 -28.73,7.1 -25,22.76 3.731,16.08 13.809,28 24.641,32.48 10.816,4.51 -39.199,-13.79 -39.199,-13.79 0,0 -23.887,-8.6 -41.426,2.23 -17.191,10.84 -6.352,35.48 0.359,45.54 6.707,10.45 16.426,19.05 21.653,23.5 5.586,4.51 58.613,27.65 58.613,27.65"
   inkscape:connector-curvature="0"
   id="path22"
   style="fill:#1c63b7;fill-opacity:1;fill-rule:nonzero;stroke:none" /><path
   d="m 199.324,2654.27 c 0,0 68.293,29.1 101.145,39.93 75.398,24.64 168.359,51.52 198.972,60.48 29.106,8.95 119.075,36.21 195.227,59.34 60.488,18.3 112.727,33.98 118.34,35.46 13.055,2.98 274.352,85.13 282.962,75.05 8.58,-9.7 35.48,-33.98 33.97,-69.08 -1.5,-35.45 -66.44,-121.68 -77.65,-127.64 -11.57,-5.63 -204.927,-43.69 -204.927,-43.69 0,0 100.039,39.57 104.492,-1.51 4.141,-41.05 -77.636,-55.61 -81.738,-57.84 -4.094,-2.61 -162.375,-52.26 -281.074,-90.34 -78.789,-25.37 -129.539,-44.79 -134.402,-45.53 -12.676,-1.12 -34.7,-18.3 -56.743,-9.71 -14.918,5.95 -33.953,22.75 -25.378,43.66 8.593,21.31 26.894,25.39 26.894,25.39 0,0 -11.953,-4.08 -37.336,-8.6 -25.39,-4.1 -29.871,-13.78 -50.769,-9.69 -21.27,4.1 -26.895,29.49 -25.774,36.59 1.485,7.08 -29.844,-7.46 -45.164,-9.36 -15.676,-1.85 -32.48,-8.94 -48.152,-0.35 -15.285,8.6 -42.18,8.6 -42.18,38.07 0,45.55 45.93,56.77 49.285,59.37"
   inkscape:connector-curvature="0"
   id="path24"
   style="fill:#ed1c24;fill-opacity:1;fill-rule:nonzero;stroke:none" /><path
   d="m 1135.49,2858.72 c 0,0.02 -2.81,11.7 -2.81,11.7 -2.47,9.58 -5.49,21.47 -5.75,26.55 -2.4,21.25 -13.65,39.21 -33.44,53.38 -24.47,14.31 -50.95,27.56 -79.6,27.93 -30.355,1.11 -58.48,-4.96 -83.624,-18.1 -13.606,-7.35 -24.621,-19.09 -35.305,-30.47 -7.481,-7.96 -15.215,-16.2 -23.906,-23.07 -10.489,-7.24 -20.235,-15.73 -29.649,-23.91 l -16.648,-14.16 c -0.371,-0.1 -2.285,-0.94 -2.871,-0.66 l -0.371,0.66 c -3.403,12.79 -5.903,25.94 -8.325,38.66 -4.402,23.17 -8.945,47.12 -19.363,70.15 -12.297,26.34 -28.992,49.37 -52.558,72.53 -10.567,10.9 -37.469,20.79 -38.602,21.23 l -0.473,0.16 -0.465,-0.13 c -1.542,-0.47 -37.597,-11.25 -40.042,-30.31 -1.227,-9.65 6.339,-19.47 22.523,-29.16 -0.023,0 0.359,-0.32 0.711,-0.59 -4.473,-2.98 -41.453,-1.76 -63.899,-1 l -31.289,0.64 c -0.281,-0.05 -9.785,-1.73 -9.785,-1.73 -15.535,-2.53 -33.164,-5.35 -33.484,-24.38 -0.371,-4.16 -0.559,-8.41 -0.559,-12.81 0,-20.95 4.289,-44.02 12.239,-65.04 1.375,-3.7 3.82,-7.03 6.171,-10.21 2.325,-3.19 4.539,-6.19 5.774,-9.53 7.945,-34.79 28.633,-57.46 50.547,-81.49 0,0 0.254,-0.29 0.359,-0.41 -1.289,-0.11 -2.629,-0.25 -2.629,-0.25 -41.304,-3.87 -84.058,-7.87 -124.59,-20.04 -8.203,-0.63 -17.195,-6.02 -27.144,-16.45 -6.457,-9.2 -9.367,-16.94 -9.367,-24.59 -0.332,-2.22 -0.457,-4.48 -0.457,-6.75 0,-12.82 4.929,-25.96 15.281,-40.73 13.633,-21.46 28.762,-38.79 46.211,-52.95 22.129,-16.68 46.34,-28.3 78.523,-37.62 14.211,-4.39 25.813,3.76 37.071,11.65 5.363,3.76 10.949,7.3 16.73,9.76 -8.367,-15.02 -14.844,-33.49 -14.844,-51.4 0,-13.58 3.653,-26.72 12.989,-37.48 10.468,-11.29 25.476,-16.94 38.718,-21.34 7.844,-1.46 15.305,-1.3 23.203,-1.09 l 14.875,-0.09 c 16.543,1.03 33.672,9.89 43.829,22.57 29.414,43.6 44.218,90.04 44.218,138.36 0,5.59 -0.207,11.21 -0.605,16.82 0.215,0.47 1.648,3.67 1.648,3.67 0,0 0.571,1.21 1.114,2.37 1.875,-1.7 13.429,-12.11 13.429,-12.11 14.414,-11.28 15.078,-12.76 23.203,-30.69 l 16.368,-34.55 c 4.152,-8.1 6.085,-19.86 6.085,-34.16 0,-64.82 -39.933,-181.44 -96.195,-243.75 -12.488,-13.86 -18.648,-23.79 -18.648,-30.12 0,-1.62 0.386,-2.98 1.179,-4.15 6.602,-9.46 37.657,2.49 41.172,3.9 l 0.442,0.16 0.254,0.41 c 0.796,1.25 79.187,125.67 104.336,224.76 4.148,16.32 6.687,34.71 6.687,53.65 0,38.88 -10.691,80.14 -40.273,110.53 -0.325,0.26 -6.094,5.08 -6.094,5.08 -2.422,2.28 -5.195,4.79 -8.399,6.71 0.684,1.38 1.954,4.08 2.637,5.52 14.649,-3.85 28.164,-9.81 41.211,-15.65 15.691,-7.03 30.488,-13.65 47.305,-16.85 5.937,-1.46 10.129,-3.89 14.179,-6.26 6.133,-3.57 11.915,-6.91 22.754,-6.46 l 16.698,1.77 c 7.54,1.12 12.5,1.87 17.71,-0.52 1.86,-0.84 4.41,-0.41 7.74,1.41 14.41,7.85 40.68,40.05 42.87,55.37 0.08,0.86 0.08,1.88 0.08,2.97 0,13.05 -4.9,40.8 -19.66,52.17 -7.37,5.77 -22.61,13.49 -36.04,20.27 -10.69,5.39 -23.663,11.97 -26.03,14.6 39.48,21.44 75.07,4.94 75.43,4.78 37.02,-23.85 49.06,-31.59 53.31,-33.72 0.2,-0.13 0.08,-0.43 0.28,-0.54 0,0 0.18,0.24 0.23,0.29 1.64,-0.78 1.95,-0.57 2.25,-0.18 l 0.85,1.29 -1.71,1.12 c -1.35,0.86 1.38,6.6 3.78,11.66 5.61,11.83 14.08,29.68 10.3,50.44"
   inkscape:connector-curvature="0"
   id="path26"
   style="fill:#00a650;fill-opacity:1;fill-rule:nonzero;stroke:none" /><path
   d="m 1052.84,2788.71 v 0 0.019 0 z"
   inkscape:connector-curvature="0"
   id="path28"
   style="fill:#00a650;fill-opacity:1;fill-rule:nonzero;stroke:none" /><path
   d="m 1370.23,2615.19 c -10.12,30.38 -36.54,51.86 -67.32,54.73 -26.56,3.42 -45.86,1.7 -70.29,-0.45 l -16.58,-1.42 c -4.05,0 -22.02,-7.21 -47.01,-17.39 -5.91,-2.42 -11.58,-4.73 -16.38,-6.64 13.66,11.27 35.36,33.91 53.8,55.19 21.25,23.84 45.42,53.7 49.56,65.81 3.07,8.73 10.87,61.27 11.28,66.8 0.04,2.12 0.09,4.11 0.09,6.03 0,13.71 -1.38,22.83 -2.63,30.99 l -1.92,17.29 c -1.13,38.5 -8.19,73.05 -8.26,73.42 l -0.66,3.3 -2.01,-2.74 c -0.12,-0.17 -12.69,-17.54 -15.94,-21.16 -3.3,-3.3 -54.73,-38.95 -83.66,-56.06 -45.71,-27.31 -66.37,-62.68 -73.15,-74.3 l -1.61,-2.73 c -4.26,-6.97 -9.12,-17.78 -13.81,-28.22 -4.39,-9.76 -8.53,-18.99 -11.56,-23.64 -4.28,-6.31 -9.36,-20.34 -13.07,-30.62 -1.64,-4.54 -3.2,-8.84 -3.77,-9.73 -3.01,-3.2 -4.22,-9.79 -5.38,-16.13 -0.65,-3.64 -1.41,-7 -2.45,-9.52 -0.48,0.92 -1.01,2.05 -1.42,3.3 -0.13,0.49 -4.05,13.68 -28.853,59.61 -22.93,42.78 -26.446,42.48 -69.336,38.7 l -16.082,-1.34 c -47.375,-3.47 -82.493,-27.9 -101.329,-41.03 l -8.695,-5.86 c -9.742,-5.99 -28.855,-32.95 -50.933,-64.14 l -24.993,-34.9 3.329,0.33 c 5.863,0.69 11.32,-0.1 17.14,-0.96 6.055,-0.85 12.344,-1.6 19.031,-0.67 -0.371,-1.79 -0.789,-3.62 -0.789,-5.44 0,-9.1 4.754,-18.13 13.535,-25.08 10.958,-10.93 21.524,-17.42 35.215,-21.52 1.719,-0.07 2.727,-2.36 3.653,-4.62 1.047,-2.43 2.121,-4.98 4.148,-6.38 l 0.766,-0.54 1.004,0.49 c 1.711,0.95 2.441,4.93 3.593,43.35 0.204,7.66 0.442,15.57 0.645,16.55 8.262,26.13 28.652,42.76 55.82,45.52 10.059,1.08 38.965,-2.55 43.196,-23.8 0.117,-0.39 5.73,-12.95 9.058,-16.37 0.039,-0.16 9.426,-27.07 9.426,-27.07 5.769,-17.15 10.32,-30.68 20.449,-51.73 1.387,-2.5 1.524,-5.15 1.68,-7.9 l 0.437,-4.41 c 0.461,-2.23 0.676,-4.59 0.676,-7.04 0,-8.51 -2.656,-18.16 -7.617,-27.46 -4.07,-7.07 -12.742,-17.67 -19.141,-19.02 -16.562,-3.14 -20.769,-0.41 -30.937,6.23 l -9.434,5.9 c -6.863,4.02 -13.398,33.5 -15.351,44.51 2.297,22.48 5.527,61.33 1.726,64.4 -2.293,2.05 -6.668,-1.37 -33.191,-26.02 -16.094,-14.94 -36.113,-33.54 -52.637,-46.02 -23.586,-17.62 -35.305,-39.62 -43.879,-55.71 -3.719,-6.98 -6.93,-13.02 -10.074,-16.52 -4.465,-4.76 -2.758,-11.17 -1.125,-17.34 l 1.484,-6.3 c 2.891,-14.75 11.895,-25.85 20.586,-36.59 l 1.758,-2.18 c 5.879,-8.11 23.352,-29.32 23.516,-29.52 0.429,-0.39 29.758,-28.08 53.633,-7.65 33.632,10.88 49.609,21.11 50.234,21.55 11.973,5.92 25.058,11.96 31.504,14.39 -10.84,-10.5 -32.5,-38.89 -40.059,-61.96 -7.527,-23.68 -23.164,-61.54 -27.168,-69.6 l -4.101,-7.98 c -7.891,-15.54 -26.348,-51.93 -31.114,-56.99 -6.015,-6 -8.347,-10.13 -4.238,-16.06 0.859,-1.27 1.836,-1.93 2.981,-2.04 2.019,-0.17 3.726,1.52 5.867,3.63 2.031,2.01 4.551,4.51 7.949,6.12 4.844,2.53 31.309,27.06 59.297,53.02 22.344,20.71 45.437,42.13 52.949,47.93 15.449,12.03 27.149,23.75 41.934,38.57 l 4.14,4.12 c 0,0 38.707,39.36 44.697,45.43 4.78,-3 29.4,-18.06 48.6,-24.16 13.89,-2.73 30.28,-4.82 47.51,0 30.74,9.09 77.33,43.13 111.01,70.06 l 1.95,1.58 -2.26,0.97 c -6.24,2.69 -13.39,0.34 -22.44,-2.61 -11.25,-3.65 -25.27,-8.22 -43.61,-5.12 -26.55,3.89 -36.13,7.68 -43.11,10.47 l -4.83,1.8 c -0.03,0 -2.87,0.9 -2.87,0.9 -17.91,5.55 -36.43,11.36 -47.13,26.88 -0.09,0.27 -0.13,0.54 -0.13,0.86 0,1.23 0.52,3 1.09,4.96 l 1.13,4.66 c 2.44,9.22 9.48,15.49 16.25,21.53 l 6.11,5.67 c 12.55,15.25 24.39,25.08 37.27,31.06 10.71,5.49 27.48,12.35 46.92,14.07 l 11.69,0.11 c 12.74,0.18 24.76,0.36 37.23,-1.62 9.34,-1.23 11.82,-11.11 14.2,-20.66 l 0.64,-2.5 c 0.32,-6.31 -1.03,-14.26 -3.71,-21.5 -2.32,-2.01 -29.88,-4.85 -46.3,-6.57 -22.89,-2.34 -22.91,-2.43 -23.27,-4 l -0.13,-0.59 0.43,-0.63 c 6.44,-9.88 27.75,-14.25 39.89,-15.96 34.04,-4.77 80.42,-1.59 95.99,11.93 20.39,18.71 35.48,38.88 43.71,58.4 9.45,25.09 11.54,44.45 6.34,59.31"
   inkscape:connector-curvature="0"
   id="path30"
   style="fill:#fddd04;fill-opacity:1;fill-rule:nonzero;stroke:none" /><path
   d="m 496.836,2400.04 c -2.207,-0.06 -55.762,-27.37 -94.043,-11.67 -28.723,11.78 -29.617,29.56 -31.094,39.18 -0.976,6.44 4.199,14.7 11.594,22.16 -11.984,-9.01 -22.707,-21.57 -21.313,-30.63 1.465,-9.59 2.368,-27.39 31.086,-39.16 29.422,-12.05 67.872,1.25 85.079,8.12 8.132,7.84 20.125,12.05 18.691,12"
   inkscape:connector-curvature="0"
   id="path32"
   style="fill:#231f20;fill-opacity:1;fill-rule:nonzero;stroke:none" /><path
   d="m 536.895,2341.08 c -9.832,-2.28 -24.266,-4.48 -30.782,-3.25 -19.011,3.57 -33.515,16.66 -35.05,34.65 -0.411,4.8 1.503,9.01 4.406,12.63 -7.199,-4.68 -14.903,-11.81 -14.121,-21.09 1.511,-17.98 16.035,-31.06 35.047,-34.63 1.203,-0.23 2.16,-0.49 2.98,-0.73 3.535,1.54 5.754,2.5 5.754,2.5 0,0 12.637,3.95 31.766,9.92"
   inkscape:connector-curvature="0"
   id="path34"
   style="fill:#231f20;fill-opacity:1;fill-rule:nonzero;stroke:none" /><path
   d="m 150.957,1929.46 58.965,3.68 c 1.277,-9.56 3.879,-16.85 7.793,-21.87 6.387,-8.12 15.508,-12.18 27.375,-12.18 8.836,0 15.664,2.07 20.445,6.23 4.785,4.14 7.18,8.95 7.18,14.42 0,5.2 -2.277,9.85 -6.836,13.96 -4.563,4.11 -15.149,7.98 -31.738,11.63 -27.188,6.11 -46.563,14.24 -58.157,24.35 -11.668,10.12 -17.507,23.03 -17.507,38.72 0,10.31 2.988,20.03 8.964,29.21 5.965,9.16 14.961,16.37 26.954,21.62 11.992,5.24 28.425,7.87 49.316,7.87 25.637,0 45.176,-4.78 58.625,-14.3 13.453,-9.54 21.465,-24.7 24.012,-45.5 l -58.418,-3.42 c -1.551,9.03 -4.817,15.61 -9.785,19.71 -4.969,4.1 -11.836,6.15 -20.586,6.15 -7.207,0 -12.637,-1.52 -16.282,-4.59 -3.648,-3.04 -5.476,-6.77 -5.476,-11.15 0,-3.18 1.512,-6.05 4.519,-8.61 2.922,-2.64 9.856,-5.11 20.793,-7.39 27.09,-5.84 46.492,-11.74 58.211,-17.71 11.723,-5.98 20.254,-13.4 25.586,-22.23 5.332,-8.85 8.012,-18.75 8.012,-29.69 0,-12.87 -3.567,-24.72 -10.676,-35.57 -7.117,-10.86 -17.058,-19.08 -29.824,-24.7 -12.774,-5.61 -28.867,-8.41 -48.301,-8.41 -34.109,0 -57.734,6.57 -70.859,19.69 -13.133,13.15 -20.574,29.83 -22.305,50.08"
   inkscape:connector-curvature="0"
   id="path36"
   style="fill:#ed1c24;fill-opacity:1;fill-rule:nonzero;stroke:none" /><path
   d="m 468.77,1920.03 52.949,-6.02 c -2.918,-11.04 -7.703,-20.6 -14.364,-28.67 -6.664,-8.07 -15.167,-14.35 -25.519,-18.81 -10.352,-4.47 -23.516,-6.71 -39.473,-6.71 -15.41,0 -28.254,1.44 -38.508,4.31 -10.261,2.87 -19.089,7.52 -26.472,13.94 -7.395,6.43 -13.184,13.96 -17.371,22.62 -4.199,8.65 -6.301,20.15 -6.301,34.45 0,14.94 2.551,27.39 7.668,37.32 3.726,7.28 8.836,13.82 15.32,19.61 6.477,5.79 13.137,10.09 19.973,12.91 10.848,4.47 24.766,6.71 41.726,6.71 23.711,0 41.797,-4.24 54.247,-12.73 12.453,-8.47 21.183,-20.9 26.203,-37.21 l -52.403,-6.99 c -1.64,6.21 -4.629,10.88 -8.965,14.03 -4.335,3.14 -10.144,4.72 -17.441,4.72 -9.211,0 -16.672,-3.3 -22.371,-9.9 -5.695,-6.6 -8.547,-16.59 -8.547,-29.97 0,-11.92 2.82,-21 8.484,-27.18 5.649,-6.2 12.856,-9.29 21.614,-9.29 7.297,0 13.426,1.87 18.398,5.61 4.973,3.74 8.692,9.49 11.153,17.25"
   inkscape:connector-curvature="0"
   id="path38"
   style="fill:#ed1c24;fill-opacity:1;fill-rule:nonzero;stroke:none" /><path
   d="m 596.277,1935.49 c 0,-12.95 2.618,-22.53 7.864,-28.74 5.246,-6.21 11.836,-9.3 19.777,-9.3 8.016,0 14.605,3.05 19.766,9.16 5.156,6.11 7.734,15.93 7.734,29.42 0,12.58 -2.609,21.96 -7.805,28.11 -5.195,6.17 -11.621,9.24 -19.289,9.24 -8.113,0 -14.82,-3.13 -20.113,-9.38 -5.285,-6.24 -7.934,-15.76 -7.934,-28.51 z m -55.816,-0.14 c 0,22.16 7.469,40.42 22.437,54.78 14.954,14.38 35.161,21.56 60.61,21.56 29.09,0 51.07,-8.45 65.933,-25.33 11.954,-13.57 17.93,-30.32 17.93,-50.19 0,-22.35 -7.41,-40.67 -22.234,-54.93 -14.824,-14.28 -35.324,-21.42 -61.492,-21.42 -23.352,0 -42.239,5.93 -56.641,17.78 -17.695,14.69 -26.543,33.94 -26.543,57.75"
   inkscape:connector-curvature="0"
   id="path40"
   style="fill:#ed1c24;fill-opacity:1;fill-rule:nonzero;stroke:none" /><path
   d="m 887.285,1863.1 h -51.992 v 23.55 c -7.754,-9.67 -15.586,-16.57 -23.469,-20.68 -7.886,-4.09 -17.578,-6.15 -29.07,-6.15 -15.32,0 -27.344,4.58 -36.055,13.75 -8.711,9.17 -13.066,23.28 -13.066,42.34 v 92.49 h 55.957 v -79.91 c 0,-9.11 1.687,-15.59 5.058,-19.41 3.379,-3.84 8.125,-5.75 14.231,-5.75 6.656,0 12.117,2.56 16.355,7.65 4.239,5.12 6.368,14.29 6.368,27.51 v 69.91 h 55.683 v -145.3"
   inkscape:connector-curvature="0"
   id="path42"
   style="fill:#ed1c24;fill-opacity:1;fill-rule:nonzero;stroke:none" /><path
   d="m 988.242,2063.67 v -55.27 h 30.648 v -40.77 h -30.648 v -51.48 c 0,-6.18 0.598,-10.28 1.778,-12.29 1.828,-3.09 5.019,-4.63 9.582,-4.63 4.098,0 9.838,1.19 17.238,3.54 l 4.1,-38.43 c -13.77,-3.01 -26.631,-4.52 -38.577,-4.52 -13.867,0 -24.082,1.78 -30.644,5.32 -6.582,3.56 -11.426,8.96 -14.578,16.19 -3.137,7.25 -4.719,18.98 -4.719,35.2 v 51.1 h -20.52 v 40.77 h 20.52 v 26.68 l 55.82,28.59"
   inkscape:connector-curvature="0"
   id="path44"
   style="fill:#ed1c24;fill-opacity:1;fill-rule:nonzero;stroke:none" /><path
   d="m 1047.48,2008.4 h 55.68 v -145.3 h -55.68 z m 0,55.27 h 55.68 v -37.89 h -55.68 v 37.89"
   inkscape:connector-curvature="0"
   id="path46"
   style="fill:#ed1c24;fill-opacity:1;fill-rule:nonzero;stroke:none" /><path
   d="m 1138.73,2008.4 h 51.86 v -23.67 c 7.74,9.66 15.59,16.58 23.52,20.74 7.94,4.14 17.61,6.22 29.02,6.22 15.41,0 27.47,-4.59 36.17,-13.76 8.73,-9.16 13.08,-23.32 13.08,-42.48 v -92.35 h -55.96 v 79.9 c 0,9.13 -1.69,15.58 -5.06,19.36 -3.37,3.79 -8.12,5.68 -14.23,5.68 -6.76,0 -12.23,-2.55 -16.42,-7.66 -4.2,-5.11 -6.3,-14.28 -6.3,-27.49 v -69.79 h -55.68 v 145.3"
   inkscape:connector-curvature="0"
   id="path48"
   style="fill:#ed1c24;fill-opacity:1;fill-rule:nonzero;stroke:none" /><path
   d="m 1374.32,1937.95 c 0,-10.49 2.24,-18.28 6.71,-23.33 4.46,-5.06 10.35,-7.6 17.64,-7.6 6.94,0 12.76,2.62 17.44,7.88 4.71,5.23 7.05,13.14 7.05,23.73 0,10.58 -2.46,18.67 -7.38,24.28 -4.94,5.61 -10.96,8.42 -18.07,8.42 -7.1,0 -12.78,-2.58 -17.03,-7.74 -4.23,-5.16 -6.36,-13.7 -6.36,-25.64 z m 52.4,70.45 h 52.13 v -137.22 l 0.13,-6.43 c 0,-9.12 -1.95,-17.81 -5.82,-26.07 -3.86,-8.25 -9.02,-14.92 -15.45,-20.04 -6.44,-5.11 -14.58,-8.8 -24.49,-11.07 -9.9,-2.29 -21.23,-3.43 -34,-3.43 -29.18,0 -49.22,4.38 -60.12,13.13 -10.91,8.76 -16.36,20.49 -16.36,35.16 0,1.83 0.09,4.3 0.28,7.39 l 54.04,-6.15 c 1.37,-5.02 3.47,-8.49 6.3,-10.4 4.1,-2.83 9.25,-4.25 15.45,-4.25 8.03,0 14.02,2.15 17.99,6.44 3.98,4.28 5.95,11.76 5.95,22.44 v 22.03 c -5.46,-6.49 -10.93,-11.17 -16.42,-14.1 -8.56,-4.55 -17.82,-6.84 -27.78,-6.84 -19.41,0 -35.09,8.48 -47.05,25.44 -8.48,12.04 -12.72,27.95 -12.72,47.75 0,22.62 5.47,39.86 16.42,51.72 10.93,11.85 25.26,17.79 42.95,17.79 11.3,0 20.64,-1.93 27.98,-5.76 7.35,-3.82 14.2,-10.17 20.59,-19.01 v 21.48"
   inkscape:connector-curvature="0"
   id="path50"
   style="fill:#ed1c24;fill-opacity:1;fill-rule:nonzero;stroke:none" /><path
   d="m 952.688,1219.47 c 3.906,-17.08 -6.411,-27.29 -15.508,-37.98 -0.762,2.09 -1.504,4.21 -2.168,6.55 -4.153,11.66 -6.621,29.18 -11.821,44.73 12.485,0.57 25.957,0.74 29.497,-13.3 z m -90.11,-268.161 c 0.625,-13.887 1.16,-27.899 1.477,-42.02 -8.703,13.133 -24.883,27.941 -1.477,42.02 z M 1479,1500.32 c -4.92,25.12 -42.54,32.5 -55,29.44 -18.65,-7.58 -42.37,-32.14 -64.79,-37.29 -56.13,-15.31 -119.96,-34.95 -168.9,-54.99 -61.53,-25.77 -118,-41.32 -174.78,-66.78 -49.585,-19.55 -96.245,-14.65 -111.944,-41.25 -7.285,-15.72 -4.902,-43.76 -3.984,-65.63 -7.122,3.05 -15.981,3.8 -27.446,0.83 -28.152,-5.97 -6.875,-91.08 -7.84,-106.05 -10.421,-53.07 -6.281,-116.74 -2.851,-184.51 -6.297,6.012 -13.203,12.691 -14.844,19.539 -7.527,29.381 3.106,54.761 3.938,78.541 0.269,9.7 -7.012,11.75 -17.207,10.07 -4.055,22.34 -13.137,51.85 -8.325,76.36 5.063,42.79 -8.855,95.99 -1.961,135.5 2.122,24.31 3.75,44.77 -1.972,66.79 -30.274,-0.76 -15.547,-23.66 -23.574,-43.23 -9.981,-27.06 -16.524,-44.25 -31.407,-64.8 -7.207,-11.36 -17.031,-15.46 -25.547,-29.45 -17.675,-26.1 1.961,-41.65 -1.953,-76.59 -4.043,-20.57 -7.129,-57.9 -9.472,-107.39 -29.832,-11.5 -62.5,-23.36 -90.684,-32.07 -2.695,-0.76 -5.293,-1.58 -7.937,-2.39 -0.5,5.93 -1.106,11.96 -1.887,18.11 -7.207,46.58 -8.028,238.87 -21.602,259.24 -7.695,-7.28 -19.16,-12.19 -23.574,-21.61 -7.859,-11.85 6.875,-44.58 -7.852,-43.19 -15.554,2.69 -14.726,-9.57 -23.562,-13.75 -10.813,-3.2 -23.078,-8.1 -29.465,-19.64 -9.172,-17.92 2.285,-40.83 1.973,-64.8 0.254,-43.52 4.453,-123.068 -0.313,-156.049 -37.492,-17.441 -73.133,-35.801 -111.64,-52.14 -40.75,-17.422 -80.84,-36.25 -119.805,-51.071 -20.781,-10.55 -42.207,-21.179 -68.73,-35.34 -0.333,0.258 7.031,-18.57 7.851,-27.5 -31.914,-13.98 -9.824,-50.82 -1.973,-70.691 -22.578,-18.57 9.336,-33.297 -3.906,-66.789 -3.113,-5.801 -35.847,-28.719 -33.398,-39.262 5.73,-24.617 32.734,-8.269 43.203,-1.976 81.172,32.976 124.543,46.09 196.406,84.457 24.453,12.383 51.692,24.281 79.922,36.043 -0.273,-25.09 -5.703,-58.492 -1.367,-71.403 4.238,-14.48 3.429,-71.738 7.851,-111.949 1.309,-21.191 -11.797,-184.019 11.786,-166.922 5.89,9.071 12.433,18.891 19.64,29.442 9.973,14.82 21.426,29.57 25.527,43.211 13.907,45.269 26.993,55.898 37.317,92.32 0.32,0.418 -1.32,48.687 -3.938,51.059 9.168,-8.098 0.164,68.812 0,80.519 0.137,43.41 5.164,86.359 9.817,97.422 11.344,4.809 22.566,9.629 33.406,14.519 24.805,8.309 48.457,18.961 71.594,30.11 -0.442,-37.77 -0.735,-77.481 -0.891,-118.481 0.801,-24.64 2.442,-71.277 3.926,-111.961 2.605,-21.507 2.605,-48.488 9.824,-60.867 4.238,-9.73 12.422,-8.91 23.555,-9.812 7.695,0.902 12.59,21.363 15.715,41.25 5.066,20.191 8.34,38.203 9.812,47.109 4.258,36.91 15.703,60.66 19.629,119.813 -3.887,42.808 21.047,108.39 6.192,134.89 12.878,5.438 25.839,10.348 38.996,14.348 6.531,2.031 10.918,4.23 13.75,6.551 -0.571,-89.348 7.515,-135.149 7.847,-214.711 -0.332,-28.071 0.489,-43.617 -3.926,-68.739 -3.765,-17.441 -10.308,-41.968 7.856,-49.101 7.184,12.871 8.848,20.211 15.711,35.351 8.664,15.141 16.047,20.879 21.609,39.282 32.883,-10.211 22.246,71.609 27.492,100.16 2.942,15.629 10.301,50.828 7.84,64.808 -7.343,61.29 9.016,103.852 9.836,161.04 -0.808,56.95 11.66,104.48 0.672,168.71 8.027,0.15 16.203,1.74 22.895,4.12 21.989,6.12 54.319,16.52 82.689,27.06 0.8,-61.38 3.45,-118.5 3.73,-188.109 3.75,-69.781 -0.35,-145.063 0,-168.903 -2.79,-52.277 7.84,-93.179 7.86,-151.207 -0.02,-12.359 17.16,-25.449 31.42,-13.742 16.02,12.84 5.39,34.942 7.84,54.992 0.82,14.309 16.36,21.68 21.61,37.289 10.31,23.668 11.12,55.59 11.78,84.469 -0.66,27.582 0.98,53.77 5.9,78.563 6.54,57.027 5.72,126.578 5.88,186.568 -0.12,23.03 12.3,79.37 10.39,116.38 2.3,0.46 4.67,0.93 7.3,1.45 37.78,7.13 126.98,63.58 157.11,82.49 33.72,21.2 52.52,23.65 82.48,49.09 15.05,10.56 -3.77,21.2 1.97,39.27 5.72,18.76 17.17,39.22 21.58,58.92 2.13,14.66 -9.32,17.12 -3.91,33.4 1.96,9.07 30.59,37.73 41.23,41.24"
   inkscape:connector-curvature="0"
   id="path52"
   style="fill:#231f20;fill-opacity:1;fill-rule:nonzero;stroke:none" /><path
   d="m 915.93,1256.23 c 3.906,-17.08 -6.41,-27.29 -15.508,-37.98 -0.766,2.09 -1.504,4.21 -2.168,6.55 -4.152,11.66 -6.621,29.18 -11.816,44.73 12.48,0.56 25.957,0.74 29.492,-13.3 z M 825.82,988.059 c 0.625,-13.879 1.16,-27.887 1.477,-42.008 -8.703,13.129 -24.875,27.937 -1.477,42.008 z m 616.43,549.021 c -4.93,25.11 -42.54,32.5 -54.99,29.44 -18.66,-7.58 -42.39,-32.14 -64.8,-37.29 -56.14,-15.31 -119.97,-34.96 -168.91,-54.99 -61.53,-25.78 -117.99,-41.32 -174.78,-66.78 -49.582,-19.55 -96.243,-14.65 -111.946,-41.25 -7.281,-15.72 -4.898,-43.77 -3.98,-65.64 -7.121,3.06 -15.981,3.8 -27.446,0.83 -28.152,-5.96 -6.875,-91.07 -7.839,-106.04 -10.43,-53.07 -6.282,-116.75 -2.852,-184.51 -6.301,6.01 -13.203,12.69 -14.844,19.54 -7.527,29.38 3.106,54.75 3.938,78.54 0.262,9.7 -7.004,11.75 -17.219,10.07 -4.043,22.33 -13.125,51.85 -8.312,76.36 5.07,42.79 -8.844,95.98 -1.961,135.5 2.109,24.3 3.75,44.77 -1.973,66.78 -30.273,-0.75 -15.547,-23.65 -23.574,-43.22 -9.981,-27.06 -16.524,-44.25 -31.407,-64.8 -7.207,-11.36 -17.031,-15.46 -25.539,-29.45 -17.683,-26.1 1.965,-41.65 -1.961,-76.59 -4.035,-20.58 -7.128,-57.9 -9.472,-107.39 -29.832,-11.51 -62.5,-23.36 -90.684,-32.07 -2.695,-0.76 -5.293,-1.58 -7.937,-2.39 -0.5,5.92 -1.106,11.96 -1.887,18.11 -7.207,46.58 -8.027,238.87 -21.602,259.24 -7.695,-7.29 -19.16,-12.19 -23.574,-21.61 -7.859,-11.85 6.875,-44.58 -7.851,-43.2 -15.547,2.7 -14.727,-9.57 -23.567,-13.75 -10.808,-3.19 -23.074,-8.1 -29.461,-19.63 -9.172,-17.92 2.285,-40.83 1.973,-64.8 0.254,-43.52 4.453,-123.08 -0.313,-156.05 C 449.988,982.59 414.348,964.238 375.84,947.898 335.09,930.48 295,911.648 256.035,896.82 c -20.781,-10.539 -42.195,-21.172 -68.73,-35.332 -0.332,0.262 7.031,-18.566 7.851,-27.5 -31.914,-13.976 -9.824,-50.816 -1.972,-70.687 -22.579,-18.582 9.336,-33.301 -3.907,-66.789 -3.117,-5.801 -35.847,-28.723 -33.398,-39.27 5.73,-24.621 32.734,-8.262 43.203,-1.972 81.172,32.98 124.539,46.082 196.406,84.449 24.453,12.39 51.692,24.293 79.922,36.051 -0.273,-25.09 -5.691,-58.489 -1.367,-71.399 4.238,-14.492 3.43,-71.75 7.852,-111.949 1.308,-21.192 -11.797,-184.024 11.789,-166.922 5.886,9.07 12.429,18.891 19.636,29.441 9.981,14.821 21.438,29.571 25.528,43.207 13.906,45.262 26.992,55.903 37.312,92.321 0.324,0.422 -1.316,48.691 -3.933,51.062 9.168,-8.109 0.168,68.809 0,80.52 0.136,43.398 5.168,86.359 9.816,97.418 11.348,4.801 22.566,9.633 33.406,14.519 24.805,8.313 48.457,18.961 71.594,30.114 -0.441,-37.77 -0.734,-77.481 -0.891,-118.481 0.801,-24.652 2.442,-71.289 3.926,-111.961 2.61,-21.512 2.61,-48.5 9.824,-60.871 4.239,-9.738 12.422,-8.918 23.555,-9.809 7.695,0.891 12.59,21.352 15.715,41.25 5.066,20.192 8.34,38.2 9.812,47.102 4.258,36.918 15.704,60.668 19.629,119.816 -3.886,42.813 21.035,108.391 6.2,134.891 12.875,5.43 25.832,10.34 38.988,14.352 6.531,2.031 10.918,4.23 13.75,6.55 -0.571,-89.359 7.515,-135.16 7.847,-214.722 -0.332,-28.059 0.493,-43.61 -3.921,-68.739 -3.774,-17.429 -10.317,-41.96 7.847,-49.101 7.192,12.871 8.852,20.223 15.715,35.351 8.672,15.149 16.047,20.891 21.609,39.29 32.883,-10.211 22.247,71.609 27.493,100.16 2.937,15.629 10.3,50.832 7.851,64.808 -7.351,61.293 9.004,103.852 9.824,161.043 -0.808,56.949 11.661,104.479 0.672,168.709 8.032,0.14 16.203,1.74 22.895,4.12 21.988,6.12 54.312,16.52 82.697,27.06 0.8,-61.38 3.44,-118.5 3.73,-188.12 3.75,-69.769 -0.35,-145.05 0,-168.89 -2.8,-52.281 7.83,-93.191 7.85,-151.211 -0.02,-12.367 17.17,-25.449 31.42,-13.738 16.02,12.84 5.39,34.937 7.85,54.988 0.82,14.313 16.35,21.68 21.61,37.289 10.3,23.66 11.11,55.594 11.77,84.461 -0.66,27.59 0.98,53.77 5.9,78.571 6.55,57.019 5.73,126.58 5.88,186.57 -0.12,23.03 12.31,79.37 10.39,116.38 2.31,0.46 4.67,0.93 7.3,1.45 37.78,7.13 126.98,63.58 157.12,82.48 33.71,21.2 52.52,23.66 82.48,49.1 15.06,10.56 -3.77,21.2 1.97,39.27 5.72,18.76 17.17,39.21 21.59,58.92 2.11,14.66 -9.32,17.12 -3.92,33.4 1.95,9.07 30.58,37.72 41.23,41.24"
   inkscape:connector-curvature="0"
   id="path54"
   style="fill:#009036;fill-opacity:1;fill-rule:nonzero;stroke:none" /><text
   xml:space="preserve"
   style="font-style:normal;font-variant:normal;font-weight:normal;font-stretch:normal;font-size:224px;line-height:125%;font-family:'Arial Black';-inkscape-font-specification:'Arial Black, Normal';font-variant-ligatures:normal;font-variant-caps:normal;font-variant-numeric:normal;font-feature-settings:normal;text-align:start;letter-spacing:0px;word-spacing:0px;writing-mode:lr-tb;text-anchor:start;fill:#ffffff;fill-opacity:1;stroke:none;stroke-width:8px;stroke-linecap:butt;stroke-linejoin:miter;stroke-opacity:1"
   x="351.92969"
   y="-156.4066"
   id="text4792"
   transform="scale(1,-1)"><tspan
     sodipodi:role="line"
     id="tspan4790"
     x="351.92969"
     y="-156.4066"
     style="font-style:normal;font-variant:normal;font-weight:normal;font-stretch:normal;font-size:224px;font-family:'Arial Black';-inkscape-font-specification:'Arial Black, Normal';font-variant-ligatures:normal;font-variant-caps:normal;font-variant-numeric:normal;font-feature-settings:normal;text-align:start;writing-mode:lr-tb;text-anchor:start;fill:#ffffff;fill-opacity:1;stroke-width:8px">Ommen</tspan></text>

</g></g></svg>